<?xml version="1.0" encoding="utf-8"?>
<!-- Generator: Adobe Illustrator 24.3.0, SVG Export Plug-In . SVG Version: 6.00 Build 0)  -->
<svg version="1.1" id="Layer_1" xmlns="http://www.w3.org/2000/svg" xmlns:xlink="http://www.w3.org/1999/xlink" x="0px" y="0px"
	 viewBox="0 0 55.2 54.1" style="enable-background:new 0 0 55.2 54.1;" xml:space="preserve">
<style type="text/css">
	.st0{fill:#F8B62D;}
	.st1{fill:#231815;}
	.st2{fill:none;}
</style>
<g id="图层_1">
	<circle class="st0" cx="27.5" cy="27.6" r="13.6"/>
	<path class="st1" d="M39.9,27.6c0,5.1-3.2,9.9-8.1,11.6c-5,1.8-10.5,0.3-13.9-3.8c-3.3-4-3.7-9.8-1-14.2s8-6.8,13-5.8
		C35.7,16.7,39.8,21.7,39.9,27.6c0,1.5,2.4,1.5,2.4,0c-0.1-6.2-3.9-11.7-9.8-13.9c-5.8-2.1-12.6-0.2-16.4,4.5s-4.4,11.6-1.3,16.9
		c3.2,5.3,9.5,8.1,15.6,6.9c6.8-1.4,11.8-7.6,11.8-14.5C42.3,26.1,39.9,26.1,39.9,27.6z"/>
	<path class="st1" d="M28.7,8.6V3.5c0-1.5-2.4-1.5-2.4,0v5.1C26.3,10.2,28.7,10.2,28.7,8.6z"/>
	<line class="st2" x1="18" y1="11.2" x2="15.5" y2="6.7"/>
	<path class="st1" d="M19,10.6l-2.6-4.4c-0.8-1.3-2.8-0.1-2.1,1.2l2.6,4.4C17.7,13.1,19.8,11.9,19,10.6z"/>
	<line class="st2" x1="11.1" y1="18.1" x2="6.6" y2="15.6"/>
	<path class="st1" d="M11.7,17.1l-4.4-2.6c-1.3-0.8-2.6,1.3-1.2,2.1l4.4,2.6C11.8,19.9,13,17.9,11.7,17.1z"/>
	<line class="st2" x1="8.5" y1="27.6" x2="3.4" y2="27.6"/>
	<path class="st1" d="M8.5,26.4H3.4c-1.5,0-1.5,2.4,0,2.4h5.1C10.1,28.8,10.1,26.4,8.5,26.4z"/>
	<line class="st2" x1="11.1" y1="37.1" x2="6.6" y2="39.7"/>
	<path class="st1" d="M10.5,36.1L6,38.6c-1.3,0.8-0.1,2.8,1.2,2.1l4.4-2.6C13,37.4,11.8,35.3,10.5,36.1z"/>
	<line class="st2" x1="18" y1="44" x2="15.5" y2="48.5"/>
	<path class="st1" d="M17,43.4l-2.6,4.4c-0.8,1.3,1.3,2.6,2.1,1.2l2.6-4.4C19.8,43.3,17.8,42.1,17,43.4z"/>
	<line class="st2" x1="27.5" y1="46.6" x2="27.5" y2="51.7"/>
	<path class="st1" d="M26.3,46.6v5.1c0,1.5,2.4,1.5,2.4,0v-5.1C28.7,45,26.3,45,26.3,46.6z"/>
	<line class="st2" x1="37" y1="44" x2="39.5" y2="48.5"/>
	<path class="st1" d="M36,44.7l2.6,4.4c0.8,1.3,2.8,0.1,2.1-1.2L38,43.4C37.3,42.1,35.2,43.3,36,44.7z"/>
	<line class="st2" x1="43.9" y1="37.1" x2="48.4" y2="39.7"/>
	<path class="st1" d="M43.3,38.1l4.4,2.6c1.3,0.8,2.6-1.3,1.2-2.1l-4.4-2.6C43.2,35.3,42,37.4,43.3,38.1z"/>
	<line class="st2" x1="46.5" y1="27.6" x2="51.6" y2="27.6"/>
	<path class="st1" d="M46.5,28.8h5.1c1.5,0,1.5-2.4,0-2.4h-5.1C44.9,26.4,44.9,28.8,46.5,28.8z"/>
	<line class="st2" x1="43.9" y1="18.1" x2="48.4" y2="15.6"/>
	<path class="st1" d="M44.5,19.2l4.4-2.6c1.3-0.8,0.1-2.8-1.2-2.1l-4.4,2.6C42,17.9,43.2,19.9,44.5,19.2z"/>
	<line class="st2" x1="37" y1="11.2" x2="39.5" y2="6.7"/>
	<path class="st1" d="M38,11.8l2.6-4.4c0.8-1.3-1.3-2.6-2.1-1.2l-2.6,4.4C35.2,11.9,37.2,13.1,38,11.8z"/>
</g>
</svg>
