<?xml version="1.0" encoding="utf-8"?>
<!-- Generator: Adobe Illustrator 24.3.0, SVG Export Plug-In . SVG Version: 6.00 Build 0)  -->
<svg version="1.1" id="Layer_1" xmlns="http://www.w3.org/2000/svg" xmlns:xlink="http://www.w3.org/1999/xlink" x="0px" y="0px"
	 viewBox="0 0 16 16" enable-background="new 0 0 16 16" xml:space="preserve">
<g>
	<g id="XMLID_1_">
		<g>
			<path fill="#FFFFFF" d="M12.2,2.3c0,1,0.8,1.8,1.9,1.8c-1,0-1.9,0.8-1.9,1.9c0-1-0.8-1.9-1.8-1.9C11.4,4.1,12.2,3.3,12.2,2.3z"/>
		</g>
		<g>
			<path fill="none" stroke="#231714" stroke-width="0.65" stroke-linecap="round" stroke-miterlimit="10" d="M10.4,4.1
				c1,0,1.8,0.8,1.8,1.9"/>
			<path fill="none" stroke="#231714" stroke-width="0.65" stroke-linecap="round" stroke-miterlimit="10" d="M12.2,6
				c0-1,0.8-1.9,1.9-1.9"/>
			<path fill="none" stroke="#231714" stroke-width="0.65" stroke-linecap="round" stroke-miterlimit="10" d="M14.1,4.1
				c-1,0-1.9-0.8-1.9-1.8"/>
			<path fill="none" stroke="#231714" stroke-width="0.65" stroke-linecap="round" stroke-miterlimit="10" d="M12.2,2.3
				c0,1-0.8,1.8-1.8,1.8"/>
		</g>
	</g>
</g>
<g id="XMLID_3_">
	<g>
		<path fill="#F4EC90" d="M14.5,11.7c-1.3,2-3.5,3.4-6.2,3.3c-2.9-0.1-5.5-2-6.4-4.7C0.4,6,3.3,1.6,7.6,1c0,0,0,0,0,0
			C5.2,5.4,8,12.6,14.5,11.7z"/>
	</g>
	<g>
		<path fill="none" stroke="#231714" stroke-width="0.6" stroke-linejoin="round" stroke-miterlimit="10" d="M7.6,1
			C7.6,1,7.6,1,7.6,1c-4.4,0.6-7.2,5-5.7,9.3C2.9,13,5.5,14.9,8.3,15c2.7,0.1,4.9-1.3,6.2-3.3C8,12.6,5.2,5.4,7.6,1z"/>
	</g>
</g>
</svg>
