<?xml version="1.0" encoding="utf-8"?>
<!-- Generator: Adobe Illustrator 24.3.0, SVG Export Plug-In . SVG Version: 6.00 Build 0)  -->
<svg version="1.1" id="Layer_1" xmlns="http://www.w3.org/2000/svg" xmlns:xlink="http://www.w3.org/1999/xlink" x="0px" y="0px"
	 viewBox="0 0 16 16" enable-background="new 0 0 16 16" xml:space="preserve">
<g>
	
		<line fill="none" stroke="#231815" stroke-width="0.63" stroke-linecap="round" stroke-miterlimit="10" x1="2.8" y1="12.2" x2="6.3" y2="12.2"/>
	
		<line fill="none" stroke="#231815" stroke-width="0.63" stroke-linecap="round" stroke-miterlimit="10" x1="6.3" y1="12.2" x2="8.1" y2="13.7"/>
	
		<line fill="none" stroke="#231815" stroke-width="0.63" stroke-linecap="round" stroke-miterlimit="10" x1="13.4" y1="12.2" x2="9.8" y2="12.2"/>
	
		<line fill="none" stroke="#231815" stroke-width="0.63" stroke-linecap="round" stroke-miterlimit="10" x1="9.8" y1="12.2" x2="8.1" y2="13.7"/>
	
		<line fill="none" stroke="#231815" stroke-width="0.63" stroke-linecap="round" stroke-miterlimit="10" x1="4" y1="13.9" x2="6.3" y2="13.9"/>
	
		<line fill="none" stroke="#231815" stroke-width="0.63" stroke-linecap="round" stroke-miterlimit="10" x1="9.8" y1="13.9" x2="12.1" y2="13.9"/>
	
		<line fill="none" stroke="#231815" stroke-width="0.63" stroke-linecap="round" stroke-miterlimit="10" x1="1.4" y1="10.5" x2="14.6" y2="10.5"/>
</g>
<g>
	<path fill="#F8B62D" stroke="#231815" stroke-width="0.65" stroke-miterlimit="10" d="M11.6,10.4c0.2-0.4,0.2-0.8,0.2-1.3
		c0-2.1-1.7-3.8-3.8-3.8S4.2,7,4.2,9.1c0,0.5,0.1,0.9,0.2,1.3C6.6,10.4,9.4,10.4,11.6,10.4z"/>
	
		<line fill="none" stroke="#231815" stroke-width="0.65" stroke-linecap="round" stroke-miterlimit="10" x1="1" y1="9.1" x2="2.9" y2="9.1"/>
	
		<line fill="none" stroke="#231815" stroke-width="0.65" stroke-linecap="round" stroke-miterlimit="10" x1="1.9" y1="5.6" x2="3.6" y2="6.5"/>
	
		<line fill="none" stroke="#231815" stroke-width="0.65" stroke-linecap="round" stroke-miterlimit="10" x1="4.5" y1="3" x2="5.4" y2="4.7"/>
	
		<line fill="none" stroke="#231815" stroke-width="0.65" stroke-linecap="round" stroke-miterlimit="10" x1="8" y1="2.1" x2="8" y2="4"/>
	
		<line fill="none" stroke="#231815" stroke-width="0.65" stroke-linecap="round" stroke-miterlimit="10" x1="11.5" y1="3" x2="10.6" y2="4.7"/>
	
		<line fill="none" stroke="#231815" stroke-width="0.65" stroke-linecap="round" stroke-miterlimit="10" x1="14.1" y1="5.6" x2="12.4" y2="6.5"/>
	
		<line fill="none" stroke="#231815" stroke-width="0.65" stroke-linecap="round" stroke-miterlimit="10" x1="15" y1="9.1" x2="13.1" y2="9.1"/>
</g>
</svg>
