<?xml version="1.0" encoding="utf-8"?>
<!-- Generator: Adobe Illustrator 24.3.0, SVG Export Plug-In . SVG Version: 6.00 Build 0)  -->
<svg version="1.1" id="Layer_1" xmlns="http://www.w3.org/2000/svg" xmlns:xlink="http://www.w3.org/1999/xlink" x="0px" y="0px"
	 viewBox="0 0 16 16" style="enable-background:new 0 0 16 16;" xml:space="preserve">
<g id="XMLID_3_">
	<g>
		<path style="fill:#F4EC90;" d="M13.6,10.6c-0.3,0.5-0.7,0.9-1.1,1.3c-1.4,0-2.8,0-4.2,0c-0.3,0-2.5,0-4.3,0
			c-0.8-0.7-1.4-1.6-1.8-2.6C1,5.5,3.6,1.5,7.5,1c0,0,0,0,0,0C5.3,5,7.8,11.4,13.6,10.6z"/>
	</g>
	<g>
		<path style="fill:none;stroke:#231714;stroke-width:0.6;stroke-linejoin:round;stroke-miterlimit:10;" d="M12.5,12
			c0.4-0.4,0.8-0.8,1.1-1.3C7.8,11.4,5.3,5,7.5,1c0,0,0,0,0,0C3.6,1.5,1,5.5,2.3,9.4c0.4,1,1,1.9,1.8,2.6"/>
	</g>
</g>
<g>
	
		<line style="fill:none;stroke:#231815;stroke-width:0.63;stroke-linecap:round;stroke-miterlimit:10;" x1="3.4" y1="13.5" x2="6.6" y2="13.5"/>
	
		<line style="fill:none;stroke:#231815;stroke-width:0.63;stroke-linecap:round;stroke-miterlimit:10;" x1="6.6" y1="13.5" x2="8.2" y2="14.8"/>
	
		<line style="fill:none;stroke:#231815;stroke-width:0.63;stroke-linecap:round;stroke-miterlimit:10;" x1="13" y1="13.5" x2="9.7" y2="13.5"/>
	
		<line style="fill:none;stroke:#231815;stroke-width:0.63;stroke-linecap:round;stroke-miterlimit:10;" x1="9.7" y1="13.5" x2="8.2" y2="14.8"/>
	
		<line style="fill:none;stroke:#231815;stroke-width:0.63;stroke-linecap:round;stroke-miterlimit:10;" x1="4.5" y1="15" x2="6.6" y2="15"/>
	
		<line style="fill:none;stroke:#231815;stroke-width:0.63;stroke-linecap:round;stroke-miterlimit:10;" x1="9.7" y1="15" x2="11.8" y2="15"/>
	
		<line style="fill:none;stroke:#231815;stroke-width:0.63;stroke-linecap:round;stroke-miterlimit:10;" x1="2.2" y1="11.9" x2="14" y2="11.9"/>
</g>
<g>
	<g id="XMLID_1_">
		<g>
			<path style="fill:#FFFFFF;" d="M12.4,1.7c0,1,0.8,1.9,1.9,1.9c-1,0-1.9,0.8-1.9,1.8c0-1-0.8-1.8-1.9-1.8
				C11.5,3.6,12.4,2.8,12.4,1.7z"/>
		</g>
		<g>
			<path style="fill:none;stroke:#231714;stroke-width:0.65;stroke-linecap:round;stroke-miterlimit:10;" d="M10.5,3.6
				c1,0,1.9,0.8,1.9,1.8"/>
			<path style="fill:none;stroke:#231714;stroke-width:0.65;stroke-linecap:round;stroke-miterlimit:10;" d="M12.4,5.4
				c0-1,0.8-1.8,1.9-1.8"/>
			<path style="fill:none;stroke:#231714;stroke-width:0.65;stroke-linecap:round;stroke-miterlimit:10;" d="M14.2,3.6
				c-1,0-1.9-0.8-1.9-1.9"/>
			<path style="fill:none;stroke:#231714;stroke-width:0.65;stroke-linecap:round;stroke-miterlimit:10;" d="M12.4,1.7
				c0,1-0.8,1.9-1.9,1.9"/>
		</g>
	</g>
</g>
</svg>
