<?xml version="1.0" encoding="utf-8"?>
<!-- Generator: Adobe Illustrator 24.3.0, SVG Export Plug-In . SVG Version: 6.00 Build 0)  -->
<svg version="1.1" id="Layer_1" xmlns="http://www.w3.org/2000/svg" xmlns:xlink="http://www.w3.org/1999/xlink" x="0px" y="0px"
	 viewBox="0 0 299 296" style="enable-background:new 0 0 299 296;" xml:space="preserve">
<style type="text/css">
	.st0{fill:#FFFFFF;}
	.st1{fill:#231815;}
	.st2{fill:#F4EC90;}
</style>
<g id="图层_1">
	<path class="st0" d="M241.7,86.7L241.7,86.7c1.7,0.5,2.7,2.2,2.2,3.9c-0.3,1.1-1.2,2-2.2,2.2l0,0c-15.3,4.1-27.2,16-31.3,31.3l0,0
		c-0.5,1.7-2.2,2.7-3.9,2.2c-1.1-0.3-2-1.2-2.2-2.2l0,0c-4.1-15.3-16-27.2-31.3-31.3l0,0c-1.7-0.5-2.7-2.2-2.2-3.9
		c0.3-1.1,1.2-2,2.2-2.2l0,0c15.3-4.1,27.2-16,31.3-31.3l0,0c0.5-1.7,2.2-2.7,3.9-2.2c1.1,0.3,2,1.2,2.2,2.2l0,0
		C214.5,70.7,226.4,82.6,241.7,86.7z"/>
	<path class="st1" d="M239.7,94c-3.3-0.9,4.2-8.6-1.4-7.9c-0.7,0.2-1.4,0.4-2,0.7c-1.7,0.6-3.4,1.3-5.1,2.1
		c-3.5,1.7-6.9,3.7-9.9,6.1c-5.5,4.2-10,9.5-13.4,15.6c-1.6,3-3.9,6.8-4.3,10.2c-0.4,2.5-2.1,1.4,3.8,1.4c4.9,0,4.5,1,3.5-2.1
		c-0.6-2-1.4-3.9-2.2-5.8c-2.8-6.3-6.9-12-12-16.7c-5.5-5-11.9-8.8-18.9-11.1c-0.9-0.4-1.8-0.7-2.7-0.8v4.1c-1.3,3.4-1.1,4.7,0.7,4
		c1.4,0,3.4-1.1,4.7-1.6c3.7-1.4,7.1-3.3,10.4-5.5c8.8-6,15.5-14.5,19.2-24.5c0.5-1.3,1.6-3.3,1.6-4.7h-8.3l0.4,1.4
		c0.3,1.2,0.7,2.3,1.2,3.4C210.8,77.7,223.7,89.5,239.7,94c9.4,2.7,13.3-11.8,4.1-14.4c-8.6-2.3-16-7.6-21-15
		c-4.3-6.6-5-18.5-14.9-18.9c-10.6-0.4-11.3,12.1-15.8,18.9c-4.8,6.9-11.7,12.1-19.8,14.6c-4.1,1.4-7.6,3.3-8.8,7.8
		c-1.3,4.8,0.9,9.8,5.2,12.2c3.5,1.9,7.4,2.5,10.9,4.5c3.9,2.2,7.3,5.1,10.2,8.5c2.5,3,4.4,6.3,5.9,9.9c1.8,4.5,2.4,8.9,7.4,11
		c4.2,1.8,9.1,0.7,12.2-2.7c2.8-3.2,3.2-7.9,5.2-11.7c4.7-8.9,12.4-14.9,21.8-18.2c4.6-1.6,8.4-4,9.1-9.3c0.7-5.3-2.6-10.3-7.7-11.8
		C234.3,77,230.3,91.5,239.7,94z"/>
	<path class="st2" d="M132.9,164.2c-35.7-35.7-46.1-89.5-26.4-135.9c-62.9,26.8-92.2,99.4-65.4,162.3s99.4,92.2,162.3,65.4
		c29.4-12.5,52.9-36,65.4-65.4C222.4,210.3,168.6,199.9,132.9,164.2z"/>
	<path class="st1" d="M138.2,158.9c-33.6-34-42.8-84.6-24.5-128.6c2.9-6.8-5.9-10.7-11-8.5C38.3,49.7,7.2,123.5,32.4,189.1
		c11.9,30.7,35.2,56.6,64.9,71c65.1,31.8,143.6,4.9,175.5-60.2c0.9-1.8,1.7-3.7,2.5-5.5c2.2-5.1-1.6-13.9-8.5-11
		C222.8,201.8,172.2,192.5,138.2,158.9c-6.9-6.8-17.5,3.8-10.6,10.6c37.4,37,94.4,48.7,143.2,28.3l-8.5-11
		c-12.6,29.2-36.4,53.1-66.4,64.2c-26.7,9.9-56,9.8-82.7-0.2c-55.2-20.7-85.8-82.5-70.5-139.1c9.4-34.7,34.7-62.7,67.6-76.9l-11-8.5
		c-20.4,48.7-8.7,105.8,28.3,143.2C134.4,176.4,145,165.8,138.2,158.9z"/>
</g>
</svg>
