<?xml version="1.0" encoding="utf-8"?>
<!-- Generator: Adobe Illustrator 24.3.0, SVG Export Plug-In . SVG Version: 6.00 Build 0)  -->
<svg version="1.1" id="Layer_1" xmlns="http://www.w3.org/2000/svg" xmlns:xlink="http://www.w3.org/1999/xlink" x="0px" y="0px"
	 viewBox="0 0 367 329" style="enable-background:new 0 0 367 329;" xml:space="preserve">
<style type="text/css">
	.st0{fill:#F8B62D;}
	.st1{fill:#231815;}
</style>
<g id="图层_1">
	<path class="st0" d="M252.2,217.5c23.1-38.6,10.6-88.7-28-111.8c-8.1-4.9-17-8.3-26.3-10.1c-33.3-6.7-68.2,8.9-85.8,37.9
		c-15.4,25.8-15.6,58-0.5,84.1L252.2,217.5L252.2,217.5z"/>
	<path class="st1" d="M263.8,175.8c-0.1,14.7-4.1,29-11.6,41.7H269c6.3-13,9.6-27.2,9.8-41.7C278.8,185.5,263.8,185.5,263.8,175.8z"
		/>
	<path class="st1" d="M112.1,133.4c17.5-28.9,52.5-44.6,85.8-37.9c38.1,7.9,65.6,41.3,65.9,80.2c0.1-9.7,15.1-9.6,15,0
		c-0.4-40.7-25.8-76.9-64-91.1c-37.8-13.8-82-1.6-107.3,29.4c-23.7,29-28.7,69.7-12.8,103.3h16.9C96.4,191.4,96.6,159.3,112.1,133.4
		z"/>
	<path class="st1" d="M263.8,175.8c0.1,9.6,15.1,9.7,15,0S263.8,166.1,263.8,175.8z"/>
	<path class="st1" d="M174.5,17.3v33.7c0,9.6,15,9.7,15,0V17.3C189.5,7.6,174.5,7.6,174.5,17.3z M182,50.9L182,50.9z"/>
	<path class="st1" d="M96.3,42.3l16.8,29.1c4.8,8.4,17.8,0.8,13-7.6l-16.8-29.2C104.4,26.4,91.4,33.9,96.3,42.3z M102.8,38.5
		l16.8,29.2L102.8,38.5z"/>
	<path class="st1" d="M48.5,90.1c-8.4-4.8-15.9,8.1-7.6,13l29.1,16.8c8.4,4.8,15.9-8.1,7.6-13L48.5,90.1z M44.7,96.6l29.1,16.8
		L44.7,96.6z"/>
	<path class="st1" d="M23.5,183.3h33.7c9.6,0,9.7-15,0-15H23.5C13.8,168.3,13.8,183.3,23.5,183.3z M57.1,175.8L57.1,175.8z"/>
	<path class="st1" d="M340.5,168.3h-33.7c-9.6,0-9.7,15,0,15h33.6C350.2,183.3,350.2,168.3,340.5,168.3z M306.9,175.8L306.9,175.8z"
		/>
	<path class="st1" d="M315.5,90.1l-29.1,16.8c-8.4,4.8-0.8,17.8,7.6,13l29.1-16.8C331.4,98.2,323.9,85.2,315.5,90.1z M290.1,113.4
		l29.1-16.8L290.1,113.4z"/>
	<path class="st1" d="M254.8,34.7L238,63.9c-4.8,8.4,8.1,15.9,13,7.6l16.8-29.2C272.6,33.9,259.6,26.4,254.8,34.7z M244.4,67.7
		l16.8-29.2L244.4,67.7z"/>
	<path class="st1" d="M339.3,217.5H269c-1.2,2.6-2.6,5.1-4,7.5h39.7v7.5h34.6C349,232.5,349,217.5,339.3,217.5z"/>
	<path class="st1" d="M24.7,225h74c-1.5-2.5-2.8-5-4-7.5h-70c-9.7,0-9.7,15,0,15h34.6V225H24.7z"/>
	<path class="st1" d="M252.2,217.5H111.6c1.5,2.6,3.2,5.1,5,7.5h130.6C249,222.6,250.6,220,252.2,217.5z"/>
	<path class="st1" d="M116.6,225c-1.8-2.4-3.5-4.9-5-7.5H94.7c1.2,2.5,2.5,5,4,7.5H116.6z"/>
	<path class="st1" d="M247.2,225H265c1.4-2.4,2.8-4.9,4-7.5h-16.8C250.6,220,249,222.6,247.2,225z"/>
	<path class="st1" d="M99.1,225.8c-0.2-0.3-0.3-0.5-0.5-0.8H59.3v7.5h44.3C102,230.3,100.5,228.1,99.1,225.8z"/>
	<path class="st1" d="M123.1,232.5h117.8c2.2-2.4,4.4-4.9,6.3-7.5H116.6c0.6,0.8,1.2,1.6,1.9,2.4
		C119.9,229.1,121.5,230.8,123.1,232.5z"/>
	<path class="st1" d="M265,225c-1.5,2.6-3.2,5.1-4.9,7.5h44.6V225H265z"/>
	<path class="st1" d="M240.9,232.5H260c1.7-2.4,3.4-4.9,4.9-7.5h-17.7C245.2,227.6,243.1,230.1,240.9,232.5z"/>
	<path class="st1" d="M118.5,227.3c-0.7-0.8-1.3-1.6-1.9-2.4H98.6c0.2,0.3,0.3,0.5,0.5,0.8c1.4,2.3,2.9,4.5,4.5,6.7h19.5
		C121.5,230.8,119.9,229.1,118.5,227.3z"/>
	<path class="st1" d="M307.1,265.1h-2.4v7.5h2.5c9.6,0,9.7-15,0-15h-2.5v7.5H307.1z"/>
	<path class="st1" d="M56.8,265.1h2.4v-7.5h-2.4c-9.7,0-9.7,15,0,15h2.4v-7.5H56.8z"/>
	<path class="st1" d="M134.9,270.4l2.3,2.2h3L134.9,270.4z"/>
	<path class="st1" d="M233.9,257.4c-4.6,3-9.5,5.6-14.5,7.7h85.3v-7.5h-59.3C241.6,257.6,237.8,257.4,233.9,257.4z"/>
	<path class="st1" d="M223.8,272.6h3l2.3-2.2L223.8,272.6z"/>
	<path class="st1" d="M223.8,265.1l-41.8,40l-41.8-40H59.3v7.5h77.9l-2.3-2.2l5.3,2.2h-3l39.5,37.8c3,2.9,7.6,2.9,10.6,0l39.5-37.8
		h-3l5.3-2.2l-2.3,2.2h77.9v-7.5H223.8z"/>
	<path class="st1" d="M140.2,265.1h5.1c-5.3-2.2-10.4-4.8-15.2-7.8c-2.4,0.1-4.6,0.3-6.4,0.3H59.3v7.5H140.2z"/>
	<path class="st1" d="M223.8,257.6c-4.3,0.3-7.2,4-10.2,6.9l-0.6,0.7h6.4c5.1-2.1,9.9-4.7,14.5-7.7
		C230.5,257.3,227.1,257.3,223.8,257.6z"/>
	<path class="st1" d="M145.6,259.9c-3.5-3.1-9.9-3-15.5-2.6c4.8,3,9.9,5.7,15.2,7.8h6.1C149.5,263.3,147.6,261.6,145.6,259.9z"/>
	<path class="st1" d="M187.3,299.8c-1.8-1.7-3.5-3.4-5.3-5.1l-5.3,5.1H187.3z"/>
	<path class="st1" d="M200.5,277L182,294.7c1.8,1.7,3.5,3.4,5.3,5.1h-10.6l5.3-5.1c-8.9-8.7-17.7-17.6-26.9-26.1
		c-3.3-1-6.6-2.1-9.9-3.4h-5.1l41.8,40l41.8-40h-4.4c-3.3,1.4-6.8,2.6-10.2,3.6L200.5,277z"/>
	<path class="st1" d="M209.1,268.7c3.5-1,6.9-2.2,10.2-3.6H213L209.1,268.7z"/>
	<path class="st1" d="M151.4,265.1h-6.1c3.2,1.3,6.5,2.5,9.9,3.4C153.9,267.4,152.7,266.2,151.4,265.1z"/>
	<path class="st1" d="M223.8,297.7c-9.6,0-9.7,15,0,15h54.7c9.6,0,9.7-15,0-15H223.8z M223.8,305.2L223.8,305.2z"/>
	<path class="st1" d="M140.2,297.7H85.5c-9.6,0-9.7,15,0,15h54.7C149.9,312.7,149.9,297.7,140.2,297.7z M85.5,305.2L85.5,305.2z"/>
</g>
</svg>
