<?xml version="1.0" encoding="utf-8"?>
<!-- Generator: Adobe Illustrator 24.3.0, SVG Export Plug-In . SVG Version: 6.00 Build 0)  -->
<svg version="1.1" id="Layer_1" xmlns="http://www.w3.org/2000/svg" xmlns:xlink="http://www.w3.org/1999/xlink" x="0px" y="0px"
	 viewBox="0 0 366 343" style="enable-background:new 0 0 366 343;" xml:space="preserve">
<style type="text/css">
	.st0{fill:#F4EC90;}
	.st1{fill:#FFFFFF;}
	.st2{fill:#231815;}
</style>
<g id="图层_1">
	<path class="st0" d="M265.9,226c6.7-6.6,12.6-13.9,17.6-21.9c-45,11.4-92.7-1.6-125.8-34.1c-32.6-33.1-45.5-80.8-34.1-125.8
		c-24.8,15.5-42.9,39.8-50.7,68c-11.1,41.1,2,84.9,31.2,113.8L265.9,226L265.9,226z"/>
	<path class="st1" d="M237.3,68.4c-0.6,1.2-1.3,2.4-2,3.6c-3.8,6-8.8,11.1-14.6,15.1c-1.7,1.2-3.4,2.2-5.3,3.2
		c4,2.1,7.8,4.8,11.1,7.8c4.4,4,8,8.7,10.7,14l0.6-1.1c3.4-6.1,7.9-11.4,13.4-15.6c2.5-2,5.2-3.7,8-5.2
		C249.9,85.3,242.3,77.7,237.3,68.4z"/>
	<path class="st2" d="M268.3,86.5c-0.7,0.2-1.4,0.4-2,0.7c-0.6,0.2-1.3,0.5-1.9,0.7c0.1,3.1,2.2,5.8,5.3,6.5
		C266.3,93.6,273.9,85.9,268.3,86.5z"/>
	<path class="st2" d="M204.9,86.1v4.1c-1.3,3.4-1.1,4.7,0.7,4c1.4,0,3.4-1.1,4.7-1.6c1.7-0.7,3.4-1.4,5.1-2.3
		c-2.5-1.3-5.1-2.4-7.8-3.3C206.8,86.6,205.9,86.3,204.9,86.1z"/>
	<path class="st2" d="M241.5,57.9h-8.3l0.4,1.4c0.3,1.2,0.7,2.3,1.2,3.4c0.8,2,1.6,3.9,2.6,5.7c0.9-1.9,1.8-3.8,2.5-5.7
		C240.4,61.4,241.5,59.4,241.5,57.9z"/>
	<path class="st2" d="M264.4,88c-1.1,0.4-2.1,0.9-3.2,1.4c-0.7,0.3-1.3,0.6-1.9,1c3.3,1.8,6.8,3.2,10.4,4.2
		C266.6,93.8,264.4,91.1,264.4,88z"/>
	<path class="st2" d="M237.3,122.7c4.9,0,4.5,1,3.5-2.1c-0.6-2-1.4-3.9-2.2-5.8c-0.4-0.9-0.9-1.8-1.3-2.7c-1.5,2.8-3.3,6.2-3.7,9.2
		C233.2,123.8,231.4,122.7,237.3,122.7z"/>
	<path class="st2" d="M264.4,88c0.6-0.2,1.3-0.5,1.9-0.7c0.6-0.3,1.3-0.5,2-0.7c5.6-0.7-2,7,1.4,7.9c9.3,2.7,13.3-11.8,4-14.5
		C267.9,78.4,264.2,83.4,264.4,88z"/>
	<path class="st2" d="M269.7,94.5c-3.6-1-7.1-2.4-10.4-4.2c-2.8,1.5-5.5,3.2-8,5.2c-5.5,4.2-10,9.5-13.4,15.6l-0.6,1.1
		c0.5,0.9,0.9,1.8,1.3,2.7c0.9,1.9,1.6,3.8,2.2,5.8c1,3.1,1.3,2.1-3.5,2.1c-5.9,0-4.1,1.1-3.8-1.4c0.4-3,2.2-6.4,3.7-9.2
		c-2.7-5.3-6.3-10-10.7-14c-3.4-3.1-7.1-5.7-11.1-7.8c-1.7,0.9-3.4,1.6-5.1,2.3c-1.3,0.5-3.3,1.7-4.7,1.6c-1.8,0.8-2-0.6-0.7-4v-4.2
		c0.9,0.2,1.9,0.4,2.7,0.8c2.7,0.9,5.3,2,7.8,3.3c1.8-0.9,3.6-2,5.3-3.2c5.8-4.1,10.8-9.2,14.6-15.2c0.7-1.2,1.4-2.4,2-3.6
		c-1-1.9-1.9-3.8-2.6-5.7c-0.5-1.1-0.9-2.2-1.2-3.4l-0.4-1.4h8.3c0,1.4-1.1,3.5-1.6,4.7c-0.8,1.9-1.6,3.9-2.5,5.7
		c4.9,9.3,12.6,17,21.9,21.9c0.6-0.3,1.3-0.7,1.9-1c1-0.5,2.1-0.9,3.2-1.4c-0.2-4.6,3.5-9.5,9.3-8c-8.6-2.3-16-7.6-21-15
		c-4.3-6.6-5-18.5-14.9-18.9c-10.6-0.4-11.3,12.1-15.8,18.9c-4.7,6.9-11.6,12.1-19.7,14.6c-4.1,1.4-7.6,3.3-8.8,7.8
		c-1.3,4.8,0.8,9.8,5.2,12.2c3.5,1.9,7.4,2.5,10.9,4.5c3.9,2.2,7.3,5.1,10.2,8.5c2.5,3,4.4,6.3,5.9,9.9c1.8,4.5,2.4,8.9,7.4,11
		c4.2,1.8,9.1,0.7,12.2-2.7c2.8-3.2,3.2-7.9,5.2-11.7c4.7-8.9,12.4-14.9,21.8-18.2c4.6-1.6,8.4-4,9.1-9.3c0.7-5.3-2.6-10.3-7.7-11.8
		C282.9,82.7,279,97.1,269.7,94.5z"/>
	<path class="st2" d="M157.6,170c33.1,32.6,80.8,45.5,125.8,34.1c3.4-5.4,6.4-11,8.9-16.8l8.5,11c-5.6,2.4-11.4,4.3-17.4,5.8
		c-5,7.9-10.9,15.2-17.6,21.8h20.3c7.8-9.4,14.2-19.9,19.1-31.1c2.2-5.1-1.6-13.9-8.5-11c-44,18.4-94.6,9.1-128.6-24.5
		C175,166.3,164.4,176.9,157.6,170z"/>
	<path class="st2" d="M72.8,112.2c7.8-28.2,25.9-52.5,50.7-68c1.5-5.9,3.5-11.7,5.8-17.4l11,8.5c-5.8,2.5-11.5,5.5-16.8,8.9
		c-11.4,45,1.6,92.7,34.1,125.8c-6.9-6.8,3.7-17.4,10.6-10.6c-33.6-34-42.8-84.6-24.5-128.6c2.9-6.8-5.9-10.7-11-8.5
		C68.3,50.3,37.2,124,62.4,189.6c5.1,13.2,12.3,25.4,21.2,36.3h20.3C74.8,197.1,61.6,153.3,72.8,112.2z"/>
	<path class="st2" d="M157.6,170c6.8,6.9,17.4-3.7,10.6-10.6S150.7,163.2,157.6,170z"/>
	<path class="st2" d="M129.3,26.8c-2.3,5.6-4.3,11.4-5.8,17.4c5.4-3.4,11-6.4,16.8-8.9L129.3,26.8z"/>
	<path class="st2" d="M292.3,187.3c-2.5,5.8-5.5,11.4-8.9,16.8c5.9-1.5,11.7-3.5,17.4-5.8L292.3,187.3z"/>
	<path class="st2" d="M265.9,226h-162c2.7,2.6,5.5,5.1,8.4,7.5h145.2C260.4,231.1,263.2,228.6,265.9,226z"/>
	<path class="st2" d="M22.7,233.5h67.6c-2.3-2.4-4.5-4.9-6.6-7.5H22.7c-9.7,0-9.7,15,0,15h34.6v-7.5H22.7z"/>
	<path class="st2" d="M337.3,226h-51.1c-2.1,2.6-4.4,5.1-6.7,7.5h23.2v7.5h34.6C347,241,347,226,337.3,226z"/>
	<path class="st2" d="M257.5,233.5h22.1c2.3-2.4,4.5-4.9,6.7-7.5h-20.3C263.2,228.6,260.4,231.1,257.5,233.5z"/>
	<path class="st2" d="M112.3,233.5c-2.9-2.4-5.7-4.9-8.4-7.5H83.6c2.1,2.6,4.3,5.1,6.6,7.5H112.3z"/>
	<path class="st2" d="M128.9,241h118.2c3.6-2.3,7.1-4.8,10.4-7.5H112.3c3.3,2.7,6.8,5.2,10.4,7.5H128.9z"/>
	<path class="st2" d="M279.5,233.5c-2.5,2.6-5.1,5.1-7.8,7.5h31v-7.5H279.5z"/>
	<path class="st2" d="M90.2,233.5H57.3v7.5H98C95.3,238.6,92.7,236.1,90.2,233.5z"/>
	<path class="st2" d="M247.1,241h24.6c2.7-2.4,5.3-4.9,7.8-7.5h-22.1C254.2,236.2,250.7,238.7,247.1,241z"/>
	<path class="st2" d="M112.3,233.5h-22c2.5,2.6,5.1,5.1,7.8,7.5h24.7C119.1,238.7,115.6,236.2,112.3,233.5z"/>
	<path class="st2" d="M305.1,273.6h-2.4v7.5h2.5c9.6,0,9.7-15,0-15h-2.5v7.5L305.1,273.6z"/>
	<path class="st2" d="M54.8,273.6h2.4v-7.5h-2.4c-9.7,0-9.7,15,0,15h2.4v-7.5L54.8,273.6z"/>
	<path class="st2" d="M132.9,278.9l2.3,2.2h3L132.9,278.9z"/>
	<path class="st2" d="M138.2,273.6h11.2c-1.9-1.7-3.9-3.5-5.8-5.2c-5-4.4-15.9-2.3-22-2.3H57.3v7.5H138.2z"/>
	<path class="st2" d="M230.2,265.9c-3.5,1.3-7.2,2.5-10.8,3.5c-1.8,0.5-3.7,1-5.5,1.4c-0.8,0.8-1.5,1.5-2.2,2.2l-0.7,0.6h91.7v-7.5
		h-59.3C239.1,266.1,234.6,265.9,230.2,265.9z"/>
	<path class="st2" d="M221.8,281.1h3l2.3-2.2L221.8,281.1z"/>
	<path class="st2" d="M221.8,273.6l-41.8,40l-41.8-40H57.3v7.5h77.9l-2.3-2.2l5.3,2.2h-3l39.5,37.8c3,2.9,7.6,2.9,10.6,0l39.5-37.8
		h-3l5.3-2.2l-2.3,2.2h77.9v-7.5L221.8,273.6z"/>
	<path class="st2" d="M221.8,266.1c-3.2,0.2-5.7,2.4-7.9,4.6c1.9-0.4,3.7-0.9,5.5-1.4c3.7-1,7.3-2.1,10.8-3.5
		C227.4,265.8,224.6,265.9,221.8,266.1z"/>
	<path class="st2" d="M180,303.2c1.8,1.7,3.5,3.4,5.3,5.1h-10.6L180,303.2c-10.1-9.9-20.1-20.1-30.6-29.6h-11.2l41.8,40l41.8-40H211
		l-12.5,12L180,303.2z"/>
	<path class="st2" d="M185.3,308.3c-1.8-1.7-3.5-3.4-5.3-5.1l-5.3,5.1H185.3z"/>
	<path class="st2" d="M221.8,306.2c-9.6,0-9.7,15,0,15h54.7c9.6,0,9.7-15,0-15H221.8z M221.8,313.7L221.8,313.7z"/>
	<path class="st2" d="M138.2,306.2H83.5c-9.6,0-9.7,15,0,15h54.7C147.9,321.2,147.9,306.2,138.2,306.2z M83.5,313.7L83.5,313.7z"/>
</g>
</svg>
