<?xml version="1.0" encoding="utf-8"?>
<!-- Generator: Adobe Illustrator 24.3.0, SVG Export Plug-In . SVG Version: 6.00 Build 0)  -->
<svg version="1.1" id="Layer_1" xmlns="http://www.w3.org/2000/svg" xmlns:xlink="http://www.w3.org/1999/xlink" x="0px" y="0px"
	 viewBox="0 0 16 16" enable-background="new 0 0 16 16" xml:space="preserve">
<g>
	<circle fill="#F8B62D" stroke="#231815" stroke-width="0.65" stroke-miterlimit="10" cx="7.1" cy="7" r="3.3"/>
	
		<line fill="none" stroke="#231815" stroke-width="0.65" stroke-linecap="round" stroke-miterlimit="10" x1="7.1" y1="13" x2="7.1" y2="11.4"/>
	
		<line fill="none" stroke="#231815" stroke-width="0.65" stroke-linecap="round" stroke-miterlimit="10" x1="4" y1="12.3" x2="4.8" y2="10.8"/>
	
		<line fill="none" stroke="#231815" stroke-width="0.65" stroke-linecap="round" stroke-miterlimit="10" x1="1.8" y1="10" x2="3.3" y2="9.2"/>
	
		<line fill="none" stroke="#231815" stroke-width="0.65" stroke-linecap="round" stroke-miterlimit="10" x1="1" y1="7" x2="2.6" y2="7"/>
	
		<line fill="none" stroke="#231815" stroke-width="0.65" stroke-linecap="round" stroke-miterlimit="10" x1="1.8" y1="3.9" x2="3.3" y2="4.7"/>
	
		<line fill="none" stroke="#231815" stroke-width="0.65" stroke-linecap="round" stroke-miterlimit="10" x1="4" y1="1.7" x2="4.8" y2="3.2"/>
	
		<line fill="none" stroke="#231815" stroke-width="0.65" stroke-linecap="round" stroke-miterlimit="10" x1="7.1" y1="0.9" x2="7.1" y2="2.5"/>
	
		<line fill="none" stroke="#231815" stroke-width="0.65" stroke-linecap="round" stroke-miterlimit="10" x1="10.1" y1="1.7" x2="9.3" y2="3.2"/>
	
		<line fill="none" stroke="#231815" stroke-width="0.65" stroke-linecap="round" stroke-miterlimit="10" x1="12.4" y1="3.9" x2="10.9" y2="4.7"/>
	
		<line fill="none" stroke="#231815" stroke-width="0.65" stroke-linecap="round" stroke-miterlimit="10" x1="13.1" y1="7" x2="11.5" y2="7"/>
	
		<line fill="none" stroke="#231815" stroke-width="0.65" stroke-linecap="round" stroke-miterlimit="10" x1="12.4" y1="10" x2="10.9" y2="9.2"/>
	
		<line fill="none" stroke="#231815" stroke-width="0.65" stroke-linecap="round" stroke-miterlimit="10" x1="10.1" y1="12.3" x2="9.3" y2="10.8"/>
	
		<line fill="none" stroke="#231815" stroke-width="0.65" stroke-linecap="round" stroke-miterlimit="10" x1="7.1" y1="13" x2="7.1" y2="11.4"/>
</g>
<g id="XMLID_1_">
	<g>
		<path fill="#FFFFFF" d="M5.7,15.1c-1.6,0-2.9-1.3-2.9-2.9s1.3-2.9,2.9-2.9c0.3,0,0.7,0.1,1,0.2c0.6-1,1.7-1.7,2.9-1.7
			c1.6,0,2.9,1.1,3.3,2.5c1.2,0.2,2.1,1.2,2.1,2.4c0,1.3-1.1,2.4-2.4,2.4H5.7z"/>
	</g>
	<g>
		<path fill="none" stroke="#231714" stroke-width="0.65" stroke-miterlimit="10" d="M12.9,10.3c-0.4-1.4-1.7-2.5-3.3-2.5
			c-1.2,0-2.3,0.7-2.9,1.7c-0.3-0.1-0.6-0.2-1-0.2c-1.6,0-2.9,1.3-2.9,2.9s1.3,2.9,2.9,2.9h6.8c1.3,0,2.4-1.1,2.4-2.4
			C15,11.5,14.1,10.5,12.9,10.3z"/>
	</g>
</g>
</svg>
