<?xml version="1.0" encoding="utf-8"?>
<!-- Generator: Adobe Illustrator 24.3.0, SVG Export Plug-In . SVG Version: 6.00 Build 0)  -->
<svg version="1.1" id="Layer_1" xmlns="http://www.w3.org/2000/svg" xmlns:xlink="http://www.w3.org/1999/xlink" x="0px" y="0px"
	 viewBox="0 0 359 321" style="enable-background:new 0 0 359 321;" xml:space="preserve">
<style type="text/css">
	.st0{fill:#231815;}
	.st1{fill:#FFFFFF;}
	.st2{fill:#F4EC90;}
</style>
<g id="图层_1">
	<path class="st0" d="M162.5,23.9c-2.3,5.6-4.3,11.4-5.8,17.4c5.4-3.4,11-6.4,16.8-8.9L162.5,23.9z"/>
	<path class="st1" d="M224.5,174.1c3.1,4.9,5.6,10.1,7.4,15.6c0.4,2.8,2.5,5,5.3,5.4c5.4,1.2,10.6,3.3,15.3,6.3
		c12,7.5,19.7,20.3,20.5,34.4c0.1,2.2,0.1,4.4-0.1,6.6c-0.6,6.9-2.8,13.5-6.4,19.4c-5,8.3-12.6,14.7-21.6,18.2
		c-8.1,3.1-16.3,3-24.7,3H104.7c-5.5,0-11,0-16.5,0c-30.2,0-54.8-24.5-54.8-54.8c0-11.8,3.8-23.3,10.8-32.7
		c11.2-15.1,29-22.6,47.1-21.7c4.8,0.3,9.5,1.1,14,2.5c0.9,0.3,1.9,0.4,2.8,0.2c2.3-0.4,4.4-1.7,5.6-3.7
		c13.1-19.2,35.3-30.3,58.6-29.2c2.9,0.2,5.8,0.5,8.6,1.1C198.9,148.1,214.6,158.8,224.5,174.1z"/>
	<path class="st0" d="M338.5,191.9c-0.7,1.6-1.4,3.1-2.1,4.6l-2.4-1.2l-8.5-11l-0.6-1.5c1.7-0.6,3.4-1.3,5-2
		C336.9,178.1,340.7,186.9,338.5,191.9z"/>
	<path class="st0" d="M334,195.4l2.4,1.2c-11,22.7-28.3,41.8-49.8,55.1c1.1-4.7,1.6-9.6,1.4-14.4c0-1.5-0.1-2.9-0.3-4.4
		c11.5-8.7,21.2-19.4,28.9-31.6C322.6,199.7,328.4,197.7,334,195.4z"/>
	<path class="st0" d="M325.6,184.4l8.5,11c-5.6,2.4-11.4,4.3-17.4,5.8C320.1,195.8,323,190.2,325.6,184.4z"/>
	<path class="st0" d="M302.2,91.3c-2.7-0.9-4.6-3.4-4.6-6.3c0.6-0.2,1.3-0.5,1.9-0.7c0.6-0.3,1.3-0.5,2-0.7c5.6-0.7-2,7,1.4,7.9
		L302.2,91.3z"/>
	<path class="st0" d="M301.5,83.6c-0.7,0.2-1.4,0.4-2,0.7c-0.6,0.2-1.3,0.5-1.9,0.7c-0.2-4.6,3.5-9.5,9.3-8c9.3,2.7,5.3,17.1-4,14.5
		C299.6,90.6,307.1,82.9,301.5,83.6z"/>
	<path class="st0" d="M294.4,86.4c1-0.5,2.1-0.9,3.2-1.4c0,2.9,1.9,5.4,4.6,6.3c-3.4-1-6.6-2.3-9.8-4
		C293.1,87,293.8,86.7,294.4,86.4z"/>
	<path class="st0" d="M288.1,237.2c0.1,4.8-0.4,9.7-1.4,14.4c-3,1.9-6.2,3.6-9.4,5.2c2.2-5.8,3.3-12,3.3-18.2c0-0.3,0-0.5,0-0.8
		c2.5-1.6,4.9-3.3,7.2-5C287.9,234.3,288,235.7,288.1,237.2z"/>
	<path class="st0" d="M287.8,232.8c-2.3,1.8-4.7,3.5-7.2,5c-0.2-12.4-4.8-24.3-13.1-33.6c3.3,0.4,6.7,0.7,10,0.9
		C283.2,213.3,286.8,222.9,287.8,232.8z"/>
	<path class="st2" d="M316.7,201.2c-7.7,12.2-17.4,22.9-28.9,31.6c-1-10-4.6-19.5-10.3-27.7C290.7,205.8,303.9,204.5,316.7,201.2z"
		/>
	<path class="st0" d="M280.6,238.6c0,6.2-1.1,12.4-3.3,18.2c-3.5,1.8-7.1,3.4-10.8,4.9c3.6-5.9,5.8-12.5,6.4-19.4
		c2.6-1.4,5.2-2.9,7.7-4.5C280.6,238.1,280.6,238.4,280.6,238.6z"/>
	<path class="st0" d="M267.5,204.2c8.3,9.3,12.9,21.2,13.1,33.6c-2.5,1.6-5.1,3.1-7.7,4.5c0.2-2.2,0.3-4.4,0.1-6.6
		c-0.9-14.1-8.6-26.9-20.6-34.3C257.4,202.7,262.4,203.6,267.5,204.2z"/>
	<path class="st0" d="M274.7,55c0,1.4-1.1,3.5-1.6,4.7c-0.8,1.9-1.6,3.9-2.5,5.7c-1-1.9-1.9-3.8-2.6-5.7c-0.5-1.1-0.9-2.2-1.2-3.4
		c-0.1-0.5-0.3-0.9-0.4-1.4H274.7z"/>
	<path class="st0" d="M267.9,59.7c0.8,2,1.6,3.9,2.6,5.7c-0.6,1.2-1.3,2.4-2,3.6c-3.8,6-8.8,11.1-14.6,15.2
		c-1.7,1.2-3.4,2.2-5.3,3.1c-2.5-1.3-5.1-2.4-7.8-3.3c-0.9-0.4-1.8-0.7-2.7-0.8v4.2c-1.3,3.4-1.1,4.7,0.7,3.9c1.4,0,3.4-1.1,4.7-1.6
		c1.7-0.7,3.4-1.5,5.1-2.3c4,2.1,7.7,4.7,11.1,7.8c4.4,4,8,8.7,10.7,14c-1.5,2.8-3.3,6.2-3.7,9.2c-0.4,2.5-2.1,1.4,3.8,1.4
		c4.9,0,4.5,1,3.5-2.1c-0.7-2-1.4-3.9-2.3-5.8c-0.4-0.9-0.8-1.8-1.3-2.7l0.6-1.1c5-8.9,12.4-16.1,21.4-20.8c3.1,1.7,6.4,3,9.8,4
		l0.6,0.2c9.3,2.7,13.3-11.8,4-14.5c5.1,1.5,8.4,6.5,7.7,11.8c-0.7,5.3-4.5,7.7-9.1,9.3c-9.5,3.3-17.1,9.3-21.8,18.2
		c-2,3.7-2.4,8.4-5.2,11.7c-3,3.4-7.9,4.5-12.2,2.7c-5-2.1-5.7-6.5-7.4-11c-1.4-3.6-3.4-6.9-5.9-9.9c-2.9-3.4-6.3-6.3-10.2-8.5
		c-3.5-2-7.5-2.6-10.9-4.5c-4.3-2.4-6.5-7.4-5.2-12.2c1.2-4.5,4.7-6.5,8.8-7.8c8-2.5,14.9-7.7,19.6-14.6c4.5-6.8,5.2-19.3,15.8-18.9
		c9.9,0.4,10.6,12.3,14.9,18.9c5,7.4,12.4,12.7,21,15c-5.8-1.6-9.5,3.4-9.3,8c-1.1,0.4-2.1,0.9-3.2,1.4c-0.7,0.3-1.3,0.6-1.9,1
		c-9.3-4.9-17-12.5-21.9-21.9c1-1.9,1.8-3.8,2.5-5.7c0.5-1.3,1.6-3.3,1.6-4.7h-8.3c0.1,0.5,0.3,0.9,0.4,1.4
		C267,57.6,267.4,58.7,267.9,59.7z"/>
	<path class="st0" d="M274.1,117.7c1,3.1,1.3,2.1-3.5,2.1c-5.9,0-4.1,1.1-3.8-1.4c0.4-3,2.2-6.4,3.7-9.2c0.5,0.9,0.9,1.8,1.3,2.7
		C272.7,113.8,273.4,115.7,274.1,117.7z"/>
	<path class="st1" d="M270.6,65.4c4.9,9.3,12.6,16.9,21.9,21.9c-9,4.7-16.4,11.9-21.4,20.8l-0.6,1.1c-2.7-5.3-6.3-10-10.7-14
		c-3.4-3.1-7.1-5.7-11.1-7.8c1.8-0.9,3.6-2,5.3-3.1c5.8-4.1,10.8-9.2,14.6-15.2C269.3,67.9,269.9,66.7,270.6,65.4z"/>
	<path class="st0" d="M245.7,183.9c4.2,1.4,8.4,2.6,12.7,3.5c7.6,4.4,14.1,10.5,19.1,17.7c-3.3-0.2-6.7-0.5-10-0.9
		c-5.7-6.4-12.9-11.3-20.9-14.2c0.3-1.3,0.3-2.8-0.2-4.1C246.2,185.2,246,184.6,245.7,183.9z"/>
	<path class="st0" d="M258.4,187.4c22.2,4.9,45.3,3.3,66.6-4.5l0.6,1.5c-2.5,5.8-5.5,11.4-8.9,16.8c-12.8,3.3-26,4.6-39.2,3.9
		C272.5,197.9,266,191.9,258.4,187.4z"/>
	<path class="st0" d="M258.4,187.4c-4.3-0.9-8.5-2.1-12.7-3.5c-0.3-0.8-0.5-1.5-0.8-2.2C249.6,183,254.2,184.9,258.4,187.4z"/>
	<path class="st0" d="M240.9,84c2.7,0.9,5.3,2,7.8,3.3c-1.7,0.9-3.4,1.6-5.1,2.3c-1.3,0.5-3.3,1.7-4.7,1.6c-1.8,0.8-2-0.6-0.7-3.9
		v-4.2C239.1,83.4,240,83.6,240.9,84z"/>
	<path class="st0" d="M181.6,129.6c0.7,0.1,1.3,0.2,2,0.3c28.1,4.9,51.2,25.4,61.3,51.7c-1.2-0.4-2.5-0.7-3.7-1
		c-1.2-0.3-2.4-0.3-3.6,0c-0.4-0.2-0.8-0.4-1.3-0.6c-9.2-20.9-27.4-36.4-49.5-41.9C184.9,135.4,183.2,132.5,181.6,129.6z"/>
	<path class="st0" d="M237.5,180.7c1.2-0.3,2.4-0.3,3.6,0c1.3,0.3,2.5,0.6,3.7,1c0.3,0.8,0.6,1.5,0.8,2.2
		C243,182.9,240.2,181.9,237.5,180.7z"/>
	<path class="st0" d="M236.6,181c0.3-0.1,0.6-0.2,0.9-0.3c2.7,1.1,5.4,2.2,8.2,3.1c0.2,0.7,0.5,1.4,0.7,2c0.5,1.3,0.5,2.7,0.2,4.1
		c-2.4-0.9-4.9-1.6-7.4-2.1C238.5,185.6,237.6,183.3,236.6,181z"/>
	<path class="st0" d="M236.3,180.2c0.4,0.2,0.8,0.4,1.3,0.6c-0.3,0.1-0.6,0.2-0.9,0.3C236.5,180.7,236.4,180.5,236.3,180.2z"/>
	<path class="st0" d="M231.9,189.7c-0.5-3.6,1.4-7.2,4.8-8.7c1,2.3,1.8,4.6,2.5,6.9c2.5,0.5,5,1.2,7.4,2.1
		c-1.7,6.1-12.2,7.5-14.6-0.1L231.9,189.7z"/>
	<path class="st0" d="M232,189.9c2.5,7.6,13,6.2,14.6,0.1c8,2.9,15.2,7.8,20.9,14.2c-5.1-0.6-10.1-1.6-15-2.8
		c-4.7-3-9.9-5.1-15.3-6.3c-2.8-0.4-4.9-2.7-5.3-5.4L232,189.9z"/>
	<path class="st0" d="M236.3,180.2c0.1,0.3,0.2,0.6,0.4,0.9c-3.3,1.5-5.3,5.1-4.8,8.7c-1.8-5.5-4.3-10.7-7.4-15.6
		C228.3,176.4,232.2,178.4,236.3,180.2z"/>
	<path class="st0" d="M186.8,138.2c22.1,5.6,40.4,21.1,49.5,41.9c-4-1.8-8-3.8-11.8-6c-7.2-11.2-17.7-20-30-25.3
		C191.8,145.5,189.1,141.9,186.8,138.2z"/>
	<path class="st0" d="M166,19.4c5.1-2.2,13.9,1.6,11,8.5c-0.7,1.7-1.4,3.3-2,5l-1.5-0.6l-11-8.5l-1.1-2.4
		C162.9,20.7,164.4,20,166,19.4z"/>
	<path class="st0" d="M173.5,32.3l1.5,0.6c-11.7,31.7-9.3,66.9,6.6,96.7c-5.6-0.9-11.4-1.1-17.1-0.8c-12.5-27.4-15.3-58.3-7.9-87.6
		C162.1,37.8,167.7,34.9,173.5,32.3z"/>
	<path class="st0" d="M168.8,136c6.1,0,12.1,0.7,18,2.2c2.4,3.7,5,7.2,7.8,10.6c-4.4-1.9-8.9-3.3-13.6-4.2c-2.8-0.6-5.7-0.9-8.6-1.1
		c-1.5-2.5-3-5-4.3-7.5L168.8,136z"/>
	<path class="st0" d="M107.4,168.9c13.5-20.4,36.3-32.7,60.7-32.9c1.3,2.6,2.8,5.1,4.3,7.5c-23.3-1.1-45.4,9.9-58.6,29.2
		c-1.3,2-3.3,3.3-5.6,3.7c-0.9-2.6-1.7-5.3-2.4-7.9C106.4,168.6,106.9,168.8,107.4,168.9z"/>
	<path class="st0" d="M164.6,128.8c5.7-0.3,11.4-0.1,17.1,0.8c1.6,2.9,3.3,5.8,5.1,8.6c-5.9-1.5-11.9-2.2-18-2.2h-0.7
		C166.8,133.7,165.7,131.2,164.6,128.8z"/>
	<path class="st0" d="M164.6,128.8c1.1,2.4,2.3,4.9,3.5,7.2c-24.5,0.2-47.2,12.5-60.7,32.9c-0.5-0.2-1-0.3-1.5-0.5
		c-0.4-1.6-0.8-3.2-1.2-4.9l4.7-1.9c-1.6-0.5-3.3-0.9-5-1.3C119,141.7,140.9,130.2,164.6,128.8z"/>
	<path class="st0" d="M161.4,21.5l1.1,2.4c-2.4,5.6-4.3,11.4-5.8,17.4c-24.8,15.5-42.9,39.8-50.7,68c-4.5,16.6-5.1,34.1-1.9,51
		c-5.2-1.2-10.5-1.8-15.8-1.7C80,101.7,109.6,46.2,161.4,21.5L161.4,21.5z"/>
	<path class="st2" d="M164.6,128.8c-23.7,1.4-45.6,12.9-60.2,31.6l-0.4-0.1c-3.2-16.9-2.5-34.4,1.9-51c7.8-28.2,25.9-52.5,50.7-68
		C149.3,70.5,152.1,101.4,164.6,128.8z"/>
	<path class="st0" d="M105.9,168.5c0.7,2.7,1.5,5.3,2.4,7.9c-0.9,0.1-1.9,0-2.8-0.2c-4.5-1.4-9.2-2.2-14-2.5
		c-0.7-2.6-1.3-5.1-1.8-7.7C95.1,166.1,100.6,166.9,105.9,168.5z"/>
	<path class="st0" d="M104.4,160.4c1.7,0.4,3.3,0.8,5,1.3l-4.7,1.9c-0.2-1-0.4-1.9-0.6-2.9L104.4,160.4z"/>
	<path class="st0" d="M104.1,160.8c0.2,1,0.4,1.9,0.6,2.9l-3.8,1.5C101.9,163.6,103,162.2,104.1,160.8z"/>
	<path class="st0" d="M104.1,160.8l-0.1-0.5l0.4,0.1L104.1,160.8z"/>
	<path class="st0" d="M104.1,160.8c-1.1,1.4-2.2,2.9-3.2,4.4l3.8-1.5c0.3,1.6,0.7,3.2,1.2,4.9c-5.3-1.6-10.8-2.4-16.3-2.5
		c-0.5-2.4-0.9-4.9-1.3-7.4c5.3,0,10.6,0.6,15.7,1.7L104.1,160.8z"/>
	<path class="st0" d="M26,228.1c0-34.3,27.9-62.2,62.2-62.2c0.4,0,0.9,0,1.3,0c0.5,2.6,1.1,5.2,1.8,7.7c-18-0.9-35.9,6.6-47.1,21.7
		c-18.1,24.3-13.1,58.6,11.2,76.6c9.5,7,20.9,10.8,32.7,10.8c5.5,0,11,0,16.5,0h115.5c8.5,0,16.6,0.2,24.7-3
		c9-3.5,16.6-9.9,21.6-18.2c3.7-1.5,7.3-3.1,10.8-4.9c-7.6,20.2-26.9,33.5-48.4,33.5H88.2C53.8,290.3,26,262.5,26,228.1z"/>
	<path class="st0" d="M26,228.1c0,34.4,27.9,62.2,62.2,62.2c0,0,0,0,0,0h140.6c21.6,0,40.9-13.4,48.4-33.5c3.2-1.6,6.3-3.4,9.4-5.2
		c-4.8,20.4-19.8,36.8-39.7,43.5c-9.5,3.1-19.2,2.8-29,2.8H94.5c-12.7,0-24.8-1.4-36.4-6.9c-20.4-9.8-34.8-28.9-38.6-51.2
		c-3.7-22.8,3.9-46.5,20.8-62.4c13-12.2,30.2-18.9,48-18.9c0.4,2.5,0.8,4.9,1.3,7.4c-0.4,0-0.9,0-1.3,0
		C53.9,165.9,26,193.7,26,228.1z"/>
</g>
</svg>
