<?xml version="1.0" encoding="utf-8"?>
<!-- Generator: Adobe Illustrator 24.3.0, SVG Export Plug-In . SVG Version: 6.00 Build 0)  -->
<svg version="1.1" id="Layer_1" xmlns="http://www.w3.org/2000/svg" xmlns:xlink="http://www.w3.org/1999/xlink" x="0px" y="0px"
	 viewBox="0 0 16 16" enable-background="new 0 0 16 16" xml:space="preserve">
<g>
	<g>
		<g id="XMLID_6_">
			<g>
				<path fill="#FFFFFF" d="M11.7,2.6c0,0.9,0.7,1.6,1.6,1.6c-0.9,0-1.6,0.7-1.6,1.6c0-0.9-0.7-1.6-1.6-1.6
					C11,4.2,11.7,3.5,11.7,2.6z"/>
			</g>
			<g>
				<path fill="none" stroke="#231613" stroke-width="0.65" stroke-linecap="round" stroke-miterlimit="10" d="M10.1,4.2
					c0.9,0,1.6,0.7,1.6,1.6"/>
				<path fill="none" stroke="#231613" stroke-width="0.65" stroke-linecap="round" stroke-miterlimit="10" d="M11.7,5.8
					c0-0.9,0.7-1.6,1.6-1.6"/>
				<path fill="none" stroke="#231613" stroke-width="0.65" stroke-linecap="round" stroke-miterlimit="10" d="M13.3,4.2
					c-0.9,0-1.6-0.7-1.6-1.6"/>
				<path fill="none" stroke="#231613" stroke-width="0.65" stroke-linecap="round" stroke-miterlimit="10" d="M11.7,2.6
					c0,0.9-0.7,1.6-1.6,1.6"/>
			</g>
		</g>
	</g>
	<path fill="#F2EA8E" stroke="#231613" stroke-width="0.6" stroke-linejoin="round" stroke-miterlimit="10" d="M13.8,9.9
		c-5.5,1.5-8.5-5-6-8.7C4.8,2.1,3,5.3,3.8,8.5c0.9,3.2,4.2,5.1,7.4,4.2c1.8-0.5,3.2-1.8,3.9-3.3C14.7,9.6,14.3,9.7,13.8,9.9z"/>
</g>
<g id="XMLID_1_">
	<g>
		<path fill="#FFFFFF" d="M10.7,9.8c1.1,0.2,2,1.1,2,2.3c0,1.3-1,2.3-2.3,2.3H3.8c-1.5,0-2.8-1.2-2.8-2.8s1.2-2.8,2.8-2.8
			c0.3,0,0.7,0.1,1,0.2c0.6-1,1.6-1.6,2.8-1.6C9,7.3,10.3,8.4,10.7,9.8z"/>
	</g>
	<g>
		<path fill="none" stroke="#231714" stroke-width="0.65" stroke-miterlimit="10" d="M10.7,9.8C10.3,8.4,9,7.3,7.6,7.3
			C6.3,7.3,5.3,8,4.7,9c-0.3-0.1-0.6-0.2-1-0.2C2.2,8.8,1,10.1,1,11.6s1.2,2.8,2.8,2.8h6.6c1.3,0,2.3-1,2.3-2.3
			C12.7,10.9,11.8,9.9,10.7,9.8z"/>
	</g>
</g>
</svg>
