<?xml version="1.0" encoding="utf-8"?>
<!-- Generator: Adobe Illustrator 24.3.0, SVG Export Plug-In . SVG Version: 6.00 Build 0)  -->
<svg version="1.1" id="Layer_1" xmlns="http://www.w3.org/2000/svg" xmlns:xlink="http://www.w3.org/1999/xlink" x="0px" y="0px"
	 viewBox="0 0 358 278" style="enable-background:new 0 0 358 278;" xml:space="preserve">
<style type="text/css">
	.st0{fill:#FFFFFF;}
	.st1{fill:#231815;}
	.st2{fill:none;stroke:#231815;stroke-miterlimit:10;}
</style>
<g id="图层_1">
	<path class="st0" d="M320.7,207.4c0.5,14.5-8.4,28.2-22.3,33.1c-6.1,2.1-12.1,1.9-18.4,1.9h-90.5c-4.6,0-9.2,0-13.8,0
		c-23.1,0-41.9-18.7-41.9-41.8c0-8.6,2.6-17.1,7.6-24.1c10.5-15.3,30-21,47.5-15.6c3.4,1,6.6-0.7,8.5-3.5
		c11.3-16.5,31.8-25.4,51.6-21.5c18.4,3.6,33.4,16.8,39.2,34.6c0.4,2.8,2.5,5,5.3,5.4C308.4,179.2,320.1,191.7,320.7,207.4z"/>
	<path class="st1" d="M313.2,168.1c4.5,2.9,8.4,6.5,11.8,10.6c-1.2,2.4-2.5,4.8-3.9,7.1c-2.9-4.3-6.6-8-10.9-10.9
		C311.3,172.7,312.3,170.4,313.2,168.1z"/>
	<path class="st0" d="M274,97.9c22.5,4.8,40.6,23.5,42.5,46.8c0.6,7.9-0.5,15.9-3.2,23.3c-3.8-2.4-7.8-4.3-12.1-5.6
		c-8.4-21-26.9-37.4-49.6-41.3c-24-4.2-48.3,5-63.6,24c-18-3.9-36.8,1.1-50.6,13.5c-12.2,11.2-18.9,27.2-18.4,43.8
		c-6.2,0-12.4,0.1-18.7,0c-35.8-0.1-64.8-29.3-64.7-65.1c0.1-35.2,28.2-63.8,63.3-64.7c7.4-0.1,14.7,1,21.7,3.2
		c3.3,1,6.6-0.7,8.5-3.4c17.3-25.5,48.9-39.2,79.4-33.3c28.3,5.5,51.4,25.9,60.2,53.4C269.1,95.3,271.2,97.5,274,97.9z"/>
	<path class="st1" d="M313.2,168.1c-0.9,2.3-1.9,4.6-3.1,6.8c-2.3-1.6-4.8-2.9-7.4-4c0.4-1.4,0.3-2.9-0.1-4.2
		c-0.5-1.4-1-2.9-1.5-4.3C305.3,163.7,309.4,165.6,313.2,168.1z"/>
	<path class="st1" d="M302.6,166.7c0.5,1.4,0.5,2.8,0.1,4.2c-2.4-1-4.8-1.7-7.4-2.2c-0.7-2.3-1.6-4.6-2.6-6.9
		c1.5-0.6,3.1-0.7,4.6-0.4c1.3,0.3,2.5,0.6,3.7,1C301.6,163.8,302.1,165.3,302.6,166.7z"/>
	<path class="st1" d="M295.4,168.7c2.5,0.5,5,1.3,7.4,2.2c-1.8,6-12.1,7.3-14.6-0.2l-0.1-0.2c-0.5-3.6,1.4-7.1,4.7-8.7
		C293.8,164,294.6,166.3,295.4,168.7z"/>
	<path class="st1" d="M288.1,170.7c2.5,7.6,12.8,6.2,14.6,0.2c2.6,1.1,5,2.4,7.4,4c4.3,2.9,8,6.6,10.9,10.8c1.4-2.3,2.7-4.6,3.9-7.1
		c6.6,8.2,10.4,18.3,10.7,28.8c0.7,20.9-12.6,39.9-32.1,47.1c-8,3-16.3,2.9-24.7,2.9h-98.4c-10.8,0-21-1.4-30.8-6.3
		c-13.6-7-23.7-19.1-28.3-33.7h7.9c-1.7-4.8-2.7-9.9-2.9-15c0-0.6,0-1.2,0-1.8c0-27.2,22.1-49.3,49.3-49.3c5.2,0,10.3,0.8,15.2,2.4
		c17.9-26.9,54.1-34.2,81-16.3c9.1,6.1,16.3,14.5,20.9,24.5c-3.3,1.6-5.2,5.1-4.7,8.7c-5.8-17.8-20.8-31-39.2-34.6
		c-19.8-3.9-40.3,5.1-51.6,21.5c-1.9,2.7-5.1,4.5-8.5,3.5c-17.4-5.3-36.9,0.3-47.5,15.6c-13.3,18.9-8.7,45,10.2,58.3
		c7.1,5,15.5,7.6,24.1,7.6c4.6,0,9.2,0,13.8,0H280c6.3,0,12.4,0.2,18.4-1.9c13.9-4.8,22.8-18.5,22.3-33.1
		c-0.5-15.7-12.3-28.2-27.3-31.5c-2.8-0.4-4.9-2.6-5.3-5.4L288.1,170.7z"/>
	<path class="st1" d="M283.2,88.7c2.9,9.2-11.5,13.1-14.5,4c0-0.1,0-0.1-0.1-0.2c-0.7-4.7,3.2-10.3,9.3-9c1.2,0.3,2.5,0.6,3.7,0.9
		C282.2,85.8,282.7,87.3,283.2,88.7z"/>
	<path class="st1" d="M274,97.9c-2.8-0.4-5-2.7-5.3-5.4c0,0.1,0,0.1,0.1,0.2c2.9,9.2,17.4,5.2,14.5-4c-0.5-1.5-1-2.9-1.5-4.3
		c5.1,1.4,9.9,3.3,14.6,5.8c23.6,12.8,38,39.7,35,66.4c-0.8,7.6-3,15.1-6.3,22c-3.3-4.1-7.3-7.7-11.8-10.6
		c2.8-7.4,3.9-15.4,3.2-23.3C314.5,121.4,296.4,102.8,274,97.9z"/>
	<path class="st1" d="M192.9,146.4c-1.6-0.5-3.3-0.9-4.9-1.3c15.3-19,39.6-28.2,63.6-24c22.6,3.9,41.2,20.3,49.6,41.3
		c-1.2-0.4-2.5-0.7-3.7-1c-1.5-0.4-3.1-0.2-4.6,0.4c-13.4-29.4-48-42.4-77.4-29c-10,4.5-18.4,11.8-24.5,20.9
		c-2.2-0.7-4.5-1.3-6.9-1.7l0.4-2.1L192.9,146.4z"/>
	<path class="st1" d="M192.9,146.4l-8.5,3.5c1.1-1.6,2.3-3.2,3.5-4.7C189.6,145.5,191.2,145.9,192.9,146.4z"/>
	<path class="st1" d="M129.3,217.4h-7.9c-0.8-2.6-1.4-5.2-1.8-7.9c-0.4-2.3-0.6-4.7-0.6-7.1h7.4
		C126.5,207.5,127.5,212.6,129.3,217.4z"/>
	<path class="st1" d="M124.6,61.4l-8.5,3.4c1.1-1.6,2.3-3.2,3.5-4.8C121.3,60.4,122.9,60.9,124.6,61.4z"/>
	<path class="st1" d="M268.6,92.5c-8.9-27.4-31.9-47.9-60.2-53.4c-30.4-5.9-62.1,7.8-79.4,33.3c-1.8,2.7-5.1,4.5-8.5,3.4
		c-7-2.2-14.4-3.3-21.7-3.2c-35.8,0.9-64.2,30.7-63.3,66.5c0.9,35.1,29.5,63.2,64.7,63.3c6.2,0.1,12.4,0,18.7,0
		c0.1,2.4,0.3,4.7,0.6,7.1c0.4,2.7,1,5.3,1.8,7.9h-13.3c-14.3,0-28-1.4-41.3-7.4c-23.7-10.7-41.3-33.8-45.3-59.5
		c-4.1-26.4,4.8-53.7,24.7-71.8C66,60.7,93.5,53.7,119.6,60c-1.2,1.6-2.4,3.2-3.5,4.8l8.5-3.4c-1.7-0.5-3.3-1-5-1.4
		c26.2-35,73.3-47,113.1-28.8c22.8,10.2,40.3,29.9,49,53.1c-1.2-0.3-2.5-0.6-3.7-0.9C271.8,82.1,268,87.8,268.6,92.5z"/>
	<path class="st1" d="M119,202.4c-0.5-16.6,6.2-32.6,18.4-43.8c13.7-12.3,32.5-17.3,50.5-13.5c-1.2,1.5-2.4,3.1-3.5,4.7L184,152
		c-2.8-0.5-5.6-0.7-8.4-0.7c-27.2,0-49.3,22.1-49.3,49.3c0,0.6,0,1.2,0,1.8L119,202.4L119,202.4z"/>
	<path class="st2" d="M119.6,60C93.5,53.7,66,60.7,46.1,78.7c-19.8,18.1-28.8,45.4-24.7,71.8c4,25.7,21.6,48.7,45.3,59.5
		c13.3,6,27,7.4,41.3,7.4h13.3"/>
	<path class="st2" d="M119.6,60c1.7,0.4,3.3,0.9,5,1.4l-8.5,3.4C117.2,63.2,118.4,61.6,119.6,60z"/>
	<path class="st2" d="M281.7,84.4c-8.6-23.3-26.1-42.9-49-53.1C192.9,13,145.8,25,119.6,60"/>
	<path class="st2" d="M119,202.4c-6.2,0-12.4,0.1-18.7,0c-35.8-0.1-64.8-29.3-64.7-65.1c0.1-35.2,28.2-63.8,63.3-64.7
		c7.4-0.1,14.7,1,21.7,3.2c3.3,1,6.6-0.7,8.5-3.4c17.3-25.5,48.9-39.2,79.4-33.3c28.3,5.5,51.4,25.9,60.2,53.4"/>
	<path class="st2" d="M268.6,92.5c0.4,2.8,2.5,5,5.3,5.4c22.5,4.8,40.6,23.5,42.5,46.8c0.6,7.9-0.5,15.9-3.2,23.3"/>
	<path class="st2" d="M324.9,178.7c3.3-6.9,5.5-14.4,6.3-22c3-26.7-11.4-53.7-35-66.4c-4.6-2.5-9.5-4.4-14.6-5.8"/>
	<path class="st2" d="M268.6,92.5c0,0.1,0,0.1,0.1,0.2c2.9,9.2,17.4,5.2,14.5-4c-0.5-1.5-1-2.9-1.5-4.3c-1.2-0.3-2.5-0.6-3.7-0.9
		C271.8,82.1,268,87.8,268.6,92.5z"/>
	<path class="st2" d="M288.1,170.5l0.1,0.2c2.5,7.6,12.8,6.2,14.6,0.2c0.4-1.4,0.3-2.9-0.1-4.2c-0.5-1.4-1-2.9-1.5-4.3
		c-8.4-21-26.9-37.4-49.6-41.3c-24-4.2-48.3,5-63.6,24c-1.2,1.5-2.4,3.1-3.5,4.7l8.5-3.5c-1.6-0.5-3.3-0.9-4.9-1.3
		c-18-3.9-36.8,1.1-50.6,13.5c-12.2,11.2-18.9,27.2-18.4,43.8c0.1,2.4,0.3,4.7,0.6,7.1c0.4,2.7,1,5.3,1.8,7.9
		c4.5,14.6,14.7,26.7,28.2,33.7c9.8,4.9,20,6.3,30.8,6.3h98.5c8.4,0,16.7,0.1,24.7-2.9c19.4-7.2,32.8-26.2,32.1-47.1
		c-0.4-10.5-4.1-20.6-10.7-28.8c-3.3-4.1-7.3-7.7-11.8-10.6c-3.8-2.4-7.8-4.3-12.1-5.6c-1.2-0.4-2.5-0.7-3.7-1
		c-1.5-0.4-3.1-0.2-4.6,0.4C289.5,163.3,287.6,166.9,288.1,170.5"/>
	<path class="st2" d="M288.1,170.5c0.4,2.8,2.5,5,5.3,5.4c15,3.3,26.8,15.8,27.3,31.5c0.5,14.5-8.4,28.2-22.3,33.1
		c-6.1,2.1-12.1,1.9-18.4,1.9h-90.5c-4.6,0-9.2,0-13.8,0c-23.1,0-41.9-18.7-41.9-41.8c0-8.6,2.6-17.1,7.6-24.1
		c10.5-15.3,30-21,47.5-15.6c3.4,1,6.6-0.7,8.5-3.5c11.3-16.5,31.8-25.4,51.6-21.5C267.3,139.5,282.3,152.7,288.1,170.5z"/>
</g>
</svg>
