<?xml version="1.0" encoding="utf-8"?>
<!-- Generator: Adobe Illustrator 24.3.0, SVG Export Plug-In . SVG Version: 6.00 Build 0)  -->
<svg version="1.1" id="Layer_1" xmlns="http://www.w3.org/2000/svg" xmlns:xlink="http://www.w3.org/1999/xlink" x="0px" y="0px"
	 viewBox="0 0 16 16" enable-background="new 0 0 16 16" xml:space="preserve">
<g id="XMLID_4_">
	<g>
		<path fill="#FFFFFF" d="M8.8,3.1c1.8,0,3.3,1.2,3.7,2.8c1.3,0.2,2.4,1.3,2.4,2.7c0,1.5-1.2,2.8-2.8,2.8H4.3C2.5,11.5,1,10,1,8.2
			s1.5-3.3,3.3-3.3c0.4,0,0.8,0.1,1.1,0.2C6.1,3.9,7.3,3.1,8.8,3.1z"/>
	</g>
	<g>
		<path fill="none" stroke="#231714" stroke-width="0.65" stroke-miterlimit="10" d="M12.5,6C12,4.3,10.5,3.1,8.8,3.1
			c-1.4,0-2.7,0.8-3.3,1.9C5.1,4.9,4.7,4.9,4.3,4.9C2.5,4.9,1,6.3,1,8.2s1.5,3.3,3.3,3.3h7.8c1.5,0,2.8-1.2,2.8-2.8
			C14.9,7.3,13.8,6.2,12.5,6z"/>
	</g>
</g>
<g id="XMLID_7_">
	<g>
		<path fill="#FFFFFF" d="M10.9,7.8c1.2,0,2.2,0.7,2.5,1.7c0.9,0.1,1.6,0.8,1.6,1.7c0,0.9-0.8,1.7-1.8,1.7H8c-1.2,0-2.2-0.9-2.2-2
			s1-2,2.2-2c0.3,0,0.5,0,0.8,0.1C9.2,8.3,10,7.8,10.9,7.8z"/>
	</g>
	<g>
		<path fill="none" stroke="#231714" stroke-width="0.65" stroke-miterlimit="10" d="M13.4,9.5c-0.3-1-1.3-1.7-2.5-1.7
			C10,7.8,9.2,8.3,8.7,9C8.5,8.9,8.2,8.9,8,8.9c-1.2,0-2.2,0.9-2.2,2s1,2,2.2,2h5.2c1,0,1.8-0.7,1.8-1.7C15,10.4,14.3,9.7,13.4,9.5z
			"/>
	</g>
</g>
</svg>
