<?xml version="1.0" encoding="utf-8"?>
<!-- Generator: Adobe Illustrator 24.3.0, SVG Export Plug-In . SVG Version: 6.00 Build 0)  -->
<svg version="1.1" id="Layer_1" xmlns="http://www.w3.org/2000/svg" xmlns:xlink="http://www.w3.org/1999/xlink" x="0px" y="0px"
	 viewBox="0 0 340 345" style="enable-background:new 0 0 340 345;" xml:space="preserve">
<style type="text/css">
	.st0{fill:#DCDDDD;}
	.st1{fill:#231815;}
	.st2{fill:#F4EC90;}
	.st3{fill:#FFFFFF;}
</style>
<g id="图层_1">
	<path class="st0" d="M107.9,172.6c11.2-16.3,29-26.9,48.7-28.9c6.2-0.6,12.4-0.3,18.5,0.8c0.1,0,0.2,0.1,0.3,0.1
		c20.5,4.1,38,17.6,47.1,36.4c1.4,2.8,2.6,5.8,3.5,8.8c0.7,2.5,2.7,4.5,5.2,5.2c6.9,1.5,13.3,4.5,18.9,8.9c10,7.8,16.2,19.5,17,32.2
		c0.2,2.7,0.1,5.3-0.2,8c-0.5,3.9-1.5,7.8-3,11.4c-7.1,16.4-23.1,27.1-40.9,27.3c-4.8,0.1-7.2,3.8-7.2,7.5h-10.7
		c0-3.8-2.4-7.5-7.2-7.5h-89.3c-4.8,0-7.2,3.8-7.2,7.5H89.4c0-3.7-2.4-7.5-7.2-7.5c-24.5-0.3-46.4-16.6-52.8-40.4
		c-6.3-24,4.1-49.3,25.6-61.8c6.3-3.6,13.3-5.9,20.5-6.8c5.4-0.6,10.8-0.5,16.1,0.4c2.7,0.4,5.3,1.1,7.9,1.9
		C102.7,177.1,106,175.3,107.9,172.6z M204.5,269.4c8,0,9.4-10.4,4-13.9c-1.2-0.8-2.6-1.1-4-1.1H93.1c-9.6,0-9.7,15,0,15H204.5z"/>
	<path class="st1" d="M322.5,191.8c-8.9,20.5-22.9,38.4-40.7,52c0.6-6.2,0.1-12.4-1.3-18.4c7.7-7.2,14.5-15.3,20.1-24.3
		c5.9-1.5,11.7-3.5,17.3-5.8l-8.5-11l-0.6-1.5c1.7-0.6,3.4-1.3,5-2C320.9,177.9,324.7,186.7,322.5,191.8z"/>
	<path class="st1" d="M309.5,184.2l8.5,11c-5.6,2.4-11.4,4.3-17.4,5.8C304.1,195.7,307,190,309.5,184.2z"/>
	<path class="st1" d="M309,182.7l0.6,1.5c-2.5,5.8-5.5,11.5-8.9,16.8c-9.5,2.5-19.3,3.8-29.2,4.1c-4.2-6.2-9.6-11.5-15.8-15.7
		C273.8,191.3,292,189,309,182.7z"/>
	<path class="st1" d="M285.5,83.5c5.6-0.7-2,7,1.4,7.9l-0.6-0.2c-2.7-0.9-4.6-3.4-4.6-6.3c0.6-0.2,1.3-0.5,1.9-0.7
		C284.1,83.8,284.8,83.6,285.5,83.5z"/>
	<path class="st1" d="M283.5,84.1c-0.6,0.2-1.3,0.5-1.9,0.7c-0.2-4.6,3.5-9.5,9.3-7.9c9.3,2.7,5.3,17.1-4,14.5
		c-3.3-0.9,4.2-8.6-1.4-7.9C284.8,83.6,284.1,83.8,283.5,84.1z"/>
	<path class="st2" d="M300.7,201c-5.6,8.9-12.4,17.1-20.1,24.3c-1.7-7.2-4.8-14.1-9-20.2C281.4,204.9,291.1,203.5,300.7,201z"/>
	<path class="st1" d="M281.6,245.4c-3.8,29.7-28.9,52-58.8,52.3c-4.9,0.1-7.3-3.7-7.2-7.5h7.2c24.2,0,45.2-16.8,50.5-40.5
		c2.9-1.9,5.7-3.9,8.5-6C281.7,244.3,281.7,244.9,281.6,245.4z"/>
	<path class="st1" d="M286.2,91.1c-3.4-1-6.6-2.3-9.8-4c0.6-0.3,1.3-0.7,1.9-1c1-0.5,2.1-0.9,3.2-1.4
		C281.6,87.7,283.5,90.2,286.2,91.1z"/>
	<path class="st1" d="M274,230.9c2.2-1.8,4.4-3.6,6.5-5.6c1.4,6,1.8,12.3,1.3,18.4c-2.7,2.1-5.6,4.1-8.5,6c0.8-3.7,1.2-7.5,1.2-11.3
		C274.6,236,274.4,233.4,274,230.9z"/>
	<path class="st1" d="M274,230.9c0.4,2.5,0.6,5,0.6,7.6c0,3.8-0.4,7.6-1.2,11.3c-3.1,2-6.3,3.9-9.6,5.7c1.5-3.6,2.6-7.5,3-11.4
		c0.3-2.7,0.4-5.3,0.2-8C269.4,234.4,271.8,232.7,274,230.9z"/>
	<path class="st1" d="M273.4,249.7c-5.3,23.7-26.3,40.5-50.5,40.5h-7.2c0-3.7,2.5-7.4,7.2-7.5c17.8-0.2,33.9-10.9,40.9-27.3
		C267,253.7,270.2,251.8,273.4,249.7z"/>
	<path class="st1" d="M262.3,205c6.3,7.4,10.3,16.3,11.7,25.9c-2.3,1.8-4.6,3.5-7,5.1c-0.8-12.7-7-24.4-17-32.2
		C254.1,204.4,258.2,204.8,262.3,205z"/>
	<path class="st1" d="M232.1,184.5c7.7,2.5,15.7,4.1,23.7,4.9c6.2,4.2,11.5,9.5,15.7,15.7c-3.1,0.1-6.1,0-9.2-0.1
		c-7.5-8.9-17.8-14.9-29.1-17.2C232.8,186.7,232.5,185.6,232.1,184.5z"/>
	<path class="st1" d="M262.3,205c3.1,0.1,6.1,0.2,9.2,0.1c4.2,6.1,7.3,13,9,20.2c-2.1,1.9-4.3,3.8-6.5,5.6
		C272.6,221.3,268.6,212.4,262.3,205z"/>
	<path class="st1" d="M254.6,65.3c-1-1.9-1.9-3.8-2.6-5.7c-0.5-1.1-0.9-2.2-1.2-3.4c-0.1-0.5-0.3-0.9-0.4-1.4h8.3
		c0,1.4-1.1,3.5-1.6,4.7C256.4,61.5,255.5,63.4,254.6,65.3z"/>
	<path class="st1" d="M227.6,89.5c1.7-0.7,3.4-1.5,5.1-2.3c4,2.1,7.8,4.7,11.1,7.8c4.4,4,8,8.7,10.7,14c-1.5,2.8-3.3,6.2-3.7,9.2
		c-0.4,2.5-2.1,1.4,3.8,1.4c4.9,0,4.5,1,3.5-2.1c-0.7-2-1.4-3.9-2.3-5.8c-0.4-0.9-0.9-1.8-1.3-2.7l0.6-1.1
		c5-8.9,12.4-16.1,21.4-20.8c3.1,1.7,6.4,3,9.8,4l0.6,0.2c9.3,2.7,13.3-11.8,4-14.5c5.1,1.4,8.4,6.5,7.7,11.8
		c-0.7,5.3-4.5,7.7-9.1,9.3c-9.5,3.3-17.1,9.3-21.8,18.2c-2,3.7-2.4,8.5-5.2,11.7c-3,3.4-7.9,4.5-12.2,2.7c-5-2.1-5.7-6.5-7.4-11
		c-1.4-3.6-3.4-6.9-5.9-9.9c-2.9-3.4-6.3-6.3-10.2-8.5c-3.5-2-7.5-2.6-10.9-4.5c-4.3-2.4-6.5-7.4-5.2-12.2c1.2-4.5,4.7-6.5,8.8-7.9
		c8-2.5,14.9-7.7,19.7-14.6c4.5-6.8,5.2-19.3,15.8-18.9c9.9,0.4,10.6,12.3,14.9,18.9c5,7.4,12.4,12.7,21,15
		c-5.8-1.6-9.5,3.4-9.3,7.9c-1.1,0.4-2.1,0.9-3.2,1.4c-0.7,0.3-1.3,0.6-1.9,1c-9.3-4.9-17-12.5-21.9-21.9c1-1.9,1.8-3.8,2.5-5.7
		c0.5-1.3,1.6-3.3,1.6-4.7h-8.3c0.1,0.5,0.3,0.9,0.4,1.4c0.3,1.2,0.7,2.3,1.2,3.4c0.8,2,1.6,3.9,2.6,5.7c-0.6,1.2-1.3,2.4-2,3.6
		c-3.8,6-8.8,11.1-14.6,15.2c-1.7,1.2-3.4,2.2-5.3,3.2c-2.5-1.3-5.1-2.4-7.8-3.3c-0.9-0.4-1.8-0.7-2.7-0.8v4.2
		c-1.3,3.4-1.1,4.7,0.7,3.9C224.2,91.2,226.2,90.1,227.6,89.5z"/>
	<path class="st1" d="M254.5,109c0.5,0.9,0.9,1.8,1.3,2.7c0.9,1.9,1.6,3.8,2.3,5.8c1,3.1,1.3,2.1-3.5,2.1c-5.9,0-4.1,1.1-3.8-1.4
		C251.2,115.2,253,111.8,254.5,109z"/>
	<path class="st3" d="M254.5,109c-2.7-5.3-6.3-10-10.7-14c-3.4-3.1-7.1-5.7-11.1-7.8c1.8-0.9,3.6-2,5.3-3.2
		c5.8-4.1,10.8-9.2,14.6-15.2c0.7-1.2,1.4-2.4,2-3.6c5,9.3,12.6,16.9,21.9,21.8c-9,4.7-16.4,12-21.4,20.8L254.5,109z"/>
	<path class="st1" d="M262.3,205c-4.1-0.2-8.2-0.6-12.2-1.1c-5.5-4.4-12-7.4-18.9-8.9c-2.5-0.7-4.5-2.7-5.2-5.2c-1-3-2.1-6-3.5-8.8
		c3.2,1.3,6.4,2.5,9.7,3.5c0.4,1.1,0.8,2.2,1.1,3.3C244.5,190.1,254.8,196.2,262.3,205z"/>
	<path class="st1" d="M240.4,185.8l-5.2-5.2c1.3,0.3,2.5,0.6,3.7,1C239.4,182.9,240,184.3,240.4,185.8z"/>
	<path class="st1" d="M235.2,180.5l5.2,5.2c-0.5-1.4-1-2.9-1.5-4.3c6,1.7,11.7,4.4,16.9,7.9c-8-0.8-16-2.5-23.7-4.9
		c-9.7-26.8-34.1-45.7-62.5-48.3c-1.6-2.5-3-5.1-4.4-7.7c4.2,0.1,8.4,0.5,12.5,1.2c28.1,4.9,51.2,25.4,61.3,51.7
		C237.7,181.1,236.4,180.8,235.2,180.5z"/>
	<path class="st1" d="M226.3,311c9.7,0,9.6,15,0,15H126.1c-9.7,0-9.6-15,0-15H226.3z"/>
	<path class="st1" d="M222.9,91.1c-1.8,0.8-2-0.6-0.7-3.9V83c0.9,0.2,1.9,0.4,2.7,0.8c2.7,0.9,5.3,2,7.8,3.3
		c-1.7,0.9-3.4,1.6-5.1,2.3C226.2,90.1,224.2,91.2,222.9,91.1z"/>
	<path class="st1" d="M169.5,136.2c28.4,2.6,52.8,21.5,62.5,48.3c-3.3-1-6.5-2.2-9.7-3.5c-9.2-18.8-26.6-32.3-47.1-36.4
		C173.2,141.8,171.3,139,169.5,136.2z"/>
	<path class="st1" d="M154.8,261.9c-3.5-1.3-6.9-2.8-10.3-4.5c-2-1-4-2-5.9-3h46.1c7.9,1.2,15.9,1.5,23.8,1.1c5.4,3.5,4,13.9-4,13.9
		h-20.7C173.9,268.1,164.2,265.5,154.8,261.9z"/>
	<path class="st1" d="M204.9,290.2H101.1c0-3.8,2.4-7.5,7.2-7.5h89.3C202.5,282.7,204.9,286.5,204.9,290.2z"/>
	<path class="st1" d="M101.1,290.2h103.8c0,3.8-2.4,7.5-7.2,7.5h-89.3C103.5,297.7,101.1,294,101.1,290.2z"/>
	<path class="st1" d="M208.5,255.6c-8,0.4-15.9,0.1-23.8-1.1h19.8C205.9,254.4,207.3,254.8,208.5,255.6z"/>
	<path class="st1" d="M169.5,136.2c1.8,2.9,3.7,5.6,5.8,8.4c-0.1,0-0.2,0-0.3-0.1c-6.1-1.2-12.3-1.5-18.5-0.8
		c-1.4-2.3-2.8-4.7-4.1-7c3.4-0.5,6.8-0.7,10.3-0.7C165,135.9,167.3,136,169.5,136.2z"/>
	<path class="st1" d="M149.1,129.7c5.3-0.9,10.6-1.3,16-1.2c1.4,2.6,2.8,5.2,4.4,7.7c-2.2-0.2-4.5-0.3-6.8-0.3
		c-3.4,0-6.9,0.2-10.3,0.7C151.3,134.3,150.1,132.1,149.1,129.7z"/>
	<path class="st1" d="M165.1,128.5c-5.4-0.1-10.7,0.3-16,1.2c-13-27.7-15.9-59-8.4-88.6c5.4-3.4,11-6.4,16.8-8.9l1.5,0.6
		C147.4,64.1,149.7,98.9,165.1,128.5z"/>
	<path class="st1" d="M149.9,19.2c5.1-2.2,13.9,1.6,11,8.5c-0.7,1.7-1.4,3.3-2,5l-1.5-0.6l-11-8.5l-1.1-2.4
		C146.9,20.6,148.4,19.9,149.9,19.2z"/>
	<path class="st1" d="M157.5,32.2c-5.8,2.5-11.5,5.5-16.8,8.9c1.5-5.9,3.5-11.7,5.8-17.4L157.5,32.2z"/>
	<path class="st1" d="M154.8,261.9c9.4,3.6,19.1,6.1,29,7.5H93.1c-9.7,0-9.6-15,0-15h45.5c1.9,1.1,3.9,2.1,5.9,3
		C147.9,259.1,151.3,260.6,154.8,261.9z"/>
	<path class="st1" d="M152.5,136.6c1.3,2.4,2.6,4.7,4.1,7c-19.7,2-37.5,12.6-48.7,28.9c-1.8,2.7-5.1,4.5-8.5,3.4
		c-2.6-0.8-5.2-1.4-7.9-1.9c-0.8-2.6-1.6-5.3-2.2-8c4.1,0.5,8.1,1.4,12.1,2.6C113,151.2,131.6,139.5,152.5,136.6z"/>
	<path class="st1" d="M145.4,21.3l1.1,2.4c-2.4,5.7-4.3,11.5-5.8,17.4c-24.8,15.5-42.9,39.8-50.7,68c-4.3,16.2-5.1,33.1-2.2,49.6
		c-5.1-0.4-10.3-0.2-15.4,0.6C63.8,102.2,93.4,46.3,145.4,21.3L145.4,21.3z"/>
	<path class="st2" d="M90,109.1c7.8-28.2,25.9-52.5,50.7-68c-7.5,29.6-4.6,61,8.4,88.7c-20.1,3.6-38.1,14.4-50.7,30.5
		c-3.5-0.8-7.1-1.3-10.6-1.6C84.9,142.2,85.6,125.3,90,109.1z"/>
	<path class="st1" d="M103.4,161.6l-8.5,3.4c1.1-1.6,2.3-3.2,3.5-4.8C100.1,160.6,101.7,161.1,103.4,161.6z"/>
	<path class="st1" d="M101.4,168.8c-3.9-1.3-8-2.1-12.1-2.6c-0.6-2.5-1.1-5-1.6-7.5c3.6,0.3,7.1,0.8,10.6,1.6
		c-1.2,1.6-2.4,3.1-3.5,4.8l8.5-3.4c-1.6-0.5-3.3-0.9-5-1.3c12.6-16.1,30.6-26.9,50.7-30.5c1.1,2.3,2.2,4.6,3.4,6.9
		C131.6,139.5,113,151.2,101.4,168.8z"/>
	<path class="st1" d="M82.2,165.8c2.4,0,4.8,0.1,7.1,0.4c0.6,2.7,1.4,5.4,2.2,8c-5.3-0.9-10.7-1-16.1-0.4c-0.7-2.4-1.2-4.9-1.8-7.4
		C76.5,166,79.3,165.8,82.2,165.8z"/>
	<path class="st1" d="M87.8,158.6c0.4,2.5,1,5,1.6,7.5c-2.4-0.3-4.7-0.4-7.1-0.4c-2.9,0-5.7,0.2-8.5,0.6c-0.5-2.4-0.9-4.8-1.3-7.2
		C77.5,158.5,82.6,158.3,87.8,158.6z"/>
	<path class="st1" d="M20,228c0-31.1,22.9-57.4,53.7-61.6c0.5,2.5,1.1,4.9,1.8,7.4c-7.2,0.8-14.2,3.1-20.5,6.8
		c-21.5,12.5-31.9,37.8-25.6,61.8c6.5,23.8,28.3,40.1,52.8,40.4c4.8,0,7.2,3.8,7.2,7.5h-7.2C47.9,290.2,20,262.4,20,228
		C20,228,20,228,20,228z"/>
	<path class="st1" d="M72.4,159.2c0.4,2.4,0.8,4.8,1.3,7.2c-34,4.7-57.8,36.1-53.1,70.2c4.3,30.8,30.6,53.7,61.6,53.7h7.2
		c0,3.8-2.4,7.5-7.2,7.5c-17.6-0.1-34.5-6.8-47.4-18.6C11.5,257.7,6,222,21.1,194.3C31.8,175.2,50.7,162.2,72.4,159.2z"/>
</g>
</svg>
