<?xml version="1.0" encoding="utf-8"?>
<!-- Generator: Adobe Illustrator 24.3.0, SVG Export Plug-In . SVG Version: 6.00 Build 0)  -->
<svg version="1.1" id="Layer_1" xmlns="http://www.w3.org/2000/svg" xmlns:xlink="http://www.w3.org/1999/xlink" x="0px" y="0px"
	 viewBox="0 0 16 16" enable-background="new 0 0 16 16" xml:space="preserve">
<g>
	<g>
		<g id="XMLID_6_">
			<g>
				<path fill="#FFFFFF" d="M11.8,3.5c0,0.8,0.7,1.5,1.5,1.5c-0.8,0-1.5,0.7-1.5,1.5c0-0.8-0.7-1.5-1.5-1.5
					C11.2,5,11.8,4.3,11.8,3.5z"/>
			</g>
			<g>
				<path fill="none" stroke="#231613" stroke-width="0.65" stroke-linecap="round" stroke-miterlimit="10" d="M10.4,5
					c0.8,0,1.5,0.7,1.5,1.5"/>
				<path fill="none" stroke="#231613" stroke-width="0.65" stroke-linecap="round" stroke-miterlimit="10" d="M11.8,6.4
					c0-0.8,0.7-1.5,1.5-1.5"/>
				<path fill="none" stroke="#231613" stroke-width="0.65" stroke-linecap="round" stroke-miterlimit="10" d="M13.3,5
					c-0.8,0-1.5-0.7-1.5-1.5"/>
				<path fill="none" stroke="#231613" stroke-width="0.65" stroke-linecap="round" stroke-miterlimit="10" d="M11.8,3.5
					c0,0.8-0.7,1.5-1.5,1.5"/>
			</g>
		</g>
	</g>
	<path fill="#F2EA8E" stroke="#231613" stroke-width="0.6" stroke-linejoin="round" stroke-miterlimit="10" d="M13.8,10.2
		c-5.1,1.4-7.8-4.7-5.5-8C5.5,3,3.8,6,4.6,8.9c0.8,3,3.8,4.7,6.8,3.9c1.7-0.5,3-1.6,3.6-3.1C14.6,9.9,14.3,10.1,13.8,10.2z"/>
</g>
<g>
	<g id="XMLID_9_">
		<g>
			<path fill="#DCDDDC" d="M10.2,9.4c1.1,0.2,2,1.1,2,2.2c0,1.2-1,2.2-2.2,2.2H3.6c-1.5,0-2.6-1.2-2.6-2.6s1.2-2.7,2.6-2.7
				c0.3,0,0.7,0.1,0.9,0.2C5.1,7.8,6,7.2,7.3,7.2C8.7,7.2,9.9,8.1,10.2,9.4z"/>
		</g>
	</g>
	<g id="XMLID_8_">
		<g>
			
				<path fill="none" stroke="#231714" stroke-width="0.65" stroke-linecap="round" stroke-linejoin="round" stroke-miterlimit="10" d="
				M10,13.9c1.2,0,2.2-1,2.2-2.2c0-1.1-0.8-2.1-2-2.2c-0.4-1.3-1.6-2.3-3-2.3c-1.1,0-2.1,0.7-2.7,1.6C4.3,8.6,4,8.6,3.6,8.6
				C2.2,8.6,1,9.8,1,11.2s1.1,2.6,2.5,2.6"/>
		</g>
	</g>
	
		<line fill="none" stroke="#231714" stroke-width="0.65" stroke-linecap="round" stroke-linejoin="round" stroke-miterlimit="10" x1="4.5" y1="13.9" x2="9.1" y2="13.9"/>
	
		<line fill="none" stroke="#231714" stroke-width="0.65" stroke-linecap="round" stroke-linejoin="round" stroke-miterlimit="10" x1="3.8" y1="12.7" x2="9.7" y2="12.7"/>
</g>
</svg>
