<?xml version="1.0" encoding="utf-8"?>
<!-- Generator: Adobe Illustrator 24.3.0, SVG Export Plug-In . SVG Version: 6.00 Build 0)  -->
<svg version="1.1" id="Layer_1" xmlns="http://www.w3.org/2000/svg" xmlns:xlink="http://www.w3.org/1999/xlink" x="0px" y="0px"
	 viewBox="0 0 302 233" style="enable-background:new 0 0 302 233;" xml:space="preserve">
<style type="text/css">
	.st0{fill:#DCDDDD;}
	.st1{fill:#231815;}
</style>
<g id="图层_1">
	<path class="st0" d="M225.6,180.1c28.6,0,51.8-23.2,51.8-51.7c0-24.6-17.3-45.8-41.4-50.7c-12-38.9-53.3-60.7-92.2-48.6
		c-16.2,5-30.2,15.5-39.6,29.6C71.4,48.1,36.3,66,25.7,98.7s7.4,67.8,40.1,78.4c6.2,2,12.6,3,19.1,3"/>
	<path class="st1" d="M225.6,187.7c29.9-0.3,55-22.7,58.8-52.3c3.7-30-17-58.5-46.5-64.9l5.2,5.2c-9.1-28.4-33.2-50.8-62.8-56
		c-32.1-5.7-64.5,8.2-82.7,35.2l8.5-3.4c-31.4-9.7-66.4,3.8-82.3,32.8c-15.2,27.6-9.6,63.4,13.7,84.8c13,11.9,29.9,18.5,47.4,18.6
		c9.7,0.1,9.7-14.9,0-15c-24.5-0.3-46.4-16.6-52.8-40.4c-6.3-24,4.1-49.3,25.6-61.8c13.6-7.8,29.5-9.1,44.4-4.5
		c3.3,1,6.6-0.7,8.5-3.4C125.2,41,152,29.4,177.7,34.4c24,4.7,43.5,22,51,45.3c0.7,2.5,2.7,4.5,5.2,5.2c22.5,4.9,38.5,25.8,35.6,49
		c-2.7,22.1-22,38.4-44,38.7C215.9,172.8,215.8,187.8,225.6,187.7L225.6,187.7z"/>
	<path class="st1" d="M111.1,187.7h89.3c9.6,0,9.7-15,0-15h-89.3C101.4,172.7,101.4,187.7,111.1,187.7z"/>
	<path class="st1" d="M207.2,144.4H95.8c-9.6,0-9.7,15,0,15h111.4C216.9,159.4,216.9,144.4,207.2,144.4z"/>
	<path class="st1" d="M229,200.9H128.8c-9.6,0-9.7,15,0,15H229C238.6,215.9,238.7,200.9,229,200.9z"/>
</g>
</svg>
