<?xml version="1.0" encoding="utf-8"?>
<!-- Generator: Adobe Illustrator 24.3.0, SVG Export Plug-In . SVG Version: 6.00 Build 0)  -->
<svg version="1.1" id="Layer_1" xmlns="http://www.w3.org/2000/svg" xmlns:xlink="http://www.w3.org/1999/xlink" x="0px" y="0px"
	 viewBox="0 0 16 16" enable-background="new 0 0 16 16" xml:space="preserve">
<g>
	<circle fill="#F6B42A" stroke="#231715" stroke-width="0.65" stroke-miterlimit="10" cx="8.2" cy="7.7" r="3.7"/>
	
		<line fill="none" stroke="#231715" stroke-width="0.65" stroke-linecap="round" stroke-miterlimit="10" x1="8.2" y1="14.5" x2="8.2" y2="12.7"/>
	
		<line fill="none" stroke="#231715" stroke-width="0.65" stroke-linecap="round" stroke-miterlimit="10" x1="4.8" y1="13.6" x2="5.7" y2="12"/>
	
		<line fill="none" stroke="#231715" stroke-width="0.65" stroke-linecap="round" stroke-miterlimit="10" x1="2.3" y1="11.1" x2="3.9" y2="10.2"/>
	
		<line fill="none" stroke="#231715" stroke-width="0.65" stroke-linecap="round" stroke-miterlimit="10" x1="1.4" y1="7.7" x2="3.2" y2="7.7"/>
	
		<line fill="none" stroke="#231715" stroke-width="0.65" stroke-linecap="round" stroke-miterlimit="10" x1="2.3" y1="4.3" x2="3.9" y2="5.2"/>
	
		<line fill="none" stroke="#231715" stroke-width="0.65" stroke-linecap="round" stroke-miterlimit="10" x1="4.8" y1="1.8" x2="5.7" y2="3.4"/>
	
		<line fill="none" stroke="#231715" stroke-width="0.65" stroke-linecap="round" stroke-miterlimit="10" x1="8.2" y1="0.9" x2="8.2" y2="2.8"/>
	
		<line fill="none" stroke="#231715" stroke-width="0.65" stroke-linecap="round" stroke-miterlimit="10" x1="11.6" y1="1.8" x2="10.7" y2="3.4"/>
	
		<line fill="none" stroke="#231715" stroke-width="0.65" stroke-linecap="round" stroke-miterlimit="10" x1="14.1" y1="4.3" x2="12.5" y2="5.2"/>
	
		<line fill="none" stroke="#231715" stroke-width="0.65" stroke-linecap="round" stroke-miterlimit="10" x1="15" y1="7.7" x2="13.2" y2="7.7"/>
	
		<line fill="none" stroke="#231715" stroke-width="0.65" stroke-linecap="round" stroke-miterlimit="10" x1="14.1" y1="11.1" x2="12.5" y2="10.2"/>
	
		<line fill="none" stroke="#231715" stroke-width="0.65" stroke-linecap="round" stroke-miterlimit="10" x1="11.6" y1="13.6" x2="10.7" y2="12"/>
	
		<line fill="none" stroke="#231715" stroke-width="0.65" stroke-linecap="round" stroke-miterlimit="10" x1="8.2" y1="14.5" x2="8.2" y2="12.7"/>
</g>
<g>
	<g id="XMLID_9_">
		<g>
			<path fill="#DCDDDC" d="M12.3,9.6c1.3,0.2,2.3,1.4,2.3,2.7c0,1.5-1.2,2.7-2.7,2.7H4.2c-1.8,0-3.2-1.5-3.2-3.2s1.5-3.2,3.2-3.2
				c0.4,0,0.8,0.1,1.1,0.2C6,7.7,7.1,6.9,8.6,6.9C10.3,6.9,11.8,8.1,12.3,9.6z"/>
		</g>
	</g>
	<g id="XMLID_8_">
		<g>
			
				<path fill="none" stroke="#231714" stroke-width="0.65" stroke-linecap="round" stroke-linejoin="round" stroke-miterlimit="10" d="
				M11.9,15.1c1.5,0,2.7-1.2,2.7-2.7c0-1.4-1.1-2.5-2.3-2.7C11.9,8,10.3,6.8,8.6,6.8C7.2,6.8,6,7.6,5.3,8.8C5,8.7,4.6,8.6,4.2,8.6
				C2.5,8.6,1,10,1,11.9c0,1.8,1.4,3.2,3.1,3.2"/>
		</g>
	</g>
	
		<line fill="none" stroke="#231714" stroke-width="0.65" stroke-linecap="round" stroke-linejoin="round" stroke-miterlimit="10" x1="5.4" y1="15.1" x2="10.9" y2="15.1"/>
	
		<line fill="none" stroke="#231714" stroke-width="0.65" stroke-linecap="round" stroke-linejoin="round" stroke-miterlimit="10" x1="4.4" y1="13.6" x2="11.6" y2="13.6"/>
</g>
</svg>
