<?xml version="1.0" encoding="utf-8"?>
<!-- Generator: Adobe Illustrator 24.3.0, SVG Export Plug-In . SVG Version: 6.00 Build 0)  -->
<svg version="1.1" id="Layer_1" xmlns="http://www.w3.org/2000/svg" xmlns:xlink="http://www.w3.org/1999/xlink" x="0px" y="0px"
	 viewBox="0 0 16 16" enable-background="new 0 0 16 16" xml:space="preserve">
<g>
	<circle fill="#F6B42A" stroke="#231715" stroke-width="0.65" stroke-miterlimit="10" cx="8" cy="7.1" r="3.3"/>
	
		<line fill="none" stroke="#231715" stroke-width="0.65" stroke-linecap="round" stroke-miterlimit="10" x1="8" y1="13.3" x2="8" y2="11.6"/>
	
		<line fill="none" stroke="#231715" stroke-width="0.65" stroke-linecap="round" stroke-miterlimit="10" x1="4.9" y1="12.5" x2="5.7" y2="11"/>
	
		<line fill="none" stroke="#231715" stroke-width="0.65" stroke-linecap="round" stroke-miterlimit="10" x1="2.6" y1="10.2" x2="4.1" y2="9.4"/>
	
		<line fill="none" stroke="#231715" stroke-width="0.65" stroke-linecap="round" stroke-miterlimit="10" x1="1.8" y1="7.1" x2="3.5" y2="7.1"/>
	
		<line fill="none" stroke="#231715" stroke-width="0.65" stroke-linecap="round" stroke-miterlimit="10" x1="2.6" y1="4.1" x2="4.1" y2="4.9"/>
	
		<line fill="none" stroke="#231715" stroke-width="0.65" stroke-linecap="round" stroke-miterlimit="10" x1="4.9" y1="1.8" x2="5.7" y2="3.3"/>
	
		<line fill="none" stroke="#231715" stroke-width="0.65" stroke-linecap="round" stroke-miterlimit="10" x1="8" y1="1" x2="8" y2="2.7"/>
	
		<line fill="none" stroke="#231715" stroke-width="0.65" stroke-linecap="round" stroke-miterlimit="10" x1="11" y1="1.8" x2="10.2" y2="3.3"/>
	
		<line fill="none" stroke="#231715" stroke-width="0.65" stroke-linecap="round" stroke-miterlimit="10" x1="13.3" y1="4.1" x2="11.8" y2="4.9"/>
	
		<line fill="none" stroke="#231715" stroke-width="0.65" stroke-linecap="round" stroke-miterlimit="10" x1="14.1" y1="7.1" x2="12.4" y2="7.1"/>
	
		<line fill="none" stroke="#231715" stroke-width="0.65" stroke-linecap="round" stroke-miterlimit="10" x1="13.3" y1="10.2" x2="11.8" y2="9.4"/>
	
		<line fill="none" stroke="#231715" stroke-width="0.65" stroke-linecap="round" stroke-miterlimit="10" x1="11" y1="12.5" x2="10.2" y2="11"/>
	
		<line fill="none" stroke="#231715" stroke-width="0.65" stroke-linecap="round" stroke-miterlimit="10" x1="8" y1="13.3" x2="8" y2="11.6"/>
</g>
<g>
	<g id="XMLID_9_">
		<g>
			<path fill="#DCDDDC" d="M12.1,8.9c1.2,0.2,2.1,1.2,2.1,2.4c0,1.3-1.1,2.4-2.4,2.4H4.8c-1.6,0-2.9-1.3-2.9-2.9s1.3-2.9,2.9-2.9
				c0.4,0,0.7,0.1,1,0.2c0.6-1,1.7-1.7,3-1.7C10.3,6.4,11.7,7.4,12.1,8.9z"/>
		</g>
		<g>
		</g>
	</g>
	<g id="XMLID_8_">
		<g>
		</g>
		<g>
			
				<path fill="none" stroke="#231714" stroke-width="0.65" stroke-linecap="round" stroke-linejoin="round" stroke-miterlimit="10" d="
				M11.7,13.7c1.3,0,2.4-1.1,2.4-2.4c0-1.2-0.9-2.3-2.1-2.4c-0.4-1.4-1.7-2.5-3.3-2.5c-1.3,0-2.4,0.7-3,1.7C5.5,8,5.2,7.9,4.8,7.9
				c-1.6,0-2.9,1.3-2.9,2.9c0,1.6,1.3,2.9,2.8,2.9"/>
		</g>
	</g>
	
		<line fill="none" stroke="#231714" stroke-width="0.65" stroke-linecap="round" stroke-linejoin="round" stroke-miterlimit="10" x1="5.8" y1="13.7" x2="10.8" y2="13.7"/>
	
		<line fill="none" stroke="#231714" stroke-width="0.65" stroke-linecap="round" stroke-linejoin="round" stroke-miterlimit="10" x1="4.9" y1="12.4" x2="11.4" y2="12.4"/>
	
		<line fill="none" stroke="#231714" stroke-width="0.65" stroke-linecap="round" stroke-linejoin="round" stroke-miterlimit="10" x1="6.7" y1="15" x2="12.8" y2="15"/>
</g>
</svg>
