<?xml version="1.0" encoding="utf-8"?>
<!-- Generator: Adobe Illustrator 24.3.0, SVG Export Plug-In . SVG Version: 6.00 Build 0)  -->
<svg version="1.1" id="Layer_1" xmlns="http://www.w3.org/2000/svg" xmlns:xlink="http://www.w3.org/1999/xlink" x="0px" y="0px"
	 viewBox="0 0 305 243" style="enable-background:new 0 0 305 243;" xml:space="preserve">
<style type="text/css">
	.st0{fill:#DCDDDD;}
	.st1{fill:#231815;}
</style>
<g id="图层_1">
	<path class="st0" d="M227.6,184.1c28.6,0,51.8-23.2,51.8-51.7c0-24.6-17.3-45.8-41.4-50.7c-12-38.9-53.3-60.7-92.2-48.6
		c-16.2,5-30.2,15.5-39.6,29.6C73.4,52.1,38.3,70,27.7,102.7s7.4,67.8,40.1,78.4c6.2,2,12.6,3,19.1,3"/>
	<path class="st1" d="M227.6,191.7c29.9-0.3,55-22.7,58.8-52.3c3.7-30-17-58.5-46.5-64.9l5.2,5.2c-9.1-28.4-33.2-50.8-62.8-56
		c-32.1-5.7-64.5,8.2-82.7,35.2l8.5-3.4c-31.4-9.7-66.4,3.8-82.3,32.8c-15.2,27.6-9.6,63.4,13.7,84.8c13,11.9,29.9,18.5,47.4,18.6
		c9.7,0.1,9.7-14.9,0-15c-24.5-0.3-46.4-16.6-52.8-40.4c-6.3-24,4.1-49.3,25.6-61.8c13.6-7.8,29.5-9.1,44.4-4.5
		c3.3,1,6.6-0.7,8.5-3.4C127.2,45,154,33.4,179.7,38.4c24,4.7,43.5,22,51,45.3c0.7,2.5,2.7,4.5,5.2,5.2c22.5,4.9,38.5,25.8,35.6,49
		c-2.7,22.1-22,38.4-44,38.7C217.9,176.8,217.8,191.8,227.6,191.7L227.6,191.7z"/>
	<path class="st1" d="M113.1,191.7h89.3c9.6,0,9.7-15,0-15h-89.3C103.4,176.7,103.4,191.7,113.1,191.7z"/>
	<path class="st1" d="M209.2,148.4H97.8c-9.6,0-9.7,15,0,15h111.4C218.9,163.4,218.9,148.4,209.2,148.4z"/>
	<path class="st1" d="M231,204.9H130.8c-9.6,0-9.7,15,0,15H231C240.6,219.9,240.7,204.9,231,204.9z"/>
</g>
</svg>
