<?xml version="1.0" encoding="utf-8"?>
<!-- Generator: Adobe Illustrator 24.3.0, SVG Export Plug-In . SVG Version: 6.00 Build 0)  -->
<svg version="1.1" id="Layer_1" xmlns="http://www.w3.org/2000/svg" xmlns:xlink="http://www.w3.org/1999/xlink" x="0px" y="0px"
	 viewBox="0 0 16 16" enable-background="new 0 0 16 16" xml:space="preserve">
<g>
	<g>
		<g id="XMLID_6_">
			<g>
				<path fill="#FFFFFF" d="M11.4,2.4c0,0.8,0.7,1.5,1.5,1.5c-0.8,0-1.5,0.7-1.5,1.5c0-0.8-0.7-1.5-1.5-1.5
					C10.7,3.9,11.4,3.2,11.4,2.4z"/>
			</g>
			<g>
				<path fill="none" stroke="#231613" stroke-width="0.65" stroke-linecap="round" stroke-miterlimit="10" d="M9.9,3.9
					c0.8,0,1.5,0.7,1.5,1.5"/>
				<path fill="none" stroke="#231613" stroke-width="0.65" stroke-linecap="round" stroke-miterlimit="10" d="M11.4,5.5
					c0-0.8,0.7-1.5,1.5-1.5"/>
				<path fill="none" stroke="#231613" stroke-width="0.65" stroke-linecap="round" stroke-miterlimit="10" d="M13,3.9
					c-0.8,0-1.5-0.7-1.5-1.5"/>
				<path fill="none" stroke="#231613" stroke-width="0.65" stroke-linecap="round" stroke-miterlimit="10" d="M11.4,2.4
					c0,0.8-0.7,1.5-1.5,1.5"/>
			</g>
		</g>
	</g>
	<path fill="#F2EA8E" stroke="#231613" stroke-width="0.6" stroke-linejoin="round" stroke-miterlimit="10" d="M13.5,9.4
		C8.2,10.8,5.4,4.5,7.8,1c-3,0.9-4.7,4-3.9,7c0.8,3.1,4,4.9,7.1,4.1c1.7-0.5,3.1-1.7,3.8-3.2C14.4,9.1,14,9.2,13.5,9.4z"/>
</g>
<g>
	<g id="XMLID_9_">
		<g>
			<path fill="#DCDDDC" d="M10.8,9.2c1.1,0.1,2,1.1,2,2.3c0,1.3-1,2.3-2.3,2.3H4c-1.5,0-2.7-1.2-2.7-2.7S2.5,8.3,4,8.3
				c0.3,0,0.6,0.1,0.9,0.2c0.6-1,1.6-1.6,2.8-1.6C9.2,6.9,10.5,7.9,10.8,9.2z"/>
		</g>
		<g>
		</g>
	</g>
	<g id="XMLID_8_">
		<g>
		</g>
		<g>
			
				<path fill="none" stroke="#231714" stroke-width="0.65" stroke-linecap="round" stroke-linejoin="round" stroke-miterlimit="10" d="
				M10.5,13.8c1.3,0,2.3-1,2.3-2.3c0-1.2-0.9-2.1-2-2.3c-0.4-1.4-1.6-2.4-3.1-2.4C6.5,6.9,5.5,7.5,5,8.5C4.7,8.4,4.3,8.3,4,8.3
				c-1.5,0-2.7,1.2-2.7,2.7c0,1.5,1.2,2.7,2.7,2.7"/>
		</g>
	</g>
	
		<line fill="none" stroke="#231714" stroke-width="0.65" stroke-linecap="round" stroke-linejoin="round" stroke-miterlimit="10" x1="5" y1="13.8" x2="9.7" y2="13.8"/>
	
		<line fill="none" stroke="#231714" stroke-width="0.65" stroke-linecap="round" stroke-linejoin="round" stroke-miterlimit="10" x1="4.1" y1="12.6" x2="10.2" y2="12.6"/>
	
		<line fill="none" stroke="#231714" stroke-width="0.65" stroke-linecap="round" stroke-linejoin="round" stroke-miterlimit="10" x1="5.8" y1="15" x2="11.6" y2="15"/>
</g>
</svg>
