<?xml version="1.0" encoding="utf-8"?>
<!-- Generator: Adobe Illustrator 24.3.0, SVG Export Plug-In . SVG Version: 6.00 Build 0)  -->
<svg version="1.1" id="Layer_1" xmlns="http://www.w3.org/2000/svg" xmlns:xlink="http://www.w3.org/1999/xlink" x="0px" y="0px"
	 viewBox="0 0 296 297" style="enable-background:new 0 0 296 297;" xml:space="preserve">
<style type="text/css">
	.st0{fill:#FFFFFF;}
	.st1{fill:#62BBF4;}
</style>
<path class="st0" d="M157,202.9L32.2,78c-11.7-11.7-11.7-30.8,0-42.5c0,0,0,0,0,0l0,0c11.7-11.7,30.8-11.7,42.5,0c0,0,0,0,0,0
	l124.9,124.9c30.5-7,60.8,12,67.8,42.5s-12,60.8-42.5,67.8s-60.8-12-67.8-42.5C155.1,219.9,155.1,211.2,157,202.9L157,202.9z"/>
<path d="M162.4,197.6l-75.4-75.4L44.8,80.1c-2.4-2.4-4.9-4.8-7.3-7.3c-11-11.5-7.4-31.3,7.9-37.1c16.6-6.2,27.6,8.8,37.9,19.1
	l46.8,46.8l48.1,48.1l13.6,13.6c0.8,0.8,1.5,1.7,2.4,2.4c3.3,2.8,6.4,2,10.3,1.4c4.7-0.8,9.6-0.8,14.4-0.2
	c18,2.5,33.9,15.3,39.7,32.6c5.4,16.3,2.4,35.1-9.1,48.1c-11.1,12.7-28.2,19.3-45,16.5c-17.6-2.9-32.9-15.4-38.6-32.4
	c-2.9-8.6-3.5-17.9-1.5-26.8c2-9.4-12.4-13.4-14.5-4c-4.8,22.5,1.9,46.4,19.2,62c15.5,13.9,36.6,19.5,57,15.2
	c20.8-4.4,38.1-19.6,45.9-39.3c7.7-19.4,5.1-42.8-7-59.9c-15.3-21.5-41.5-31.3-67.2-25.8l7.3,1.9l-53.3-53.3L83.5,33.7
	c-2.3-2.5-4.9-4.8-7.5-6.9c-11.9-8.8-27.8-10-40.8-2.9c-22.4,12.3-24.9,42.6-7.6,60.2c20.1,20.3,40.4,40.4,60.6,60.6
	c20.8,20.8,41.2,42,62.3,62.3c0.4,0.4,0.8,0.8,1.1,1.1C158.6,215,169.2,204.4,162.4,197.6z"/>
<path class="st1" d="M183.1,197.4L48,62.2c-3-3-3-7.9,0-10.9l0,0c3-3,7.9-3,10.9,0l135.1,135.2c16.1-10,37.2-5.1,47.2,10.9
	c10,16.1,5.1,37.2-10.9,47.2c-16.1,10-37.2,5.1-47.2-10.9C176.2,222.6,176.2,208.5,183.1,197.4L183.1,197.4z"/>
</svg>
