<?xml version="1.0" encoding="utf-8"?>
<!-- Generator: Adobe Illustrator 24.3.0, SVG Export Plug-In . SVG Version: 6.00 Build 0)  -->
<svg version="1.1" id="Layer_1" xmlns="http://www.w3.org/2000/svg" xmlns:xlink="http://www.w3.org/1999/xlink" x="0px" y="0px"
	 viewBox="0 0 16 16" enable-background="new 0 0 16 16" xml:space="preserve">
<g>
	<ellipse fill="#F6B42A" stroke="#231715" stroke-width="0.65" stroke-miterlimit="10" cx="7.6" cy="7.2" rx="3.4" ry="3.4"/>
	
		<line fill="none" stroke="#231715" stroke-width="0.65" stroke-linecap="round" stroke-miterlimit="10" x1="7.6" y1="13.4" x2="7.6" y2="11.7"/>
	
		<line fill="none" stroke="#231715" stroke-width="0.65" stroke-linecap="round" stroke-miterlimit="10" x1="4.5" y1="12.6" x2="5.3" y2="11.1"/>
	
		<line fill="none" stroke="#231715" stroke-width="0.65" stroke-linecap="round" stroke-miterlimit="10" x1="2.2" y1="10.3" x2="3.7" y2="9.5"/>
	
		<line fill="none" stroke="#231715" stroke-width="0.65" stroke-linecap="round" stroke-miterlimit="10" x1="1.4" y1="7.2" x2="3.1" y2="7.2"/>
	
		<line fill="none" stroke="#231715" stroke-width="0.65" stroke-linecap="round" stroke-miterlimit="10" x1="2.2" y1="4.1" x2="3.7" y2="4.9"/>
	
		<line fill="none" stroke="#231715" stroke-width="0.65" stroke-linecap="round" stroke-miterlimit="10" x1="4.5" y1="1.8" x2="5.3" y2="3.3"/>
	
		<line fill="none" stroke="#231715" stroke-width="0.65" stroke-linecap="round" stroke-miterlimit="10" x1="7.6" y1="1" x2="7.6" y2="2.7"/>
	
		<line fill="none" stroke="#231715" stroke-width="0.65" stroke-linecap="round" stroke-miterlimit="10" x1="10.8" y1="1.8" x2="10" y2="3.3"/>
	
		<line fill="none" stroke="#231715" stroke-width="0.65" stroke-linecap="round" stroke-miterlimit="10" x1="13.1" y1="4.1" x2="11.6" y2="4.9"/>
	
		<line fill="none" stroke="#231715" stroke-width="0.65" stroke-linecap="round" stroke-miterlimit="10" x1="13.9" y1="7.2" x2="12.2" y2="7.2"/>
	
		<line fill="none" stroke="#231715" stroke-width="0.65" stroke-linecap="round" stroke-miterlimit="10" x1="13.1" y1="10.3" x2="11.6" y2="9.5"/>
	
		<line fill="none" stroke="#231715" stroke-width="0.65" stroke-linecap="round" stroke-miterlimit="10" x1="10.8" y1="12.6" x2="10" y2="11.1"/>
	
		<line fill="none" stroke="#231715" stroke-width="0.65" stroke-linecap="round" stroke-miterlimit="10" x1="7.6" y1="13.4" x2="7.6" y2="11.7"/>
</g>
<g id="XMLID_12_">
	<g>
		<path fill="#8DC2E8" d="M12.2,9.3c1.2,0.2,2.2,1.2,2.2,2.4c0,1.4-1.1,2.5-2.5,2.5h-7c-1.6,0-3-1.3-3-2.9s1.3-2.9,3-2.9
			c0.4,0,0.7,0.1,1,0.2c0.6-1,1.7-1.7,3-1.7C10.4,6.8,11.8,7.8,12.2,9.3z"/>
	</g>
	<g>
		<path fill="none" stroke="#231714" stroke-width="0.65" stroke-linejoin="round" stroke-miterlimit="10" d="M12.2,9.3
			c-0.4-1.5-1.7-2.5-3.3-2.5c-1.3,0-2.4,0.7-3,1.7c-0.3-0.1-0.7-0.2-1-0.2c-1.6,0-3,1.3-3,2.9s1.3,2.9,3,2.9h7
			c1.4,0,2.5-1.1,2.5-2.5C14.3,10.5,13.4,9.5,12.2,9.3z"/>
	</g>
</g>
<g>
	
		<path fill="#FFFFFF" stroke="#231613" stroke-width="0.3" stroke-linecap="square" stroke-linejoin="round" stroke-miterlimit="1" d="
		M14,12.8V9.3c0-0.3-0.3-0.6-0.6-0.6S12.8,9,12.8,9.3v3.5c-0.3,0.2-0.6,0.6-0.6,1c0,0.7,0.5,1.2,1.2,1.2s1.2-0.5,1.2-1.2
		C14.6,13.4,14.4,13,14,12.8z"/>
	<circle fill="#6BB8E6" cx="13.4" cy="13.8" r="0.7"/>
	<path fill="#6BB8E6" d="M13.4,9L13.4,9c-0.1,0-0.2,0.1-0.2,0.2v4.1c0,0.1,0.1,0.2,0.2,0.2l0,0c0.1,0,0.2-0.1,0.2-0.2V9.2
		C13.6,9.1,13.5,9,13.4,9z"/>
</g>
</svg>
