<?xml version="1.0" encoding="utf-8"?>
<!-- Generator: Adobe Illustrator 24.3.0, SVG Export Plug-In . SVG Version: 6.00 Build 0)  -->
<svg version="1.1" id="Layer_1" xmlns="http://www.w3.org/2000/svg" xmlns:xlink="http://www.w3.org/1999/xlink" x="0px" y="0px"
	 viewBox="0 0 16 16" enable-background="new 0 0 16 16" xml:space="preserve">
<g>
	<g>
		<g id="XMLID_6_">
			<g>
				<path fill="#FFFFFF" d="M11.4,5.9c0-0.9-0.8-1.7-1.7-1.7c0.9,0,1.7-0.8,1.7-1.7c0,0.9,0.8,1.7,1.7,1.7C12.1,4.2,11.4,5,11.4,5.9
					z"/>
			</g>
			<g>
				<path fill="none" stroke="#231613" stroke-width="0.65" stroke-linecap="round" stroke-miterlimit="10" d="M9.7,4.2
					c0.9,0,1.7,0.8,1.7,1.7"/>
				<path fill="none" stroke="#231613" stroke-width="0.65" stroke-linecap="round" stroke-miterlimit="10" d="M11.4,5.9
					c0-0.9,0.8-1.7,1.7-1.7"/>
				<path fill="none" stroke="#231613" stroke-width="0.65" stroke-linecap="round" stroke-miterlimit="10" d="M12.9,4.2
					c-0.9,0-1.7-0.8-1.7-1.7"/>
				<path fill="none" stroke="#231613" stroke-width="0.65" stroke-linecap="round" stroke-miterlimit="10" d="M11.4,2.5
					c0,0.9-0.8,1.7-1.7,1.7"/>
			</g>
		</g>
	</g>
	<path fill="#F2EA8E" stroke="#231613" stroke-width="0.6" stroke-linejoin="round" stroke-miterlimit="10" d="M13.6,10.2
		C7.8,11.7,4.7,4.9,7.4,1C4.1,2,2.2,5.4,3.1,8.7c0.9,3.4,4.4,5.4,7.7,4.5c1.9-0.5,3.4-1.8,4.1-3.5C14.6,9.8,14.1,10,13.6,10.2z"/>
</g>
<g id="XMLID_12_">
	<g>
		<path fill="#8DC2E8" d="M10.6,9.8c1.1,0.1,2,1.1,2,2.2c0,1.2-1,2.2-2.2,2.2H3.9c-1.5,0-2.7-1.2-2.7-2.7S2.4,9,3.9,9
			c0.3,0,0.6,0,0.9,0.1c0.5-0.9,1.6-1.6,2.7-1.6C8.9,7.6,10.2,8.5,10.6,9.8z"/>
	</g>
	<g>
		<path fill="none" stroke="#231714" stroke-width="0.65" stroke-linejoin="round" stroke-miterlimit="10" d="M10.6,9.8
			c-0.4-1.3-1.6-2.3-3-2.3c-1.2,0-2.2,0.6-2.7,1.6C4.5,9,4.2,9,3.9,9c-1.5,0-2.7,1.2-2.7,2.7s1.2,2.7,2.7,2.7h6.4
			c1.2,0,2.2-1,2.2-2.2C12.4,10.9,11.7,10,10.6,9.8z"/>
	</g>
</g>
<g>
	
		<path fill="#FFFFFF" stroke="#231613" stroke-width="0.3" stroke-linecap="square" stroke-linejoin="round" stroke-miterlimit="1" d="
		M12.2,13V9.8c0-0.3-0.3-0.6-0.6-0.6s-0.6,0.3-0.6,0.6V13c-0.3,0.2-0.5,0.5-0.5,0.9c0,0.6,0.5,1.1,1.1,1.1s1.1-0.5,1.1-1.1
		C12.7,13.5,12.4,13.2,12.2,13z"/>
	<circle fill="#6BB8E6" cx="11.7" cy="13.9" r="0.7"/>
	<path fill="#6BB8E6" d="M11.7,9.6L11.7,9.6c-0.1,0-0.2,0.1-0.2,0.2v3.7c0,0.1,0.1,0.2,0.2,0.2l0,0c0.1,0,0.2-0.1,0.2-0.2V9.8
		C11.8,9.7,11.7,9.6,11.7,9.6z"/>
</g>
</svg>
