<?xml version="1.0" encoding="utf-8"?>
<!-- Generator: Adobe Illustrator 24.3.0, SVG Export Plug-In . SVG Version: 6.00 Build 0)  -->
<svg version="1.1" id="Layer_1" xmlns="http://www.w3.org/2000/svg" xmlns:xlink="http://www.w3.org/1999/xlink" x="0px" y="0px"
	 viewBox="0 0 16 16" enable-background="new 0 0 16 16" xml:space="preserve">
<g>
	<circle fill="#F6B42A" stroke="#231715" stroke-width="0.65" stroke-miterlimit="10" cx="8.5" cy="7.2" r="3.4"/>
	
		<line fill="none" stroke="#231715" stroke-width="0.65" stroke-linecap="round" stroke-miterlimit="10" x1="8.5" y1="13.5" x2="8.5" y2="11.8"/>
	
		<line fill="none" stroke="#231715" stroke-width="0.65" stroke-linecap="round" stroke-miterlimit="10" x1="5.4" y1="12.7" x2="6.2" y2="11.2"/>
	
		<line fill="none" stroke="#231715" stroke-width="0.65" stroke-linecap="round" stroke-miterlimit="10" x1="3.1" y1="10.4" x2="4.6" y2="9.6"/>
	
		<line fill="none" stroke="#231715" stroke-width="0.65" stroke-linecap="round" stroke-miterlimit="10" x1="2.2" y1="7.2" x2="3.9" y2="7.2"/>
	
		<line fill="none" stroke="#231715" stroke-width="0.65" stroke-linecap="round" stroke-miterlimit="10" x1="3.1" y1="4.1" x2="4.6" y2="4.9"/>
	
		<line fill="none" stroke="#231715" stroke-width="0.65" stroke-linecap="round" stroke-miterlimit="10" x1="5.4" y1="1.8" x2="6.2" y2="3.3"/>
	
		<line fill="none" stroke="#231715" stroke-width="0.65" stroke-linecap="round" stroke-miterlimit="10" x1="8.5" y1="1" x2="8.5" y2="2.7"/>
	
		<line fill="none" stroke="#231715" stroke-width="0.65" stroke-linecap="round" stroke-miterlimit="10" x1="11.6" y1="1.8" x2="10.8" y2="3.3"/>
	
		<line fill="none" stroke="#231715" stroke-width="0.65" stroke-linecap="round" stroke-miterlimit="10" x1="13.9" y1="4.1" x2="12.4" y2="4.9"/>
	
		<line fill="none" stroke="#231715" stroke-width="0.65" stroke-linecap="round" stroke-miterlimit="10" x1="14.7" y1="7.2" x2="13.1" y2="7.2"/>
	
		<line fill="none" stroke="#231715" stroke-width="0.65" stroke-linecap="round" stroke-miterlimit="10" x1="13.9" y1="10.4" x2="12.4" y2="9.6"/>
	
		<line fill="none" stroke="#231715" stroke-width="0.65" stroke-linecap="round" stroke-miterlimit="10" x1="11.6" y1="12.7" x2="10.8" y2="11.2"/>
	
		<line fill="none" stroke="#231715" stroke-width="0.65" stroke-linecap="round" stroke-miterlimit="10" x1="8.5" y1="13.5" x2="8.5" y2="11.8"/>
</g>
<g id="XMLID_14_">
	<g>
		<path fill="#8DC2E8" d="M8.2,6.4c1.6,0,2.9,1.1,3.3,2.6c1.2,0.2,2.2,1.2,2.2,2.5c0,1.4-1.1,2.5-2.5,2.5H4.2c-1.6,0-3-1.3-3-3
			s1.3-3,3-3c0.4,0,0.7,0.1,1,0.2C5.8,7.1,7,6.4,8.2,6.4z"/>
	</g>
	<g>
	</g>
</g>
<g id="XMLID_13_">
	<g>
	</g>
	<g>
		
			<path fill="none" stroke="#231714" stroke-width="0.65" stroke-linecap="round" stroke-linejoin="round" stroke-miterlimit="10" d="
			M11.3,13.9c1.4,0,2.5-1.1,2.5-2.5c0-1.3-0.9-2.3-2.2-2.5c-0.4-1.5-1.7-2.6-3.3-2.6c-1.3,0-2.4,0.7-3,1.7C4.9,8,4.6,7.9,4.2,7.9
			c-1.6,0-3,1.3-3,3c0,1.6,1.3,2.9,2.9,3"/>
	</g>
</g>
<g>
	
		<line fill="none" stroke="#2BA4DD" stroke-width="0.7" stroke-linecap="round" stroke-miterlimit="10" x1="5.7" y1="13.6" x2="6.4" y2="15"/>
	
		<line fill="none" stroke="#2BA4DD" stroke-width="0.7" stroke-linecap="round" stroke-miterlimit="10" x1="9.5" y1="13.7" x2="10.2" y2="15"/>
	
		<line fill="none" stroke="#2BA4DD" stroke-width="0.7" stroke-linecap="round" stroke-miterlimit="10" x1="7.6" y1="13.6" x2="8.4" y2="15"/>
</g>
</svg>
