<?xml version="1.0" encoding="utf-8"?>
<!-- Generator: Adobe Illustrator 24.3.0, SVG Export Plug-In . SVG Version: 6.00 Build 0)  -->
<svg version="1.1" id="Layer_1" xmlns="http://www.w3.org/2000/svg" xmlns:xlink="http://www.w3.org/1999/xlink" x="0px" y="0px"
	 viewBox="0 0 16 16" enable-background="new 0 0 16 16" xml:space="preserve">
<g>
	<g>
		<g id="XMLID_6_">
			<g>
				<path fill="#FFFFFF" d="M11.6,6c0-0.9-0.7-1.6-1.6-1.6c0.9,0,1.6-0.7,1.6-1.6c0,0.9,0.7,1.6,1.6,1.6C12.3,4.4,11.6,5.1,11.6,6z"
					/>
			</g>
			<g>
				<path fill="none" stroke="#231613" stroke-width="0.65" stroke-linecap="round" stroke-miterlimit="10" d="M10,4.4
					c0.9,0,1.6,0.7,1.6,1.6"/>
				<path fill="none" stroke="#231613" stroke-width="0.65" stroke-linecap="round" stroke-miterlimit="10" d="M11.6,6
					c0-0.9,0.7-1.6,1.6-1.6"/>
				<path fill="none" stroke="#231613" stroke-width="0.65" stroke-linecap="round" stroke-miterlimit="10" d="M13.2,4.4
					c-0.9,0-1.6-0.7-1.6-1.6"/>
				<path fill="none" stroke="#231613" stroke-width="0.65" stroke-linecap="round" stroke-miterlimit="10" d="M11.6,2.8
					c0,0.9-0.7,1.6-1.6,1.6"/>
			</g>
		</g>
	</g>
	<path fill="#F2EA8E" stroke="#231613" stroke-width="0.6" stroke-linejoin="round" stroke-miterlimit="10" d="M13.7,10
		c-5.5,1.5-8.4-5-5.9-8.7c-3.1,0.9-4.9,4.1-4,7.3c0.9,3.2,4.1,5.1,7.3,4.2c1.8-0.5,3.2-1.7,3.9-3.3C14.6,9.7,14.2,9.9,13.7,10z"/>
</g>
<g id="XMLID_14_">
	<g>
		<path fill="#8DC2E8" d="M7,7.2c1.4,0,2.5,0.9,2.9,2.2c1,0.1,1.8,1,1.8,2.1c0,1.2-1,2.1-2.1,2.1h-6c-1.4,0-2.5-1.1-2.5-2.5
			s1.1-2.5,2.5-2.5c0.3,0,0.6,0.1,0.9,0.2C4.9,7.8,5.9,7.2,7,7.2z"/>
	</g>
	<g>
	</g>
</g>
<g id="XMLID_13_">
	<g>
	</g>
	<g>
		
			<path fill="none" stroke="#231714" stroke-width="0.65" stroke-linecap="round" stroke-linejoin="round" stroke-miterlimit="10" d="
			M9.6,13.7c1.2,0,2.1-1,2.1-2.1c0-1.1-0.8-2-1.8-2.1C9.5,8.2,8.3,7.2,7,7.2c-1.1,0-2.1,0.6-2.6,1.5C4.1,8.6,3.8,8.6,3.5,8.6
			C2.1,8.6,1,9.7,1,11.1c0,1.4,1.1,2.5,2.5,2.5"/>
	</g>
</g>
<g>
	
		<line fill="none" stroke="#2BA4DD" stroke-width="0.7" stroke-linecap="round" stroke-miterlimit="10" x1="4.8" y1="13.5" x2="5.4" y2="14.6"/>
	
		<line fill="none" stroke="#2BA4DD" stroke-width="0.7" stroke-linecap="round" stroke-miterlimit="10" x1="8.1" y1="13.5" x2="8.7" y2="14.6"/>
	
		<line fill="none" stroke="#2BA4DD" stroke-width="0.7" stroke-linecap="round" stroke-miterlimit="10" x1="6.5" y1="13.5" x2="7.1" y2="14.6"/>
</g>
</svg>
