<?xml version="1.0" encoding="utf-8"?>
<!-- Generator: Adobe Illustrator 24.3.0, SVG Export Plug-In . SVG Version: 6.00 Build 0)  -->
<svg version="1.1" id="Layer_1" xmlns="http://www.w3.org/2000/svg" xmlns:xlink="http://www.w3.org/1999/xlink" x="0px" y="0px"
	 viewBox="0 0 16 16" enable-background="new 0 0 16 16" xml:space="preserve">
<g>
	<circle fill="#F6B42A" stroke="#231715" stroke-width="0.65" stroke-miterlimit="10" cx="8.4" cy="6.5" r="2.9"/>
	
		<line fill="none" stroke="#231715" stroke-width="0.65" stroke-linecap="round" stroke-miterlimit="10" x1="8.4" y1="11.8" x2="8.4" y2="10.4"/>
	
		<line fill="none" stroke="#231715" stroke-width="0.65" stroke-linecap="round" stroke-miterlimit="10" x1="5.8" y1="11.2" x2="6.4" y2="9.8"/>
	
		<line fill="none" stroke="#231715" stroke-width="0.65" stroke-linecap="round" stroke-miterlimit="10" x1="3.7" y1="9.1" x2="5.1" y2="8.4"/>
	
		<line fill="none" stroke="#231715" stroke-width="0.65" stroke-linecap="round" stroke-miterlimit="10" x1="3" y1="6.5" x2="4.5" y2="6.5"/>
	
		<line fill="none" stroke="#231715" stroke-width="0.65" stroke-linecap="round" stroke-miterlimit="10" x1="3.7" y1="3.7" x2="5.1" y2="4.4"/>
	
		<line fill="none" stroke="#231715" stroke-width="0.65" stroke-linecap="round" stroke-miterlimit="10" x1="5.8" y1="1.7" x2="6.4" y2="3"/>
	
		<line fill="none" stroke="#231715" stroke-width="0.65" stroke-linecap="round" stroke-miterlimit="10" x1="8.4" y1="1" x2="8.4" y2="2.5"/>
	
		<line fill="none" stroke="#231715" stroke-width="0.65" stroke-linecap="round" stroke-miterlimit="10" x1="11.1" y1="1.7" x2="10.4" y2="3"/>
	
		<line fill="none" stroke="#231715" stroke-width="0.65" stroke-linecap="round" stroke-miterlimit="10" x1="13.2" y1="3.7" x2="11.8" y2="4.4"/>
	
		<line fill="none" stroke="#231715" stroke-width="0.65" stroke-linecap="round" stroke-miterlimit="10" x1="13.9" y1="6.5" x2="12.4" y2="6.5"/>
	
		<line fill="none" stroke="#231715" stroke-width="0.65" stroke-linecap="round" stroke-miterlimit="10" x1="13.2" y1="9.1" x2="11.8" y2="8.4"/>
	
		<line fill="none" stroke="#231715" stroke-width="0.65" stroke-linecap="round" stroke-miterlimit="10" x1="11.1" y1="11.2" x2="10.4" y2="9.8"/>
	
		<line fill="none" stroke="#231715" stroke-width="0.65" stroke-linecap="round" stroke-miterlimit="10" x1="8.4" y1="11.8" x2="8.4" y2="10.4"/>
</g>
<g id="XMLID_14_">
	<g>
		<path fill="#8DC2E8" d="M4.7,12.1c-1.4,0-2.5-1.1-2.5-2.5s1.2-2.5,2.5-2.5c0.3,0,0.6,0.1,0.9,0.2C6,6.4,7,5.8,8.2,5.8
			c1.4,0,2.5,1,2.9,2.2c1.1,0.1,1.9,1.1,1.9,2.1c0,1.2-1,2.1-2.1,2.1H4.7V12.1z"/>
	</g>
</g>
<g id="XMLID_13_">
	<g>
		
			<path fill="none" stroke="#231714" stroke-width="0.65" stroke-linecap="round" stroke-linejoin="round" stroke-miterlimit="10" d="
			M10.8,12.1c1.2,0,2.1-1,2.1-2.1c0-1.1-0.8-2-1.9-2.1c-0.4-1.3-1.6-2.2-2.9-2.2c-1.1,0-2,0.6-2.6,1.5c-0.2,0-0.5,0-0.9,0
			c-1.4,0-2.5,1.1-2.5,2.5c0,1.4,1.1,2.5,2.5,2.5"/>
	</g>
</g>
<g>
	
		<line fill="none" stroke="#2BA4DD" stroke-width="0.7" stroke-linecap="round" stroke-miterlimit="10" x1="5.5" y1="11.6" x2="6.3" y2="12.9"/>
	
		<line fill="none" stroke="#2BA4DD" stroke-width="0.7" stroke-linecap="round" stroke-miterlimit="10" x1="9.4" y1="11.6" x2="10.1" y2="12.9"/>
	
		<line fill="none" stroke="#2BA4DD" stroke-width="0.7" stroke-linecap="round" stroke-miterlimit="10" x1="7.5" y1="11.6" x2="8.2" y2="12.9"/>
	
		<line fill="none" stroke="#2BA4DD" stroke-width="0.7" stroke-linecap="round" stroke-miterlimit="10" x1="6.5" y1="13.7" x2="7.2" y2="15"/>
	
		<line fill="none" stroke="#2BA4DD" stroke-width="0.7" stroke-linecap="round" stroke-miterlimit="10" x1="10.3" y1="13.7" x2="11.1" y2="15"/>
	
		<line fill="none" stroke="#2BA4DD" stroke-width="0.7" stroke-linecap="round" stroke-miterlimit="10" x1="8.5" y1="13.6" x2="9.2" y2="15"/>
</g>
</svg>
