<?xml version="1.0" encoding="utf-8"?>
<!-- Generator: Adobe Illustrator 24.3.0, SVG Export Plug-In . SVG Version: 6.00 Build 0)  -->
<svg version="1.1" id="Layer_1" xmlns="http://www.w3.org/2000/svg" xmlns:xlink="http://www.w3.org/1999/xlink" x="0px" y="0px"
	 viewBox="0 0 16 16" enable-background="new 0 0 16 16" xml:space="preserve">
<g>
	<g>
		<g id="XMLID_6_">
			<g>
				<path fill="#FFFFFF" d="M11.3,2.3c0,0.8,0.6,1.4,1.4,1.4c-0.8,0-1.4,0.6-1.4,1.4c0-0.8-0.7-1.4-1.4-1.4
					C10.6,3.8,11.3,3.1,11.3,2.3z"/>
			</g>
			<g>
				<path fill="none" stroke="#231613" stroke-width="0.65" stroke-linecap="round" stroke-miterlimit="10" d="M9.8,3.8
					c0.8,0,1.4,0.6,1.4,1.4"/>
				<path fill="none" stroke="#231613" stroke-width="0.65" stroke-linecap="round" stroke-miterlimit="10" d="M11.3,5.2
					c0-0.8,0.6-1.4,1.4-1.4"/>
				<path fill="none" stroke="#231613" stroke-width="0.65" stroke-linecap="round" stroke-miterlimit="10" d="M12.7,3.8
					c-0.8,0-1.4-0.6-1.4-1.4"/>
				<path fill="none" stroke="#231613" stroke-width="0.65" stroke-linecap="round" stroke-miterlimit="10" d="M11.3,2.3
					c0,0.8-0.7,1.4-1.4,1.4"/>
			</g>
		</g>
	</g>
	<path fill="#F2EA8E" stroke="#231613" stroke-width="0.6" stroke-linejoin="round" stroke-miterlimit="10" d="M13.2,8.9
		c-5,1.3-7.7-4.6-5.4-7.9C5,1.8,3.4,4.8,4.1,7.6c0.8,2.9,3.8,4.6,6.7,3.8c1.6-0.4,2.9-1.6,3.6-3C14,8.6,13.6,8.8,13.2,8.9z"/>
</g>
<g id="XMLID_14_">
	<g>
		<path fill="#8DC2E8" d="M3.9,12.2c-1.3,0-2.3-1-2.3-2.3s1-2.3,2.3-2.3c0.3,0,0.5,0,0.8,0.1c0.5-0.8,1.3-1.4,2.3-1.4
			c1.2,0,2.3,0.8,2.6,2c0.9,0.1,1.7,0.9,1.7,1.9c0,1.1-0.9,1.9-1.9,1.9H3.9z"/>
	</g>
	<g>
	</g>
</g>
<g id="XMLID_13_">
	<g>
	</g>
	<g>
		
			<path fill="none" stroke="#231714" stroke-width="0.65" stroke-linecap="round" stroke-linejoin="round" stroke-miterlimit="10" d="
			M9.4,12.2c1.1,0,1.9-0.9,1.9-1.9c0-1-0.7-1.8-1.7-1.9c-0.3-1.1-1.4-2-2.6-2c-1,0-1.9,0.5-2.3,1.4C4.5,7.6,4.2,7.5,3.9,7.5
			c-1.3,0-2.3,1-2.3,2.3c0,1.3,1,2.3,2.2,2.3"/>
	</g>
</g>
<g>
	
		<line fill="none" stroke="#2BA4DD" stroke-width="0.7" stroke-linecap="round" stroke-miterlimit="10" x1="4.4" y1="11.5" x2="5.1" y2="12.9"/>
	
		<line fill="none" stroke="#2BA4DD" stroke-width="0.7" stroke-linecap="round" stroke-miterlimit="10" x1="8.3" y1="11.5" x2="9" y2="12.9"/>
	
		<line fill="none" stroke="#2BA4DD" stroke-width="0.7" stroke-linecap="round" stroke-miterlimit="10" x1="6.4" y1="11.5" x2="7.1" y2="12.9"/>
	
		<line fill="none" stroke="#2BA4DD" stroke-width="0.7" stroke-linecap="round" stroke-miterlimit="10" x1="5.4" y1="13.6" x2="6.2" y2="15"/>
	
		<line fill="none" stroke="#2BA4DD" stroke-width="0.7" stroke-linecap="round" stroke-miterlimit="10" x1="9.3" y1="13.6" x2="10.1" y2="15"/>
	
		<line fill="none" stroke="#2BA4DD" stroke-width="0.7" stroke-linecap="round" stroke-miterlimit="10" x1="7.4" y1="13.6" x2="8.2" y2="15"/>
</g>
</svg>
