<?xml version="1.0" encoding="utf-8"?>
<!-- Generator: Adobe Illustrator 24.3.0, SVG Export Plug-In . SVG Version: 6.00 Build 0)  -->
<svg version="1.1" id="Layer_1" xmlns="http://www.w3.org/2000/svg" xmlns:xlink="http://www.w3.org/1999/xlink" x="0px" y="0px"
	 viewBox="0 0 16 16" enable-background="new 0 0 16 16" xml:space="preserve">
<g>
	<g>
		<g id="XMLID_6_">
			<g>
				<path fill="#FFFFFF" d="M11.6,5.8c0-0.9-0.7-1.6-1.6-1.6c0.9,0,1.6-0.7,1.6-1.6c0,0.9,0.7,1.6,1.6,1.6
					C12.3,4.2,11.6,4.9,11.6,5.8z"/>
			</g>
			<g>
				<path fill="none" stroke="#231613" stroke-width="0.65" stroke-linecap="round" stroke-miterlimit="10" d="M10,4.2
					c0.9,0,1.6,0.7,1.6,1.6"/>
				<path fill="none" stroke="#231613" stroke-width="0.65" stroke-linecap="round" stroke-miterlimit="10" d="M11.6,5.8
					c0-0.9,0.7-1.6,1.6-1.6"/>
				<path fill="none" stroke="#231613" stroke-width="0.65" stroke-linecap="round" stroke-miterlimit="10" d="M13.2,4.2
					c-0.9,0-1.6-0.7-1.6-1.6"/>
				<path fill="none" stroke="#231613" stroke-width="0.65" stroke-linecap="round" stroke-miterlimit="10" d="M11.6,2.6
					c0,0.9-0.7,1.6-1.6,1.6"/>
			</g>
		</g>
	</g>
	<path fill="#F2EA8E" stroke="#231613" stroke-width="0.6" stroke-linejoin="round" stroke-miterlimit="10" d="M13.7,9.8
		c-5.5,1.5-8.4-5-5.9-8.6C4.8,2.1,3,5.3,3.8,8.4c0.8,3.2,4.1,5.1,7.3,4.2c1.8-0.5,3.2-1.7,3.9-3.3C14.6,9.5,14.2,9.7,13.7,9.8z"/>
</g>
<g id="XMLID_11_">
	<g>
		<path fill="#FFFFFF" d="M7.7,7c1.5,0,2.8,1,3.2,2.4c1.2,0.2,2.1,1.1,2.1,2.3c0,1.3-1.1,2.4-2.4,2.4H3.8c-1.6,0-2.8-1.3-2.8-2.8
			s1.3-2.8,2.8-2.8c0.3,0,0.7,0.1,1,0.2C5.4,7.7,6.4,7,7.7,7z"/>
	</g>
	<g>
	</g>
</g>
<g id="XMLID_10_">
	<g>
	</g>
	<g>
		
			<path fill="none" stroke="#231714" stroke-width="0.65" stroke-linecap="round" stroke-linejoin="round" stroke-miterlimit="10" d="
			M10.5,14.2c1.3,0,2.4-1.1,2.4-2.4c0-1.2-0.9-2.2-2.1-2.3C10.5,8.1,9.2,7,7.7,7C6.4,7,5.4,7.7,4.8,8.7c-0.3-0.1-0.6-0.2-1-0.2
			C2.3,8.5,1,9.8,1,11.3c0,1.5,1.2,2.8,2.7,2.8"/>
	</g>
</g>
<g>
	
		<line fill="none" stroke="#2BA4DD" stroke-width="0.7" stroke-linecap="round" stroke-miterlimit="10" x1="5" y1="13.5" x2="5.7" y2="14.8"/>
	
		<line fill="none" stroke="#2BA4DD" stroke-width="0.7" stroke-linecap="round" stroke-miterlimit="10" x1="8.7" y1="13.5" x2="9.3" y2="14.8"/>
	
		<line fill="none" stroke="#2BA4DD" stroke-width="0.7" stroke-linecap="round" stroke-miterlimit="10" x1="6.9" y1="13.5" x2="7.6" y2="14.8"/>
</g>
</svg>
