<?xml version="1.0" encoding="utf-8"?>
<!-- Generator: Adobe Illustrator 24.3.0, SVG Export Plug-In . SVG Version: 6.00 Build 0)  -->
<svg version="1.1" id="Layer_1" xmlns="http://www.w3.org/2000/svg" xmlns:xlink="http://www.w3.org/1999/xlink" x="0px" y="0px"
	 viewBox="0 0 16 16" enable-background="new 0 0 16 16" xml:space="preserve">
<g>
	<circle fill="#F6B42A" stroke="#231715" stroke-width="0.65" stroke-miterlimit="10" cx="8.3" cy="8.4" r="3.7"/>
	
		<line fill="none" stroke="#231715" stroke-width="0.65" stroke-linecap="round" stroke-miterlimit="10" x1="1.5" y1="8.4" x2="3.3" y2="8.4"/>
	
		<line fill="none" stroke="#231715" stroke-width="0.65" stroke-linecap="round" stroke-miterlimit="10" x1="2.4" y1="5" x2="4" y2="5.9"/>
	
		<line fill="none" stroke="#231715" stroke-width="0.65" stroke-linecap="round" stroke-miterlimit="10" x1="4.9" y1="2.5" x2="5.8" y2="4.2"/>
	
		<line fill="none" stroke="#231715" stroke-width="0.65" stroke-linecap="round" stroke-miterlimit="10" x1="8.3" y1="1.7" x2="8.3" y2="3.5"/>
	
		<line fill="none" stroke="#231715" stroke-width="0.65" stroke-linecap="round" stroke-miterlimit="10" x1="11.6" y1="2.5" x2="10.8" y2="4.2"/>
	
		<line fill="none" stroke="#231715" stroke-width="0.65" stroke-linecap="round" stroke-miterlimit="10" x1="14.1" y1="5" x2="12.5" y2="5.9"/>
	
		<line fill="none" stroke="#231715" stroke-width="0.65" stroke-linecap="round" stroke-miterlimit="10" x1="15" y1="8.4" x2="13.2" y2="8.4"/>
	
		<line fill="none" stroke="#231715" stroke-width="0.65" stroke-linecap="round" stroke-miterlimit="10" x1="14.1" y1="11.8" x2="12.5" y2="10.9"/>
</g>
<g id="XMLID_11_">
	<g>
		<path fill="#FFFFFF" d="M3.7,13.7C2.2,13.7,1,12.5,1,11s1.2-2.7,2.7-2.7c0.3,0,0.6,0.1,0.9,0.2c0.5-0.9,1.6-1.6,2.8-1.6
			c1.5,0,2.7,1,3.1,2.3c1.1,0.1,2,1.1,2,2.3c0,1.3-1,2.3-2.3,2.3H3.7z"/>
	</g>
	<g>
	</g>
</g>
<g id="XMLID_10_">
	<g>
	</g>
	<g>
		
			<path fill="none" stroke="#231714" stroke-width="0.65" stroke-linecap="round" stroke-linejoin="round" stroke-miterlimit="10" d="
			M10.2,13.7c1.3,0,2.3-1,2.3-2.3c0-1.2-0.9-2.1-2-2.3c-0.4-1.4-1.6-2.3-3.1-2.3c-1.2,0-2.2,0.6-2.8,1.6C4.4,8.3,4,8.3,3.7,8.3
			C2.2,8.3,1,9.5,1,11c0,1.5,1.2,2.7,2.6,2.7"/>
	</g>
</g>
<g>
	
		<line fill="none" stroke="#2BA4DD" stroke-width="0.7" stroke-linecap="round" stroke-miterlimit="10" x1="4.9" y1="13.1" x2="5.5" y2="14.3"/>
	
		<line fill="none" stroke="#2BA4DD" stroke-width="0.7" stroke-linecap="round" stroke-miterlimit="10" x1="8.4" y1="13.1" x2="9" y2="14.3"/>
	
		<line fill="none" stroke="#2BA4DD" stroke-width="0.7" stroke-linecap="round" stroke-miterlimit="10" x1="6.7" y1="13.1" x2="7.3" y2="14.3"/>
</g>
</svg>
