<?xml version="1.0" encoding="utf-8"?>
<!-- Generator: Adobe Illustrator 24.3.0, SVG Export Plug-In . SVG Version: 6.00 Build 0)  -->
<svg version="1.1" id="Layer_1" xmlns="http://www.w3.org/2000/svg" xmlns:xlink="http://www.w3.org/1999/xlink" x="0px" y="0px"
	 viewBox="0 0 304 263" style="enable-background:new 0 0 304 263;" xml:space="preserve">
<style type="text/css">
	.st0{fill:#FFFFFF;}
	.st1{fill:#231815;}
	.st2{fill:none;}
	.st3{fill:#2EA7E0;}
</style>
<g id="图层_1">
	<path class="st0" d="M226.6,182.4c28.6,0,51.8-23.2,51.8-51.7c0-24.6-17.3-45.8-41.4-50.7c-12-38.9-53.3-60.7-92.2-48.6
		c-16.2,5-30.2,15.5-39.6,29.6c-32.7-10.6-67.8,7.3-78.4,40s7.3,67.8,40,78.4c6.2,2,12.7,3,19.2,3"/>
	<path class="st1" d="M226.6,189.9c29.9-0.3,55-22.7,58.8-52.3c3.7-30-17-58.5-46.5-64.9l5.2,5.2c-9.1-28.4-33.2-50.8-62.8-56
		c-32.1-5.7-64.5,8.2-82.7,35.2l8.5-3.4C75.7,44,40.7,57.5,24.8,86.5c-15.2,27.6-9.6,63.4,13.7,84.8c13,11.9,29.9,18.5,47.4,18.6
		c9.7,0.1,9.7-14.9,0-15c-24.5-0.3-46.4-16.6-52.8-40.4c-6.3-24,4.1-49.3,25.6-61.8c13.6-7.8,29.5-9.1,44.4-4.5
		c3.3,1,6.6-0.7,8.5-3.4c14.6-21.5,41.4-33.1,67.1-28.1c24,4.7,43.5,22,51,45.3c0.7,2.5,2.7,4.5,5.2,5.2c22.5,4.9,38.5,25.8,35.6,49
		c-2.7,22.1-22,38.4-44,38.7C216.9,175,216.8,190,226.6,189.9L226.6,189.9z"/>
	<line class="st2" x1="106" y1="148.4" x2="98.6" y2="129.2"/>
	<path class="st3" d="M113.2,146.4l-7.4-19.2c-1.4-3.8-5-6.4-9.2-5.2c-3.6,1-6.7,5.4-5.2,9.2l7.4,19.2c1.4,3.8,5,6.4,9.2,5.2
		C111.6,154.7,114.7,150.2,113.2,146.4L113.2,146.4z"/>
	<line class="st2" x1="143.9" y1="148.4" x2="136.6" y2="129.2"/>
	<path class="st3" d="M151.2,146.4l-7.4-19.2c-1.4-3.8-5-6.4-9.2-5.2c-3.6,1-6.7,5.4-5.2,9.2l7.4,19.2c1.4,3.8,5,6.4,9.2,5.2
		C149.5,154.7,152.6,150.3,151.2,146.4L151.2,146.4z"/>
	<line class="st2" x1="181.9" y1="148.4" x2="174.5" y2="129.2"/>
	<path class="st3" d="M189.1,146.4l-7.4-19.2c-1.5-3.8-5-6.4-9.2-5.2c-3.6,1-6.7,5.4-5.2,9.2l7.4,19.2c1.5,3.8,5,6.4,9.2,5.2
		C187.5,154.7,190.6,150.3,189.1,146.4L189.1,146.4z"/>
	<line class="st2" x1="122.4" y1="191.3" x2="115.1" y2="172.1"/>
	<path class="st3" d="M129.7,189.3l-7.4-19.2c-1.4-3.8-5-6.4-9.2-5.2c-3.6,1-6.7,5.4-5.2,9.2l7.4,19.2c1.4,3.8,5,6.4,9.2,5.2
		C128,197.5,131.1,193.1,129.7,189.3L129.7,189.3z"/>
	<line class="st2" x1="160.4" y1="191.3" x2="153" y2="172.1"/>
	<path class="st3" d="M167.6,189.3l-7.4-19.2c-1.5-3.8-5-6.4-9.2-5.2c-3.6,1-6.7,5.4-5.2,9.2l7.4,19.2c1.4,3.8,5,6.4,9.2,5.2
		C166,197.5,169.1,193.1,167.6,189.3L167.6,189.3z"/>
	<line class="st2" x1="198.4" y1="191.3" x2="191" y2="172.1"/>
	<path class="st3" d="M205.6,189.3l-7.4-19.2c-1.5-3.8-5-6.4-9.2-5.2c-3.6,1-6.7,5.4-5.2,9.2l7.4,19.2c1.5,3.8,5,6.4,9.2,5.2
		C204,197.5,207.1,193.1,205.6,189.3L205.6,189.3z"/>
	<line class="st2" x1="138.9" y1="234.2" x2="131.5" y2="215"/>
	<path class="st3" d="M146.1,232.2l-7.4-19.2c-1.4-3.8-5-6.4-9.2-5.2c-3.6,1-6.7,5.4-5.2,9.2l7.4,19.2c1.4,3.8,5,6.4,9.2,5.2
		C144.5,240.4,147.6,236,146.1,232.2z"/>
	<line class="st2" x1="176.9" y1="234.2" x2="169.5" y2="215"/>
	<path class="st3" d="M184.1,232.2l-7.4-19.2c-1.5-3.8-5-6.4-9.2-5.2c-3.6,1-6.7,5.4-5.2,9.2l7.4,19.2c1.5,3.8,5,6.4,9.2,5.2
		C182.5,240.4,185.6,236,184.1,232.2z"/>
	<line class="st2" x1="214.8" y1="234.2" x2="207.5" y2="215"/>
	<path class="st3" d="M222.1,232.2l-7.4-19.2c-1.5-3.8-5-6.4-9.2-5.2c-3.6,1-6.7,5.4-5.2,9.2l7.4,19.2c1.5,3.8,5,6.4,9.2,5.2
		C220.4,240.4,223.5,236,222.1,232.2z"/>
</g>
</svg>
