<?xml version="1.0" encoding="utf-8"?>
<!-- Generator: Adobe Illustrator 24.3.0, SVG Export Plug-In . SVG Version: 6.00 Build 0)  -->
<svg version="1.1" id="Layer_1" xmlns="http://www.w3.org/2000/svg" xmlns:xlink="http://www.w3.org/1999/xlink" x="0px" y="0px"
	 viewBox="0 0 16 16" enable-background="new 0 0 16 16" xml:space="preserve">
<g id="XMLID_11_">
	<g>
		<path fill="#FFFFFF" d="M12.6,4.8C13.9,5,15,6.1,15,7.6c0,1.5-1.2,2.8-2.8,2.8H4.3C2.5,10.3,1,8.8,1,7s1.5-3.3,3.3-3.3
			c0.4,0,0.8,0.1,1.1,0.2c0.7-1.2,1.9-2,3.4-2C10.6,1.9,12.1,3.1,12.6,4.8z"/>
	</g>
	<g>
	</g>
</g>
<g id="XMLID_10_">
	<g>
	</g>
	<g>
		
			<path fill="none" stroke="#231714" stroke-width="0.65" stroke-linecap="round" stroke-linejoin="round" stroke-miterlimit="10" d="
			M12.2,10.3c1.5,0,2.8-1.2,2.8-2.8c0-1.4-1.1-2.6-2.4-2.8c-0.4-1.7-2-2.9-3.8-2.9c-1.4,0-2.7,0.8-3.4,1.9C5.1,3.7,4.7,3.7,4.3,3.7
			C2.5,3.7,1,5.2,1,7c0,1.8,1.4,3.3,3.2,3.3"/>
	</g>
</g>
<g>
	
		<line fill="none" stroke="#2BA4DD" stroke-width="0.7" stroke-linecap="round" stroke-miterlimit="10" x1="5.1" y1="9.4" x2="6.1" y2="11.2"/>
	
		<line fill="none" stroke="#2BA4DD" stroke-width="0.7" stroke-linecap="round" stroke-miterlimit="10" x1="10.3" y1="9.4" x2="11.3" y2="11.2"/>
	
		<line fill="none" stroke="#2BA4DD" stroke-width="0.7" stroke-linecap="round" stroke-miterlimit="10" x1="7.8" y1="9.4" x2="8.8" y2="11.2"/>
	
		<line fill="none" stroke="#2BA4DD" stroke-width="0.7" stroke-linecap="round" stroke-miterlimit="10" x1="6.5" y1="12.2" x2="7.4" y2="14"/>
	
		<line fill="none" stroke="#2BA4DD" stroke-width="0.7" stroke-linecap="round" stroke-miterlimit="10" x1="11.7" y1="12.2" x2="12.7" y2="14.1"/>
	
		<line fill="none" stroke="#2BA4DD" stroke-width="0.7" stroke-linecap="round" stroke-miterlimit="10" x1="9.1" y1="12.2" x2="10.1" y2="14"/>
</g>
</svg>
