<?xml version="1.0" encoding="utf-8"?>
<!-- Generator: Adobe Illustrator 24.3.0, SVG Export Plug-In . SVG Version: 6.00 Build 0)  -->
<svg version="1.1" id="Layer_1" xmlns="http://www.w3.org/2000/svg" xmlns:xlink="http://www.w3.org/1999/xlink" x="0px" y="0px"
	 viewBox="0 0 370 377" style="enable-background:new 0 0 370 377;" xml:space="preserve">
<style type="text/css">
	.st0{fill:#DCDDDD;}
	.st1{fill:#231815;}
	.st2{fill:#2EA7E0;}
	.st3{fill:#F8B62D;}
</style>
<g id="图层_1">
	<path class="st0" d="M302.5,229c22.5,4.9,38.5,25.7,35.6,49c-2.8,22.1-22,38.4-44,38.7c-4.8,0.1-7.2,3.8-7.2,7.5H160.8
		c0-3.7-2.4-7.5-7.2-7.5c-24.5-0.3-46.4-16.6-52.8-40.4c-3.3-12.2-2.2-25.1,3-36.6c2.2-4.9,5-9.4,8.5-13.4c4-4.7,8.8-8.7,14.1-11.8
		c13.6-7.8,29.5-9.1,44.4-4.5c3.3,1,6.6-0.7,8.5-3.5c14.6-21.5,41.4-33.1,67.1-28.1c4.7,0.9,9.4,2.4,13.8,4.3
		c0.9,0.4,1.7,0.8,2.6,1.2s1.9,1,2.9,1.5c15.1,8.2,26.4,22,31.7,38.3C298,226.3,300,228.3,302.5,229z M259.5,320.5
		c3.6-1,6.7-5.4,5.2-9.2l-7.4-19.2c-1.5-3.8-5-6.4-9.2-5.2c-3.6,1-6.7,5.4-5.2,9.2l7.4,19.2C251.7,319.1,255.3,321.7,259.5,320.5
		L259.5,320.5z M221.5,320.5c3.6-1,6.7-5.4,5.2-9.2l-7.4-19.2c-1.5-3.8-5-6.4-9.2-5.2c-3.6,1-6.7,5.4-5.2,9.2l7.4,19.2
		C213.8,319.1,217.4,321.7,221.5,320.5L221.5,320.5z M183.5,320.5c3.6-1,6.7-5.4,5.2-9.2c-2.4-6.4-4.9-12.8-7.4-19.2
		c-1.4-3.8-5-6.4-9.2-5.2c-3.6,1-6.7,5.4-5.2,9.2c2.4,6.4,4.9,12.8,7.4,19.2C175.8,319.1,179.4,321.7,183.5,320.5L183.5,320.5z"/>
	<path class="st1" d="M337.1,171c9.7,0,9.6,15,0,15h-33.6c-9.7,0-9.6-15,0-15H337.1z"/>
	<path class="st1" d="M275.2,182.4c14,9.4,24.3,23.3,29.3,39.4c28,5.7,46.1,33,40.4,61c-4.9,24.1-26.1,41.4-50.7,41.4H287
		c0-3.7,2.5-7.4,7.2-7.5c22-0.3,41.2-16.6,44-38.7c2.9-23.3-13.1-44.1-35.6-49c-2.5-0.7-4.5-2.7-5.2-5.2
		c-4.1-12.9-12.1-24.3-22.9-32.6C274.8,188.3,275.1,185.4,275.2,182.4z"/>
	<path class="st1" d="M312,92.8c8.4-4.8,15.9,8.1,7.6,13l-29.1,16.8c-8.4,4.8-15.9-8.1-7.6-12.9L312,92.8z"/>
	<path class="st1" d="M310.2,215.5c27.4,7.9,46.3,35.1,42.7,63.9c-3.8,29.7-28.9,52-58.8,52.3c-4.9,0.1-7.3-3.7-7.2-7.5h7.2
		c28.6,0,51.8-23.2,51.8-51.7c0-24.6-17.3-45.8-41.4-50.7c-5-16.1-15.3-30-29.3-39.4c0.1-1.1,0.1-2.2,0.1-3.3V179c0-0.1,0-0.3,0-0.4
		v-0.1c0-0.2,0-0.3,0-0.5c0-1.5-0.1-3-0.2-4.5C291.2,183.2,303.6,198,310.2,215.5c-1.2-0.3-2.5-0.6-3.7-1l5.2,5.2
		C311.3,218.4,310.8,216.9,310.2,215.5z"/>
	<path class="st1" d="M310.2,215.5c0.5,1.4,1,2.8,1.5,4.3l-5.2-5.2C307.8,214.8,309,215.2,310.2,215.5z"/>
	<path class="st2" d="M281.2,354.2c1.5,3.8-1.6,8.2-5.2,9.2c-4.2,1.1-7.8-1.5-9.2-5.2c-2.5-6.4-4.9-12.8-7.4-19.2
		c-1.5-3.8,1.6-8.2,5.2-9.2c4.2-1.1,7.8,1.5,9.2,5.2C276.3,341.4,278.8,347.8,281.2,354.2z"/>
	<path class="st1" d="M275.3,179c0-0.1,0-0.3,0-0.4C275.3,178.8,275.3,178.9,275.3,179z"/>
	<path class="st1" d="M274.6,182c0.4-0.9,0.7-1.9,0.8-2.9c0,1.1,0,2.2-0.1,3.3C275,182.3,274.8,182.1,274.6,182z"/>
	<path class="st1" d="M274.6,182c-1.6,3.2-5.6,4.4-8.9,3.5c-1-0.5-1.9-1-2.9-1.5c-1.6-1.4-2.5-3.4-2.4-5.4c0-1.2,0.3-2.4,0.8-3.5
		C265.9,176.9,270.4,179.2,274.6,182z"/>
	<path class="st1" d="M261.2,175c3.1-5.8,13.8-4.8,14.1,3c0,0.2,0,0.3,0,0.5v0.1c0,0.1,0,0.3,0,0.4v0.1c-0.1,1-0.3,2-0.8,2.9
		C270.4,179.2,265.9,176.9,261.2,175z"/>
	<path class="st1" d="M265.6,185.5c3.3,0.9,7.3-0.2,8.9-3.5c0.2,0.1,0.4,0.3,0.6,0.4c-0.1,3-0.4,5.9-0.8,8.8
		C271.6,189.1,268.7,187.2,265.6,185.5z"/>
	<path class="st2" d="M264.8,311.3c1.5,3.8-1.6,8.2-5.2,9.2c-4.2,1.1-7.8-1.5-9.2-5.2l-7.4-19.2c-1.5-3.8,1.6-8.2,5.2-9.2
		c4.2-1.1,7.8,1.5,9.2,5.2L264.8,311.3z"/>
	<path class="st1" d="M251.3,37.5c4.8-8.4,17.8-0.8,13,7.6l-16.8,29.1c-4.8,8.4-17.8,0.8-13-7.6L251.3,37.5z"/>
	<path class="st1" d="M260.2,174.7c-0.2-2.8-0.5-5.5-0.9-8.3c5.5,1.8,10.8,4.2,15.8,7.2c0.1,1.5,0.1,3,0.2,4.5
		c-0.4-7.8-11-8.8-14.1-3L260.2,174.7z"/>
	<path class="st1" d="M261.2,175c-0.6,1.1-0.9,2.3-0.8,3.5c0-1.3-0.1-2.6-0.1-3.9L261.2,175z"/>
	<path class="st1" d="M260.3,178.5c-0.1,2.1,0.8,4.1,2.4,5.4c-0.8-0.4-1.7-0.8-2.6-1.2C260.3,181.4,260.3,180,260.3,178.5z"/>
	<path class="st1" d="M153.5,199.8c4.1,0,8.2,0.4,12.3,1.2l0,0c2.3,0.5,4.6,1.1,6.9,1.8c19-28.6,55.3-40.3,87.5-28.2
		c0.1,1.3,0.1,2.6,0.1,3.9s-0.1,2.9-0.2,4.3c-4.4-1.9-9.1-3.4-13.8-4.3c-25.7-5-52.5,6.6-67.1,28.1c-1.8,2.7-5.1,4.5-8.5,3.5
		c-14.9-4.6-30.9-3.3-44.4,4.5c-5.4,3.1-10.1,7.1-14.1,11.8c-1.5-2.1-3-4.3-4.3-6.5C119.6,207,136.2,199.8,153.5,199.8z"/>
	<path class="st1" d="M234.1,169.9c-24.7,0-47.7,12.3-61.4,32.9c-2.3-0.7-4.6-1.3-6.9-1.8l0,0l0.4-2l8.5-3.4c-1.6-0.5-3.3-0.9-5-1.3
		c18.7-24.1,49.2-35.8,79.3-30.5c3.5,0.6,7,1.5,10.4,2.6c0.4,2.7,0.7,5.5,0.9,8.3C251.9,171.5,243,169.9,234.1,169.9z"/>
	<path class="st2" d="M243.2,354.2c1.5,3.8-1.6,8.2-5.2,9.2c-4.2,1.1-7.8-1.5-9.2-5.2l-7.4-19.2c-1.5-3.8,1.6-8.2,5.2-9.2
		c4.2-1.1,7.8,1.5,9.2,5.2C238.3,341.4,240.8,347.8,243.2,354.2z"/>
	<path class="st3" d="M194.4,98.3c33.7,7,59.6,34.1,64.9,68.1c-3.4-1.1-6.8-2-10.3-2.6c-30-5.3-60.5,6.4-79.2,30.5
		c-23.6-5.4-48.2,1.6-65.5,18.5c-11.2-24.7-9.5-53.3,4.3-76.7C126.2,107.2,161.1,91.5,194.4,98.3z"/>
	<path class="st2" d="M226.8,311.3c1.5,3.8-1.6,8.2-5.2,9.2c-4.2,1.1-7.8-1.5-9.2-5.2l-7.3-19.2c-1.5-3.8,1.6-8.2,5.2-9.2
		c4.2-1.1,7.8,1.5,9.2,5.2L226.8,311.3z"/>
	<path class="st2" d="M205.3,354.2c1.5,3.8-1.6,8.2-5.2,9.2c-4.2,1.1-7.8-1.5-9.2-5.2l-7.4-19.2c-1.5-3.8,1.6-8.2,5.2-9.2
		c4.2-1.1,7.8,1.5,9.2,5.2L205.3,354.2z"/>
	<path class="st2" d="M188.8,311.3c1.5,3.8-1.6,8.2-5.2,9.2c-4.2,1.1-7.8-1.5-9.2-5.2c-2.5-6.4-4.9-12.8-7.4-19.2
		c-1.5-3.8,1.6-8.2,5.2-9.2c4.2-1.1,7.8,1.5,9.2,5.2C183.9,298.5,186.4,304.9,188.8,311.3z"/>
	<path class="st1" d="M186.1,20v33.7c0,9.7-15,9.7-15,0V20C171.1,10.4,186.1,10.4,186.1,20z"/>
	<path class="st1" d="M174.7,195.6l-8.5,3.4c1.1-1.6,2.3-3.2,3.5-4.8C171.4,194.7,173.1,195.1,174.7,195.6z"/>
	<path class="st1" d="M104.2,212.8c17.3-16.9,41.9-23.9,65.5-18.5c-1.2,1.5-2.4,3.1-3.5,4.8l-0.4,2c-21.3-4.3-43.3,2.8-58,18.8
		C106.5,217.5,105.3,215.2,104.2,212.8z"/>
	<path class="st1" d="M122.6,66.6c4.8,8.4-8.1,15.9-13,7.6L92.8,45.1c-4.8-8.4,8.2-15.9,13-7.6L122.6,66.6z"/>
	<path class="st1" d="M91.3,262c0,34.4,27.9,62.2,62.2,62.2c0,0,0,0,0,0h7.2c0,3.8-2.4,7.5-7.2,7.5c-17.6-0.1-34.5-6.8-47.4-18.7
		c-23.3-21.4-28.8-57.1-13.7-84.8c0.5-0.9,1-1.8,1.6-2.7c0.5,1,1.1,1.9,1.6,2.9c0.9,1.5,1.9,3,2.9,4.4
		C93.8,241.9,91.3,251.9,91.3,262z"/>
	<path class="st1" d="M107.9,219.8c1.3,2.3,2.7,4.4,4.3,6.5c-3.5,4-6.3,8.6-8.5,13.4c-1.8-2.2-3.5-4.5-5.1-6.8
		C101.1,228.1,104.2,223.7,107.9,219.8z"/>
	<path class="st1" d="M275.1,173.6c-5-3-10.3-5.4-15.8-7.2c-5.3-34-31.2-61.1-64.9-68.1c-33.3-6.8-68.2,8.9-85.8,37.9
		c-13.9,23.3-15.5,51.9-4.4,76.6c-3.9,3.9-7.4,8.2-10.2,12.9c-19.3-34.5-15-78.2,10-108.8c25.4-31,69.6-43.2,107.3-29.4
		C247.8,100.9,272.8,134.7,275.1,173.6z"/>
	<path class="st1" d="M107.9,219.8c-3.7,4-6.8,8.4-9.3,13.1c-1-1.4-1.9-2.9-2.9-4.4c-0.6-1-1.1-1.9-1.6-2.9c2.9-4.7,6.3-9,10.2-12.9
		C105.3,215.2,106.5,217.5,107.9,219.8z"/>
	<path class="st1" d="M153.5,316.8c4.8,0,7.2,3.8,7.2,7.5h-7.2c-34.4,0-62.2-27.9-62.2-62.3c0-10.1,2.5-20.1,7.2-29.1
		c1.6,2.4,3.3,4.7,5.1,6.8c-5.2,11.5-6.3,24.4-3,36.6C107.2,300.2,129,316.5,153.5,316.8z"/>
	<path class="st1" d="M74.2,109.6c8.4,4.8,0.8,17.8-7.6,12.9l-29.1-16.8c-8.4-4.8-0.8-17.8,7.6-13L74.2,109.6z"/>
	<path class="st1" d="M66.6,234.5c8.4-4.8,15.9,8.1,7.6,13l-29.2,16.8c-8.4,4.8-15.9-8.1-7.6-13L66.6,234.5z"/>
	<path class="st1" d="M53.7,171c9.7,0,9.7,15,0,15H20.1c-9.7,0-9.7-15,0-15H53.7z"/>
</g>
</svg>
