<?xml version="1.0" encoding="utf-8"?>
<!-- Generator: Adobe Illustrator 24.3.0, SVG Export Plug-In . SVG Version: 6.00 Build 0)  -->
<svg version="1.1" id="Layer_1" xmlns="http://www.w3.org/2000/svg" xmlns:xlink="http://www.w3.org/1999/xlink" x="0px" y="0px"
	 viewBox="0 0 16 16" enable-background="new 0 0 16 16" xml:space="preserve">
<g>
	<g>
		<g id="XMLID_6_">
			<g>
				<path fill="#FFFFFF" d="M11.4,6.2c0-0.9-0.8-1.7-1.7-1.7c0.9,0,1.7-0.7,1.7-1.7c0,0.9,0.7,1.7,1.7,1.7
					C12.2,4.5,11.4,5.3,11.4,6.2z"/>
			</g>
			<g>
				<path fill="none" stroke="#231613" stroke-width="0.65" stroke-linecap="round" stroke-miterlimit="10" d="M9.8,4.5
					c0.9,0,1.7,0.8,1.7,1.7"/>
				<path fill="none" stroke="#231613" stroke-width="0.65" stroke-linecap="round" stroke-miterlimit="10" d="M11.4,6.2
					c0-0.9,0.7-1.7,1.7-1.7"/>
				<path fill="none" stroke="#231613" stroke-width="0.65" stroke-linecap="round" stroke-miterlimit="10" d="M13.1,4.5
					c-0.9,0-1.7-0.7-1.7-1.7"/>
				<path fill="none" stroke="#231613" stroke-width="0.65" stroke-linecap="round" stroke-miterlimit="10" d="M11.4,2.9
					c0,0.9-0.8,1.7-1.7,1.7"/>
			</g>
		</g>
	</g>
	<path fill="#F2EA8E" stroke="#231613" stroke-width="0.6" stroke-linejoin="round" stroke-miterlimit="10" d="M13.7,10.4
		C7.9,12,4.8,5.2,7.4,1.3C4.2,2.3,2.3,5.7,3.2,9c0.9,3.4,4.3,5.3,7.7,4.4c1.9-0.5,3.4-1.8,4.1-3.5C14.6,10.1,14.2,10.3,13.7,10.4z"
		/>
</g>
<g id="XMLID_14_">
	<g>
		<path fill="#8DC2E8" d="M10,9.7c1.1,0.1,1.9,1.1,1.9,2.2c0,1.2-1,2.2-2.2,2.2H3.6c-1.4,0-2.6-1.2-2.6-2.6s1.2-2.6,2.6-2.6
			c0.3,0,0.6,0.1,0.9,0.2C5,8.1,6,7.5,7.1,7.5C8.5,7.5,9.7,8.4,10,9.7z"/>
	</g>
	<g>
	</g>
</g>
<g id="XMLID_13_">
	<g>
	</g>
	<g>
		
			<path fill="none" stroke="#231714" stroke-width="0.65" stroke-linecap="round" stroke-linejoin="round" stroke-miterlimit="10" d="
			M9.8,14.1c1.2,0,2.2-1,2.2-2.2c0-1.1-0.8-2-1.9-2.2C9.7,8.4,8.5,7.5,7.1,7.5C6,7.5,5,8.1,4.5,9C4.2,8.9,3.9,8.9,3.6,8.9
			C2.2,8.9,1,10,1,11.5c0,1.4,1.1,2.6,2.5,2.6"/>
	</g>
</g>
<g>
	
		<line fill="none" stroke="#2BA4DD" stroke-width="0.7" stroke-linecap="round" stroke-miterlimit="10" x1="4.8" y1="13.5" x2="5.4" y2="14.6"/>
	
		<line fill="none" stroke="#2BA4DD" stroke-width="0.7" stroke-linecap="round" stroke-miterlimit="10" x1="8.1" y1="13.5" x2="8.8" y2="14.7"/>
	
		<line fill="none" stroke="#2BA4DD" stroke-width="0.7" stroke-linecap="round" stroke-miterlimit="10" x1="6.5" y1="13.5" x2="7.1" y2="14.6"/>
</g>
</svg>
