<?xml version="1.0" encoding="utf-8"?>
<!-- Generator: Adobe Illustrator 24.3.0, SVG Export Plug-In . SVG Version: 6.00 Build 0)  -->
<svg version="1.1" id="Layer_1" xmlns="http://www.w3.org/2000/svg" xmlns:xlink="http://www.w3.org/1999/xlink" x="0px" y="0px"
	 viewBox="0 0 16 16" enable-background="new 0 0 16 16" xml:space="preserve">
<g>
	<circle fill="#F6B42A" stroke="#231715" stroke-width="0.65" stroke-miterlimit="10" cx="8.9" cy="7.9" r="3.3"/>
	
		<line fill="none" stroke="#231715" stroke-width="0.65" stroke-linecap="round" stroke-miterlimit="10" x1="3.6" y1="4.8" x2="5.1" y2="5.6"/>
	
		<line fill="none" stroke="#231715" stroke-width="0.65" stroke-linecap="round" stroke-miterlimit="10" x1="5.9" y1="2.6" x2="6.7" y2="4"/>
	
		<line fill="none" stroke="#231715" stroke-width="0.65" stroke-linecap="round" stroke-miterlimit="10" x1="8.9" y1="1.8" x2="8.9" y2="3.4"/>
	
		<line fill="none" stroke="#231715" stroke-width="0.65" stroke-linecap="round" stroke-miterlimit="10" x1="12" y1="2.6" x2="11.2" y2="4"/>
	
		<line fill="none" stroke="#231715" stroke-width="0.65" stroke-linecap="round" stroke-miterlimit="10" x1="14.2" y1="4.8" x2="12.7" y2="5.6"/>
	
		<line fill="none" stroke="#231715" stroke-width="0.65" stroke-linecap="round" stroke-miterlimit="10" x1="15" y1="7.9" x2="13.3" y2="7.9"/>
	
		<line fill="none" stroke="#231715" stroke-width="0.65" stroke-linecap="round" stroke-miterlimit="10" x1="14.2" y1="10.9" x2="12.7" y2="10.1"/>
</g>
<g id="XMLID_14_">
	<g>
		<path fill="#8DC2E8" d="M11.1,8.7c1.2,0.2,2.1,1.2,2.1,2.4c0,1.3-1.1,2.4-2.4,2.4H3.9c-1.6,0-2.9-1.3-2.9-2.9s1.3-2.9,2.9-2.9
			c0.3,0,0.7,0.1,1,0.2c0.6-1,1.7-1.7,2.9-1.7C9.4,6.3,10.7,7.3,11.1,8.7z"/>
	</g>
	<g>
	</g>
</g>
<g id="XMLID_13_">
	<g>
	</g>
	<g>
		
			<path fill="none" stroke="#231714" stroke-width="0.65" stroke-linecap="round" stroke-linejoin="round" stroke-miterlimit="10" d="
			M10.8,13.6c1.3,0,2.4-1.1,2.4-2.4c0-1.2-0.9-2.2-2.1-2.4c-0.4-1.4-1.7-2.5-3.3-2.5c-1.3,0-2.3,0.7-2.9,1.7c-0.3-0.1-0.6-0.2-1-0.2
			C2.3,7.8,1,9.1,1,10.7c0,1.6,1.2,2.8,2.8,2.9"/>
	</g>
</g>
<g>
	
		<line fill="none" stroke="#2BA4DD" stroke-width="0.7" stroke-linecap="round" stroke-miterlimit="10" x1="5.2" y1="12.9" x2="5.9" y2="14.2"/>
	
		<line fill="none" stroke="#2BA4DD" stroke-width="0.7" stroke-linecap="round" stroke-miterlimit="10" x1="8.9" y1="12.9" x2="9.6" y2="14.2"/>
	
		<line fill="none" stroke="#2BA4DD" stroke-width="0.7" stroke-linecap="round" stroke-miterlimit="10" x1="7.1" y1="12.9" x2="7.8" y2="14.2"/>
</g>
</svg>
