<?xml version="1.0" encoding="utf-8"?>
<!-- Generator: Adobe Illustrator 24.3.0, SVG Export Plug-In . SVG Version: 6.00 Build 0)  -->
<svg version="1.1" id="Layer_1" xmlns="http://www.w3.org/2000/svg" xmlns:xlink="http://www.w3.org/1999/xlink" x="0px" y="0px"
	 viewBox="0 0 337 346" style="enable-background:new 0 0 337 346;" xml:space="preserve">
<style type="text/css">
	.st0{fill:#DCDDDD;}
	.st1{fill:#231815;}
	.st2{fill:#F4EC90;}
	.st3{fill:#FFFFFF;}
	.st4{fill:#2EA7E0;}
</style>
<g id="图层_1">
	<path class="st0" d="M222.4,181.1c1.4,2.9,2.6,5.8,3.5,8.8c0.7,2.5,2.7,4.5,5.2,5.2c6.9,1.5,13.3,4.6,18.9,8.9
		c10,7.8,16.2,19.5,17,32.2c0.4,6.6-0.7,13.3-3.3,19.4c-7.1,16.4-23.1,27.1-40.9,27.3c-4.8,0.1-7.2,3.8-7.2,7.5H89.4
		c0-3.7-2.4-7.5-7.2-7.5c-24.5-0.3-46.4-16.6-52.8-40.4c-6.4-24,4.1-49.4,25.6-61.9c6.3-3.6,13.3-5.9,20.5-6.8
		c5.4-0.6,10.8-0.5,16.1,0.4c2.7,0.4,5.3,1.1,7.9,1.9c3.3,1,6.6-0.7,8.5-3.4c11.2-16.3,29-26.9,48.7-28.9c6.2-0.6,12.4-0.3,18.5,0.8
		l0.3,0.1C195.8,148.8,213.3,162.3,222.4,181.1z M188.2,286.7c3.6-1,6.7-5.4,5.2-9.2c-0.9-2.4-1.8-4.7-2.7-7.1l-4.7-12.1
		c-0.6-1.5-1.5-2.8-2.7-3.9c-1.8-1.5-4.2-2-6.5-1.4l-0.3,0.1c-3.5,1.1-6.4,5.4-5,9.1l2.1,5.5l5.2,13.7
		C180.4,285.2,184,287.8,188.2,286.7z M150.2,286.7c3.6-1,6.7-5.4,5.2-9.2l-6.9-17.9l-0.5-1.3c-1.4-3.8-5-6.4-9.2-5.2
		c-0.6,0.2-1.2,0.4-1.7,0.8c-2.8,1.7-4.7,5.3-3.5,8.5l7.4,19.2C142.4,285.2,146,287.8,150.2,286.7L150.2,286.7z M112.2,286.7
		c3.6-1,6.7-5.4,5.2-9.2c-2.5-6.4-4.9-12.8-7.4-19.2c-1.5-3.8-5.1-6.4-9.2-5.2c-3.6,1-6.7,5.4-5.2,9.2c2.5,6.4,4.9,12.8,7.4,19.2
		C104.5,285.2,108.1,287.8,112.2,286.7L112.2,286.7z"/>
	<path class="st1" d="M318,195.4c-2.8-3.7-5.7-7.3-8.5-11l-0.5-1.5c1.7-0.6,3.4-1.3,5-2c6.8-2.9,10.7,5.9,8.5,11
		c-8.9,20.5-22.9,38.4-40.7,52c0.6-6.2,0.1-12.4-1.3-18.4c7.7-7.2,14.5-15.3,20.1-24.3C306.6,199.7,312.4,197.8,318,195.4z"/>
	<path class="st1" d="M309.6,184.4c2.8,3.7,5.6,7.3,8.5,11c-5.6,2.4-11.4,4.3-17.4,5.8C304.1,195.8,307,190.2,309.6,184.4z"/>
	<path class="st1" d="M309,182.9l0.5,1.5c-2.5,5.8-5.5,11.5-8.9,16.8c-9.5,2.5-19.3,3.8-29.1,4.1c-4.2-6.2-9.6-11.5-15.8-15.7
		C273.8,191.4,292,189.2,309,182.9z"/>
	<path class="st1" d="M285.5,83.6c5.6-0.7-2,7,1.4,7.9l-0.6-0.2c-2.7-0.9-4.6-3.4-4.6-6.3c0.6-0.2,1.3-0.5,1.9-0.7
		C284.1,84,284.8,83.8,285.5,83.6z"/>
	<path class="st1" d="M290.9,77.1c9.3,2.7,5.3,17.1-4,14.5c-3.3-0.9,4.2-8.6-1.4-7.9c-0.7,0.2-1.4,0.4-2,0.7
		c-0.6,0.2-1.3,0.5-1.9,0.7C281.4,80.5,285.1,75.5,290.9,77.1z"/>
	<path class="st2" d="M271.5,205.3c9.8-0.2,19.6-1.6,29.1-4.1c-5.6,8.9-12.4,17.1-20.1,24.3C278.8,218.3,275.8,211.4,271.5,205.3z"
		/>
	<path class="st1" d="M281.6,245.6c-3.8,29.7-28.9,52-58.8,52.3c-4.9,0.1-7.3-3.7-7.2-7.5h7.2c24.2,0,45.2-16.8,50.5-40.5
		c2.9-1.9,5.7-3.9,8.5-6C281.8,244.5,281.7,245,281.6,245.6z"/>
	<path class="st1" d="M278.4,86.4c1-0.5,2.1-0.9,3.2-1.4c0,2.9,1.9,5.4,4.6,6.3c-3.4-1-6.6-2.3-9.8-4
		C277.1,87,277.8,86.7,278.4,86.4z"/>
	<path class="st1" d="M274,231.1c2.2-1.8,4.4-3.6,6.5-5.6c1.4,6,1.8,12.3,1.3,18.4c-2.7,2.1-5.6,4.1-8.5,6
		C274.7,243.8,274.9,237.4,274,231.1z"/>
	<path class="st1" d="M274,231.1c-1.4-9.6-5.5-18.5-11.7-25.9c3.1,0.1,6.1,0.2,9.2,0.1c4.2,6.1,7.3,13,9,20.2
		C278.4,227.4,276.3,229.3,274,231.1z"/>
	<path class="st1" d="M274.6,238.7c0,3.8-0.4,7.6-1.2,11.3c-3.1,2-6.3,3.9-9.6,5.7c2.6-6.1,3.7-12.7,3.3-19.4c2.4-1.6,4.7-3.3,7-5.1
		C274.4,233.6,274.6,236.1,274.6,238.7z"/>
	<path class="st1" d="M273.4,249.9c-5.3,23.7-26.3,40.5-50.5,40.5h-7.2c0-3.7,2.5-7.4,7.2-7.5c17.8-0.2,33.9-10.9,40.9-27.3
		C267,253.8,270.2,252,273.4,249.9z"/>
	<path class="st1" d="M274,231.1c-2.3,1.8-4.6,3.5-7,5.1c-0.8-12.7-7-24.4-17-32.2c4.1,0.6,8.1,0.9,12.2,1.1
		C268.5,212.6,272.6,221.5,274,231.1z"/>
	<path class="st1" d="M262.3,205.2c-7.5-8.8-17.8-14.9-29.1-17.2c-0.3-1.1-0.7-2.2-1.1-3.3c7.7,2.5,15.7,4.1,23.7,4.9
		c6.2,4.2,11.5,9.5,15.8,15.7C268.5,205.4,265.4,205.3,262.3,205.2z"/>
	<path class="st1" d="M257.1,59.8c-0.8,1.9-1.6,3.8-2.5,5.7c-1-1.8-1.9-3.8-2.6-5.7c-0.5-1.1-0.9-2.2-1.2-3.4
		c-0.1-0.5-0.3-0.9-0.4-1.4h8.3C258.7,56.4,257.6,58.5,257.1,59.8z"/>
	<path class="st1" d="M232.7,87.4c4,2.1,7.8,4.7,11.1,7.8c4.4,4,8,8.7,10.7,14c-1.5,2.8-3.3,6.2-3.7,9.2c-0.4,2.5-2.1,1.4,3.8,1.4
		c4.9,0,4.5,1,3.5-2.1c-0.7-2-1.4-3.9-2.3-5.8c-0.4-0.9-0.9-1.8-1.3-2.7l0.6-1.1c5-8.9,12.4-16.1,21.4-20.8c3.1,1.7,6.4,3,9.8,4
		l0.6,0.2c9.3,2.7,13.3-11.8,4-14.5c5.1,1.5,8.4,6.5,7.7,11.8c-0.7,5.3-4.5,7.7-9.1,9.3c-9.5,3.3-17.1,9.3-21.8,18.2
		c-2,3.7-2.4,8.4-5.2,11.7c-3,3.4-7.9,4.5-12.2,2.7c-5-2.1-5.7-6.5-7.4-11c-1.4-3.6-3.4-6.9-5.9-9.9c-2.9-3.4-6.3-6.3-10.2-8.5
		c-3.5-2-7.5-2.6-10.9-4.5c-4.3-2.4-6.5-7.4-5.2-12.2c1.2-4.5,4.7-6.5,8.8-7.8c8-2.5,14.9-7.6,19.6-14.6c4.5-6.8,5.2-19.3,15.8-18.9
		c9.9,0.4,10.6,12.3,14.9,18.9c5,7.4,12.4,12.7,21,15c-5.8-1.6-9.5,3.4-9.3,8c-1.1,0.4-2.1,0.9-3.2,1.4c-0.7,0.3-1.3,0.6-1.9,1
		c-9.3-4.9-17-12.5-21.9-21.9c0.9-1.9,1.8-3.8,2.5-5.7c0.5-1.3,1.6-3.3,1.6-4.7h-8.3c0.1,0.5,0.3,0.9,0.4,1.4
		c0.3,1.2,0.7,2.3,1.2,3.4c0.8,1.9,1.6,3.9,2.6,5.7c-0.6,1.2-1.3,2.4-2,3.6c-3.8,6-8.8,11.1-14.6,15.2c-1.7,1.2-3.4,2.2-5.3,3.1
		c-2.5-1.3-5.1-2.5-7.7-3.4c-0.9-0.4-1.8-0.7-2.7-0.8v4.1c-1.3,3.4-1.1,4.7,0.7,4c1.4,0,3.4-1.1,4.7-1.6
		C229.3,89,231,88.2,232.7,87.4z"/>
	<path class="st1" d="M255.8,111.9c0.9,1.9,1.6,3.8,2.3,5.8c1,3.1,1.3,2.1-3.5,2.1c-5.9,0-4.1,1.1-3.8-1.4c0.4-3,2.2-6.4,3.7-9.2
		C255,110.1,255.4,111,255.8,111.9z"/>
	<path class="st3" d="M268.5,92.5c-5.5,4.2-10,9.5-13.4,15.6l-0.6,1.1c-2.7-5.3-6.3-10-10.7-14c-3.4-3.1-7.1-5.7-11.1-7.8
		c1.8-0.9,3.6-2,5.3-3.1c5.8-4.1,10.8-9.2,14.6-15.2c0.7-1.2,1.4-2.4,2-3.6c4.9,9.3,12.6,17,21.9,21.9
		C273.7,88.8,271,90.6,268.5,92.5z"/>
	<path class="st1" d="M233.2,187.9c11.4,2.3,21.6,8.4,29.1,17.2c-4.1-0.2-8.2-0.6-12.2-1.1c-5.5-4.4-12-7.4-18.9-8.9
		c-2.5-0.7-4.5-2.7-5.2-5.2c-1-3-2.1-6-3.5-8.8c3.2,1.3,6.4,2.5,9.7,3.5C232.5,185.8,232.8,186.8,233.2,187.9z"/>
	<path class="st1" d="M240.4,186l-5.2-5.2c1.3,0.3,2.5,0.6,3.7,1C239.4,183.1,240,184.5,240.4,186z"/>
	<path class="st1" d="M224.9,84.1c2.7,0.9,5.3,2,7.8,3.3c-1.7,0.9-3.4,1.6-5.1,2.3c-1.3,0.5-3.3,1.7-4.7,1.6c-1.8,0.8-2-0.6-0.7-4
		v-4.1C223.1,83.4,224,83.7,224.9,84.1z"/>
	<path class="st4" d="M209.9,320.3c1.5,3.8-1.6,8.2-5.2,9.2c-4.2,1.1-7.8-1.5-9.2-5.2l-7.4-19.2c-1.5-3.8,1.6-8.2,5.2-9.2
		c4.2-1.1,7.8,1.5,9.2,5.2L209.9,320.3z"/>
	<path class="st1" d="M232.1,184.7c-3.3-1-6.5-2.2-9.7-3.5c-9.2-18.8-26.6-32.3-47.1-36.4c-2.1-2.7-4-5.5-5.8-8.4
		C198,139,222.3,157.8,232.1,184.7z"/>
	<path class="st4" d="M183.3,254.4c1.2,1,2.2,2.4,2.7,3.9l4.7,12.1c-2.8-0.2-5.6-0.6-8.4-1s-5.8-1-8.6-1.6l-2.1-5.5
		c-1.4-3.7,1.5-8,5-9.1C178.8,253.6,181,254,183.3,254.4z"/>
	<path class="st4" d="M173.7,267.8c2.9,0.6,5.7,1.2,8.6,1.6s5.6,0.8,8.4,1c0.9,2.3,1.8,4.7,2.7,7.1c1.5,3.8-1.6,8.2-5.2,9.2
		c-4.2,1.1-7.8-1.5-9.2-5.2L173.7,267.8z"/>
	<path class="st4" d="M176.8,253c2.3-0.7,4.7-0.1,6.5,1.4c-2.3-0.4-4.5-0.8-6.8-1.3L176.8,253z"/>
	<path class="st4" d="M171.9,320.3c1.5,3.8-1.6,8.2-5.2,9.2c-4.2,1.1-7.8-1.5-9.2-5.2c-2.4-6.4-4.9-12.8-7.4-19.2
		c-1.5-3.8,1.6-8.2,5.2-9.2c4.2-1.1,7.8,1.5,9.2,5.2L171.9,320.3z"/>
	<path class="st1" d="M169.5,136.4c1.8,2.9,3.7,5.6,5.8,8.4l-0.3-0.1c-6.1-1.2-12.3-1.5-18.5-0.8c-1.4-2.3-2.8-4.7-4-7
		c3.4-0.5,6.8-0.7,10.3-0.7C165.1,136.1,167.3,136.2,169.5,136.4z"/>
	<path class="st1" d="M165.1,128.7c4.2,0.1,8.4,0.5,12.5,1.2c28.1,5,51.2,25.4,61.3,51.7c-1.2-0.4-2.5-0.7-3.7-1l5.2,5.2
		c-0.5-1.4-1-2.9-1.5-4.3c6,1.7,11.7,4.4,16.9,7.9c-8-0.8-16-2.5-23.7-4.9c-9.7-26.9-34.1-45.7-62.5-48.3
		C168,133.8,166.5,131.3,165.1,128.7z"/>
	<path class="st1" d="M165.1,128.7c1.4,2.6,2.8,5.2,4.4,7.7c-2.2-0.2-4.5-0.3-6.8-0.3c-3.4,0-6.9,0.2-10.3,0.7
		c-1.2-2.3-2.3-4.5-3.4-6.9C154.4,129,159.7,128.6,165.1,128.7z"/>
	<path class="st1" d="M165.1,128.7c-5.4-0.1-10.8,0.3-16.1,1.2c-12.9-27.7-15.9-59-8.4-88.7c5.4-3.4,11-6.4,16.8-8.9l1.5,0.6
		C147.4,64.3,149.6,99.1,165.1,128.7z"/>
	<path class="st1" d="M150,19.4c5.1-2.2,13.9,1.6,11,8.5c-0.7,1.7-1.4,3.3-2,5l-1.5-0.6l-11-8.5l-1.1-2.4
		C146.9,20.8,148.4,20.1,150,19.4z"/>
	<path class="st1" d="M146.5,23.9l11,8.5c-5.8,2.5-11.5,5.5-16.8,8.9C142.2,35.3,144.1,29.5,146.5,23.9z"/>
	<path class="st1" d="M152.5,136.8c1.3,2.4,2.6,4.7,4,7c-19.7,2-37.5,12.6-48.7,28.9c-1.8,2.7-5.1,4.5-8.5,3.4
		c-2.6-0.8-5.2-1.4-7.9-1.9c-0.8-2.7-1.6-5.3-2.2-8c4.1,0.5,8.1,1.3,12.1,2.6C113,151.4,131.6,139.7,152.5,136.8z"/>
	<path class="st4" d="M148.1,258.3l0.5,1.3c-1.4-0.6-2.7-1.2-4.1-1.9c-2.5-1.2-5-2.5-7.4-3.9c0.5-0.3,1.1-0.6,1.7-0.8
		C143,251.9,146.6,254.5,148.1,258.3z"/>
	<path class="st4" d="M137.1,253.8c2.4,1.4,4.9,2.7,7.4,3.9c1.3,0.6,2.7,1.3,4.1,1.9l6.9,17.9c1.5,3.8-1.6,8.2-5.2,9.2
		c-4.2,1.1-7.8-1.5-9.2-5.2l-7.4-19.2C132.4,259.1,134.3,255.5,137.1,253.8z"/>
	<path class="st1" d="M145.4,21.5l1.1,2.4c-2.4,5.6-4.3,11.4-5.8,17.4C115.9,56.8,97.8,81,90,109.3c-4.3,16.2-5.1,33.1-2.2,49.5
		c-5.1-0.4-10.3-0.2-15.4,0.6C63.8,102.4,93.4,46.4,145.4,21.5L145.4,21.5z"/>
	<path class="st2" d="M140.7,41.3c-7.5,29.6-4.6,61,8.4,88.7c-20.1,3.6-38.1,14.4-50.7,30.5c-3.5-0.8-7.1-1.3-10.6-1.6
		c-2.9-16.5-2.1-33.4,2.2-49.5C97.8,81.1,115.9,56.8,140.7,41.3z"/>
	<path class="st4" d="M134,320.3c1.5,3.8-1.6,8.2-5.2,9.2c-4.2,1.1-7.8-1.5-9.2-5.2c-2.5-6.4-4.9-12.8-7.4-19.2
		c-1.5-3.8,1.6-8.2,5.2-9.2c4.2-1.1,7.8,1.5,9.2,5.2L134,320.3z"/>
	<path class="st4" d="M117.5,277.5c1.5,3.8-1.6,8.2-5.2,9.2c-4.2,1.1-7.8-1.5-9.2-5.2c-2.4-6.4-4.9-12.8-7.4-19.2
		c-1.5-3.8,1.6-8.2,5.2-9.2c4.2-1.1,7.8,1.5,9.2,5.2C112.6,264.7,115,271.1,117.5,277.5z"/>
	<path class="st1" d="M103.4,161.7l-8.5,3.4c1.1-1.6,2.3-3.2,3.5-4.8C100.1,160.8,101.7,161.2,103.4,161.7z"/>
	<path class="st1" d="M149.1,129.9c1.1,2.3,2.2,4.6,3.4,6.9c-20.9,2.9-39.5,14.7-51.1,32.2c-3.9-1.3-8-2.2-12.1-2.6
		c-0.6-2.5-1.1-5-1.6-7.5c3.6,0.3,7.1,0.8,10.6,1.6c-1.2,1.5-2.4,3.1-3.5,4.8l8.5-3.4c-1.7-0.5-3.3-0.9-5-1.3
		C110.9,144.3,129,133.5,149.1,129.9z"/>
	<path class="st1" d="M82.2,165.9c2.4,0,4.7,0.1,7.1,0.4c0.7,2.7,1.4,5.3,2.2,8c-5.3-0.9-10.7-1-16.1-0.4c-0.7-2.4-1.3-4.9-1.8-7.4
		C76.5,166.1,79.3,165.9,82.2,165.9z"/>
	<path class="st1" d="M72.4,159.4c5.1-0.7,10.2-0.9,15.4-0.6c0.4,2.5,1,5.1,1.6,7.5c-5.2-0.6-10.5-0.5-15.6,0.2
		C73.2,164.2,72.7,161.8,72.4,159.4z"/>
	<path class="st1" d="M82.2,282.9c4.8,0,7.2,3.8,7.2,7.5h-7.2c-34.4,0-62.2-27.9-62.2-62.2c0-31.1,22.9-57.4,53.7-61.6
		c0.5,2.5,1.1,4.9,1.8,7.4c-7.2,0.8-14.1,3.1-20.4,6.8c-21.5,12.5-31.9,37.8-25.6,61.8C35.8,266.3,57.7,282.6,82.2,282.9z"/>
	<path class="st1" d="M89.4,290.4c0,3.8-2.4,7.5-7.2,7.5c-17.6-0.1-34.5-6.8-47.4-18.6C11.5,257.9,6,222.2,21.1,194.5
		c10.6-19.1,29.6-32.1,51.3-35.1c0.4,2.4,0.8,4.8,1.3,7.2c-34,4.7-57.8,36.1-53.1,70.2c4.3,30.8,30.6,53.7,61.6,53.7H89.4z"/>
</g>
</svg>
