<?xml version="1.0" encoding="utf-8"?>
<!-- Generator: Adobe Illustrator 24.3.0, SVG Export Plug-In . SVG Version: 6.00 Build 0)  -->
<svg version="1.1" id="Layer_1" xmlns="http://www.w3.org/2000/svg" xmlns:xlink="http://www.w3.org/1999/xlink" x="0px" y="0px"
	 viewBox="0 0 343 343" style="enable-background:new 0 0 343 343;" xml:space="preserve">
<style type="text/css">
	.st0{fill:#DCDDDD;}
	.st1{fill:#231815;}
	.st2{fill:#F4EC90;}
	.st3{fill:#FFFFFF;}
	.st4{fill:#2EA7E0;}
</style>
<g id="图层_1">
	<path class="st0" d="M225.4,179.1c1.4,2.9,2.6,5.8,3.5,8.8c0.7,2.5,2.7,4.5,5.2,5.2c6.9,1.5,13.3,4.6,18.9,8.9
		c10,7.8,16.2,19.5,17,32.2c0.4,6.6-0.7,13.3-3.3,19.4c-7.1,16.4-23.1,27.1-40.9,27.3c-4.8,0.1-7.2,3.8-7.2,7.5H92.4
		c0-3.7-2.4-7.5-7.2-7.5c-24.5-0.3-46.4-16.6-52.8-40.4c-6.4-24,4.1-49.4,25.6-61.9c6.3-3.6,13.3-5.9,20.5-6.8
		c5.4-0.6,10.8-0.5,16.1,0.4c2.7,0.4,5.3,1.1,7.9,1.9c3.3,1,6.6-0.7,8.5-3.4c11.2-16.3,29-26.9,48.7-28.9c6.2-0.6,12.4-0.3,18.5,0.8
		l0.3,0.1C198.8,146.8,216.3,160.3,225.4,179.1z M191.2,284.7c3.6-1,6.7-5.4,5.2-9.2c-0.9-2.4-1.8-4.7-2.7-7.1l-4.7-12.1
		c-0.6-1.5-1.5-2.8-2.7-3.9c-1.8-1.5-4.2-2-6.5-1.4l-0.3,0.1c-3.5,1.1-6.4,5.4-5,9.1l2.1,5.5l5.2,13.7
		C183.4,283.2,187,285.8,191.2,284.7z M153.2,284.7c3.6-1,6.7-5.4,5.2-9.2l-6.9-17.9l-0.5-1.3c-1.4-3.8-5-6.4-9.2-5.2
		c-0.6,0.2-1.2,0.4-1.7,0.8c-2.8,1.7-4.7,5.3-3.5,8.5l7.4,19.2C145.4,283.2,149,285.8,153.2,284.7L153.2,284.7z M115.2,284.7
		c3.6-1,6.7-5.4,5.2-9.2c-2.5-6.4-4.9-12.8-7.4-19.2c-1.5-3.8-5.1-6.4-9.2-5.2c-3.6,1-6.7,5.4-5.2,9.2c2.5,6.4,4.9,12.8,7.4,19.2
		C107.5,283.2,111.1,285.8,115.2,284.7L115.2,284.7z"/>
	<path class="st1" d="M321,193.4c-2.8-3.7-5.7-7.3-8.5-11l-0.5-1.5c1.7-0.6,3.4-1.3,5-2c6.8-2.9,10.7,5.9,8.5,11
		c-8.9,20.5-22.9,38.4-40.7,52c0.6-6.2,0.1-12.4-1.3-18.4c7.7-7.2,14.5-15.3,20.1-24.3C309.6,197.7,315.4,195.8,321,193.4z"/>
	<path class="st1" d="M312.6,182.4c2.8,3.7,5.6,7.3,8.5,11c-5.6,2.4-11.4,4.3-17.4,5.8C307.1,193.8,310,188.2,312.6,182.4z"/>
	<path class="st1" d="M312,180.9l0.5,1.5c-2.5,5.8-5.5,11.5-8.9,16.8c-9.5,2.5-19.3,3.8-29.1,4.1c-4.2-6.2-9.6-11.5-15.8-15.7
		C276.8,189.4,295,187.2,312,180.9z"/>
	<path class="st1" d="M288.5,81.6c5.6-0.7-2,7,1.4,7.9l-0.6-0.2c-2.7-0.9-4.6-3.4-4.6-6.3c0.6-0.2,1.3-0.5,1.9-0.7
		C287.1,82,287.8,81.8,288.5,81.6z"/>
	<path class="st1" d="M293.9,75.1c9.3,2.7,5.3,17.1-4,14.5c-3.3-0.9,4.2-8.6-1.4-7.9c-0.7,0.2-1.4,0.4-2,0.7
		c-0.6,0.2-1.3,0.5-1.9,0.7C284.4,78.5,288.1,73.5,293.9,75.1z"/>
	<path class="st2" d="M274.5,203.3c9.8-0.2,19.6-1.6,29.1-4.1c-5.6,8.9-12.4,17.1-20.1,24.3C281.8,216.3,278.8,209.4,274.5,203.3z"
		/>
	<path class="st1" d="M284.6,243.6c-3.8,29.7-28.9,52-58.8,52.3c-4.9,0.1-7.3-3.7-7.2-7.5h7.2c24.2,0,45.2-16.8,50.5-40.5
		c2.9-1.9,5.7-3.9,8.5-6C284.8,242.5,284.7,243,284.6,243.6z"/>
	<path class="st1" d="M281.4,84.4c1-0.5,2.1-0.9,3.2-1.4c0,2.9,1.9,5.4,4.6,6.3c-3.4-1-6.6-2.3-9.8-4
		C280.1,85,280.8,84.7,281.4,84.4z"/>
	<path class="st1" d="M277,229.1c2.2-1.8,4.4-3.6,6.5-5.6c1.4,6,1.8,12.3,1.3,18.4c-2.7,2.1-5.6,4.1-8.5,6
		C277.7,241.8,277.9,235.4,277,229.1z"/>
	<path class="st1" d="M277,229.1c-1.4-9.6-5.5-18.5-11.7-25.9c3.1,0.1,6.1,0.2,9.2,0.1c4.2,6.1,7.3,13,9,20.2
		C281.4,225.4,279.3,227.3,277,229.1z"/>
	<path class="st1" d="M277.6,236.7c0,3.8-0.4,7.6-1.2,11.3c-3.1,2-6.3,3.9-9.6,5.7c2.6-6.1,3.7-12.7,3.3-19.4c2.4-1.6,4.7-3.3,7-5.1
		C277.4,231.6,277.6,234.1,277.6,236.7z"/>
	<path class="st1" d="M276.4,247.9c-5.3,23.7-26.3,40.5-50.5,40.5h-7.2c0-3.7,2.5-7.4,7.2-7.5c17.8-0.2,33.9-10.9,40.9-27.3
		C270,251.8,273.2,250,276.4,247.9z"/>
	<path class="st1" d="M277,229.1c-2.3,1.8-4.6,3.5-7,5.1c-0.8-12.7-7-24.4-17-32.2c4.1,0.6,8.1,0.9,12.2,1.1
		C271.5,210.6,275.6,219.5,277,229.1z"/>
	<path class="st1" d="M265.3,203.2c-7.5-8.8-17.8-14.9-29.1-17.2c-0.3-1.1-0.7-2.2-1.1-3.3c7.7,2.5,15.7,4.1,23.7,4.9
		c6.2,4.2,11.5,9.5,15.8,15.7C271.5,203.4,268.4,203.3,265.3,203.2z"/>
	<path class="st1" d="M260.1,57.8c-0.8,1.9-1.6,3.8-2.5,5.7c-1-1.8-1.9-3.8-2.6-5.7c-0.5-1.1-0.9-2.2-1.2-3.4
		c-0.1-0.5-0.3-0.9-0.4-1.4h8.3C261.7,54.4,260.6,56.5,260.1,57.8z"/>
	<path class="st1" d="M235.7,85.4c4,2.1,7.8,4.7,11.1,7.8c4.4,4,8,8.7,10.7,14c-1.5,2.8-3.3,6.2-3.7,9.2c-0.4,2.5-2.1,1.4,3.8,1.4
		c4.9,0,4.5,1,3.5-2.1c-0.7-2-1.4-3.9-2.3-5.8c-0.4-0.9-0.9-1.8-1.3-2.7l0.6-1.1c5-8.9,12.4-16.1,21.4-20.8c3.1,1.7,6.4,3,9.8,4
		l0.6,0.2c9.3,2.7,13.3-11.8,4-14.5c5.1,1.5,8.4,6.5,7.7,11.8c-0.7,5.3-4.5,7.7-9.1,9.3c-9.5,3.3-17.1,9.3-21.8,18.2
		c-2,3.7-2.4,8.4-5.2,11.7c-3,3.4-7.9,4.5-12.2,2.7c-5-2.1-5.7-6.5-7.4-11c-1.4-3.6-3.4-6.9-5.9-9.9c-2.9-3.4-6.3-6.3-10.2-8.5
		c-3.5-2-7.5-2.6-10.9-4.5c-4.3-2.4-6.5-7.4-5.2-12.2c1.2-4.5,4.7-6.5,8.8-7.8c8-2.5,14.9-7.6,19.6-14.6c4.5-6.8,5.2-19.3,15.8-18.9
		c9.9,0.4,10.6,12.3,14.9,18.9c5,7.4,12.4,12.7,21,15c-5.8-1.6-9.5,3.4-9.3,8c-1.1,0.4-2.1,0.9-3.2,1.4c-0.7,0.3-1.3,0.6-1.9,1
		c-9.3-4.9-17-12.5-21.9-21.9c0.9-1.9,1.8-3.8,2.5-5.7c0.5-1.3,1.6-3.3,1.6-4.7h-8.3c0.1,0.5,0.3,0.9,0.4,1.4
		c0.3,1.2,0.7,2.3,1.2,3.4c0.8,1.9,1.6,3.9,2.6,5.7c-0.6,1.2-1.3,2.4-2,3.6c-3.8,6-8.8,11.1-14.6,15.2c-1.7,1.2-3.4,2.2-5.3,3.1
		c-2.5-1.3-5.1-2.5-7.7-3.4c-0.9-0.4-1.8-0.7-2.7-0.8v4.1c-1.3,3.4-1.1,4.7,0.7,4c1.4,0,3.4-1.1,4.7-1.6
		C232.3,87,234,86.2,235.7,85.4z"/>
	<path class="st1" d="M258.8,109.9c0.9,1.9,1.6,3.8,2.3,5.8c1,3.1,1.3,2.1-3.5,2.1c-5.9,0-4.1,1.1-3.8-1.4c0.4-3,2.2-6.4,3.7-9.2
		C258,108.1,258.4,109,258.8,109.9z"/>
	<path class="st3" d="M271.5,90.5c-5.5,4.2-10,9.5-13.4,15.6l-0.6,1.1c-2.7-5.3-6.3-10-10.7-14c-3.4-3.1-7.1-5.7-11.1-7.8
		c1.8-0.9,3.6-2,5.3-3.1c5.8-4.1,10.8-9.2,14.6-15.2c0.7-1.2,1.4-2.4,2-3.6c4.9,9.3,12.6,17,21.9,21.9
		C276.7,86.8,274,88.6,271.5,90.5z"/>
	<path class="st1" d="M236.2,185.9c11.4,2.3,21.6,8.4,29.1,17.2c-4.1-0.2-8.2-0.6-12.2-1.1c-5.5-4.4-12-7.4-18.9-8.9
		c-2.5-0.7-4.5-2.7-5.2-5.2c-1-3-2.1-6-3.5-8.8c3.2,1.3,6.4,2.5,9.7,3.5C235.5,183.8,235.8,184.8,236.2,185.9z"/>
	<path class="st1" d="M243.4,184l-5.2-5.2c1.3,0.3,2.5,0.6,3.7,1C242.4,181.1,243,182.5,243.4,184z"/>
	<path class="st1" d="M227.9,82.1c2.7,0.9,5.3,2,7.8,3.3c-1.7,0.9-3.4,1.6-5.1,2.3c-1.3,0.5-3.3,1.7-4.7,1.6c-1.8,0.8-2-0.6-0.7-4
		v-4.1C226.1,81.4,227,81.7,227.9,82.1z"/>
	<path class="st4" d="M212.9,318.3c1.5,3.8-1.6,8.2-5.2,9.2c-4.2,1.1-7.8-1.5-9.2-5.2l-7.4-19.2c-1.5-3.8,1.6-8.2,5.2-9.2
		c4.2-1.1,7.8,1.5,9.2,5.2L212.9,318.3z"/>
	<path class="st1" d="M235.1,182.7c-3.3-1-6.5-2.2-9.7-3.5c-9.2-18.8-26.6-32.3-47.1-36.4c-2.1-2.7-4-5.5-5.8-8.4
		C201,137,225.3,155.8,235.1,182.7z"/>
	<path class="st4" d="M186.3,252.4c1.2,1,2.2,2.4,2.7,3.9l4.7,12.1c-2.8-0.2-5.6-0.6-8.4-1s-5.8-1-8.6-1.6l-2.1-5.5
		c-1.4-3.7,1.5-8,5-9.1C181.8,251.6,184,252,186.3,252.4z"/>
	<path class="st4" d="M176.7,265.8c2.9,0.6,5.7,1.2,8.6,1.6s5.6,0.8,8.4,1c0.9,2.3,1.8,4.7,2.7,7.1c1.5,3.8-1.6,8.2-5.2,9.2
		c-4.2,1.1-7.8-1.5-9.2-5.2L176.7,265.8z"/>
	<path class="st4" d="M179.8,251c2.3-0.7,4.7-0.1,6.5,1.4c-2.3-0.4-4.5-0.8-6.8-1.3L179.8,251z"/>
	<path class="st4" d="M174.9,318.3c1.5,3.8-1.6,8.2-5.2,9.2c-4.2,1.1-7.8-1.5-9.2-5.2c-2.4-6.4-4.9-12.8-7.4-19.2
		c-1.5-3.8,1.6-8.2,5.2-9.2c4.2-1.1,7.8,1.5,9.2,5.2L174.9,318.3z"/>
	<path class="st1" d="M172.5,134.4c1.8,2.9,3.7,5.6,5.8,8.4l-0.3-0.1c-6.1-1.2-12.3-1.5-18.5-0.8c-1.4-2.3-2.8-4.7-4-7
		c3.4-0.5,6.8-0.7,10.3-0.7C168.1,134.1,170.3,134.2,172.5,134.4z"/>
	<path class="st1" d="M168.1,126.7c4.2,0.1,8.4,0.5,12.5,1.2c28.1,5,51.2,25.4,61.3,51.7c-1.2-0.4-2.5-0.7-3.7-1l5.2,5.2
		c-0.5-1.4-1-2.9-1.5-4.3c6,1.7,11.7,4.4,16.9,7.9c-8-0.8-16-2.5-23.7-4.9c-9.7-26.9-34.1-45.7-62.5-48.3
		C171,131.8,169.5,129.3,168.1,126.7z"/>
	<path class="st1" d="M168.1,126.7c1.4,2.6,2.8,5.2,4.4,7.7c-2.2-0.2-4.5-0.3-6.8-0.3c-3.4,0-6.9,0.2-10.3,0.7
		c-1.2-2.3-2.3-4.5-3.4-6.9C157.4,127,162.7,126.6,168.1,126.7z"/>
	<path class="st1" d="M168.1,126.7c-5.4-0.1-10.8,0.3-16.1,1.2c-12.9-27.7-15.9-59-8.4-88.7c5.4-3.4,11-6.4,16.8-8.9l1.5,0.6
		C150.4,62.3,152.6,97.1,168.1,126.7z"/>
	<path class="st1" d="M153,17.4c5.1-2.2,13.9,1.6,11,8.5c-0.7,1.7-1.4,3.3-2,5l-1.5-0.6l-11-8.5l-1.1-2.4
		C149.9,18.8,151.4,18.1,153,17.4z"/>
	<path class="st1" d="M149.5,21.9l11,8.5c-5.8,2.5-11.5,5.5-16.8,8.9C145.2,33.3,147.1,27.5,149.5,21.9z"/>
	<path class="st1" d="M155.5,134.8c1.3,2.4,2.6,4.7,4,7c-19.7,2-37.5,12.6-48.7,28.9c-1.8,2.7-5.1,4.5-8.5,3.4
		c-2.6-0.8-5.2-1.4-7.9-1.9c-0.8-2.7-1.6-5.3-2.2-8c4.1,0.5,8.1,1.3,12.1,2.6C116,149.4,134.6,137.7,155.5,134.8z"/>
	<path class="st4" d="M151.1,256.3l0.5,1.3c-1.4-0.6-2.7-1.2-4.1-1.9c-2.5-1.2-5-2.5-7.4-3.9c0.5-0.3,1.1-0.6,1.7-0.8
		C146,249.9,149.6,252.5,151.1,256.3z"/>
	<path class="st4" d="M140.1,251.8c2.4,1.4,4.9,2.7,7.4,3.9c1.3,0.6,2.7,1.3,4.1,1.9l6.9,17.9c1.5,3.8-1.6,8.2-5.2,9.2
		c-4.2,1.1-7.8-1.5-9.2-5.2l-7.4-19.2C135.4,257.1,137.3,253.5,140.1,251.8z"/>
	<path class="st1" d="M148.4,19.5l1.1,2.4c-2.4,5.6-4.3,11.4-5.8,17.4c-24.8,15.5-42.9,39.8-50.7,68c-4.3,16.2-5.1,33.1-2.2,49.5
		c-5.1-0.4-10.3-0.2-15.4,0.6C66.8,100.4,96.4,44.4,148.4,19.5L148.4,19.5z"/>
	<path class="st2" d="M143.7,39.3c-7.5,29.6-4.6,61,8.4,88.7c-20.1,3.6-38.1,14.4-50.7,30.5c-3.5-0.8-7.1-1.3-10.6-1.6
		c-2.9-16.5-2.1-33.4,2.2-49.5C100.8,79.1,118.9,54.8,143.7,39.3z"/>
	<path class="st4" d="M137,318.3c1.5,3.8-1.6,8.2-5.2,9.2c-4.2,1.1-7.8-1.5-9.2-5.2c-2.5-6.4-4.9-12.8-7.4-19.2
		c-1.5-3.8,1.6-8.2,5.2-9.2c4.2-1.1,7.8,1.5,9.2,5.2L137,318.3z"/>
	<path class="st4" d="M120.5,275.5c1.5,3.8-1.6,8.2-5.2,9.2c-4.2,1.1-7.8-1.5-9.2-5.2c-2.4-6.4-4.9-12.8-7.4-19.2
		c-1.5-3.8,1.6-8.2,5.2-9.2c4.2-1.1,7.8,1.5,9.2,5.2C115.6,262.7,118,269.1,120.5,275.5z"/>
	<path class="st1" d="M106.4,159.7l-8.5,3.4c1.1-1.6,2.3-3.2,3.5-4.8C103.1,158.8,104.7,159.2,106.4,159.7z"/>
	<path class="st1" d="M152.1,127.9c1.1,2.3,2.2,4.6,3.4,6.9c-20.9,2.9-39.5,14.7-51.1,32.2c-3.9-1.3-8-2.2-12.1-2.6
		c-0.6-2.5-1.1-5-1.6-7.5c3.6,0.3,7.1,0.8,10.6,1.6c-1.2,1.5-2.4,3.1-3.5,4.8l8.5-3.4c-1.7-0.5-3.3-0.9-5-1.3
		C113.9,142.3,132,131.5,152.1,127.9z"/>
	<path class="st1" d="M85.2,163.9c2.4,0,4.7,0.1,7.1,0.4c0.7,2.7,1.4,5.3,2.2,8c-5.3-0.9-10.7-1-16.1-0.4c-0.7-2.4-1.3-4.9-1.8-7.4
		C79.5,164.1,82.3,163.9,85.2,163.9z"/>
	<path class="st1" d="M75.4,157.4c5.1-0.7,10.2-0.9,15.4-0.6c0.4,2.5,1,5.1,1.6,7.5c-5.2-0.6-10.5-0.5-15.6,0.2
		C76.2,162.2,75.7,159.8,75.4,157.4z"/>
	<path class="st1" d="M85.2,280.9c4.8,0,7.2,3.8,7.2,7.5h-7.2c-34.4,0-62.2-27.9-62.2-62.2c0-31.1,22.9-57.4,53.7-61.6
		c0.5,2.5,1.1,4.9,1.8,7.4c-7.2,0.8-14.1,3.1-20.4,6.8c-21.5,12.5-31.9,37.8-25.6,61.8C38.8,264.3,60.7,280.6,85.2,280.9z"/>
	<path class="st1" d="M92.4,288.4c0,3.8-2.4,7.5-7.2,7.5c-17.6-0.1-34.5-6.8-47.4-18.6C14.5,255.9,9,220.2,24.1,192.5
		c10.6-19.1,29.6-32.1,51.3-35.1c0.4,2.4,0.8,4.8,1.3,7.2c-34,4.7-57.8,36.1-53.1,70.2c4.3,30.8,30.6,53.7,61.6,53.7H92.4z"/>
</g>
</svg>
