<?xml version="1.0" encoding="utf-8"?>
<!-- Generator: Adobe Illustrator 24.3.0, SVG Export Plug-In . SVG Version: 6.00 Build 0)  -->
<svg version="1.1" id="Layer_1" xmlns="http://www.w3.org/2000/svg" xmlns:xlink="http://www.w3.org/1999/xlink" x="0px" y="0px"
	 viewBox="0 0 370 377" style="enable-background:new 0 0 370 377;" xml:space="preserve">
<style type="text/css">
	.st0{fill:#DCDDDD;}
	.st1{fill:#231815;}
	.st2{fill:#2EA7E0;}
	.st3{fill:#F8B62D;}
</style>
<g id="图层_1">
	<path class="st0" d="M303.5,230c22.5,4.9,38.5,25.7,35.6,49c-2.8,22.1-22,38.4-44,38.7c-4.8,0.1-7.2,3.8-7.2,7.5H161.8
		c0-3.7-2.4-7.5-7.2-7.5c-24.5-0.3-46.4-16.6-52.8-40.4c-3.3-12.2-2.2-25.1,3-36.6c2.2-4.9,5-9.4,8.5-13.4c4-4.7,8.8-8.7,14.1-11.8
		c13.6-7.8,29.5-9.1,44.4-4.5c3.3,1,6.6-0.7,8.5-3.5c14.6-21.5,41.4-33.1,67.1-28.1c4.7,0.9,9.4,2.4,13.8,4.3
		c0.9,0.4,1.7,0.8,2.6,1.2s1.9,1,2.9,1.5c15.1,8.2,26.4,22,31.7,38.3C299,227.3,301,229.3,303.5,230z M260.5,321.5
		c3.6-1,6.7-5.4,5.2-9.2l-7.4-19.2c-1.5-3.8-5-6.4-9.2-5.2c-3.6,1-6.7,5.4-5.2,9.2l7.4,19.2C252.7,320.1,256.3,322.7,260.5,321.5
		L260.5,321.5z M222.5,321.5c3.6-1,6.7-5.4,5.2-9.2l-7.4-19.2c-1.5-3.8-5-6.4-9.2-5.2c-3.6,1-6.7,5.4-5.2,9.2l7.4,19.2
		C214.8,320.1,218.4,322.7,222.5,321.5L222.5,321.5z M184.5,321.5c3.6-1,6.7-5.4,5.2-9.2c-2.4-6.4-4.9-12.8-7.4-19.2
		c-1.4-3.8-5-6.4-9.2-5.2c-3.6,1-6.7,5.4-5.2,9.2c2.4,6.4,4.9,12.8,7.4,19.2C176.8,320.1,180.4,322.7,184.5,321.5L184.5,321.5z"/>
	<path class="st1" d="M338.1,172c9.7,0,9.6,15,0,15h-33.6c-9.7,0-9.6-15,0-15H338.1z"/>
	<path class="st1" d="M276.2,183.4c14,9.4,24.3,23.3,29.3,39.4c28,5.7,46.1,33,40.4,61c-4.9,24.1-26.1,41.4-50.7,41.4H288
		c0-3.7,2.5-7.4,7.2-7.5c22-0.3,41.2-16.6,44-38.7c2.9-23.3-13.1-44.1-35.6-49c-2.5-0.7-4.5-2.7-5.2-5.2
		c-4.1-12.9-12.1-24.3-22.9-32.6C275.8,189.3,276.1,186.4,276.2,183.4z"/>
	<path class="st1" d="M313,93.8c8.4-4.8,15.9,8.1,7.6,13l-29.1,16.8c-8.4,4.8-15.9-8.1-7.6-12.9L313,93.8z"/>
	<path class="st1" d="M311.2,216.5c27.4,7.9,46.3,35.1,42.7,63.9c-3.8,29.7-28.9,52-58.8,52.3c-4.9,0.1-7.3-3.7-7.2-7.5h7.2
		c28.6,0,51.8-23.2,51.8-51.7c0-24.6-17.3-45.8-41.4-50.7c-5-16.1-15.3-30-29.3-39.4c0.1-1.1,0.1-2.2,0.1-3.3V180c0-0.1,0-0.3,0-0.4
		v-0.1c0-0.2,0-0.3,0-0.5c0-1.5-0.1-3-0.2-4.5C292.2,184.2,304.6,199,311.2,216.5c-1.2-0.3-2.5-0.6-3.7-1l5.2,5.2
		C312.3,219.4,311.8,217.9,311.2,216.5z"/>
	<path class="st1" d="M311.2,216.5c0.5,1.4,1,2.8,1.5,4.3l-5.2-5.2C308.8,215.8,310,216.2,311.2,216.5z"/>
	<path class="st2" d="M282.2,355.2c1.5,3.8-1.6,8.2-5.2,9.2c-4.2,1.1-7.8-1.5-9.2-5.2c-2.5-6.4-4.9-12.8-7.4-19.2
		c-1.5-3.8,1.6-8.2,5.2-9.2c4.2-1.1,7.8,1.5,9.2,5.2C277.3,342.4,279.8,348.8,282.2,355.2z"/>
	<path class="st1" d="M276.3,180c0-0.1,0-0.3,0-0.4C276.3,179.8,276.3,179.9,276.3,180z"/>
	<path class="st1" d="M275.6,183c0.4-0.9,0.7-1.9,0.8-2.9c0,1.1,0,2.2-0.1,3.3C276,183.3,275.8,183.1,275.6,183z"/>
	<path class="st1" d="M275.6,183c-1.6,3.2-5.6,4.4-8.9,3.5c-1-0.5-1.9-1-2.9-1.5c-1.6-1.4-2.5-3.4-2.4-5.4c0-1.2,0.3-2.4,0.8-3.5
		C266.9,177.9,271.4,180.2,275.6,183z"/>
	<path class="st1" d="M262.2,176c3.1-5.8,13.8-4.8,14.1,3c0,0.2,0,0.3,0,0.5v0.1c0,0.1,0,0.3,0,0.4v0.1c-0.1,1-0.3,2-0.8,2.9
		C271.4,180.2,266.9,177.9,262.2,176z"/>
	<path class="st1" d="M266.6,186.5c3.3,0.9,7.3-0.2,8.9-3.5c0.2,0.1,0.4,0.3,0.6,0.4c-0.1,3-0.4,5.9-0.8,8.8
		C272.6,190.1,269.7,188.2,266.6,186.5z"/>
	<path class="st2" d="M265.8,312.3c1.5,3.8-1.6,8.2-5.2,9.2c-4.2,1.1-7.8-1.5-9.2-5.2l-7.4-19.2c-1.5-3.8,1.6-8.2,5.2-9.2
		c4.2-1.1,7.8,1.5,9.2,5.2L265.8,312.3z"/>
	<path class="st1" d="M252.3,38.5c4.8-8.4,17.8-0.8,13,7.6l-16.8,29.1c-4.8,8.4-17.8,0.8-13-7.6L252.3,38.5z"/>
	<path class="st1" d="M261.2,175.7c-0.2-2.8-0.5-5.5-0.9-8.3c5.5,1.8,10.8,4.2,15.8,7.2c0.1,1.5,0.1,3,0.2,4.5
		c-0.4-7.8-11-8.8-14.1-3L261.2,175.7z"/>
	<path class="st1" d="M262.2,176c-0.6,1.1-0.9,2.3-0.8,3.5c0-1.3-0.1-2.6-0.1-3.9L262.2,176z"/>
	<path class="st1" d="M261.3,179.5c-0.1,2.1,0.8,4.1,2.4,5.4c-0.8-0.4-1.7-0.8-2.6-1.2C261.3,182.4,261.3,181,261.3,179.5z"/>
	<path class="st1" d="M154.5,200.8c4.1,0,8.2,0.4,12.3,1.2l0,0c2.3,0.5,4.6,1.1,6.9,1.8c19-28.6,55.3-40.3,87.5-28.2
		c0.1,1.3,0.1,2.6,0.1,3.9s-0.1,2.9-0.2,4.3c-4.4-1.9-9.1-3.4-13.8-4.3c-25.7-5-52.5,6.6-67.1,28.1c-1.8,2.7-5.1,4.5-8.5,3.5
		c-14.9-4.6-30.9-3.3-44.4,4.5c-5.4,3.1-10.1,7.1-14.1,11.8c-1.5-2.1-3-4.3-4.3-6.5C120.6,208,137.2,200.8,154.5,200.8z"/>
	<path class="st1" d="M235.1,170.9c-24.7,0-47.7,12.3-61.4,32.9c-2.3-0.7-4.6-1.3-6.9-1.8l0,0l0.4-2l8.5-3.4c-1.6-0.5-3.3-0.9-5-1.3
		c18.7-24.1,49.2-35.8,79.3-30.5c3.5,0.6,7,1.5,10.4,2.6c0.4,2.7,0.7,5.5,0.9,8.3C252.9,172.5,244,170.9,235.1,170.9z"/>
	<path class="st2" d="M244.2,355.2c1.5,3.8-1.6,8.2-5.2,9.2c-4.2,1.1-7.8-1.5-9.2-5.2l-7.4-19.2c-1.5-3.8,1.6-8.2,5.2-9.2
		c4.2-1.1,7.8,1.5,9.2,5.2C239.3,342.4,241.8,348.8,244.2,355.2z"/>
	<path class="st3" d="M195.4,99.3c33.7,7,59.6,34.1,64.9,68.1c-3.4-1.1-6.8-2-10.3-2.6c-30-5.3-60.5,6.4-79.2,30.5
		c-23.6-5.4-48.2,1.6-65.5,18.5c-11.2-24.7-9.5-53.3,4.3-76.7C127.2,108.2,162.1,92.5,195.4,99.3z"/>
	<path class="st2" d="M227.8,312.3c1.5,3.8-1.6,8.2-5.2,9.2c-4.2,1.1-7.8-1.5-9.2-5.2l-7.3-19.2c-1.5-3.8,1.6-8.2,5.2-9.2
		c4.2-1.1,7.8,1.5,9.2,5.2L227.8,312.3z"/>
	<path class="st2" d="M206.3,355.2c1.5,3.8-1.6,8.2-5.2,9.2c-4.2,1.1-7.8-1.5-9.2-5.2l-7.4-19.2c-1.5-3.8,1.6-8.2,5.2-9.2
		c4.2-1.1,7.8,1.5,9.2,5.2L206.3,355.2z"/>
	<path class="st2" d="M189.8,312.3c1.5,3.8-1.6,8.2-5.2,9.2c-4.2,1.1-7.8-1.5-9.2-5.2c-2.5-6.4-4.9-12.8-7.4-19.2
		c-1.5-3.8,1.6-8.2,5.2-9.2c4.2-1.1,7.8,1.5,9.2,5.2C184.9,299.5,187.4,305.9,189.8,312.3z"/>
	<path class="st1" d="M187.1,21v33.7c0,9.7-15,9.7-15,0V21C172.1,11.4,187.1,11.4,187.1,21z"/>
	<path class="st1" d="M175.7,196.6l-8.5,3.4c1.1-1.6,2.3-3.2,3.5-4.8C172.4,195.7,174.1,196.1,175.7,196.6z"/>
	<path class="st1" d="M105.2,213.8c17.3-16.9,41.9-23.9,65.5-18.5c-1.2,1.5-2.4,3.1-3.5,4.8l-0.4,2c-21.3-4.3-43.3,2.8-58,18.8
		C107.5,218.5,106.3,216.2,105.2,213.8z"/>
	<path class="st1" d="M123.6,67.6c4.8,8.4-8.1,15.9-13,7.6L93.8,46.1c-4.8-8.4,8.2-15.9,13-7.6L123.6,67.6z"/>
	<path class="st1" d="M92.3,263c0,34.4,27.9,62.2,62.2,62.2c0,0,0,0,0,0h7.2c0,3.8-2.4,7.5-7.2,7.5c-17.6-0.1-34.5-6.8-47.4-18.7
		c-23.3-21.4-28.8-57.1-13.7-84.8c0.5-0.9,1-1.8,1.6-2.7c0.5,1,1.1,1.9,1.6,2.9c0.9,1.5,1.9,3,2.9,4.4
		C94.8,242.9,92.3,252.9,92.3,263z"/>
	<path class="st1" d="M108.9,220.8c1.3,2.3,2.7,4.4,4.3,6.5c-3.5,4-6.3,8.6-8.5,13.4c-1.8-2.2-3.5-4.5-5.1-6.8
		C102.1,229.1,105.2,224.7,108.9,220.8z"/>
	<path class="st1" d="M276.1,174.6c-5-3-10.3-5.4-15.8-7.2c-5.3-34-31.2-61.1-64.9-68.1c-33.3-6.8-68.2,8.9-85.8,37.9
		c-13.9,23.3-15.5,51.9-4.4,76.6c-3.9,3.9-7.4,8.2-10.2,12.9c-19.3-34.5-15-78.2,10-108.8c25.4-31,69.6-43.2,107.3-29.4
		C248.8,101.9,273.8,135.7,276.1,174.6z"/>
	<path class="st1" d="M108.9,220.8c-3.7,4-6.8,8.4-9.3,13.1c-1-1.4-1.9-2.9-2.9-4.4c-0.6-1-1.1-1.9-1.6-2.9c2.9-4.7,6.3-9,10.2-12.9
		C106.3,216.2,107.5,218.5,108.9,220.8z"/>
	<path class="st1" d="M154.5,317.8c4.8,0,7.2,3.8,7.2,7.5h-7.2c-34.4,0-62.2-27.9-62.2-62.3c0-10.1,2.5-20.1,7.2-29.1
		c1.6,2.4,3.3,4.7,5.1,6.8c-5.2,11.5-6.3,24.4-3,36.6C108.2,301.2,130,317.5,154.5,317.8z"/>
	<path class="st1" d="M75.2,110.6c8.4,4.8,0.8,17.8-7.6,12.9l-29.1-16.8c-8.4-4.8-0.8-17.8,7.6-13L75.2,110.6z"/>
	<path class="st1" d="M67.6,235.5c8.4-4.8,15.9,8.1,7.6,13l-29.2,16.8c-8.4,4.8-15.9-8.1-7.6-13L67.6,235.5z"/>
	<path class="st1" d="M54.7,172c9.7,0,9.7,15,0,15H21.1c-9.7,0-9.7-15,0-15H54.7z"/>
</g>
</svg>
