<?xml version="1.0" encoding="utf-8"?>
<!-- Generator: Adobe Illustrator 24.3.0, SVG Export Plug-In . SVG Version: 6.00 Build 0)  -->
<svg version="1.1" id="Layer_1" xmlns="http://www.w3.org/2000/svg" xmlns:xlink="http://www.w3.org/1999/xlink" x="0px" y="0px"
	 viewBox="0 0 16 16" enable-background="new 0 0 16 16" xml:space="preserve">
<g>
	<circle fill="#F6B42A" stroke="#231715" stroke-width="0.65" stroke-miterlimit="10" cx="9" cy="7" r="3.2"/>
	
		<line fill="none" stroke="#231715" stroke-width="0.65" stroke-linecap="round" stroke-miterlimit="10" x1="3.1" y1="7" x2="4.7" y2="7"/>
	
		<line fill="none" stroke="#231715" stroke-width="0.65" stroke-linecap="round" stroke-miterlimit="10" x1="3.8" y1="4" x2="5.3" y2="4.7"/>
	
		<line fill="none" stroke="#231715" stroke-width="0.65" stroke-linecap="round" stroke-miterlimit="10" x1="6" y1="1.8" x2="6.8" y2="3.2"/>
	
		<line fill="none" stroke="#231715" stroke-width="0.65" stroke-linecap="round" stroke-miterlimit="10" x1="9" y1="1" x2="9" y2="2.6"/>
	
		<line fill="none" stroke="#231715" stroke-width="0.65" stroke-linecap="round" stroke-miterlimit="10" x1="12" y1="1.8" x2="11.2" y2="3.2"/>
	
		<line fill="none" stroke="#231715" stroke-width="0.65" stroke-linecap="round" stroke-miterlimit="10" x1="14.2" y1="4" x2="12.8" y2="4.7"/>
	
		<line fill="none" stroke="#231715" stroke-width="0.65" stroke-linecap="round" stroke-miterlimit="10" x1="15" y1="7" x2="13.4" y2="7"/>
	
		<line fill="none" stroke="#231715" stroke-width="0.65" stroke-linecap="round" stroke-miterlimit="10" x1="14.2" y1="9.9" x2="12.8" y2="9.2"/>
</g>
<g id="XMLID_11_">
	<g>
		<path fill="#FFFFFF" d="M4.8,7.7c0.6-1,1.6-1.7,2.9-1.7c1.5,0,2.8,1,3.2,2.4c1.2,0.2,2.1,1.1,2.1,2.3c0,1.3-1.1,2.4-2.4,2.4H3.8
			c-1.6,0-2.8-1.3-2.8-2.8s1.3-2.8,2.8-2.8C4.2,7.5,4.5,7.6,4.8,7.7z"/>
	</g>
	<g>
	</g>
</g>
<g id="XMLID_10_">
	<g>
	</g>
	<g>
		
			<path fill="none" stroke="#231714" stroke-width="0.65" stroke-linecap="round" stroke-linejoin="round" stroke-miterlimit="10" d="
			M10.6,13.2c1.3,0,2.4-1.1,2.4-2.4c0-1.2-0.9-2.2-2.1-2.3C10.5,7.1,9.2,6,7.7,6C6.5,6,5.4,6.7,4.8,7.7c-0.3-0.1-0.6-0.2-1-0.2
			C2.3,7.5,1,8.8,1,10.4c0,1.5,1.2,2.8,2.7,2.8"/>
	</g>
</g>
<g>
	
		<polygon fill="none" stroke="#30A5DD" stroke-width="0.4" stroke-linecap="round" stroke-linejoin="round" stroke-miterlimit="10" points="
		5.6,13 5.6,13.8 6.3,14.2 6.9,13.8 6.9,13 6.3,12.6 	"/>
	
		<line fill="none" stroke="#30A5DD" stroke-width="0.4" stroke-linecap="round" stroke-linejoin="round" stroke-miterlimit="10" x1="6.3" y1="12.6" x2="6.3" y2="11.8"/>
	
		<line fill="none" stroke="#30A5DD" stroke-width="0.4" stroke-linecap="round" stroke-linejoin="round" stroke-miterlimit="10" x1="6.3" y1="12.3" x2="5.9" y2="12"/>
	
		<line fill="none" stroke="#30A5DD" stroke-width="0.4" stroke-linecap="round" stroke-linejoin="round" stroke-miterlimit="10" x1="6.3" y1="12.3" x2="6.7" y2="12"/>
	
		<line fill="none" stroke="#30A5DD" stroke-width="0.4" stroke-linecap="round" stroke-linejoin="round" stroke-miterlimit="10" x1="6.9" y1="13" x2="7.6" y2="12.5"/>
	
		<line fill="none" stroke="#30A5DD" stroke-width="0.4" stroke-linecap="round" stroke-linejoin="round" stroke-miterlimit="10" x1="7.2" y1="12.8" x2="7.2" y2="12.3"/>
	
		<line fill="none" stroke="#30A5DD" stroke-width="0.4" stroke-linecap="round" stroke-linejoin="round" stroke-miterlimit="10" x1="7.2" y1="12.8" x2="7.7" y2="12.9"/>
	
		<line fill="none" stroke="#30A5DD" stroke-width="0.4" stroke-linecap="round" stroke-linejoin="round" stroke-miterlimit="10" x1="6.9" y1="13.8" x2="7.7" y2="14.2"/>
	
		<line fill="none" stroke="#30A5DD" stroke-width="0.4" stroke-linecap="round" stroke-linejoin="round" stroke-miterlimit="10" x1="7.3" y1="14" x2="7.7" y2="13.8"/>
	
		<line fill="none" stroke="#30A5DD" stroke-width="0.4" stroke-linecap="round" stroke-linejoin="round" stroke-miterlimit="10" x1="7.3" y1="14" x2="7.3" y2="14.5"/>
	
		<line fill="none" stroke="#30A5DD" stroke-width="0.4" stroke-linecap="round" stroke-linejoin="round" stroke-miterlimit="10" x1="6.3" y1="14.2" x2="6.3" y2="15"/>
	
		<line fill="none" stroke="#30A5DD" stroke-width="0.4" stroke-linecap="round" stroke-linejoin="round" stroke-miterlimit="10" x1="6.3" y1="14.5" x2="6.6" y2="14.8"/>
	
		<line fill="none" stroke="#30A5DD" stroke-width="0.4" stroke-linecap="round" stroke-linejoin="round" stroke-miterlimit="10" x1="6.3" y1="14.5" x2="5.9" y2="14.8"/>
	
		<line fill="none" stroke="#30A5DD" stroke-width="0.4" stroke-linecap="round" stroke-linejoin="round" stroke-miterlimit="10" x1="5.6" y1="13.8" x2="5" y2="14.3"/>
	
		<line fill="none" stroke="#30A5DD" stroke-width="0.4" stroke-linecap="round" stroke-linejoin="round" stroke-miterlimit="10" x1="5.3" y1="14" x2="5.3" y2="14.5"/>
	
		<line fill="none" stroke="#30A5DD" stroke-width="0.4" stroke-linecap="round" stroke-linejoin="round" stroke-miterlimit="10" x1="5.3" y1="14" x2="4.9" y2="13.9"/>
	
		<line fill="none" stroke="#30A5DD" stroke-width="0.4" stroke-linecap="round" stroke-linejoin="round" stroke-miterlimit="10" x1="5.6" y1="13" x2="4.9" y2="12.6"/>
	
		<line fill="none" stroke="#30A5DD" stroke-width="0.4" stroke-linecap="round" stroke-linejoin="round" stroke-miterlimit="10" x1="5.3" y1="12.8" x2="4.9" y2="13"/>
	
		<line fill="none" stroke="#30A5DD" stroke-width="0.4" stroke-linecap="round" stroke-linejoin="round" stroke-miterlimit="10" x1="5.3" y1="12.8" x2="5.2" y2="12.4"/>
</g>
</svg>
