<?xml version="1.0" encoding="utf-8"?>
<!-- Generator: Adobe Illustrator 24.3.0, SVG Export Plug-In . SVG Version: 6.00 Build 0)  -->
<svg version="1.1" id="Layer_1" xmlns="http://www.w3.org/2000/svg" xmlns:xlink="http://www.w3.org/1999/xlink" x="0px" y="0px"
	 viewBox="0 0 16 16" enable-background="new 0 0 16 16" xml:space="preserve">
<g>
	<g>
		<g id="XMLID_6_">
			<g>
				<path fill="#FFFFFF" d="M11.8,2.6c0,0.8,0.7,1.5,1.5,1.5c-0.8,0-1.5,0.7-1.5,1.5c0-0.8-0.7-1.5-1.5-1.5
					C11.1,4.1,11.8,3.5,11.8,2.6z"/>
			</g>
			<g>
				<path fill="none" stroke="#231613" stroke-width="0.65" stroke-linecap="round" stroke-miterlimit="10" d="M10.3,4.1
					c0.8,0,1.5,0.7,1.5,1.5"/>
				<path fill="none" stroke="#231613" stroke-width="0.65" stroke-linecap="round" stroke-miterlimit="10" d="M11.8,5.6
					c0-0.8,0.7-1.5,1.5-1.5"/>
				<path fill="none" stroke="#231613" stroke-width="0.65" stroke-linecap="round" stroke-miterlimit="10" d="M13.3,4.1
					c-0.8,0-1.5-0.7-1.5-1.5"/>
				<path fill="none" stroke="#231613" stroke-width="0.65" stroke-linecap="round" stroke-miterlimit="10" d="M11.8,2.6
					c0,0.8-0.7,1.5-1.5,1.5"/>
			</g>
		</g>
	</g>
	<path fill="#F2EA8E" stroke="#231613" stroke-width="0.6" stroke-linejoin="round" stroke-miterlimit="10" d="M13.8,9.4
		c-5.2,1.4-8-4.7-5.6-8.2C5.3,2.1,3.6,5.2,4.4,8.1c0.8,3,3.9,4.8,6.9,4c1.7-0.5,3-1.6,3.7-3.1C14.6,9.2,14.2,9.3,13.8,9.4z"/>
</g>
<g id="XMLID_2_">
	<g>
		<path fill="#FFFFFF" d="M10.3,8.6c1.1,0.1,2,1.1,2,2.2c0,1.2-1,2.2-2.2,2.2H3.7C2.2,13,1,11.8,1,10.4s1.2-2.7,2.7-2.7
			c0.3,0,0.6,0.1,0.9,0.2c0.5-0.9,1.6-1.6,2.7-1.6C8.8,6.3,10,7.2,10.3,8.6z"/>
	</g>
	<g>
	</g>
</g>
<g id="XMLID_1_">
	<g>
	</g>
	<g>
		
			<path fill="none" stroke="#231714" stroke-width="0.65" stroke-linecap="round" stroke-linejoin="round" stroke-miterlimit="10" d="
			M10.1,13c1.2,0,2.2-1,2.2-2.2c0-1.1-0.9-2.1-2-2.2c-0.4-1.3-1.6-2.3-3-2.3c-1.2,0-2.2,0.6-2.7,1.6C4.3,7.7,4,7.7,3.7,7.7
			C2.2,7.7,1,8.9,1,10.4C1,11.8,2.1,13,3.6,13"/>
	</g>
</g>
<g>
	
		<polygon fill="none" stroke="#30A5DD" stroke-width="0.4" stroke-linecap="round" stroke-linejoin="round" stroke-miterlimit="10" points="
		5.4,12.9 5.4,13.6 6,14 6.6,13.6 6.6,12.9 6,12.5 	"/>
	
		<line fill="none" stroke="#30A5DD" stroke-width="0.4" stroke-linecap="round" stroke-linejoin="round" stroke-miterlimit="10" x1="6" y1="12.5" x2="6" y2="11.7"/>
	
		<line fill="none" stroke="#30A5DD" stroke-width="0.4" stroke-linecap="round" stroke-linejoin="round" stroke-miterlimit="10" x1="6" y1="12.2" x2="5.6" y2="11.9"/>
	
		<line fill="none" stroke="#30A5DD" stroke-width="0.4" stroke-linecap="round" stroke-linejoin="round" stroke-miterlimit="10" x1="6" y1="12.2" x2="6.3" y2="11.9"/>
	
		<line fill="none" stroke="#30A5DD" stroke-width="0.4" stroke-linecap="round" stroke-linejoin="round" stroke-miterlimit="10" x1="6.6" y1="12.9" x2="7.2" y2="12.4"/>
	
		<line fill="none" stroke="#30A5DD" stroke-width="0.4" stroke-linecap="round" stroke-linejoin="round" stroke-miterlimit="10" x1="6.9" y1="12.6" x2="6.9" y2="12.2"/>
	
		<line fill="none" stroke="#30A5DD" stroke-width="0.4" stroke-linecap="round" stroke-linejoin="round" stroke-miterlimit="10" x1="6.9" y1="12.6" x2="7.3" y2="12.7"/>
	
		<line fill="none" stroke="#30A5DD" stroke-width="0.4" stroke-linecap="round" stroke-linejoin="round" stroke-miterlimit="10" x1="6.6" y1="13.6" x2="7.3" y2="14"/>
	
		<line fill="none" stroke="#30A5DD" stroke-width="0.4" stroke-linecap="round" stroke-linejoin="round" stroke-miterlimit="10" x1="6.9" y1="13.8" x2="7.3" y2="13.6"/>
	
		<line fill="none" stroke="#30A5DD" stroke-width="0.4" stroke-linecap="round" stroke-linejoin="round" stroke-miterlimit="10" x1="6.9" y1="13.8" x2="7" y2="14.2"/>
	
		<line fill="none" stroke="#30A5DD" stroke-width="0.4" stroke-linecap="round" stroke-linejoin="round" stroke-miterlimit="10" x1="6" y1="14" x2="6" y2="14.7"/>
	
		<line fill="none" stroke="#30A5DD" stroke-width="0.4" stroke-linecap="round" stroke-linejoin="round" stroke-miterlimit="10" x1="6" y1="14.3" x2="6.3" y2="14.6"/>
	
		<line fill="none" stroke="#30A5DD" stroke-width="0.4" stroke-linecap="round" stroke-linejoin="round" stroke-miterlimit="10" x1="6" y1="14.3" x2="5.6" y2="14.6"/>
	
		<line fill="none" stroke="#30A5DD" stroke-width="0.4" stroke-linecap="round" stroke-linejoin="round" stroke-miterlimit="10" x1="5.4" y1="13.6" x2="4.8" y2="14.1"/>
	
		<line fill="none" stroke="#30A5DD" stroke-width="0.4" stroke-linecap="round" stroke-linejoin="round" stroke-miterlimit="10" x1="5.1" y1="13.8" x2="5.1" y2="14.3"/>
	
		<line fill="none" stroke="#30A5DD" stroke-width="0.4" stroke-linecap="round" stroke-linejoin="round" stroke-miterlimit="10" x1="5.1" y1="13.8" x2="4.6" y2="13.7"/>
	
		<line fill="none" stroke="#30A5DD" stroke-width="0.4" stroke-linecap="round" stroke-linejoin="round" stroke-miterlimit="10" x1="5.4" y1="12.9" x2="4.7" y2="12.5"/>
	
		<line fill="none" stroke="#30A5DD" stroke-width="0.4" stroke-linecap="round" stroke-linejoin="round" stroke-miterlimit="10" x1="5.1" y1="12.7" x2="4.7" y2="12.9"/>
	
		<line fill="none" stroke="#30A5DD" stroke-width="0.4" stroke-linecap="round" stroke-linejoin="round" stroke-miterlimit="10" x1="5.1" y1="12.7" x2="5" y2="12.2"/>
</g>
</svg>
