<?xml version="1.0" encoding="utf-8"?>
<!-- Generator: Adobe Illustrator 24.3.0, SVG Export Plug-In . SVG Version: 6.00 Build 0)  -->
<svg version="1.1" id="Layer_1" xmlns="http://www.w3.org/2000/svg" xmlns:xlink="http://www.w3.org/1999/xlink" x="0px" y="0px"
	 viewBox="0 0 16 16" enable-background="new 0 0 16 16" xml:space="preserve">
<g id="XMLID_11_">
	<g>
		<path fill="#FFFFFF" d="M5.5,4.7c0.7-1.2,1.9-1.9,3.4-1.9c1.8,0,3.3,1.2,3.8,2.9C13.9,5.8,15,7,15,8.4c0,1.5-1.2,2.8-2.8,2.8H4.3
			C2.5,11.2,1,9.7,1,7.8s1.5-3.3,3.3-3.3C4.7,4.5,5.1,4.6,5.5,4.7z"/>
	</g>
	<g>
	</g>
</g>
<g id="XMLID_10_">
	<g>
	</g>
	<g>
		
			<path fill="none" stroke="#231714" stroke-width="0.65" stroke-linecap="round" stroke-linejoin="round" stroke-miterlimit="10" d="
			M12.2,11.2c1.5,0,2.8-1.2,2.8-2.8c0-1.4-1.1-2.6-2.4-2.8c-0.4-1.7-2-2.9-3.8-2.9c-1.4,0-2.7,0.8-3.4,2C5.1,4.6,4.7,4.5,4.3,4.5
			C2.5,4.5,1,6,1,7.8c0,1.8,1.4,3.3,3.2,3.3"/>
	</g>
</g>
<g>
	
		<polygon fill="none" stroke="#30A5DD" stroke-width="0.4" stroke-linecap="round" stroke-linejoin="round" stroke-miterlimit="10" points="
		6.4,10.9 6.4,11.8 7.2,12.3 8,11.8 8,10.9 7.2,10.5 	"/>
	
		<line fill="none" stroke="#30A5DD" stroke-width="0.4" stroke-linecap="round" stroke-linejoin="round" stroke-miterlimit="10" x1="7.2" y1="10.5" x2="7.2" y2="9.5"/>
	
		<line fill="none" stroke="#30A5DD" stroke-width="0.4" stroke-linecap="round" stroke-linejoin="round" stroke-miterlimit="10" x1="7.2" y1="10" x2="6.7" y2="9.7"/>
	
		<line fill="none" stroke="#30A5DD" stroke-width="0.4" stroke-linecap="round" stroke-linejoin="round" stroke-miterlimit="10" x1="7.2" y1="10" x2="7.6" y2="9.7"/>
	
		<line fill="none" stroke="#30A5DD" stroke-width="0.4" stroke-linecap="round" stroke-linejoin="round" stroke-miterlimit="10" x1="8" y1="10.9" x2="8.7" y2="10.3"/>
	
		<line fill="none" stroke="#30A5DD" stroke-width="0.4" stroke-linecap="round" stroke-linejoin="round" stroke-miterlimit="10" x1="8.3" y1="10.7" x2="8.3" y2="10.1"/>
	
		<line fill="none" stroke="#30A5DD" stroke-width="0.4" stroke-linecap="round" stroke-linejoin="round" stroke-miterlimit="10" x1="8.3" y1="10.7" x2="8.8" y2="10.8"/>
	
		<line fill="none" stroke="#30A5DD" stroke-width="0.4" stroke-linecap="round" stroke-linejoin="round" stroke-miterlimit="10" x1="8" y1="11.8" x2="8.8" y2="12.3"/>
	
		<line fill="none" stroke="#30A5DD" stroke-width="0.4" stroke-linecap="round" stroke-linejoin="round" stroke-miterlimit="10" x1="8.3" y1="12.1" x2="8.9" y2="11.8"/>
	
		<line fill="none" stroke="#30A5DD" stroke-width="0.4" stroke-linecap="round" stroke-linejoin="round" stroke-miterlimit="10" x1="8.3" y1="12.1" x2="8.4" y2="12.6"/>
	
		<line fill="none" stroke="#30A5DD" stroke-width="0.4" stroke-linecap="round" stroke-linejoin="round" stroke-miterlimit="10" x1="7.2" y1="12.3" x2="7.2" y2="13.3"/>
	
		<line fill="none" stroke="#30A5DD" stroke-width="0.4" stroke-linecap="round" stroke-linejoin="round" stroke-miterlimit="10" x1="7.2" y1="12.7" x2="7.6" y2="13.1"/>
	
		<line fill="none" stroke="#30A5DD" stroke-width="0.4" stroke-linecap="round" stroke-linejoin="round" stroke-miterlimit="10" x1="7.2" y1="12.7" x2="6.7" y2="13.1"/>
	
		<line fill="none" stroke="#30A5DD" stroke-width="0.4" stroke-linecap="round" stroke-linejoin="round" stroke-miterlimit="10" x1="6.4" y1="11.8" x2="5.7" y2="12.5"/>
	
		<line fill="none" stroke="#30A5DD" stroke-width="0.4" stroke-linecap="round" stroke-linejoin="round" stroke-miterlimit="10" x1="6.1" y1="12.1" x2="6.1" y2="12.7"/>
	
		<line fill="none" stroke="#30A5DD" stroke-width="0.4" stroke-linecap="round" stroke-linejoin="round" stroke-miterlimit="10" x1="6.1" y1="12.1" x2="5.5" y2="12"/>
	
		<line fill="none" stroke="#30A5DD" stroke-width="0.4" stroke-linecap="round" stroke-linejoin="round" stroke-miterlimit="10" x1="6.4" y1="10.9" x2="5.6" y2="10.4"/>
	
		<line fill="none" stroke="#30A5DD" stroke-width="0.4" stroke-linecap="round" stroke-linejoin="round" stroke-miterlimit="10" x1="6" y1="10.7" x2="5.5" y2="10.9"/>
	
		<line fill="none" stroke="#30A5DD" stroke-width="0.4" stroke-linecap="round" stroke-linejoin="round" stroke-miterlimit="10" x1="6" y1="10.7" x2="6" y2="10.2"/>
</g>
</svg>
