<?xml version="1.0" encoding="utf-8"?>
<!-- Generator: Adobe Illustrator 24.3.0, SVG Export Plug-In . SVG Version: 6.00 Build 0)  -->
<svg version="1.1" id="Layer_1" xmlns="http://www.w3.org/2000/svg" xmlns:xlink="http://www.w3.org/1999/xlink" x="0px" y="0px"
	 viewBox="0 0 16 16" enable-background="new 0 0 16 16" xml:space="preserve">
<g>
	<g>
		<g id="XMLID_6_">
			<g>
				<path fill="#FFFFFF" d="M11.8,5.7c0-0.8-0.7-1.5-1.5-1.5c0.8,0,1.5-0.7,1.5-1.5c0,0.8,0.7,1.5,1.5,1.5
					C12.5,4.3,11.8,4.9,11.8,5.7z"/>
			</g>
			<g>
				<path fill="none" stroke="#231613" stroke-width="0.65" stroke-linecap="round" stroke-miterlimit="10" d="M10.4,4.3
					c0.8,0,1.5,0.7,1.5,1.5"/>
				<path fill="none" stroke="#231613" stroke-width="0.65" stroke-linecap="round" stroke-miterlimit="10" d="M11.8,5.7
					c0-0.8,0.7-1.5,1.5-1.5"/>
				<path fill="none" stroke="#231613" stroke-width="0.65" stroke-linecap="round" stroke-miterlimit="10" d="M13.3,4.3
					c-0.8,0-1.5-0.7-1.5-1.5"/>
				<path fill="none" stroke="#231613" stroke-width="0.65" stroke-linecap="round" stroke-miterlimit="10" d="M11.8,2.8
					c0,0.8-0.7,1.5-1.5,1.5"/>
			</g>
		</g>
	</g>
	<path fill="#F2EA8E" stroke="#231613" stroke-width="0.6" stroke-linejoin="round" stroke-miterlimit="10" d="M13.8,9.5
		c-5.1,1.4-7.8-4.6-5.5-8C5.5,2.3,3.8,5.3,4.6,8.2c0.8,3,3.8,4.7,6.8,3.9c1.7-0.4,3-1.6,3.6-3.1C14.6,9.2,14.3,9.3,13.8,9.5z"/>
</g>
<g id="XMLID_9_">
	<g>
		<path fill="#DCDDDC" d="M10.2,8.2c1.1,0.1,1.9,1.1,1.9,2.2c0,1.2-1,2.2-2.2,2.2H3.6C2.2,12.6,1,11.4,1,9.9s1.2-2.6,2.6-2.6
			c0.3,0,0.6,0.1,0.9,0.2c0.5-0.9,1.5-1.5,2.7-1.5C8.6,5.9,9.8,6.9,10.2,8.2z"/>
	</g>
	<g>
	</g>
</g>
<g id="XMLID_8_">
	<g>
	</g>
	<g>
		
			<path fill="none" stroke="#231714" stroke-width="0.65" stroke-linecap="round" stroke-linejoin="round" stroke-miterlimit="10" d="
			M9.9,12.6c1.2,0,2.2-1,2.2-2.2c0-1.1-0.8-2-1.9-2.2c-0.4-1.3-1.6-2.3-3-2.3c-1.1,0-2.1,0.6-2.7,1.5C4.2,7.4,3.9,7.3,3.6,7.3
			C2.2,7.3,1,8.5,1,9.9c0,1.4,1.1,2.6,2.5,2.6"/>
	</g>
</g>
<g>
	
		<polygon fill="none" stroke="#30A5DD" stroke-width="0.4" stroke-linecap="round" stroke-linejoin="round" stroke-miterlimit="10" points="
		5.7,12.7 5.7,13.4 6.3,13.8 6.9,13.4 6.9,12.7 6.3,12.4 	"/>
	
		<line fill="none" stroke="#30A5DD" stroke-width="0.4" stroke-linecap="round" stroke-linejoin="round" stroke-miterlimit="10" x1="6.3" y1="12.4" x2="6.3" y2="11.6"/>
	
		<line fill="none" stroke="#30A5DD" stroke-width="0.4" stroke-linecap="round" stroke-linejoin="round" stroke-miterlimit="10" x1="6.3" y1="12" x2="6" y2="11.7"/>
	
		<line fill="none" stroke="#30A5DD" stroke-width="0.4" stroke-linecap="round" stroke-linejoin="round" stroke-miterlimit="10" x1="6.3" y1="12" x2="6.7" y2="11.7"/>
	
		<line fill="none" stroke="#30A5DD" stroke-width="0.4" stroke-linecap="round" stroke-linejoin="round" stroke-miterlimit="10" x1="6.9" y1="12.7" x2="7.5" y2="12.2"/>
	
		<line fill="none" stroke="#30A5DD" stroke-width="0.4" stroke-linecap="round" stroke-linejoin="round" stroke-miterlimit="10" x1="7.2" y1="12.5" x2="7.2" y2="12.1"/>
	
		<line fill="none" stroke="#30A5DD" stroke-width="0.4" stroke-linecap="round" stroke-linejoin="round" stroke-miterlimit="10" x1="7.2" y1="12.5" x2="7.6" y2="12.6"/>
	
		<line fill="none" stroke="#30A5DD" stroke-width="0.4" stroke-linecap="round" stroke-linejoin="round" stroke-miterlimit="10" x1="6.9" y1="13.4" x2="7.6" y2="13.8"/>
	
		<line fill="none" stroke="#30A5DD" stroke-width="0.4" stroke-linecap="round" stroke-linejoin="round" stroke-miterlimit="10" x1="7.2" y1="13.6" x2="7.7" y2="13.4"/>
	
		<line fill="none" stroke="#30A5DD" stroke-width="0.4" stroke-linecap="round" stroke-linejoin="round" stroke-miterlimit="10" x1="7.2" y1="13.6" x2="7.3" y2="14"/>
	
		<line fill="none" stroke="#30A5DD" stroke-width="0.4" stroke-linecap="round" stroke-linejoin="round" stroke-miterlimit="10" x1="6.3" y1="13.8" x2="6.3" y2="14.6"/>
	
		<line fill="none" stroke="#30A5DD" stroke-width="0.4" stroke-linecap="round" stroke-linejoin="round" stroke-miterlimit="10" x1="6.3" y1="14.1" x2="6.7" y2="14.4"/>
	
		<line fill="none" stroke="#30A5DD" stroke-width="0.4" stroke-linecap="round" stroke-linejoin="round" stroke-miterlimit="10" x1="6.3" y1="14.1" x2="6" y2="14.4"/>
	
		<line fill="none" stroke="#30A5DD" stroke-width="0.4" stroke-linecap="round" stroke-linejoin="round" stroke-miterlimit="10" x1="5.7" y1="13.4" x2="5.1" y2="13.9"/>
	
		<line fill="none" stroke="#30A5DD" stroke-width="0.4" stroke-linecap="round" stroke-linejoin="round" stroke-miterlimit="10" x1="5.4" y1="13.7" x2="5.5" y2="14.1"/>
	
		<line fill="none" stroke="#30A5DD" stroke-width="0.4" stroke-linecap="round" stroke-linejoin="round" stroke-miterlimit="10" x1="5.4" y1="13.7" x2="5" y2="13.6"/>
	
		<line fill="none" stroke="#30A5DD" stroke-width="0.4" stroke-linecap="round" stroke-linejoin="round" stroke-miterlimit="10" x1="5.7" y1="12.7" x2="5.1" y2="12.3"/>
	
		<line fill="none" stroke="#30A5DD" stroke-width="0.4" stroke-linecap="round" stroke-linejoin="round" stroke-miterlimit="10" x1="5.4" y1="12.5" x2="5" y2="12.7"/>
	
		<line fill="none" stroke="#30A5DD" stroke-width="0.4" stroke-linecap="round" stroke-linejoin="round" stroke-miterlimit="10" x1="5.4" y1="12.5" x2="5.4" y2="12.1"/>
</g>
</svg>
