<?xml version="1.0" encoding="utf-8"?>
<!-- Generator: Adobe Illustrator 24.3.0, SVG Export Plug-In . SVG Version: 6.00 Build 0)  -->
<svg version="1.1" id="Layer_1" xmlns="http://www.w3.org/2000/svg" xmlns:xlink="http://www.w3.org/1999/xlink" x="0px" y="0px"
	 viewBox="0 0 348 360" style="enable-background:new 0 0 348 360;" xml:space="preserve">
<style type="text/css">
	.st0{fill:#FFFFFF;}
	.st1{fill:#231815;}
	.st2{fill:#F4EC90;}
	.st3{fill:#2EA7E0;}
</style>
<g id="图层_1">
	<path class="st0" d="M256.6,61.6c-0.6,1.2-1.3,2.4-2,3.6c-3.8,6-8.8,11.1-14.6,15.2c-1.7,1.2-3.4,2.2-5.3,3.2
		c4,2.1,7.8,4.7,11.1,7.8c4.4,4,8,8.7,10.7,14l0.6-1.1c3.4-6.1,7.9-11.4,13.4-15.6c2.5-2,5.2-3.7,8-5.2
		C269.2,78.5,261.5,70.9,256.6,61.6z"/>
	<path class="st1" d="M287.5,79.7c-0.7,0.2-1.4,0.4-2,0.7c-0.6,0.2-1.3,0.5-1.9,0.7c0.1,3.1,2.2,5.8,5.3,6.5
		C285.6,86.7,293.1,79.1,287.5,79.7z"/>
	<path class="st1" d="M283.6,81.1c-1.1,0.4-2.1,0.9-3.2,1.4c-0.7,0.3-1.3,0.6-1.9,1c3.3,1.8,6.8,3.2,10.4,4.2
		C285.8,87,283.6,84.3,283.6,81.1z"/>
	<path class="st1" d="M283.6,81.1c0.6-0.2,1.3-0.5,1.9-0.7c0.6-0.3,1.3-0.5,2-0.7c5.6-0.7-2,7,1.4,7.9c9.3,2.7,13.3-11.8,4-14.5
		C287.1,71.6,283.4,76.6,283.6,81.1z"/>
	<path class="st1" d="M260.7,51.1h-8.3l0.4,1.4c0.3,1.2,0.7,2.3,1.2,3.4c0.8,2,1.6,3.9,2.6,5.7c0.9-1.9,1.8-3.8,2.5-5.7
		C259.6,54.6,260.7,52.5,260.7,51.1z"/>
	<path class="st1" d="M224.2,79.3v4.1c-1.3,3.4-1.1,4.7,0.7,4c1.4,0,3.4-1.1,4.7-1.6c1.7-0.7,3.4-1.5,5.1-2.3
		c-2.5-1.3-5.1-2.4-7.8-3.3C226,79.8,225.1,79.5,224.2,79.3z"/>
	<path class="st1" d="M148.5,20c-2.3,5.6-4.3,11.4-5.8,17.4c5.4-3.4,11-6.4,16.8-8.9L148.5,20z"/>
	<path class="st0" d="M196,283.5c1.1,0.7,2.4,1.1,3.7,1.1v1.9h-17.4v-7.3c1-0.6,2-1.2,3-1.7c0.8,0.4,1.5,0.8,2.2,1.2L196,283.5z"/>
	<path class="st0" d="M167.4,285v1.5h-24.8v-6.4l0.7-0.4l4.1-2.4l3.4-2l4.1-2.4l0.1-0.1l4,2.4l3.3,1.9l4.2,2.4l0.8,0.5L167.4,285z"
		/>
	<path class="st0" d="M127.5,286.5H110v-1.9c1.3,0,2.6-0.4,3.8-1.1l8.4-4.9c0.6-0.4,1.4-0.8,2.2-1.2l3.2,1.9L127.5,286.5z"/>
	<path class="st0" d="M224.4,177.2c1.4,2.8,2.6,5.8,3.5,8.8c0.7,2.5,2.7,4.5,5.2,5.2c6.9,1.5,13.3,4.5,18.9,8.8
		c10,7.8,16.2,19.5,17,32.2c0.2,2.7,0.1,5.3-0.2,8c-0.5,3.9-1.5,7.8-3,11.4c-7.1,16.4-23.1,27.1-40.9,27.3c-4.8,0.1-7.2,3.8-7.2,7.5
		h-17.9v-1.9c6.6,0,10.9-9.9,3.8-14l-3.1-1.8l3-1.7l1.9-1.1c6.8-3.9,3.1-13.1-3-14c-0.5-0.1-1-0.1-1.5,0c-1.1,0.1-2.1,0.5-3.1,1
		l-4.8,2.8c0-1.2,0-2.4,0-3.6c0-0.2,0-0.5,0-0.7c-0.6-7.9-11.8-8.7-14.4-2.3c-0.4,1-0.6,2-0.5,3c0,3.3,0,6.5,0,9.8
		c0,0.7,0,1.6-0.1,2.4v0.1l-3.9,2.2l-6.2-3.5c-1-0.6-2.2-1.4-3.5-2.2c-0.6-0.4-1.3-0.9-2-1.3v-4.1c0.8-0.5,1.5-1,2.2-1.4l8.5-4.9
		c0.5-0.3,1-0.6,1.4-1c5.9-5.4-1.2-16.4-9-11.9l-3.1,1.8v-5.3c0-9.6-15-9.7-15,0v5.3l-3.1-1.8c-7.2-4.1-13.8,4.9-10.2,10.5
		c0.7,1,1.5,1.8,2.6,2.4l8.5,4.9c0.7,0.4,1.4,0.9,2.2,1.4v4.2c-1.8,1.1-3.4,2.3-4.9,3.1l-6.7,3.9l-3.9-2.3c0-0.9-0.1-1.7-0.1-2.5
		c0-3.3,0-6.5,0-9.8c0-9.7-15-9.7-15,0c0,1.2,0,2.4,0,3.6L112,253c-8.4-4.8-15.9,8.1-7.6,13l4.8,2.8l-3.1,1.8
		c-7.1,4.1-2.7,14,3.8,14v1.9H91.4c0-3.7-2.4-7.4-7.2-7.5c-24.5-0.3-46.4-16.6-52.8-40.4c-6.3-24,4.2-49.3,25.6-61.8
		c6.3-3.6,13.3-5.9,20.5-6.8c5.4-0.6,10.8-0.5,16.1,0.4c2.7,0.4,5.3,1.1,7.9,1.9c3.3,1,6.6-0.7,8.5-3.4c11.2-16.3,29-26.9,48.7-28.9
		c6.2-0.6,12.4-0.3,18.5,0.8c0.1,0,0.2,0,0.3,0.1C197.8,144.9,215.3,158.4,224.4,177.2z"/>
	<path class="st1" d="M320,191.5c-2.8-3.7-5.6-7.3-8.5-11L311,179c1.7-0.6,3.4-1.3,5-2c6.8-2.8,10.7,5.9,8.5,11
		c-8.9,20.5-22.9,38.4-40.7,52c0.6-6.2,0.1-12.4-1.3-18.4c7.7-7.2,14.5-15.3,20.1-24.3C308.6,195.8,314.4,193.8,320,191.5z"/>
	<path class="st1" d="M311.5,180.5c2.8,3.7,5.7,7.3,8.5,11c-5.6,2.3-11.4,4.3-17.4,5.8C306.1,191.9,309,186.3,311.5,180.5z"/>
	<path class="st1" d="M311,179l0.6,1.5c-2.5,5.8-5.5,11.5-8.9,16.8c-9.5,2.5-19.3,3.8-29.1,4.1c-4.2-6.2-9.6-11.5-15.8-15.7
		C275.8,187.5,294,185.2,311,179z"/>
	<path class="st2" d="M282.5,221.6c-1.7-7.2-4.8-14.1-9-20.2c9.8-0.2,19.6-1.6,29.1-4.1C297.1,206.3,290.3,214.4,282.5,221.6z"/>
	<path class="st1" d="M275.4,246c2.9-1.9,5.7-3.9,8.5-6c-0.1,0.5-0.1,1.1-0.2,1.6c-3.8,29.7-28.9,52-58.8,52.3
		c-4.9,0.1-7.3-3.7-7.2-7.5h7.2C249.1,286.5,270.1,269.7,275.4,246z"/>
	<path class="st1" d="M276,227.2c2.2-1.8,4.4-3.6,6.5-5.6c1.4,6,1.8,12.3,1.3,18.4c-2.7,2.1-5.6,4.1-8.5,6c0.8-3.7,1.2-7.5,1.2-11.3
		C276.6,232.2,276.4,229.7,276,227.2z"/>
	<path class="st1" d="M282.5,221.6c-2.1,1.9-4.3,3.8-6.5,5.6c-1.4-9.6-5.5-18.5-11.7-25.9c3.1,0.1,6.1,0.2,9.2,0.1
		C277.8,207.5,280.8,214.4,282.5,221.6z"/>
	<path class="st1" d="M276.6,234.8c0,3.8-0.4,7.6-1.2,11.3c-3.1,2-6.3,3.9-9.6,5.7c1.5-3.6,2.6-7.5,3-11.4c0.3-2.7,0.4-5.3,0.2-8
		c2.4-1.6,4.7-3.3,7-5.1C276.4,229.7,276.6,232.2,276.6,234.8z"/>
	<path class="st1" d="M265.8,251.7c3.3-1.8,6.5-3.7,9.6-5.7c-5.3,23.7-26.3,40.5-50.5,40.5h-7.2c0-3.7,2.5-7.4,7.2-7.5
		C242.7,278.8,258.7,268.1,265.8,251.7z"/>
	<path class="st1" d="M264.3,201.3c6.3,7.4,10.3,16.3,11.7,25.9c-2.3,1.8-4.6,3.5-7,5.1c-0.8-12.7-7-24.4-17-32.2
		C256.1,200.7,260.2,201.1,264.3,201.3z"/>
	<path class="st1" d="M257.8,185.7c6.2,4.2,11.5,9.5,15.8,15.7c-3.1,0.1-6.1,0-9.2-0.1c-7.5-8.8-17.8-14.9-29.1-17.2
		c-0.3-1.1-0.7-2.2-1.1-3.3C241.8,183.2,249.7,184.9,257.8,185.7z"/>
	<path class="st1" d="M256.5,115.8c4.9,0,4.5,1,3.5-2.1c-0.7-2-1.4-3.9-2.3-5.8c-0.4-0.9-0.9-1.8-1.3-2.7l0.6-1.1
		c3.4-6.1,7.9-11.4,13.4-15.6c2.5-2,5.2-3.7,8-5.2c3.3,1.8,6.8,3.2,10.4,4.2c9.3,2.7,13.3-11.8,4-14.5c5.1,1.4,8.4,6.5,7.7,11.8
		c-0.7,5.3-4.5,7.7-9.1,9.3c-9.5,3.3-17.1,9.3-21.8,18.2c-2,3.7-2.4,8.4-5.2,11.7c-3,3.4-7.9,4.5-12.2,2.7c-5-2.1-5.7-6.5-7.4-11
		c-1.4-3.6-3.4-6.9-5.9-9.9c-2.9-3.4-6.3-6.3-10.2-8.5c-3.5-2-7.5-2.6-10.9-4.5c-4.3-2.4-6.5-7.4-5.2-12.2c1.2-4.5,4.7-6.5,8.8-7.9
		c8-2.5,14.9-7.7,19.7-14.6c4.5-6.8,5.2-19.3,15.8-18.9c9.9,0.4,10.6,12.3,14.9,18.9c5,7.4,12.4,12.7,21,15c-5.8-1.6-9.5,3.4-9.3,8
		c-1.1,0.4-2.1,0.9-3.2,1.3c-0.7,0.3-1.3,0.6-1.9,1c-9.3-4.9-17-12.5-21.9-21.9c0.9-1.9,1.8-3.8,2.5-5.7c0.5-1.3,1.6-3.3,1.6-4.7
		h-8.3c0.1,0.5,0.3,0.9,0.4,1.4c0.3,1.2,0.7,2.3,1.2,3.3c0.8,2,1.6,3.9,2.6,5.7c-0.6,1.2-1.3,2.4-2,3.6c-3.8,6-8.8,11.1-14.6,15.2
		c-1.7,1.2-3.4,2.2-5.3,3.2c-2.5-1.3-5.1-2.4-7.8-3.3c-0.9-0.4-1.8-0.7-2.7-0.8v4.1c-1.3,3.4-1.1,4.7,0.7,4c1.4,0,3.4-1.1,4.7-1.6
		c1.7-0.7,3.4-1.5,5.1-2.3c4,2.1,7.8,4.7,11.1,7.8c4.4,4,8,8.7,10.7,14c-1.5,2.8-3.3,6.2-3.7,9.2C252.4,117,250.6,115.8,256.5,115.8
		z"/>
	<path class="st1" d="M260.1,113.8c1,3.1,1.3,2.1-3.5,2.1c-5.9,0-4.1,1.1-3.8-1.4c0.4-3,2.2-6.4,3.7-9.2c0.5,0.9,0.9,1.8,1.3,2.7
		C258.7,109.9,259.4,111.8,260.1,113.8z"/>
	<path class="st1" d="M235.2,184c11.4,2.3,21.6,8.4,29.1,17.2c-4.1-0.2-8.2-0.6-12.2-1.1c-5.5-4.4-12-7.4-18.9-8.9
		c-2.5-0.7-4.5-2.7-5.2-5.2c-1-3-2.1-6-3.5-8.8c3.2,1.3,6.4,2.5,9.7,3.6C234.5,181.8,234.8,182.9,235.2,184z"/>
	<path class="st1" d="M242.4,182.1l-5.2-5.2c1.3,0.3,2.5,0.6,3.7,1C241.4,179.2,242,180.6,242.4,182.1z"/>
	<path class="st1" d="M240.9,177.8c6,1.7,11.7,4.4,16.9,7.9c-8-0.8-16-2.5-23.7-4.9c-9.7-26.9-34.1-45.7-62.5-48.3
		c-1.6-2.5-3-5.1-4.4-7.7c4.2,0.1,8.4,0.5,12.5,1.2C207.7,131,230.9,151.4,240.9,177.8c-1.2-0.4-2.5-0.7-3.7-1l5.2,5.2
		C242,180.6,241.4,179.2,240.9,177.8z"/>
	<path class="st1" d="M234.1,180.8c-3.3-1-6.5-2.2-9.7-3.6c-9.2-18.8-26.6-32.3-47.1-36.4c-2.1-2.7-4-5.5-5.8-8.4
		C200,135.1,224.3,153.9,234.1,180.8z"/>
	<path class="st3" d="M202.3,252c6.1,0.8,9.7,10,3,14l-1.9,1.1l-3,1.7l3.1,1.8c7.1,4.1,2.8,14-3.8,14c-1.3,0-2.6-0.4-3.8-1.1
		l-8.4-4.9c-0.7-0.4-1.4-0.8-2.2-1.2c-1,0.6-2,1.1-3,1.7v7.3h-15v-6.4l-0.8-0.5l-4.2-2.4l-3.4-1.9l-4-2.4l-0.1,0.1l-4.1,2.4l-3.4,2
		l-4.1,2.4l-0.7,0.4v6.4h-15v-7.2l-3.2-1.9c-0.8,0.4-1.5,0.8-2.2,1.2l-8.4,4.9c-1.1,0.7-2.4,1.1-3.8,1.1c-6.6,0-10.9-9.9-3.8-14
		l3.1-1.8l-4.8-2.8c-8.4-4.8-0.8-17.8,7.6-13l4.8,2.8c0-1.2,0-2.4,0-3.6c0-9.7,15-9.7,15,0c0,3.3,0,6.5,0,9.8c0,0.8,0,1.6,0.1,2.5
		l3.9,2.3l6.7-3.9c1.4-0.8,3.1-2,4.9-3.1v-4.2c-0.8-0.5-1.5-1-2.2-1.4l-8.5-4.9c-1-0.6-1.9-1.4-2.6-2.4c-3.7-5.7,2.9-14.7,10.2-10.5
		l3.1,1.8v-5.3c0-9.7,15-9.6,15,0v5.3l3.1-1.8c7.8-4.5,14.9,6.5,9,11.9c-0.4,0.4-0.9,0.8-1.4,1l-8.5,4.8c-0.7,0.4-1.4,0.9-2.2,1.4
		v4.1c0.7,0.4,1.3,0.8,2,1.3c1.3,0.8,2.5,1.6,3.5,2.2l6.2,3.6l3.8-2.2v-0.1c0-0.9,0.1-1.7,0.1-2.4c0-3.3,0-6.5,0-9.8
		c0-1,0.2-2,0.5-3c2.6-6.4,13.8-5.6,14.4,2.3c0,0.2,0,0.4,0,0.7c0,1.2,0,2.4,0,3.6l4.8-2.8c0.9-0.5,2-0.9,3.1-1
		C201.3,251.9,201.8,251.9,202.3,252z"/>
	<path class="st3" d="M205.1,306.7c8.4,4.8,0.8,17.8-7.6,13l-4.6-2.6c0,1.2,0,2.4,0,3.6c0,9.7-15,9.6-15,0c0-3.3,0-6.5,0-9.8
		c0-0.8,0-1.6-0.1-2.5l-2.3-1.3l-8.2,4.7c-1.5,0.9-3.2,2.1-5.1,3.2v2.3c0.8,0.5,1.5,1,2.2,1.3l8.5,4.9c8.4,4.8,0.8,17.8-7.6,13
		l-3.1-1.8v5.5c0,9.7-15,9.6-15,0v-5.5l-3.1,1.8c-8.4,4.8-15.9-8.1-7.6-13l8.5-4.9c0.7-0.4,1.4-0.9,2.2-1.3v-2.4
		c-1.9-1.2-3.8-2.5-5.3-3.4l-7.9-4.5l-2.4,1.4c0,0.9-0.1,1.8-0.1,2.5c0,3.3,0,6.5,0,9.8c0,9.7-15,9.6-15,0c0-1.2,0-2.4,0-3.6
		l-4.6,2.6c-8.4,4.8-15.9-8.1-7.6-13l4.6-2.7l-3.1-1.8c-7.1-4.1-2.7-14,3.8-14c1.3,0,2.6,0.4,3.7,1.1l8.4,4.9
		c0.7,0.4,1.4,0.8,2.2,1.2l3.2-1.9v-7h15v8l4.8,2.8l1.8,1.1l5.7,3.3h0.1l5.7-3.3l1.7-1l5-2.9v-8h15v7.1l3,1.7
		c0.8-0.4,1.5-0.8,2.2-1.2l8.4-4.9c1.1-0.7,2.4-1.1,3.7-1.1c6.6,0,10.9,9.9,3.8,14l-3.1,1.8L205.1,306.7z"/>
	<path class="st1" d="M171.5,132.5c1.8,2.9,3.7,5.6,5.8,8.4c-0.1,0-0.2,0-0.3-0.1c-6.1-1.2-12.3-1.5-18.5-0.8
		c-1.4-2.3-2.8-4.7-4.1-7.1c3.4-0.5,6.8-0.7,10.3-0.7C167,132.1,169.3,132.2,171.5,132.5z"/>
	<path class="st1" d="M151.1,126c5.3-0.9,10.6-1.3,16-1.2c1.4,2.6,2.8,5.2,4.4,7.7c-2.2-0.2-4.5-0.3-6.8-0.3
		c-3.4,0-6.9,0.2-10.3,0.7C153.3,130.6,152.1,128.3,151.1,126z"/>
	<path class="st1" d="M167.1,124.8c-5.4-0.1-10.7,0.3-16,1.2c-12.9-27.7-15.9-59-8.4-88.7c5.4-3.4,11-6.4,16.8-8.9L161,29
		C149.5,60.4,151.7,95.1,167.1,124.8z"/>
	<path class="st1" d="M151.9,15.5c5.1-2.2,13.9,1.6,11,8.5c-0.7,1.7-1.4,3.3-2,5l-1.5-0.6l-11-8.5l-1.1-2.4
		C148.9,16.9,150.4,16.2,151.9,15.5z"/>
	<path class="st1" d="M103.4,165.1c11.7-17.5,30.3-29.3,51.1-32.2c1.3,2.4,2.6,4.7,4.1,7.1c-19.7,2-37.5,12.6-48.7,28.9
		c-1.8,2.7-5.1,4.5-8.5,3.4c-2.6-0.8-5.2-1.4-7.9-1.9c-0.8-2.7-1.6-5.3-2.2-8C95.4,163,99.5,163.8,103.4,165.1z"/>
	<path class="st1" d="M147.4,17.6l1.1,2.4c-2.4,5.6-4.3,11.4-5.8,17.4c-24.8,15.5-42.9,39.8-50.7,68c-4.3,16.2-5.1,33.1-2.2,49.6
		c-5.1-0.4-10.3-0.2-15.4,0.6C65.8,98.5,95.4,42.5,147.4,17.6L147.4,17.6z"/>
	<path class="st2" d="M142.7,37.4c-7.5,29.6-4.6,61,8.4,88.7c-20.1,3.6-38.1,14.4-50.7,30.5c-3.5-0.8-7.1-1.3-10.6-1.6
		c-2.9-16.5-2.1-33.4,2.2-49.5C99.8,77.1,117.9,52.9,142.7,37.4z"/>
	<path class="st1" d="M105.4,157.8l-8.5,3.4c1.1-1.6,2.3-3.2,3.5-4.8C102.1,156.9,103.7,157.3,105.4,157.8z"/>
	<path class="st1" d="M151.1,126c1.1,2.3,2.2,4.6,3.4,6.9c-20.9,2.9-39.5,14.7-51.1,32.2c-3.9-1.3-8-2.1-12.1-2.6
		c-0.6-2.5-1.1-5-1.6-7.5c3.6,0.3,7.1,0.8,10.6,1.6c-1.2,1.5-2.4,3.1-3.5,4.8l8.5-3.4c-1.6-0.5-3.3-0.9-5-1.3
		C112.9,140.5,131,129.6,151.1,126z"/>
	<path class="st1" d="M84.2,162c2.4,0,4.8,0.1,7.1,0.4c0.7,2.7,1.4,5.3,2.2,8c-5.3-0.9-10.7-1-16.1-0.4c-0.7-2.4-1.3-4.9-1.8-7.4
		C78.5,162.2,81.3,162,84.2,162z"/>
	<path class="st1" d="M89.8,154.9c0.4,2.5,1,5,1.6,7.5c-2.4-0.3-4.7-0.4-7.1-0.4c-2.9,0-5.7,0.2-8.5,0.6c-0.5-2.4-0.9-4.8-1.3-7.2
		C79.5,154.7,84.6,154.5,89.8,154.9z"/>
	<path class="st1" d="M22,224.3c0-31.1,22.9-57.4,53.7-61.6c0.5,2.5,1.1,5,1.8,7.4c-7.2,0.8-14.2,3.1-20.5,6.8
		c-21.5,12.5-31.9,37.8-25.6,61.8c6.5,23.8,28.3,40.1,52.8,40.4c4.8,0.1,7.2,3.8,7.2,7.5h-7.2C49.9,286.5,22,258.6,22,224.3
		C22,224.3,22,224.3,22,224.3z"/>
	<path class="st1" d="M74.4,155.5c0.4,2.4,0.8,4.8,1.3,7.2c-34,4.7-57.8,36.1-53.1,70.2c4.3,30.8,30.6,53.7,61.6,53.7h7.2
		c0,3.8-2.4,7.6-7.2,7.5c-17.6-0.1-34.5-6.7-47.4-18.6C13.5,254,8,218.3,23.1,190.6C33.8,171.5,52.7,158.5,74.4,155.5z"/>
</g>
</svg>
