<?xml version="1.0" encoding="utf-8"?>
<!-- Generator: Adobe Illustrator 24.3.0, SVG Export Plug-In . SVG Version: 6.00 Build 0)  -->
<svg version="1.1" id="Layer_1" xmlns="http://www.w3.org/2000/svg" xmlns:xlink="http://www.w3.org/1999/xlink" x="0px" y="0px"
	 viewBox="0 0 16 16" enable-background="new 0 0 16 16" xml:space="preserve">
<g id="XMLID_9_">
	<g>
		<path fill="#DCDDDC" d="M15,8.9c0,1.5-1.2,2.8-2.8,2.8H4.3C2.5,11.7,1,10.2,1,8.4S2.5,5,4.3,5c0.4,0,0.8,0.1,1.1,0.2
			c0.7-1.2,1.9-2,3.4-2c1.8,0,3.3,1.2,3.8,2.9C13.9,6.3,15,7.5,15,8.9z"/>
	</g>
	<g>
	</g>
</g>
<g id="XMLID_8_">
	<g>
	</g>
	<g>
		
			<path fill="none" stroke="#231714" stroke-width="0.65" stroke-linecap="round" stroke-linejoin="round" stroke-miterlimit="10" d="
			M12.2,11.7c1.5,0,2.8-1.2,2.8-2.8c0-1.4-1.1-2.6-2.4-2.8c-0.4-1.7-2-2.9-3.8-2.9c-1.4,0-2.7,0.8-3.4,2C5.1,5.1,4.7,5,4.3,5
			C2.5,5,1,6.5,1,8.4c0,1.8,1.4,3.3,3.2,3.3"/>
	</g>
</g>
<g>
	
		<line fill="none" stroke="#2BA4DD" stroke-width="0.7" stroke-linecap="round" stroke-miterlimit="10" x1="5.8" y1="11.2" x2="6.6" y2="12.7"/>
	
		<line fill="none" stroke="#2BA4DD" stroke-width="0.7" stroke-linecap="round" stroke-miterlimit="10" x1="10.1" y1="11.2" x2="10.9" y2="12.7"/>
	
		<line fill="none" stroke="#2BA4DD" stroke-width="0.7" stroke-linecap="round" stroke-miterlimit="10" x1="8" y1="11.2" x2="8.8" y2="12.7"/>
</g>
</svg>
