<?xml version="1.0" encoding="utf-8"?>
<!-- Generator: Adobe Illustrator 24.3.0, SVG Export Plug-In . SVG Version: 6.00 Build 0)  -->
<svg version="1.1" id="Layer_1" xmlns="http://www.w3.org/2000/svg" xmlns:xlink="http://www.w3.org/1999/xlink" x="0px" y="0px"
	 viewBox="0 0 297 233" style="enable-background:new 0 0 297 233;" xml:space="preserve">
<style type="text/css">
	.st0{fill:#FFFFFF;}
	.st1{fill:#231815;}
	.st2{fill:none;}
	.st3{fill:#2EA7E0;}
</style>
<g id="图层_1">
	<path class="st0" d="M221.6,175.3c28.6,0,51.8-23.2,51.8-51.7c0-24.6-17.3-45.8-41.4-50.7c-12-38.9-53.3-60.7-92.2-48.6
		c-16.2,5-30.2,15.5-39.6,29.6c-32.7-10.6-67.8,7.3-78.4,40s7.3,67.8,40,78.4c6.2,2,12.7,3,19.2,3"/>
	<path class="st1" d="M221.6,182.8c29.9-0.3,55-22.7,58.8-52.3c3.7-30-17-58.5-46.5-64.9l5.2,5.2c-9.1-28.4-33.2-50.8-62.8-56
		c-32.1-5.7-64.5,8.2-82.7,35.2l8.5-3.4C70.7,37,35.7,50.4,19.8,79.4c-15.2,27.6-9.6,63.4,13.7,84.8c13,11.9,29.9,18.5,47.4,18.6
		c9.7,0.1,9.7-14.9,0-15c-24.5-0.3-46.4-16.6-52.8-40.4c-6.3-24,4.1-49.3,25.6-61.8c13.6-7.8,29.5-9.1,44.4-4.5
		c3.3,1,6.6-0.7,8.5-3.4c14.6-21.5,41.4-33.1,67.1-28.1c24,4.7,43.5,22,51,45.3c0.7,2.5,2.7,4.5,5.2,5.2c22.5,4.9,38.5,25.8,35.6,49
		c-2.7,22.1-22,38.4-44,38.7C211.9,167.9,211.8,182.9,221.6,182.8L221.6,182.8z"/>
	<line class="st2" x1="109" y1="164.4" x2="101.6" y2="145.2"/>
	<path class="st3" d="M116.2,162.4l-7.4-19.2c-1.4-3.8-5-6.4-9.2-5.2c-3.6,1-6.7,5.4-5.2,9.2l7.4,19.2c1.4,3.8,5,6.4,9.2,5.2
		C114.6,170.6,117.7,166.2,116.2,162.4z"/>
	<line class="st2" x1="125.4" y1="207.3" x2="118.1" y2="188.1"/>
	<path class="st3" d="M132.7,205.3l-7.4-19.2c-1.4-3.8-5-6.4-9.2-5.2c-3.6,1-6.7,5.4-5.2,9.2l7.4,19.2c1.4,3.8,5,6.4,9.2,5.2
		C131,213.5,134.1,209.1,132.7,205.3z"/>
	<line class="st2" x1="146.9" y1="164.4" x2="139.6" y2="145.2"/>
	<path class="st3" d="M154.2,162.4l-7.4-19.2c-1.4-3.8-5-6.4-9.2-5.2c-3.6,1-6.7,5.4-5.2,9.2l7.4,19.2c1.4,3.8,5,6.4,9.2,5.2
		C152.5,170.6,155.6,166.2,154.2,162.4z"/>
	<line class="st2" x1="163.4" y1="207.3" x2="156" y2="188.1"/>
	<path class="st3" d="M170.6,205.3l-7.4-19.2c-1.5-3.8-5-6.4-9.2-5.2c-3.6,1-6.7,5.4-5.2,9.2l7.4,19.2c1.5,3.8,5,6.4,9.2,5.2
		C169,213.5,172.1,209.1,170.6,205.3z"/>
	<line class="st2" x1="184.9" y1="164.4" x2="177.5" y2="145.2"/>
	<path class="st3" d="M192.1,162.4l-7.4-19.2c-1.5-3.8-5-6.4-9.2-5.2c-3.6,1-6.7,5.4-5.2,9.2l7.4,19.2c1.5,3.8,5,6.4,9.2,5.2
		C190.5,170.6,193.6,166.2,192.1,162.4z"/>
	<line class="st2" x1="201.4" y1="207.3" x2="194" y2="188.1"/>
	<path class="st3" d="M208.6,205.3l-7.4-19.2c-1.5-3.8-5-6.4-9.2-5.2c-3.6,1-6.7,5.4-5.2,9.2l7.4,19.2c1.5,3.8,5,6.4,9.2,5.2
		C207,213.5,210.1,209.1,208.6,205.3z"/>
</g>
</svg>
