<?xml version="1.0" encoding="utf-8"?>
<!-- Generator: Adobe Illustrator 24.3.0, SVG Export Plug-In . SVG Version: 6.00 Build 0)  -->
<svg version="1.1" id="Layer_1" xmlns="http://www.w3.org/2000/svg" xmlns:xlink="http://www.w3.org/1999/xlink" x="0px" y="0px"
	 viewBox="0 0 304 235" style="enable-background:new 0 0 304 235;" xml:space="preserve">
<style type="text/css">
	.st0{fill:#FFFFFF;}
	.st1{fill:#231815;}
	.st2{fill:none;}
	.st3{fill:#2EA7E0;}
</style>
<g id="图层_1">
	<path class="st0" d="M227.6,177.3c28.6,0,51.8-23.2,51.8-51.7c0-24.6-17.3-45.8-41.4-50.7c-12-38.9-53.3-60.7-92.2-48.6
		c-16.2,5-30.2,15.5-39.6,29.6c-32.7-10.6-67.8,7.3-78.4,40s7.3,67.8,40,78.4c6.2,2,12.7,3,19.2,3"/>
	<path class="st1" d="M227.6,184.8c29.9-0.3,55-22.7,58.8-52.3c3.7-30-17-58.5-46.5-64.9l5.2,5.2c-9.1-28.4-33.2-50.8-62.8-56
		c-32.1-5.7-64.5,8.2-82.7,35.2l8.5-3.4C76.7,39,41.7,52.4,25.8,81.4c-15.2,27.6-9.6,63.4,13.7,84.8c13,11.9,29.9,18.5,47.4,18.6
		c9.7,0.1,9.7-14.9,0-15c-24.5-0.3-46.4-16.6-52.8-40.4c-6.3-24,4.1-49.3,25.6-61.8c13.6-7.8,29.5-9.1,44.4-4.5
		c3.3,1,6.6-0.7,8.5-3.4c14.6-21.5,41.4-33.1,67.1-28.1c24,4.7,43.5,22,51,45.3c0.7,2.5,2.7,4.5,5.2,5.2c22.5,4.9,38.5,25.8,35.6,49
		c-2.7,22.1-22,38.4-44,38.7C217.9,169.9,217.8,184.9,227.6,184.8L227.6,184.8z"/>
	<line class="st2" x1="115" y1="166.4" x2="107.6" y2="147.2"/>
	<path class="st3" d="M122.2,164.4l-7.4-19.2c-1.4-3.8-5-6.4-9.2-5.2c-3.6,1-6.7,5.4-5.2,9.2l7.4,19.2c1.4,3.8,5,6.4,9.2,5.2
		C120.6,172.6,123.7,168.2,122.2,164.4z"/>
	<line class="st2" x1="131.4" y1="209.3" x2="124.1" y2="190.1"/>
	<path class="st3" d="M138.7,207.3l-7.4-19.2c-1.4-3.8-5-6.4-9.2-5.2c-3.6,1-6.7,5.4-5.2,9.2l7.4,19.2c1.4,3.8,5,6.4,9.2,5.2
		C137,215.5,140.1,211.1,138.7,207.3z"/>
	<line class="st2" x1="152.9" y1="166.4" x2="145.6" y2="147.2"/>
	<path class="st3" d="M160.2,164.4l-7.4-19.2c-1.4-3.8-5-6.4-9.2-5.2c-3.6,1-6.7,5.4-5.2,9.2l7.4,19.2c1.4,3.8,5,6.4,9.2,5.2
		C158.5,172.6,161.6,168.2,160.2,164.4z"/>
	<line class="st2" x1="169.4" y1="209.3" x2="162" y2="190.1"/>
	<path class="st3" d="M176.6,207.3l-7.4-19.2c-1.5-3.8-5-6.4-9.2-5.2c-3.6,1-6.7,5.4-5.2,9.2l7.4,19.2c1.5,3.8,5,6.4,9.2,5.2
		C175,215.5,178.1,211.1,176.6,207.3z"/>
	<line class="st2" x1="190.9" y1="166.4" x2="183.5" y2="147.2"/>
	<path class="st3" d="M198.1,164.4l-7.4-19.2c-1.5-3.8-5-6.4-9.2-5.2c-3.6,1-6.7,5.4-5.2,9.2l7.4,19.2c1.5,3.8,5,6.4,9.2,5.2
		C196.5,172.6,199.6,168.2,198.1,164.4z"/>
	<line class="st2" x1="207.4" y1="209.3" x2="200" y2="190.1"/>
	<path class="st3" d="M214.6,207.3l-7.4-19.2c-1.5-3.8-5-6.4-9.2-5.2c-3.6,1-6.7,5.4-5.2,9.2l7.4,19.2c1.5,3.8,5,6.4,9.2,5.2
		C213,215.5,216.1,211.1,214.6,207.3z"/>
</g>
</svg>
