<?xml version="1.0" encoding="utf-8"?>
<!-- Generator: Adobe Illustrator 24.3.0, SVG Export Plug-In . SVG Version: 6.00 Build 0)  -->
<svg version="1.1" id="Layer_1" xmlns="http://www.w3.org/2000/svg" xmlns:xlink="http://www.w3.org/1999/xlink" x="0px" y="0px"
	 viewBox="0 0 16 16" enable-background="new 0 0 16 16" xml:space="preserve">
<g id="XMLID_9_">
	<g>
		<path fill="#DCDDDC" d="M12.6,4.1C13.9,4.3,15,5.4,15,6.8c0,1.5-1.2,2.8-2.8,2.8H4.3C2.5,9.6,1,8.1,1,6.3S2.5,3,4.3,3
			C4.7,3,5.1,3,5.5,3.2c0.7-1.2,1.9-2,3.4-2C10.6,1.2,12.1,2.4,12.6,4.1z"/>
	</g>
	<g>
	</g>
</g>
<g id="XMLID_8_">
	<g>
	</g>
	<g>
		
			<path fill="none" stroke="#231714" stroke-width="0.65" stroke-linecap="round" stroke-linejoin="round" stroke-miterlimit="10" d="
			M12.2,9.6c1.5,0,2.8-1.2,2.8-2.8c0-1.4-1.1-2.6-2.4-2.8c-0.4-1.7-2-2.9-3.8-2.9c-1.4,0-2.7,0.8-3.4,2C5.1,3,4.7,3,4.3,3
			C2.5,3,1,4.4,1,6.3c0,1.8,1.4,3.3,3.2,3.3"/>
	</g>
</g>
<g>
	
		<line fill="none" stroke="#2BA4DD" stroke-width="0.7" stroke-linecap="round" stroke-miterlimit="10" x1="5.6" y1="8.6" x2="6.4" y2="10.1"/>
	
		<line fill="none" stroke="#2BA4DD" stroke-width="0.7" stroke-linecap="round" stroke-miterlimit="10" x1="9.8" y1="8.6" x2="10.7" y2="10.1"/>
	
		<line fill="none" stroke="#2BA4DD" stroke-width="0.7" stroke-linecap="round" stroke-miterlimit="10" x1="7.7" y1="8.6" x2="8.6" y2="10.1"/>
	
		<line fill="none" stroke="#2BA4DD" stroke-width="0.7" stroke-linecap="round" stroke-miterlimit="10" x1="6.7" y1="10.9" x2="7.5" y2="12.4"/>
	
		<line fill="none" stroke="#2BA4DD" stroke-width="0.7" stroke-linecap="round" stroke-miterlimit="10" x1="11" y1="10.9" x2="11.8" y2="12.4"/>
	
		<line fill="none" stroke="#2BA4DD" stroke-width="0.7" stroke-linecap="round" stroke-miterlimit="10" x1="8.9" y1="10.9" x2="9.7" y2="12.4"/>
	
		<line fill="none" stroke="#2BA4DD" stroke-width="0.7" stroke-linecap="round" stroke-miterlimit="10" x1="7.9" y1="13.3" x2="8.7" y2="14.8"/>
	
		<line fill="none" stroke="#2BA4DD" stroke-width="0.7" stroke-linecap="round" stroke-miterlimit="10" x1="12.2" y1="13.3" x2="13" y2="14.8"/>
	
		<line fill="none" stroke="#2BA4DD" stroke-width="0.7" stroke-linecap="round" stroke-miterlimit="10" x1="10.1" y1="13.3" x2="10.9" y2="14.8"/>
</g>
</svg>
