<?xml version="1.0" encoding="utf-8"?>
<!-- Generator: Adobe Illustrator 24.3.0, SVG Export Plug-In . SVG Version: 6.00 Build 0)  -->
<svg version="1.1" id="Layer_1" xmlns="http://www.w3.org/2000/svg" xmlns:xlink="http://www.w3.org/1999/xlink" x="0px" y="0px"
	 viewBox="0 0 344 345" style="enable-background:new 0 0 344 345;" xml:space="preserve">
<style type="text/css">
	.st0{fill:#DCDDDD;}
	.st1{fill:#231815;}
	.st2{fill:#F4EC90;}
	.st3{fill:#FFFFFF;}
	.st4{fill:#2EA7E0;}
</style>
<g id="图层_1">
	<path class="st0" d="M221.4,178.1c1.4,2.9,2.6,5.8,3.5,8.8c0.7,2.5,2.7,4.5,5.2,5.2c6.9,1.5,13.3,4.6,18.9,8.9
		c10,7.8,16.2,19.5,17,32.2c0.4,6.6-0.7,13.3-3.3,19.4c-7.1,16.4-23.1,27.1-40.9,27.3c-4.8,0.1-7.2,3.8-7.2,7.5H88.4
		c0-3.7-2.4-7.5-7.2-7.5c-24.5-0.3-46.4-16.6-52.8-40.4c-6.4-24,4.1-49.4,25.6-61.9c6.3-3.6,13.3-5.9,20.5-6.8
		c5.4-0.6,10.8-0.5,16.1,0.4c2.7,0.4,5.3,1.1,7.9,1.9c3.3,1,6.6-0.7,8.5-3.4c11.2-16.3,29-26.9,48.7-28.9c6.2-0.6,12.4-0.3,18.5,0.8
		l0.3,0.1C194.8,145.8,212.3,159.3,221.4,178.1z M187.2,283.7c3.6-1,6.7-5.4,5.2-9.2c-0.9-2.4-1.8-4.7-2.7-7.1l-4.7-12.1
		c-0.6-1.5-1.5-2.8-2.7-3.9c-1.8-1.5-4.2-2-6.5-1.4l-0.3,0.1c-3.5,1.1-6.4,5.4-5,9.1l2.1,5.5l5.2,13.7
		C179.4,282.2,183,284.8,187.2,283.7z M149.2,283.7c3.6-1,6.7-5.4,5.2-9.2l-6.9-17.9l-0.5-1.3c-1.4-3.8-5-6.4-9.2-5.2
		c-0.6,0.2-1.2,0.4-1.7,0.8c-2.8,1.7-4.7,5.3-3.5,8.5l7.4,19.2C141.4,282.2,145,284.8,149.2,283.7L149.2,283.7z M111.2,283.7
		c3.6-1,6.7-5.4,5.2-9.2c-2.5-6.4-4.9-12.8-7.4-19.2c-1.5-3.8-5.1-6.4-9.2-5.2c-3.6,1-6.7,5.4-5.2,9.2c2.5,6.4,4.9,12.8,7.4,19.2
		C103.5,282.2,107.1,284.8,111.2,283.7L111.2,283.7z"/>
	<path class="st1" d="M317,192.4c-2.8-3.7-5.7-7.3-8.5-11l-0.5-1.5c1.7-0.6,3.4-1.3,5-2c6.8-2.9,10.7,5.9,8.5,11
		c-8.9,20.5-22.9,38.4-40.7,52c0.6-6.2,0.1-12.4-1.3-18.4c7.7-7.2,14.5-15.3,20.1-24.3C305.6,196.7,311.4,194.8,317,192.4z"/>
	<path class="st1" d="M308.6,181.4c2.8,3.7,5.6,7.3,8.5,11c-5.6,2.4-11.4,4.3-17.4,5.8C303.1,192.8,306,187.2,308.6,181.4z"/>
	<path class="st1" d="M308,179.9l0.5,1.5c-2.5,5.8-5.5,11.5-8.9,16.8c-9.5,2.5-19.3,3.8-29.1,4.1c-4.2-6.2-9.6-11.5-15.8-15.7
		C272.8,188.4,291,186.2,308,179.9z"/>
	<path class="st1" d="M284.5,80.6c5.6-0.7-2,7,1.4,7.9l-0.6-0.2c-2.7-0.9-4.6-3.4-4.6-6.3c0.6-0.2,1.3-0.5,1.9-0.7
		C283.1,81,283.8,80.8,284.5,80.6z"/>
	<path class="st1" d="M289.9,74.1c9.3,2.7,5.3,17.1-4,14.5c-3.3-0.9,4.2-8.6-1.4-7.9c-0.7,0.2-1.4,0.4-2,0.7
		c-0.6,0.2-1.3,0.5-1.9,0.7C280.4,77.5,284.1,72.5,289.9,74.1z"/>
	<path class="st2" d="M270.5,202.3c9.8-0.2,19.6-1.6,29.1-4.1c-5.6,8.9-12.4,17.1-20.1,24.3C277.8,215.3,274.8,208.4,270.5,202.3z"
		/>
	<path class="st1" d="M280.6,242.6c-3.8,29.7-28.9,52-58.8,52.3c-4.9,0.1-7.3-3.7-7.2-7.5h7.2c24.2,0,45.2-16.8,50.5-40.5
		c2.9-1.9,5.7-3.9,8.5-6C280.8,241.5,280.7,242,280.6,242.6z"/>
	<path class="st1" d="M277.4,83.4c1-0.5,2.1-0.9,3.2-1.4c0,2.9,1.9,5.4,4.6,6.3c-3.4-1-6.6-2.3-9.8-4
		C276.1,84,276.8,83.7,277.4,83.4z"/>
	<path class="st1" d="M273,228.1c2.2-1.8,4.4-3.6,6.5-5.6c1.4,6,1.8,12.3,1.3,18.4c-2.7,2.1-5.6,4.1-8.5,6
		C273.7,240.8,273.9,234.4,273,228.1z"/>
	<path class="st1" d="M273,228.1c-1.4-9.6-5.5-18.5-11.7-25.9c3.1,0.1,6.1,0.2,9.2,0.1c4.2,6.1,7.3,13,9,20.2
		C277.4,224.4,275.3,226.3,273,228.1z"/>
	<path class="st1" d="M273.6,235.7c0,3.8-0.4,7.6-1.2,11.3c-3.1,2-6.3,3.9-9.6,5.7c2.6-6.1,3.7-12.7,3.3-19.4c2.4-1.6,4.7-3.3,7-5.1
		C273.4,230.6,273.6,233.1,273.6,235.7z"/>
	<path class="st1" d="M272.4,246.9c-5.3,23.7-26.3,40.5-50.5,40.5h-7.2c0-3.7,2.5-7.4,7.2-7.5c17.8-0.2,33.9-10.9,40.9-27.3
		C266,250.8,269.2,249,272.4,246.9z"/>
	<path class="st1" d="M273,228.1c-2.3,1.8-4.6,3.5-7,5.1c-0.8-12.7-7-24.4-17-32.2c4.1,0.6,8.1,0.9,12.2,1.1
		C267.5,209.6,271.6,218.5,273,228.1z"/>
	<path class="st1" d="M261.3,202.2c-7.5-8.8-17.8-14.9-29.1-17.2c-0.3-1.1-0.7-2.2-1.1-3.3c7.7,2.5,15.7,4.1,23.7,4.9
		c6.2,4.2,11.5,9.5,15.8,15.7C267.5,202.4,264.4,202.3,261.3,202.2z"/>
	<path class="st1" d="M256.1,56.8c-0.8,1.9-1.6,3.8-2.5,5.7c-1-1.8-1.9-3.8-2.6-5.7c-0.5-1.1-0.9-2.2-1.2-3.4
		c-0.1-0.5-0.3-0.9-0.4-1.4h8.3C257.7,53.4,256.6,55.5,256.1,56.8z"/>
	<path class="st1" d="M231.7,84.4c4,2.1,7.8,4.7,11.1,7.8c4.4,4,8,8.7,10.7,14c-1.5,2.8-3.3,6.2-3.7,9.2c-0.4,2.5-2.1,1.4,3.8,1.4
		c4.9,0,4.5,1,3.5-2.1c-0.7-2-1.4-3.9-2.3-5.8c-0.4-0.9-0.9-1.8-1.3-2.7l0.6-1.1c5-8.9,12.4-16.1,21.4-20.8c3.1,1.7,6.4,3,9.8,4
		l0.6,0.2c9.3,2.7,13.3-11.8,4-14.5c5.1,1.5,8.4,6.5,7.7,11.8c-0.7,5.3-4.5,7.7-9.1,9.3c-9.5,3.3-17.1,9.3-21.8,18.2
		c-2,3.7-2.4,8.4-5.2,11.7c-3,3.4-7.9,4.5-12.2,2.7c-5-2.1-5.7-6.5-7.4-11c-1.4-3.6-3.4-6.9-5.9-9.9c-2.9-3.4-6.3-6.3-10.2-8.5
		c-3.5-2-7.5-2.6-10.9-4.5c-4.3-2.4-6.5-7.4-5.2-12.2c1.2-4.5,4.7-6.5,8.8-7.8c8-2.5,14.9-7.6,19.6-14.6c4.5-6.8,5.2-19.3,15.8-18.9
		c9.9,0.4,10.6,12.3,14.9,18.9c5,7.4,12.4,12.7,21,15c-5.8-1.6-9.5,3.4-9.3,8c-1.1,0.4-2.1,0.9-3.2,1.4c-0.7,0.3-1.3,0.6-1.9,1
		c-9.3-4.9-17-12.5-21.9-21.9c0.9-1.9,1.8-3.8,2.5-5.7c0.5-1.3,1.6-3.3,1.6-4.7h-8.3c0.1,0.5,0.3,0.9,0.4,1.4
		c0.3,1.2,0.7,2.3,1.2,3.4c0.8,1.9,1.6,3.9,2.6,5.7c-0.6,1.2-1.3,2.4-2,3.6c-3.8,6-8.8,11.1-14.6,15.2c-1.7,1.2-3.4,2.2-5.3,3.1
		c-2.5-1.3-5.1-2.5-7.7-3.4c-0.9-0.4-1.8-0.7-2.7-0.8v4.1c-1.3,3.4-1.1,4.7,0.7,4c1.4,0,3.4-1.1,4.7-1.6
		C228.3,86,230,85.2,231.7,84.4z"/>
	<path class="st1" d="M254.8,108.9c0.9,1.9,1.6,3.8,2.3,5.8c1,3.1,1.3,2.1-3.5,2.1c-5.9,0-4.1,1.1-3.8-1.4c0.4-3,2.2-6.4,3.7-9.2
		C254,107.1,254.4,108,254.8,108.9z"/>
	<path class="st3" d="M267.5,89.5c-5.5,4.2-10,9.5-13.4,15.6l-0.6,1.1c-2.7-5.3-6.3-10-10.7-14c-3.4-3.1-7.1-5.7-11.1-7.8
		c1.8-0.9,3.6-2,5.3-3.1c5.8-4.1,10.8-9.2,14.6-15.2c0.7-1.2,1.4-2.4,2-3.6c4.9,9.3,12.6,17,21.9,21.9
		C272.7,85.8,270,87.6,267.5,89.5z"/>
	<path class="st1" d="M232.2,184.9c11.4,2.3,21.6,8.4,29.1,17.2c-4.1-0.2-8.2-0.6-12.2-1.1c-5.5-4.4-12-7.4-18.9-8.9
		c-2.5-0.7-4.5-2.7-5.2-5.2c-1-3-2.1-6-3.5-8.8c3.2,1.3,6.4,2.5,9.7,3.5C231.5,182.8,231.8,183.8,232.2,184.9z"/>
	<path class="st1" d="M239.4,183l-5.2-5.2c1.3,0.3,2.5,0.6,3.7,1C238.4,180.1,239,181.5,239.4,183z"/>
	<path class="st1" d="M223.9,81.1c2.7,0.9,5.3,2,7.8,3.3c-1.7,0.9-3.4,1.6-5.1,2.3c-1.3,0.5-3.3,1.7-4.7,1.6c-1.8,0.8-2-0.6-0.7-4
		v-4.1C222.1,80.4,223,80.7,223.9,81.1z"/>
	<path class="st4" d="M208.9,317.3c1.5,3.8-1.6,8.2-5.2,9.2c-4.2,1.1-7.8-1.5-9.2-5.2l-7.4-19.2c-1.5-3.8,1.6-8.2,5.2-9.2
		c4.2-1.1,7.8,1.5,9.2,5.2L208.9,317.3z"/>
	<path class="st1" d="M231.1,181.7c-3.3-1-6.5-2.2-9.7-3.5c-9.2-18.8-26.6-32.3-47.1-36.4c-2.1-2.7-4-5.5-5.8-8.4
		C197,136,221.3,154.8,231.1,181.7z"/>
	<path class="st4" d="M182.3,251.4c1.2,1,2.2,2.4,2.7,3.9l4.7,12.1c-2.8-0.2-5.6-0.6-8.4-1s-5.8-1-8.6-1.6l-2.1-5.5
		c-1.4-3.7,1.5-8,5-9.1C177.8,250.6,180,251,182.3,251.4z"/>
	<path class="st4" d="M172.7,264.8c2.9,0.6,5.7,1.2,8.6,1.6s5.6,0.8,8.4,1c0.9,2.3,1.8,4.7,2.7,7.1c1.5,3.8-1.6,8.2-5.2,9.2
		c-4.2,1.1-7.8-1.5-9.2-5.2L172.7,264.8z"/>
	<path class="st4" d="M175.8,250c2.3-0.7,4.7-0.1,6.5,1.4c-2.3-0.4-4.5-0.8-6.8-1.3L175.8,250z"/>
	<path class="st4" d="M170.9,317.3c1.5,3.8-1.6,8.2-5.2,9.2c-4.2,1.1-7.8-1.5-9.2-5.2c-2.4-6.4-4.9-12.8-7.4-19.2
		c-1.5-3.8,1.6-8.2,5.2-9.2c4.2-1.1,7.8,1.5,9.2,5.2L170.9,317.3z"/>
	<path class="st1" d="M168.5,133.4c1.8,2.9,3.7,5.6,5.8,8.4l-0.3-0.1c-6.1-1.2-12.3-1.5-18.5-0.8c-1.4-2.3-2.8-4.7-4-7
		c3.4-0.5,6.8-0.7,10.3-0.7C164.1,133.1,166.3,133.2,168.5,133.4z"/>
	<path class="st1" d="M164.1,125.7c4.2,0.1,8.4,0.5,12.5,1.2c28.1,5,51.2,25.4,61.3,51.7c-1.2-0.4-2.5-0.7-3.7-1l5.2,5.2
		c-0.5-1.4-1-2.9-1.5-4.3c6,1.7,11.7,4.4,16.9,7.9c-8-0.8-16-2.5-23.7-4.9c-9.7-26.9-34.1-45.7-62.5-48.3
		C167,130.8,165.5,128.3,164.1,125.7z"/>
	<path class="st1" d="M164.1,125.7c1.4,2.6,2.8,5.2,4.4,7.7c-2.2-0.2-4.5-0.3-6.8-0.3c-3.4,0-6.9,0.2-10.3,0.7
		c-1.2-2.3-2.3-4.5-3.4-6.9C153.4,126,158.7,125.6,164.1,125.7z"/>
	<path class="st1" d="M164.1,125.7c-5.4-0.1-10.8,0.3-16.1,1.2c-12.9-27.7-15.9-59-8.4-88.7c5.4-3.4,11-6.4,16.8-8.9l1.5,0.6
		C146.4,61.3,148.6,96.1,164.1,125.7z"/>
	<path class="st1" d="M149,16.4c5.1-2.2,13.9,1.6,11,8.5c-0.7,1.7-1.4,3.3-2,5l-1.5-0.6l-11-8.5l-1.1-2.4
		C145.9,17.8,147.4,17.1,149,16.4z"/>
	<path class="st1" d="M145.5,20.9l11,8.5c-5.8,2.5-11.5,5.5-16.8,8.9C141.2,32.3,143.1,26.5,145.5,20.9z"/>
	<path class="st1" d="M151.5,133.8c1.3,2.4,2.6,4.7,4,7c-19.7,2-37.5,12.6-48.7,28.9c-1.8,2.7-5.1,4.5-8.5,3.4
		c-2.6-0.8-5.2-1.4-7.9-1.9c-0.8-2.7-1.6-5.3-2.2-8c4.1,0.5,8.1,1.3,12.1,2.6C112,148.4,130.6,136.7,151.5,133.8z"/>
	<path class="st4" d="M147.1,255.3l0.5,1.3c-1.4-0.6-2.7-1.2-4.1-1.9c-2.5-1.2-5-2.5-7.4-3.9c0.5-0.3,1.1-0.6,1.7-0.8
		C142,248.9,145.6,251.5,147.1,255.3z"/>
	<path class="st4" d="M136.1,250.8c2.4,1.4,4.9,2.7,7.4,3.9c1.3,0.6,2.7,1.3,4.1,1.9l6.9,17.9c1.5,3.8-1.6,8.2-5.2,9.2
		c-4.2,1.1-7.8-1.5-9.2-5.2l-7.4-19.2C131.4,256.1,133.3,252.5,136.1,250.8z"/>
	<path class="st1" d="M144.4,18.5l1.1,2.4c-2.4,5.6-4.3,11.4-5.8,17.4C114.9,53.8,96.8,78,89,106.3c-4.3,16.2-5.1,33.1-2.2,49.5
		c-5.1-0.4-10.3-0.2-15.4,0.6C62.8,99.4,92.4,43.4,144.4,18.5L144.4,18.5z"/>
	<path class="st2" d="M139.7,38.3c-7.5,29.6-4.6,61,8.4,88.7c-20.1,3.6-38.1,14.4-50.7,30.5c-3.5-0.8-7.1-1.3-10.6-1.6
		c-2.9-16.5-2.1-33.4,2.2-49.5C96.8,78.1,114.9,53.8,139.7,38.3z"/>
	<path class="st4" d="M133,317.3c1.5,3.8-1.6,8.2-5.2,9.2c-4.2,1.1-7.8-1.5-9.2-5.2c-2.5-6.4-4.9-12.8-7.4-19.2
		c-1.5-3.8,1.6-8.2,5.2-9.2c4.2-1.1,7.8,1.5,9.2,5.2L133,317.3z"/>
	<path class="st4" d="M116.5,274.5c1.5,3.8-1.6,8.2-5.2,9.2c-4.2,1.1-7.8-1.5-9.2-5.2c-2.4-6.4-4.9-12.8-7.4-19.2
		c-1.5-3.8,1.6-8.2,5.2-9.2c4.2-1.1,7.8,1.5,9.2,5.2C111.6,261.7,114,268.1,116.5,274.5z"/>
	<path class="st1" d="M102.4,158.7l-8.5,3.4c1.1-1.6,2.3-3.2,3.5-4.8C99.1,157.8,100.7,158.2,102.4,158.7z"/>
	<path class="st1" d="M148.1,126.9c1.1,2.3,2.2,4.6,3.4,6.9c-20.9,2.9-39.5,14.7-51.1,32.2c-3.9-1.3-8-2.2-12.1-2.6
		c-0.6-2.5-1.1-5-1.6-7.5c3.6,0.3,7.1,0.8,10.6,1.6c-1.2,1.5-2.4,3.1-3.5,4.8l8.5-3.4c-1.7-0.5-3.3-0.9-5-1.3
		C109.9,141.3,128,130.5,148.1,126.9z"/>
	<path class="st1" d="M81.2,162.9c2.4,0,4.7,0.1,7.1,0.4c0.7,2.7,1.4,5.3,2.2,8c-5.3-0.9-10.7-1-16.1-0.4c-0.7-2.4-1.3-4.9-1.8-7.4
		C75.5,163.1,78.3,162.9,81.2,162.9z"/>
	<path class="st1" d="M71.4,156.4c5.1-0.7,10.2-0.9,15.4-0.6c0.4,2.5,1,5.1,1.6,7.5c-5.2-0.6-10.5-0.5-15.6,0.2
		C72.2,161.2,71.7,158.8,71.4,156.4z"/>
	<path class="st1" d="M81.2,279.9c4.8,0,7.2,3.8,7.2,7.5h-7.2c-34.4,0-62.2-27.9-62.2-62.2c0-31.1,22.9-57.4,53.7-61.6
		c0.5,2.5,1.1,4.9,1.8,7.4c-7.2,0.8-14.1,3.1-20.4,6.8c-21.5,12.5-31.9,37.8-25.6,61.8C34.8,263.3,56.7,279.6,81.2,279.9z"/>
	<path class="st1" d="M88.4,287.4c0,3.8-2.4,7.5-7.2,7.5c-17.6-0.1-34.5-6.8-47.4-18.6C10.5,254.9,5,219.2,20.1,191.5
		c10.6-19.1,29.6-32.1,51.3-35.1c0.4,2.4,0.8,4.8,1.3,7.2c-34,4.7-57.8,36.1-53.1,70.2c4.3,30.8,30.6,53.7,61.6,53.7H88.4z"/>
</g>
</svg>
