<?xml version="1.0" encoding="utf-8"?>
<!-- Generator: Adobe Illustrator 24.3.0, SVG Export Plug-In . SVG Version: 6.00 Build 0)  -->
<svg version="1.1" id="Layer_1" xmlns="http://www.w3.org/2000/svg" xmlns:xlink="http://www.w3.org/1999/xlink" x="0px" y="0px"
	 viewBox="0 0 16 16" enable-background="new 0 0 16 16" xml:space="preserve">
<g>
	<circle fill="#F6B42A" stroke="#231715" stroke-width="0.65" stroke-miterlimit="10" cx="9" cy="7.1" r="3.3"/>
	
		<line fill="none" stroke="#231715" stroke-width="0.65" stroke-linecap="round" stroke-miterlimit="10" x1="3.7" y1="4.1" x2="5.2" y2="4.9"/>
	
		<line fill="none" stroke="#231715" stroke-width="0.65" stroke-linecap="round" stroke-miterlimit="10" x1="6" y1="1.9" x2="6.7" y2="3.3"/>
	
		<line fill="none" stroke="#231715" stroke-width="0.65" stroke-linecap="round" stroke-miterlimit="10" x1="9" y1="1.1" x2="9" y2="2.7"/>
	
		<line fill="none" stroke="#231715" stroke-width="0.65" stroke-linecap="round" stroke-miterlimit="10" x1="12" y1="1.9" x2="11.2" y2="3.3"/>
	
		<line fill="none" stroke="#231715" stroke-width="0.65" stroke-linecap="round" stroke-miterlimit="10" x1="14.2" y1="4.1" x2="12.8" y2="4.9"/>
	
		<line fill="none" stroke="#231715" stroke-width="0.65" stroke-linecap="round" stroke-miterlimit="10" x1="15" y1="7.1" x2="13.4" y2="7.1"/>
	
		<line fill="none" stroke="#231715" stroke-width="0.65" stroke-linecap="round" stroke-miterlimit="10" x1="14.2" y1="10.1" x2="12.8" y2="9.3"/>
</g>
<g id="XMLID_9_">
	<g>
		<path fill="#DCDDDC" d="M11,8c1.2,0.2,2.1,1.2,2.1,2.4c0,1.3-1.1,2.4-2.4,2.4H3.9C2.3,12.7,1,11.4,1,9.9S2.3,7,3.9,7
			c0.3,0,0.7,0.1,1,0.2c0.6-1,1.7-1.7,2.9-1.7C9.3,5.5,10.6,6.5,11,8z"/>
	</g>
	<g>
	</g>
</g>
<g id="XMLID_8_">
	<g>
	</g>
	<g>
		
			<path fill="none" stroke="#231714" stroke-width="0.65" stroke-linecap="round" stroke-linejoin="round" stroke-miterlimit="10" d="
			M10.7,12.7c1.3,0,2.4-1.1,2.4-2.4c0-1.2-0.9-2.2-2.1-2.4c-0.4-1.4-1.7-2.5-3.2-2.5c-1.2,0-2.3,0.7-2.9,1.7C4.5,7,4.2,7,3.9,7
			C2.3,7,1,8.3,1,9.9c0,1.6,1.2,2.8,2.8,2.9"/>
	</g>
</g>
<g>
	
		<polygon fill="none" stroke="#30A5DD" stroke-width="0.4" stroke-linecap="round" stroke-linejoin="round" stroke-miterlimit="10" points="
		5.9,12.9 5.9,13.7 6.5,14.1 7.2,13.7 7.2,12.9 6.5,12.5 	"/>
	
		<line fill="none" stroke="#30A5DD" stroke-width="0.4" stroke-linecap="round" stroke-linejoin="round" stroke-miterlimit="10" x1="6.5" y1="12.5" x2="6.5" y2="11.7"/>
	
		<line fill="none" stroke="#30A5DD" stroke-width="0.4" stroke-linecap="round" stroke-linejoin="round" stroke-miterlimit="10" x1="6.5" y1="12.2" x2="6.2" y2="11.9"/>
	
		<line fill="none" stroke="#30A5DD" stroke-width="0.4" stroke-linecap="round" stroke-linejoin="round" stroke-miterlimit="10" x1="6.5" y1="12.2" x2="6.9" y2="11.9"/>
	
		<line fill="none" stroke="#30A5DD" stroke-width="0.4" stroke-linecap="round" stroke-linejoin="round" stroke-miterlimit="10" x1="7.2" y1="12.9" x2="7.9" y2="12.4"/>
	
		<line fill="none" stroke="#30A5DD" stroke-width="0.4" stroke-linecap="round" stroke-linejoin="round" stroke-miterlimit="10" x1="7.5" y1="12.7" x2="7.5" y2="12.2"/>
	
		<line fill="none" stroke="#30A5DD" stroke-width="0.4" stroke-linecap="round" stroke-linejoin="round" stroke-miterlimit="10" x1="7.5" y1="12.7" x2="8" y2="12.8"/>
	
		<line fill="none" stroke="#30A5DD" stroke-width="0.4" stroke-linecap="round" stroke-linejoin="round" stroke-miterlimit="10" x1="7.2" y1="13.7" x2="7.9" y2="14.1"/>
	
		<line fill="none" stroke="#30A5DD" stroke-width="0.4" stroke-linecap="round" stroke-linejoin="round" stroke-miterlimit="10" x1="7.5" y1="13.9" x2="8" y2="13.7"/>
	
		<line fill="none" stroke="#30A5DD" stroke-width="0.4" stroke-linecap="round" stroke-linejoin="round" stroke-miterlimit="10" x1="7.5" y1="13.9" x2="7.6" y2="14.4"/>
	
		<line fill="none" stroke="#30A5DD" stroke-width="0.4" stroke-linecap="round" stroke-linejoin="round" stroke-miterlimit="10" x1="6.5" y1="14.1" x2="6.5" y2="14.9"/>
	
		<line fill="none" stroke="#30A5DD" stroke-width="0.4" stroke-linecap="round" stroke-linejoin="round" stroke-miterlimit="10" x1="6.5" y1="14.5" x2="6.9" y2="14.8"/>
	
		<line fill="none" stroke="#30A5DD" stroke-width="0.4" stroke-linecap="round" stroke-linejoin="round" stroke-miterlimit="10" x1="6.5" y1="14.5" x2="6.2" y2="14.8"/>
	
		<line fill="none" stroke="#30A5DD" stroke-width="0.4" stroke-linecap="round" stroke-linejoin="round" stroke-miterlimit="10" x1="5.9" y1="13.7" x2="5.2" y2="14.2"/>
	
		<line fill="none" stroke="#30A5DD" stroke-width="0.4" stroke-linecap="round" stroke-linejoin="round" stroke-miterlimit="10" x1="5.6" y1="13.9" x2="5.6" y2="14.4"/>
	
		<line fill="none" stroke="#30A5DD" stroke-width="0.4" stroke-linecap="round" stroke-linejoin="round" stroke-miterlimit="10" x1="5.6" y1="13.9" x2="5.1" y2="13.8"/>
	
		<line fill="none" stroke="#30A5DD" stroke-width="0.4" stroke-linecap="round" stroke-linejoin="round" stroke-miterlimit="10" x1="5.9" y1="12.9" x2="5.2" y2="12.5"/>
	
		<line fill="none" stroke="#30A5DD" stroke-width="0.4" stroke-linecap="round" stroke-linejoin="round" stroke-miterlimit="10" x1="5.6" y1="12.7" x2="5.1" y2="12.9"/>
	
		<line fill="none" stroke="#30A5DD" stroke-width="0.4" stroke-linecap="round" stroke-linejoin="round" stroke-miterlimit="10" x1="5.6" y1="12.7" x2="5.5" y2="12.2"/>
</g>
</svg>
