<?xml version="1.0" encoding="utf-8"?>
<!-- Generator: Adobe Illustrator 24.3.0, SVG Export Plug-In . SVG Version: 6.00 Build 0)  -->
<svg version="1.1" id="Layer_1" xmlns="http://www.w3.org/2000/svg" xmlns:xlink="http://www.w3.org/1999/xlink" x="0px" y="0px"
	 viewBox="0 0 16 16" enable-background="new 0 0 16 16" xml:space="preserve">
<g>
	<g>
		<g id="XMLID_6_">
			<g>
				<path fill="#FFFFFF" d="M11.6,5.4c0-0.8-0.7-1.5-1.5-1.5c0.8,0,1.5-0.7,1.5-1.5c0,0.8,0.7,1.5,1.5,1.5
					C12.3,3.9,11.6,4.6,11.6,5.4z"/>
			</g>
			<g>
				<path fill="none" stroke="#231613" stroke-width="0.65" stroke-linecap="round" stroke-miterlimit="10" d="M10.1,3.9
					c0.8,0,1.5,0.7,1.5,1.5"/>
				<path fill="none" stroke="#231613" stroke-width="0.65" stroke-linecap="round" stroke-miterlimit="10" d="M11.6,5.4
					c0-0.8,0.7-1.5,1.5-1.5"/>
				<path fill="none" stroke="#231613" stroke-width="0.65" stroke-linecap="round" stroke-miterlimit="10" d="M13.1,3.9
					c-0.8,0-1.5-0.7-1.5-1.5"/>
				<path fill="none" stroke="#231613" stroke-width="0.65" stroke-linecap="round" stroke-miterlimit="10" d="M11.6,2.4
					c0,0.8-0.7,1.5-1.5,1.5"/>
			</g>
		</g>
	</g>
	<path fill="#F2EA8E" stroke="#231613" stroke-width="0.6" stroke-linejoin="round" stroke-miterlimit="10" d="M13.7,9.3
		C8.4,10.7,5.6,4.5,8,1C5,1.9,3.3,5,4.1,8c0.8,3.1,4,4.9,7,4.1c1.7-0.5,3.1-1.7,3.8-3.2C14.5,9,14.1,9.2,13.7,9.3z"/>
</g>
<g id="XMLID_9_">
	<g>
		<path fill="#DCDDDC" d="M7.5,6c1.5,0,2.7,1,3.1,2.4c1.1,0.1,2,1.1,2,2.3c0,1.3-1,2.3-2.3,2.3H3.8c-1.5,0-2.7-1.2-2.7-2.7
			s1.2-2.7,2.7-2.7c0.3,0,0.6,0.1,0.9,0.2C5.3,6.7,6.3,6,7.5,6z"/>
	</g>
	<g>
	</g>
</g>
<g id="XMLID_8_">
	<g>
	</g>
	<g>
		
			<path fill="none" stroke="#231714" stroke-width="0.65" stroke-linecap="round" stroke-linejoin="round" stroke-miterlimit="10" d="
			M10.3,12.9c1.3,0,2.3-1,2.3-2.3c0-1.2-0.9-2.1-2-2.3C10.2,7,9,6,7.5,6C6.3,6,5.3,6.7,4.8,7.6C4.5,7.5,4.1,7.4,3.8,7.4
			c-1.5,0-2.7,1.2-2.7,2.7c0,1.5,1.2,2.7,2.6,2.7"/>
	</g>
</g>
<g>
	
		<polygon fill="none" stroke="#30A5DD" stroke-width="0.4" stroke-linecap="round" stroke-linejoin="round" stroke-miterlimit="10" points="
		5.7,13.1 5.7,13.8 6.4,14.2 7,13.8 7,13.1 6.4,12.7 	"/>
	
		<line fill="none" stroke="#30A5DD" stroke-width="0.4" stroke-linecap="round" stroke-linejoin="round" stroke-miterlimit="10" x1="6.4" y1="12.7" x2="6.4" y2="11.9"/>
	
		<line fill="none" stroke="#30A5DD" stroke-width="0.4" stroke-linecap="round" stroke-linejoin="round" stroke-miterlimit="10" x1="6.4" y1="12.4" x2="6" y2="12.1"/>
	
		<line fill="none" stroke="#30A5DD" stroke-width="0.4" stroke-linecap="round" stroke-linejoin="round" stroke-miterlimit="10" x1="6.4" y1="12.4" x2="6.7" y2="12.1"/>
	
		<line fill="none" stroke="#30A5DD" stroke-width="0.4" stroke-linecap="round" stroke-linejoin="round" stroke-miterlimit="10" x1="7" y1="13.1" x2="7.6" y2="12.6"/>
	
		<line fill="none" stroke="#30A5DD" stroke-width="0.4" stroke-linecap="round" stroke-linejoin="round" stroke-miterlimit="10" x1="7.3" y1="12.9" x2="7.3" y2="12.4"/>
	
		<line fill="none" stroke="#30A5DD" stroke-width="0.4" stroke-linecap="round" stroke-linejoin="round" stroke-miterlimit="10" x1="7.3" y1="12.9" x2="7.7" y2="13"/>
	
		<line fill="none" stroke="#30A5DD" stroke-width="0.4" stroke-linecap="round" stroke-linejoin="round" stroke-miterlimit="10" x1="7" y1="13.8" x2="7.7" y2="14.2"/>
	
		<line fill="none" stroke="#30A5DD" stroke-width="0.4" stroke-linecap="round" stroke-linejoin="round" stroke-miterlimit="10" x1="7.3" y1="14" x2="7.8" y2="13.8"/>
	
		<line fill="none" stroke="#30A5DD" stroke-width="0.4" stroke-linecap="round" stroke-linejoin="round" stroke-miterlimit="10" x1="7.3" y1="14" x2="7.4" y2="14.5"/>
	
		<line fill="none" stroke="#30A5DD" stroke-width="0.4" stroke-linecap="round" stroke-linejoin="round" stroke-miterlimit="10" x1="6.4" y1="14.2" x2="6.4" y2="15"/>
	
		<line fill="none" stroke="#30A5DD" stroke-width="0.4" stroke-linecap="round" stroke-linejoin="round" stroke-miterlimit="10" x1="6.4" y1="14.6" x2="6.7" y2="14.8"/>
	
		<line fill="none" stroke="#30A5DD" stroke-width="0.4" stroke-linecap="round" stroke-linejoin="round" stroke-miterlimit="10" x1="6.4" y1="14.6" x2="6" y2="14.8"/>
	
		<line fill="none" stroke="#30A5DD" stroke-width="0.4" stroke-linecap="round" stroke-linejoin="round" stroke-miterlimit="10" x1="5.7" y1="13.8" x2="5.1" y2="14.4"/>
	
		<line fill="none" stroke="#30A5DD" stroke-width="0.4" stroke-linecap="round" stroke-linejoin="round" stroke-miterlimit="10" x1="5.5" y1="14.1" x2="5.5" y2="14.5"/>
	
		<line fill="none" stroke="#30A5DD" stroke-width="0.4" stroke-linecap="round" stroke-linejoin="round" stroke-miterlimit="10" x1="5.5" y1="14.1" x2="5" y2="14"/>
	
		<line fill="none" stroke="#30A5DD" stroke-width="0.4" stroke-linecap="round" stroke-linejoin="round" stroke-miterlimit="10" x1="5.8" y1="13.1" x2="5.1" y2="12.7"/>
	
		<line fill="none" stroke="#30A5DD" stroke-width="0.4" stroke-linecap="round" stroke-linejoin="round" stroke-miterlimit="10" x1="5.4" y1="12.9" x2="5" y2="13.1"/>
	
		<line fill="none" stroke="#30A5DD" stroke-width="0.4" stroke-linecap="round" stroke-linejoin="round" stroke-miterlimit="10" x1="5.4" y1="12.9" x2="5.4" y2="12.5"/>
</g>
</svg>
