<?xml version="1.0" encoding="utf-8"?>
<!-- Generator: Adobe Illustrator 24.3.0, SVG Export Plug-In . SVG Version: 6.00 Build 0)  -->
<svg version="1.1" id="Layer_1" xmlns="http://www.w3.org/2000/svg" xmlns:xlink="http://www.w3.org/1999/xlink" x="0px" y="0px"
	 viewBox="0 0 342 363" style="enable-background:new 0 0 342 363;" xml:space="preserve">
<style type="text/css">
	.st0{fill:#FFFFFF;}
	.st1{fill:#231815;}
	.st2{fill:#F4EC90;}
	.st3{fill:#2EA7E0;}
</style>
<g id="图层_1">
	<path class="st0" d="M257.6,65.6c-0.6,1.2-1.3,2.4-2,3.6c-3.8,6-8.8,11.1-14.6,15.2c-1.7,1.2-3.4,2.2-5.3,3.2
		c4,2.1,7.8,4.7,11.1,7.8c4.4,4,8,8.7,10.7,14l0.6-1.1c3.4-6.1,7.9-11.4,13.4-15.6c2.5-2,5.2-3.7,8-5.2
		C270.2,82.5,262.5,74.9,257.6,65.6z"/>
	<path class="st1" d="M288.5,83.7c-0.7,0.2-1.4,0.4-2,0.7c-0.6,0.2-1.3,0.5-1.9,0.7c0.1,3.1,2.2,5.8,5.3,6.5
		C286.6,90.7,294.1,83.1,288.5,83.7z"/>
	<path class="st1" d="M284.6,85.1c-1.1,0.4-2.1,0.9-3.2,1.4c-0.7,0.3-1.3,0.6-1.9,1c3.3,1.8,6.8,3.2,10.4,4.2
		C286.8,91,284.6,88.3,284.6,85.1z"/>
	<path class="st1" d="M284.6,85.1c0.6-0.2,1.3-0.5,1.9-0.7c0.6-0.3,1.3-0.5,2-0.7c5.6-0.7-2,7,1.4,7.9c9.3,2.7,13.3-11.8,4-14.5
		C288.1,75.6,284.4,80.6,284.6,85.1z"/>
	<path class="st1" d="M261.7,55.1h-8.3l0.4,1.4c0.3,1.2,0.7,2.3,1.2,3.4c0.8,2,1.6,3.9,2.6,5.7c0.9-1.9,1.8-3.8,2.5-5.7
		C260.6,58.6,261.7,56.5,261.7,55.1z"/>
	<path class="st1" d="M225.2,83.3v4.1c-1.3,3.4-1.1,4.7,0.7,4c1.4,0,3.4-1.1,4.7-1.6c1.7-0.7,3.4-1.5,5.1-2.3
		c-2.5-1.3-5.1-2.4-7.8-3.3C227,83.8,226.1,83.5,225.2,83.3z"/>
	<path class="st1" d="M149.5,24c-2.3,5.6-4.3,11.4-5.8,17.4c5.4-3.4,11-6.4,16.8-8.9L149.5,24z"/>
	<path class="st0" d="M197,287.5c1.1,0.7,2.4,1.1,3.7,1.1v1.9h-17.4v-7.3c1-0.6,2-1.2,3-1.7c0.8,0.4,1.5,0.8,2.2,1.2L197,287.5z"/>
	<path class="st0" d="M168.4,289v1.5h-24.8v-6.4l0.7-0.4l4.1-2.4l3.4-2l4.1-2.4l0.1-0.1l4,2.4l3.3,1.9l4.2,2.4l0.8,0.5L168.4,289z"
		/>
	<path class="st0" d="M128.5,290.5H111v-1.9c1.3,0,2.6-0.4,3.8-1.1l8.4-4.9c0.6-0.4,1.4-0.8,2.2-1.2l3.2,1.9L128.5,290.5z"/>
	<path class="st0" d="M225.4,181.2c1.4,2.8,2.6,5.8,3.5,8.8c0.7,2.5,2.7,4.5,5.2,5.2c6.9,1.5,13.3,4.5,18.9,8.8
		c10,7.8,16.2,19.5,17,32.2c0.2,2.7,0.1,5.3-0.2,8c-0.5,3.9-1.5,7.8-3,11.4c-7.1,16.4-23.1,27.1-40.9,27.3c-4.8,0.1-7.2,3.8-7.2,7.5
		h-17.9v-1.9c6.6,0,10.9-9.9,3.8-14l-3.1-1.8l3-1.7l1.9-1.1c6.8-3.9,3.1-13.1-3-14c-0.5-0.1-1-0.1-1.5,0c-1.1,0.1-2.1,0.5-3.1,1
		l-4.8,2.8c0-1.2,0-2.4,0-3.6c0-0.2,0-0.5,0-0.7c-0.6-7.9-11.8-8.7-14.4-2.3c-0.4,1-0.6,2-0.5,3c0,3.3,0,6.5,0,9.8
		c0,0.7,0,1.6-0.1,2.4v0.1l-3.9,2.2l-6.2-3.5c-1-0.6-2.2-1.4-3.5-2.2c-0.6-0.4-1.3-0.9-2-1.3v-4.1c0.8-0.5,1.5-1,2.2-1.4l8.5-4.9
		c0.5-0.3,1-0.6,1.4-1c5.9-5.4-1.2-16.4-9-11.9l-3.1,1.8v-5.3c0-9.6-15-9.7-15,0v5.3l-3.1-1.8c-7.2-4.1-13.8,4.9-10.2,10.5
		c0.7,1,1.5,1.8,2.6,2.4l8.5,4.9c0.7,0.4,1.4,0.9,2.2,1.4v4.2c-1.8,1.1-3.4,2.3-4.9,3.1l-6.7,3.9l-3.9-2.3c0-0.9-0.1-1.7-0.1-2.5
		c0-3.3,0-6.5,0-9.8c0-9.7-15-9.7-15,0c0,1.2,0,2.4,0,3.6L113,257c-8.4-4.8-15.9,8.1-7.6,13l4.8,2.8l-3.1,1.8
		c-7.1,4.1-2.7,14,3.8,14v1.9H92.4c0-3.7-2.4-7.4-7.2-7.5c-24.5-0.3-46.4-16.6-52.8-40.4c-6.3-24,4.2-49.3,25.6-61.8
		c6.3-3.6,13.3-5.9,20.5-6.8c5.4-0.6,10.8-0.5,16.1,0.4c2.7,0.4,5.3,1.1,7.9,1.9c3.3,1,6.6-0.7,8.5-3.4c11.2-16.3,29-26.9,48.7-28.9
		c6.2-0.6,12.4-0.3,18.5,0.8c0.1,0,0.2,0,0.3,0.1C198.8,148.9,216.3,162.4,225.4,181.2z"/>
	<path class="st1" d="M321,195.5c-2.8-3.7-5.6-7.3-8.5-11L312,183c1.7-0.6,3.4-1.3,5-2c6.8-2.8,10.7,5.9,8.5,11
		c-8.9,20.5-22.9,38.4-40.7,52c0.6-6.2,0.1-12.4-1.3-18.4c7.7-7.2,14.5-15.3,20.1-24.3C309.6,199.8,315.4,197.8,321,195.5z"/>
	<path class="st1" d="M312.5,184.5c2.8,3.7,5.7,7.3,8.5,11c-5.6,2.3-11.4,4.3-17.4,5.8C307.1,195.9,310,190.3,312.5,184.5z"/>
	<path class="st1" d="M312,183l0.6,1.5c-2.5,5.8-5.5,11.5-8.9,16.8c-9.5,2.5-19.3,3.8-29.1,4.1c-4.2-6.2-9.6-11.5-15.8-15.7
		C276.8,191.5,295,189.2,312,183z"/>
	<path class="st2" d="M283.5,225.6c-1.7-7.2-4.8-14.1-9-20.2c9.8-0.2,19.6-1.6,29.1-4.1C298.1,210.3,291.3,218.4,283.5,225.6z"/>
	<path class="st1" d="M276.4,250c2.9-1.9,5.7-3.9,8.5-6c-0.1,0.5-0.1,1.1-0.2,1.6c-3.8,29.7-28.9,52-58.8,52.3
		c-4.9,0.1-7.3-3.7-7.2-7.5h7.2C250.1,290.5,271.1,273.7,276.4,250z"/>
	<path class="st1" d="M277,231.2c2.2-1.8,4.4-3.6,6.5-5.6c1.4,6,1.8,12.3,1.3,18.4c-2.7,2.1-5.6,4.1-8.5,6c0.8-3.7,1.2-7.5,1.2-11.3
		C277.6,236.2,277.4,233.7,277,231.2z"/>
	<path class="st1" d="M283.5,225.6c-2.1,1.9-4.3,3.8-6.5,5.6c-1.4-9.6-5.5-18.5-11.7-25.9c3.1,0.1,6.1,0.2,9.2,0.1
		C278.8,211.5,281.8,218.4,283.5,225.6z"/>
	<path class="st1" d="M277.6,238.8c0,3.8-0.4,7.6-1.2,11.3c-3.1,2-6.3,3.9-9.6,5.7c1.5-3.6,2.6-7.5,3-11.4c0.3-2.7,0.4-5.3,0.2-8
		c2.4-1.6,4.7-3.3,7-5.1C277.4,233.7,277.6,236.2,277.6,238.8z"/>
	<path class="st1" d="M266.8,255.7c3.3-1.8,6.5-3.7,9.6-5.7c-5.3,23.7-26.3,40.5-50.5,40.5h-7.2c0-3.7,2.5-7.4,7.2-7.5
		C243.7,282.8,259.7,272.1,266.8,255.7z"/>
	<path class="st1" d="M265.3,205.3c6.3,7.4,10.3,16.3,11.7,25.9c-2.3,1.8-4.6,3.5-7,5.1c-0.8-12.7-7-24.4-17-32.2
		C257.1,204.7,261.2,205.1,265.3,205.3z"/>
	<path class="st1" d="M258.8,189.7c6.2,4.2,11.5,9.5,15.8,15.7c-3.1,0.1-6.1,0-9.2-0.1c-7.5-8.8-17.8-14.9-29.1-17.2
		c-0.3-1.1-0.7-2.2-1.1-3.3C242.8,187.2,250.7,188.9,258.8,189.7z"/>
	<path class="st1" d="M257.5,119.8c4.9,0,4.5,1,3.5-2.1c-0.7-2-1.4-3.9-2.3-5.8c-0.4-0.9-0.9-1.8-1.3-2.7l0.6-1.1
		c3.4-6.1,7.9-11.4,13.4-15.6c2.5-2,5.2-3.7,8-5.2c3.3,1.8,6.8,3.2,10.4,4.2c9.3,2.7,13.3-11.8,4-14.5c5.1,1.4,8.4,6.5,7.7,11.8
		c-0.7,5.3-4.5,7.7-9.1,9.3c-9.5,3.3-17.1,9.3-21.8,18.2c-2,3.7-2.4,8.4-5.2,11.7c-3,3.4-7.9,4.5-12.2,2.7c-5-2.1-5.7-6.5-7.4-11
		c-1.4-3.6-3.4-6.9-5.9-9.9c-2.9-3.4-6.3-6.3-10.2-8.5c-3.5-2-7.5-2.6-10.9-4.5c-4.3-2.4-6.5-7.4-5.2-12.2c1.2-4.5,4.7-6.5,8.8-7.9
		c8-2.5,14.9-7.7,19.7-14.6c4.5-6.8,5.2-19.3,15.8-18.9c9.9,0.4,10.6,12.3,14.9,18.9c5,7.4,12.4,12.7,21,15c-5.8-1.6-9.5,3.4-9.3,8
		c-1.1,0.4-2.1,0.9-3.2,1.3c-0.7,0.3-1.3,0.6-1.9,1c-9.3-4.9-17-12.5-21.9-21.9c0.9-1.9,1.8-3.8,2.5-5.7c0.5-1.3,1.6-3.3,1.6-4.7
		h-8.3c0.1,0.5,0.3,0.9,0.4,1.4c0.3,1.2,0.7,2.3,1.2,3.3c0.8,2,1.6,3.9,2.6,5.7c-0.6,1.2-1.3,2.4-2,3.6c-3.8,6-8.8,11.1-14.6,15.2
		c-1.7,1.2-3.4,2.2-5.3,3.2c-2.5-1.3-5.1-2.4-7.8-3.3c-0.9-0.4-1.8-0.7-2.7-0.8v4.1c-1.3,3.4-1.1,4.7,0.7,4c1.4,0,3.4-1.1,4.7-1.6
		c1.7-0.7,3.4-1.5,5.1-2.3c4,2.1,7.8,4.7,11.1,7.8c4.4,4,8,8.7,10.7,14c-1.5,2.8-3.3,6.2-3.7,9.2C253.4,121,251.6,119.8,257.5,119.8
		z"/>
	<path class="st1" d="M261.1,117.8c1,3.1,1.3,2.1-3.5,2.1c-5.9,0-4.1,1.1-3.8-1.4c0.4-3,2.2-6.4,3.7-9.2c0.5,0.9,0.9,1.8,1.3,2.7
		C259.7,113.9,260.4,115.8,261.1,117.8z"/>
	<path class="st1" d="M236.2,188c11.4,2.3,21.6,8.4,29.1,17.2c-4.1-0.2-8.2-0.6-12.2-1.1c-5.5-4.4-12-7.4-18.9-8.9
		c-2.5-0.7-4.5-2.7-5.2-5.2c-1-3-2.1-6-3.5-8.8c3.2,1.3,6.4,2.5,9.7,3.6C235.5,185.8,235.8,186.9,236.2,188z"/>
	<path class="st1" d="M243.4,186.1l-5.2-5.2c1.3,0.3,2.5,0.6,3.7,1C242.4,183.2,243,184.6,243.4,186.1z"/>
	<path class="st1" d="M241.9,181.8c6,1.7,11.7,4.4,16.9,7.9c-8-0.8-16-2.5-23.7-4.9c-9.7-26.9-34.1-45.7-62.5-48.3
		c-1.6-2.5-3-5.1-4.4-7.7c4.2,0.1,8.4,0.5,12.5,1.2C208.7,135,231.9,155.4,241.9,181.8c-1.2-0.4-2.5-0.7-3.7-1l5.2,5.2
		C243,184.6,242.4,183.2,241.9,181.8z"/>
	<path class="st1" d="M235.1,184.8c-3.3-1-6.5-2.2-9.7-3.6c-9.2-18.8-26.6-32.3-47.1-36.4c-2.1-2.7-4-5.5-5.8-8.4
		C201,139.1,225.3,157.9,235.1,184.8z"/>
	<path class="st3" d="M203.3,256c6.1,0.8,9.7,10,3,14l-1.9,1.1l-3,1.7l3.1,1.8c7.1,4.1,2.8,14-3.8,14c-1.3,0-2.6-0.4-3.8-1.1
		l-8.4-4.9c-0.7-0.4-1.4-0.8-2.2-1.2c-1,0.6-2,1.1-3,1.7v7.3h-15v-6.4l-0.8-0.5l-4.2-2.4l-3.4-1.9l-4-2.4l-0.1,0.1l-4.1,2.4l-3.4,2
		l-4.1,2.4l-0.7,0.4v6.4h-15v-7.2l-3.2-1.9c-0.8,0.4-1.5,0.8-2.2,1.2l-8.4,4.9c-1.1,0.7-2.4,1.1-3.8,1.1c-6.6,0-10.9-9.9-3.8-14
		l3.1-1.8l-4.8-2.8c-8.4-4.8-0.8-17.8,7.6-13l4.8,2.8c0-1.2,0-2.4,0-3.6c0-9.7,15-9.7,15,0c0,3.3,0,6.5,0,9.8c0,0.8,0,1.6,0.1,2.5
		l3.9,2.3l6.7-3.9c1.4-0.8,3.1-2,4.9-3.1v-4.2c-0.8-0.5-1.5-1-2.2-1.4l-8.5-4.9c-1-0.6-1.9-1.4-2.6-2.4c-3.7-5.7,2.9-14.7,10.2-10.5
		l3.1,1.8v-5.3c0-9.7,15-9.6,15,0v5.3l3.1-1.8c7.8-4.5,14.9,6.5,9,11.9c-0.4,0.4-0.9,0.8-1.4,1l-8.5,4.8c-0.7,0.4-1.4,0.9-2.2,1.4
		v4.1c0.7,0.4,1.3,0.8,2,1.3c1.3,0.8,2.5,1.6,3.5,2.2l6.2,3.6l3.8-2.2v-0.1c0-0.9,0.1-1.7,0.1-2.4c0-3.3,0-6.5,0-9.8
		c0-1,0.2-2,0.5-3c2.6-6.4,13.8-5.6,14.4,2.3c0,0.2,0,0.4,0,0.7c0,1.2,0,2.4,0,3.6l4.8-2.8c0.9-0.5,2-0.9,3.1-1
		C202.3,255.9,202.8,255.9,203.3,256z"/>
	<path class="st3" d="M206.1,310.7c8.4,4.8,0.8,17.8-7.6,13l-4.6-2.6c0,1.2,0,2.4,0,3.6c0,9.7-15,9.6-15,0c0-3.3,0-6.5,0-9.8
		c0-0.8,0-1.6-0.1-2.5l-2.3-1.3l-8.2,4.7c-1.5,0.9-3.2,2.1-5.1,3.2v2.3c0.8,0.5,1.5,1,2.2,1.3l8.5,4.9c8.4,4.8,0.8,17.8-7.6,13
		l-3.1-1.8v5.5c0,9.7-15,9.6-15,0v-5.5l-3.1,1.8c-8.4,4.8-15.9-8.1-7.6-13l8.5-4.9c0.7-0.4,1.4-0.9,2.2-1.3v-2.4
		c-1.9-1.2-3.8-2.5-5.3-3.4l-7.9-4.5l-2.4,1.4c0,0.9-0.1,1.8-0.1,2.5c0,3.3,0,6.5,0,9.8c0,9.7-15,9.6-15,0c0-1.2,0-2.4,0-3.6
		l-4.6,2.6c-8.4,4.8-15.9-8.1-7.6-13l4.6-2.7l-3.1-1.8c-7.1-4.1-2.7-14,3.8-14c1.3,0,2.6,0.4,3.7,1.1l8.4,4.9
		c0.7,0.4,1.4,0.8,2.2,1.2l3.2-1.9v-7h15v8l4.8,2.8l1.8,1.1l5.7,3.3h0.1l5.7-3.3l1.7-1l5-2.9v-8h15v7.1l3,1.7
		c0.8-0.4,1.5-0.8,2.2-1.2l8.4-4.9c1.1-0.7,2.4-1.1,3.7-1.1c6.6,0,10.9,9.9,3.8,14l-3.1,1.8L206.1,310.7z"/>
	<path class="st1" d="M172.5,136.5c1.8,2.9,3.7,5.6,5.8,8.4c-0.1,0-0.2,0-0.3-0.1c-6.1-1.2-12.3-1.5-18.5-0.8
		c-1.4-2.3-2.8-4.7-4.1-7.1c3.4-0.5,6.8-0.7,10.3-0.7C168,136.1,170.3,136.2,172.5,136.5z"/>
	<path class="st1" d="M152.1,130c5.3-0.9,10.6-1.3,16-1.2c1.4,2.6,2.8,5.2,4.4,7.7c-2.2-0.2-4.5-0.3-6.8-0.3
		c-3.4,0-6.9,0.2-10.3,0.7C154.3,134.6,153.1,132.3,152.1,130z"/>
	<path class="st1" d="M168.1,128.8c-5.4-0.1-10.7,0.3-16,1.2c-12.9-27.7-15.9-59-8.4-88.7c5.4-3.4,11-6.4,16.8-8.9L162,33
		C150.5,64.4,152.7,99.1,168.1,128.8z"/>
	<path class="st1" d="M152.9,19.5c5.1-2.2,13.9,1.6,11,8.5c-0.7,1.7-1.4,3.3-2,5l-1.5-0.6l-11-8.5l-1.1-2.4
		C149.9,20.9,151.4,20.2,152.9,19.5z"/>
	<path class="st1" d="M104.4,169.1c11.7-17.5,30.3-29.3,51.1-32.2c1.3,2.4,2.6,4.7,4.1,7.1c-19.7,2-37.5,12.6-48.7,28.9
		c-1.8,2.7-5.1,4.5-8.5,3.4c-2.6-0.8-5.2-1.4-7.9-1.9c-0.8-2.7-1.6-5.3-2.2-8C96.4,167,100.5,167.8,104.4,169.1z"/>
	<path class="st1" d="M148.4,21.6l1.1,2.4c-2.4,5.6-4.3,11.4-5.8,17.4c-24.8,15.5-42.9,39.8-50.7,68c-4.3,16.2-5.1,33.1-2.2,49.6
		c-5.1-0.4-10.3-0.2-15.4,0.6C66.8,102.5,96.4,46.5,148.4,21.6L148.4,21.6z"/>
	<path class="st2" d="M143.7,41.4c-7.5,29.6-4.6,61,8.4,88.7c-20.1,3.6-38.1,14.4-50.7,30.5c-3.5-0.8-7.1-1.3-10.6-1.6
		c-2.9-16.5-2.1-33.4,2.2-49.5C100.8,81.1,118.9,56.9,143.7,41.4z"/>
	<path class="st1" d="M106.4,161.8l-8.5,3.4c1.1-1.6,2.3-3.2,3.5-4.8C103.1,160.9,104.7,161.3,106.4,161.8z"/>
	<path class="st1" d="M152.1,130c1.1,2.3,2.2,4.6,3.4,6.9c-20.9,2.9-39.5,14.7-51.1,32.2c-3.9-1.3-8-2.1-12.1-2.6
		c-0.6-2.5-1.1-5-1.6-7.5c3.6,0.3,7.1,0.8,10.6,1.6c-1.2,1.5-2.4,3.1-3.5,4.8l8.5-3.4c-1.6-0.5-3.3-0.9-5-1.3
		C113.9,144.5,132,133.6,152.1,130z"/>
	<path class="st1" d="M85.2,166c2.4,0,4.8,0.1,7.1,0.4c0.7,2.7,1.4,5.3,2.2,8c-5.3-0.9-10.7-1-16.1-0.4c-0.7-2.4-1.3-4.9-1.8-7.4
		C79.5,166.2,82.3,166,85.2,166z"/>
	<path class="st1" d="M90.8,158.9c0.4,2.5,1,5,1.6,7.5c-2.4-0.3-4.7-0.4-7.1-0.4c-2.9,0-5.7,0.2-8.5,0.6c-0.5-2.4-0.9-4.8-1.3-7.2
		C80.5,158.7,85.6,158.5,90.8,158.9z"/>
	<path class="st1" d="M23,228.3c0-31.1,22.9-57.4,53.7-61.6c0.5,2.5,1.1,5,1.8,7.4c-7.2,0.8-14.2,3.1-20.5,6.8
		c-21.5,12.5-31.9,37.8-25.6,61.8c6.5,23.8,28.3,40.1,52.8,40.4c4.8,0.1,7.2,3.8,7.2,7.5h-7.2C50.9,290.5,23,262.6,23,228.3
		C23,228.3,23,228.3,23,228.3z"/>
	<path class="st1" d="M75.4,159.5c0.4,2.4,0.8,4.8,1.3,7.2c-34,4.7-57.8,36.1-53.1,70.2c4.3,30.8,30.6,53.7,61.6,53.7h7.2
		c0,3.8-2.4,7.6-7.2,7.5c-17.6-0.1-34.5-6.7-47.4-18.6C14.5,258,9,222.3,24.1,194.6C34.8,175.5,53.7,162.5,75.4,159.5z"/>
</g>
</svg>
