<?xml version="1.0" encoding="utf-8"?>
<!-- Generator: Adobe Illustrator 24.3.0, SVG Export Plug-In . SVG Version: 6.00 Build 0)  -->
<svg version="1.1" id="Layer_1" xmlns="http://www.w3.org/2000/svg" xmlns:xlink="http://www.w3.org/1999/xlink" x="0px" y="0px"
	 viewBox="0 0 370 395" style="enable-background:new 0 0 370 395;" xml:space="preserve">
<style type="text/css">
	.st0{fill:#231815;}
	.st1{fill:#FFFFFF;}
	.st2{fill:#2EA7E0;}
	.st3{fill:#F8B62D;}
</style>
<g id="图层_1">
	<path class="st0" d="M184.1,51.8V18.1c0-9.7-15-9.7-15,0v33.7C169.1,61.4,184.1,61.5,184.1,51.8z M176.6,18.1L176.6,18.1z"/>
	<path class="st0" d="M107.7,72.3c4.8,8.4,17.8,0.8,13-7.6l-16.9-29.2c-4.8-8.4-17.8-0.8-13,7.6L107.7,72.3z M114.1,68.5L97.3,39.4
		L114.1,68.5z"/>
	<path class="st0" d="M18.1,184.1h33.7c9.7,0,9.7-15,0-15H18.1C8.4,169.1,8.4,184.1,18.1,184.1z M51.7,176.6L51.7,176.6z"/>
	<path class="st0" d="M245.5,72.3l16.8-29.2c4.8-8.4-8.1-15.9-13-7.6l-16.8,29.2C227.7,73.1,240.6,80.7,245.5,72.3z M255.8,39.4
		L239,68.5L255.8,39.4z"/>
	<path class="st1" d="M267.1,322.4h-17.4V315l3-1.7c0.8,0.4,1.5,0.8,2.2,1.2l8.5,4.9c1.1,0.7,2.4,1.1,3.7,1.1L267.1,322.4z"/>
	<path class="st1" d="M181.1,319.4l8.4-4.9c0.7-0.4,1.4-0.8,2.2-1.2l3.2,1.9v7.2h-17.6v-1.9C178.6,320.4,179.9,320.1,181.1,319.4z"
		/>
	<path class="st1" d="M234.7,320.8v1.5h-24.9V315l4.8-2.8l2.6-1.5l4.9-2.8l0.1-0.1l4.9,2.8l2.5,1.4c1.7,1,3.3,1.9,5,2.9L234.7,320.8
		z"/>
	<path class="st1" d="M300.5,227.1c22.5,4.9,38.5,25.8,35.6,49c-2.8,22.1-22,38.4-44,38.7c-4.8,0.1-7.2,3.8-7.2,7.5h-17.8v-1.9
		c6.6,0,10.9-9.9,3.8-14l-3.1-1.8l4.9-2.8c8.4-4.8,0.8-17.8-7.6-13l-4.8,2.8c0-1.2,0-2.4,0-3.6c0-9.6-15-9.7-15,0v9.8
		c0,0.8,0,1.6-0.1,2.5l-3,1.7l-7-4.1c-1.6-0.9-3.5-2.3-5.5-3.5v-3.1c0.8-0.5,1.5-1,2.2-1.3l8.5-4.9c8.4-4.8,0.8-17.8-7.6-13
		l-3.1,1.8v-5.3c0.1-3.8-2.8-6.9-6.5-7.2c-3.9-0.7-7.6,1.8-8.3,5.6c-0.1,0.5-0.1,1-0.1,1.5v5.3l-3.1-1.8c-8.4-4.8-16,8.1-7.6,13
		l8.5,4.9c0.7,0.4,1.4,0.9,2.2,1.3v3.3c-1.8,1.1-3.5,2.3-4.9,3.1l-7.6,4.4l-3.1-1.8c0-0.9-0.1-1.7-0.1-2.5V288c0-9.6-15-9.7-15,0
		c0,1.2,0,2.4,0,3.6l-4.8-2.8c-8.4-4.8-15.9,8.1-7.6,13l4.8,2.8l-3.1,1.8c-7.1,4.1-2.7,14,3.8,14v1.9h-18.5c0-3.7-2.4-7.4-7.2-7.5
		c-24.5-0.3-46.4-16.6-52.8-40.4c-3.3-12.2-2.2-25.1,3-36.6c2.2-4.9,5-9.4,8.5-13.4c4-4.7,8.8-8.7,14.1-11.8
		c13.6-7.8,29.5-9.1,44.4-4.5c3.3,1,6.6-0.7,8.5-3.4c14.6-21.5,41.4-33.1,67.1-28.1c4.7,0.9,9.4,2.4,13.8,4.3
		c0.9,0.4,1.7,0.8,2.6,1.2s1.9,1,2.9,1.5c3.1,1.7,6,3.6,8.8,5.7c10.8,8.3,18.8,19.7,22.9,32.6C296,224.4,298,226.4,300.5,227.1z"/>
	<path class="st0" d="M335.1,169.1c9.7,0,9.6,15,0,15h-33.6c-9.7,0-9.6-15,0-15H335.1z"/>
	<path class="st0" d="M273.2,180.5c14,9.4,24.3,23.3,29.3,39.4c28,5.7,46.1,33,40.4,61c-4.9,24.1-26.1,41.4-50.7,41.4H285
		c0-3.7,2.5-7.4,7.2-7.5c22-0.3,41.2-16.6,44-38.7c2.9-23.3-13.1-44.1-35.6-49c-2.5-0.7-4.5-2.7-5.2-5.2
		c-4.2-12.9-12.1-24.3-22.9-32.6C272.8,186.4,273.1,183.5,273.2,180.5z"/>
	<path class="st0" d="M310,90.9c8.4-4.8,15.9,8.1,7.6,13l-29.1,16.8c-8.4,4.8-15.9-8.1-7.6-12.9L310,90.9z"/>
	<path class="st0" d="M309.8,217.9l-5.2-5.2c1.3,0.3,2.5,0.6,3.7,1C308.8,215,309.3,216.5,309.8,217.9z"/>
	<path class="st0" d="M273.3,177.2c0-0.2,0-0.4,0-0.6s0-0.3,0-0.5c0-1.5-0.1-3-0.2-4.5c16.1,9.7,28.4,24.4,35.1,41.9
		c-1.2-0.4-2.5-0.7-3.7-1l5.2,5.2c-0.5-1.5-1-2.9-1.5-4.3c27.4,7.9,46.3,35.1,42.7,63.9c-3.8,29.7-28.9,52-58.8,52.3
		c-4.9,0.1-7.3-3.7-7.2-7.5h7.2c28.6,0,51.8-23.2,51.8-51.7c0-24.6-17.3-45.8-41.4-50.7c-5-16.1-15.3-30-29.3-39.4
		C273.3,179.4,273.3,178.3,273.3,177.2z"/>
	<path class="st0" d="M272.6,180.1c0.4-0.9,0.7-1.9,0.8-2.9c0,1.1,0,2.2-0.1,3.3L272.6,180.1z"/>
	<path class="st2" d="M265,288.8c8.4-4.8,15.9,8.1,7.6,13l-4.9,2.8l3.1,1.8c7.1,4.1,2.7,14-3.8,14c-1.3,0-2.6-0.4-3.7-1.1l-8.5-4.9
		c-0.7-0.4-1.4-0.8-2.2-1.2l-3,1.7v7.3h-15V315c-1.7-1-3.3-1.9-5-2.9l-2.5-1.4l-4.9-2.8l-0.1,0.1l-4.9,2.8l-2.6,1.5l-4.8,2.8v7.3
		h-15v-7.2l-3.2-1.9c-0.8,0.4-1.5,0.8-2.2,1.2l-8.4,4.9c-1.1,0.7-2.4,1.1-3.7,1.1c-6.6,0-10.9-9.9-3.8-14l3.1-1.8l-4.8-2.8
		c-8.4-4.8-0.8-17.8,7.6-13l4.8,2.8c0-1.2,0-2.4,0-3.6c0-9.7,15-9.6,15,0v9.8c0,0.8,0,1.6,0.1,2.5l3.1,1.8l7.6-4.4
		c1.4-0.8,3.1-2,4.9-3.1v-3.3c-0.8-0.5-1.5-1-2.2-1.3l-8.5-4.9c-8.4-4.8-0.8-17.8,7.6-13l3.1,1.8v-5.3c-0.1-3.9,3-7.2,6.9-7.3
		c0.5,0,1,0,1.5,0.1c3.8,0.2,6.7,3.4,6.5,7.2v5.3l3.1-1.8c8.4-4.8,15.9,8.1,7.6,13l-8.5,4.9c-0.7,0.4-1.4,0.9-2.2,1.3v3.1
		c2,1.2,3.9,2.6,5.5,3.5l7,4.1l3-1.7c0-0.9,0.1-1.8,0.1-2.5V288c0-9.7,15-9.6,15,0c0,1.2,0,2.4,0,3.6L265,288.8z"/>
	<path class="st2" d="M272.4,342.6c8.4,4.8,0.8,17.8-7.6,13l-4.6-2.6c0,1.2,0,2.4,0,3.6c0,9.7-15,9.6-15,0v-9.8c0-0.8,0-1.6-0.1-2.5
		l-3.1-1.8l-7.4,4.2c-1.5,0.9-3.2,2.1-5.1,3.2v3.2c0.8,0.5,1.5,1,2.2,1.3l8.5,4.9c8.4,4.8,0.8,17.8-7.6,13l-3.1-1.8v5.6
		c0,9.7-15,9.6-15,0v-5.5l-3.1,1.8c-8.4,4.8-15.9-8.1-7.6-13l8.5-4.9c0.7-0.4,1.4-0.9,2.2-1.3v-3.4c-1.9-1.2-3.8-2.5-5.3-3.4l-7-4
		l-3.2,1.8c0,0.9-0.1,1.8-0.1,2.5v9.8c0,9.7-15,9.6-15,0c0-1.2,0-2.4,0-3.6l-4.6,2.6c-8.4,4.8-15.9-8.1-7.6-13l4.6-2.7l-3.1-1.8
		c-7.1-4.1-2.7-14,3.8-14c1.3,0,2.6,0.4,3.7,1.1l8.4,4.9c0.7,0.4,1.4,0.8,2.2,1.2l3.2-1.9v-7h15v7l4.8,2.7l2.7,1.5l4.8,2.8l0.1,0.1
		l4.8-2.8l2.6-1.5l4.9-2.8l0.1-0.1v-7h15v7.1l3,1.7c0.8-0.4,1.5-0.8,2.2-1.2l8.5-4.9c1.1-0.7,2.4-1.1,3.7-1.1c6.6,0,10.9,9.9,3.8,14
		l-3.1,1.8L272.4,342.6z"/>
	<path class="st0" d="M272.6,180.1c-1.6,3.2-5.6,4.4-8.9,3.5c-1-0.5-1.9-1-2.9-1.5c-1.6-1.4-2.5-3.4-2.4-5.5c0-1.2,0.3-2.4,0.8-3.5
		C263.9,175,268.3,177.3,272.6,180.1z"/>
	<path class="st0" d="M259.2,173.1c3.1-5.8,13.8-4.8,14.1,3c0,0.2,0,0.3,0,0.5s0,0.4,0,0.6c-0.1,1-0.3,2-0.8,2.9
		C268.3,177.3,263.9,175,259.2,173.1z"/>
	<path class="st0" d="M263.6,183.6c3.3,0.9,7.3-0.2,8.9-3.5l0.6,0.4c-0.1,2.9-0.4,5.9-0.8,8.8C269.6,187.2,266.7,185.2,263.6,183.6z
		"/>
	<path class="st0" d="M258.2,172.8c-0.2-2.8-0.5-5.5-0.9-8.3c5.5,1.8,10.8,4.2,15.8,7.2c0.1,1.5,0.1,3,0.2,4.5
		c-0.4-7.8-11-8.8-14.1-3L258.2,172.8z"/>
	<path class="st0" d="M259.2,173.1c-0.6,1.1-0.8,2.3-0.8,3.5c0-1.3-0.1-2.6-0.1-3.9L259.2,173.1z"/>
	<path class="st0" d="M258.3,176.6c-0.1,2.1,0.8,4.1,2.4,5.5c-0.8-0.4-1.7-0.8-2.6-1.2C258.3,179.5,258.3,178.1,258.3,176.6z"/>
	<path class="st0" d="M232.1,168c8.9,0,17.8,1.6,26.1,4.8c0.1,1.3,0.1,2.6,0.1,3.9s-0.1,2.9-0.2,4.3c-4.4-1.9-9.1-3.4-13.8-4.3
		c-25.7-5-52.5,6.6-67.1,28.1c-1.8,2.7-5.1,4.5-8.5,3.4c-14.9-4.6-30.9-3.3-44.4,4.5c-5.4,3.1-10.1,7.1-14.1,11.8
		c-1.5-2.1-3-4.3-4.3-6.5c14.7-15.9,36.7-23.1,58-18.8c2.3,0.5,4.6,1.1,6.9,1.8C184.4,180.3,207.4,168,232.1,168z"/>
	<path class="st0" d="M167.7,192.4c18.7-24.1,49.2-35.8,79.3-30.5c3.5,0.6,7,1.5,10.4,2.6c0.4,2.7,0.7,5.5,0.9,8.3
		c-32.2-12.1-68.4-0.5-87.5,28.2c-2.3-0.7-4.5-1.3-6.9-1.8l0.4-2l8.5-3.4C171.1,193.2,169.4,192.7,167.7,192.4z"/>
	<path class="st3" d="M106.6,134.2c17.5-28.9,52.5-44.6,85.8-37.9c33.7,7,59.6,34.1,64.9,68.1c-3.4-1.1-6.8-2-10.3-2.6
		c-30-5.3-60.5,6.4-79.2,30.5c-23.6-5.4-48.2,1.6-65.5,18.5C91.1,186.1,92.8,157.5,106.6,134.2z"/>
	<path class="st0" d="M172.7,193.7l-8.5,3.4c1.1-1.6,2.3-3.2,3.5-4.8C169.4,192.7,171.1,193.2,172.7,193.7z"/>
	<path class="st0" d="M102.2,210.9c17.3-16.9,41.9-23.9,65.5-18.5c-1.2,1.5-2.4,3.1-3.5,4.8l-0.4,2c-21.3-4.3-43.3,2.8-58,18.8
		C104.5,215.6,103.3,213.3,102.2,210.9z"/>
	<path class="st0" d="M89.3,260.1c0,34.4,27.9,62.2,62.2,62.2c0,0,0,0,0,0h7.2c0,3.8-2.4,7.6-7.2,7.5c-17.6-0.1-34.5-6.7-47.4-18.6
		c-23.3-21.4-28.8-57.1-13.7-84.8c0.5-0.9,1-1.8,1.6-2.7c0.5,1,1.1,1.9,1.6,2.9c0.9,1.5,1.9,3,2.9,4.4C91.8,240,89.3,250,89.3,260.1
		z"/>
	<path class="st0" d="M105.9,217.9c1.3,2.3,2.7,4.4,4.3,6.5c-3.5,4-6.3,8.6-8.5,13.4c-1.8-2.2-3.5-4.5-5.1-6.8
		C99.1,226.2,102.2,221.8,105.9,217.9z"/>
	<path class="st0" d="M102.2,210.9c-3.9,3.9-7.4,8.2-10.2,12.9c-19.3-34.5-15-78.2,10-108.8c25.4-31.1,69.6-43.2,107.3-29.4
		c36.5,13.5,61.6,47.3,63.9,86.1c-5-3-10.3-5.4-15.8-7.2c-5.4-34-31.2-61.1-64.9-68.1c-33.3-6.7-68.2,8.9-85.8,37.9
		C92.7,157.5,91.1,186.1,102.2,210.9z"/>
	<path class="st0" d="M92,223.8c2.9-4.7,6.3-9,10.2-12.9c1.1,2.4,2.3,4.7,3.6,7c-3.7,3.9-6.8,8.4-9.3,13.1c-1-1.4-1.9-2.9-2.9-4.4
		C93.1,225.7,92.6,224.7,92,223.8z"/>
	<path class="st0" d="M158.8,322.4h-7.2c-34.4,0-62.2-27.9-62.2-62.2c0-10.1,2.5-20.1,7.2-29.1c1.6,2.4,3.3,4.6,5.1,6.8
		c-5.2,11.5-6.3,24.4-3,36.6c6.5,23.8,28.3,40.1,52.8,40.4C156.3,314.9,158.8,318.6,158.8,322.4z"/>
	<path class="st0" d="M72.2,107.7c8.4,4.8,0.8,17.8-7.6,12.9l-29.1-16.8c-8.4-4.8-0.8-17.8,7.6-13L72.2,107.7z"/>
	<path class="st0" d="M64.6,232.6c8.4-4.8,15.9,8.1,7.6,13l-29.2,16.8c-8.4,4.9-15.9-8.1-7.6-13L64.6,232.6z"/>
</g>
</svg>
