<?xml version="1.0" encoding="utf-8"?>
<!-- Generator: Adobe Illustrator 24.3.0, SVG Export Plug-In . SVG Version: 6.00 Build 0)  -->
<svg version="1.1" id="Layer_1" xmlns="http://www.w3.org/2000/svg" xmlns:xlink="http://www.w3.org/1999/xlink" x="0px" y="0px"
	 viewBox="0 0 16 16" enable-background="new 0 0 16 16" xml:space="preserve">
<g id="XMLID_9_">
	<g>
		<path fill="#DCDDDC" d="M12.6,4.4C13.9,4.5,15,5.7,15,7.1c0,1.5-1.2,2.8-2.8,2.8H4.3C2.5,9.9,1,8.4,1,6.6s1.5-3.3,3.3-3.3
			c0.4,0,0.8,0.1,1.1,0.2c0.7-1.2,1.9-2,3.4-2C10.6,1.5,12.1,2.7,12.6,4.4z"/>
	</g>
	<g>
	</g>
</g>
<g id="XMLID_8_">
	<g>
	</g>
	<g>
		
			<path fill="none" stroke="#231714" stroke-width="0.65" stroke-linecap="round" stroke-linejoin="round" stroke-miterlimit="10" d="
			M12.2,9.9c1.5,0,2.8-1.2,2.8-2.8c0-1.4-1.1-2.6-2.4-2.8c-0.4-1.6-2-2.9-3.8-2.9c-1.4,0-2.7,0.8-3.4,1.9C5.1,3.3,4.7,3.2,4.3,3.2
			C2.5,3.2,1,4.7,1,6.6c0,1.8,1.4,3.3,3.2,3.3"/>
	</g>
</g>
<path fill="#F5AF1A" stroke="#221413" stroke-width="0.4" stroke-linecap="round" stroke-linejoin="round" stroke-miterlimit="10" d="
	M8.8,9.2c0.3,0.2,0.6,0.3,0.8,0.5c-0.6,1-1.2,2.1-1.3,2.2c-0.5,0.8-0.9,1.6-1.4,2.5c0,0,0,0.1-0.1,0.1l-0.1,0
	C7.4,12.3,8,10.3,8,10.3C7.5,10.1,6.9,10,6.4,9.8c0.2-0.5,0.4-0.9,0.4-1C6.8,8.6,7.1,7.9,7.5,7L10,7.4C9.9,7.6,9.8,7.8,9.6,8
	C9.6,8.1,8.8,9.2,8.8,9.2z"/>
</svg>
