<?xml version="1.0" encoding="utf-8"?>
<!-- Generator: Adobe Illustrator 24.3.0, SVG Export Plug-In . SVG Version: 6.00 Build 0)  -->
<svg version="1.1" id="Layer_1" xmlns="http://www.w3.org/2000/svg" xmlns:xlink="http://www.w3.org/1999/xlink" x="0px" y="0px"
	 viewBox="0 0 308 274" style="enable-background:new 0 0 308 274;" xml:space="preserve">
<style type="text/css">
	.st0{fill:#231815;}
	.st1{fill:#DCDDDD;}
	.st2{fill:#FAEE00;}
	.st3{fill:none;stroke:#231815;stroke-miterlimit:10;}
</style>
<g id="图层_1">
	<path class="st0" d="M196.5,29.1c-0.6,1.1-0.9,2.3-0.9,3.5c0-1.3,0-2.6-0.1-3.9L196.5,29.1z"/>
	<path class="st0" d="M39.6,66.9c1.1,2.4,2.3,4.7,3.6,7c-3.7,4-6.8,8.4-9.3,13.1c-1-1.4-1.9-2.9-2.9-4.4c-0.6-0.9-1.1-1.9-1.7-2.9
		C32.2,75.1,35.6,70.7,39.6,66.9z"/>
	<path class="st0" d="M194.6,20.5c0.4,2.7,0.7,5.5,0.9,8.3C165.7,17.5,132,26.7,112,51.5l-2-1.8c-1.6-0.5-3.3-0.9-5-1.3
		c18.7-24.1,49.2-35.8,79.2-30.5C187.7,18.5,191.2,19.4,194.6,20.5z"/>
	<path class="st0" d="M247.1,73.9l-5.2-5.2c1.3,0.3,2.5,0.6,3.7,0.9C246.1,71,246.6,72.5,247.1,73.9z"/>
	<path class="st0" d="M31,82.6c0.9,1.5,1.9,3,2.9,4.4c-16.1,30.4-4.5,68,25.9,84.1c9,4.7,19,7.2,29.1,7.2h7.2c0,3.8-2.4,7.6-7.2,7.5
		c-17.6-0.1-34.5-6.7-47.4-18.6c-23.3-21.4-28.8-57.1-13.7-84.8c0.5-0.9,1-1.8,1.6-2.7C29.9,80.7,30.4,81.7,31,82.6z"/>
	<path class="st0" d="M195.5,28.8c0.1,1.3,0.1,2.6,0.1,3.9s-0.1,2.9-0.1,4.3c-4.4-1.9-9.1-3.4-13.8-4.3c-25.7-5-52.5,6.6-67.2,28.1
		c-1.8,2.7-5.1,4.5-8.5,3.4c-14.9-4.6-30.9-3.3-44.4,4.5c-5.4,3.1-10.1,7.1-14.1,11.8c-1.5-2.1-3-4.3-4.3-6.6
		c16.5-17.8,41.8-24.4,64.9-17c1.2-1.9,2.6-3.7,4-5.4C132,26.6,165.7,17.5,195.5,28.8L195.5,28.8z"/>
	<path class="st0" d="M196.5,29.1c4.7,1.9,9.2,4.2,13.4,7c-1.6,3.2-5.6,4.4-8.9,3.5c-0.9-0.5-1.9-1-2.9-1.5
		c-1.6-1.4-2.5-3.4-2.4-5.4C195.6,31.4,195.9,30.2,196.5,29.1z"/>
	<path class="st0" d="M194.6,20.5c5.5,1.8,10.8,4.2,15.8,7.2c0.1,1.5,0.2,3,0.2,4.5c-0.4-7.8-11-8.8-14.1-3l-1-0.4
		C195.3,26,195.1,23.2,194.6,20.5z"/>
	<path class="st0" d="M111.6,178.4h45.4c0,1.2-0.3,2.5-0.9,3.6l-15.9,32.2c11.8-11.9,23.6-23.9,35.5-35.8H197
		c-25.8,26.1-51.7,52.1-77.5,78.2c-1.4,2.4-4.2,3.6-6.9,2.9c-4.8-0.8-8.7-6.6-5.6-11.4l30.7-62.4h-18.6
		C115.1,185.6,111.8,182.4,111.6,178.4z"/>
	<path class="st0" d="M112.6,174.4l10.8-18.5c5-8.5,9.9-17,14.9-25.4c1-1.7,1.9-3.4,2.8-5c2-3.3,4.4-5.9,9.1-6.1
		c2.3-0.1,4.5-0.1,6.8-0.2c13-0.2,26,0.2,38.9,0.2c5.4,0,9.7,6.5,6.5,11.3l-12.1,18h18c6.5,0,9.9,8.2,5.3,12.8l-11.9,12
		c-1.6,1.6-3.2,3.2-4.8,4.8h-21.1l14.5-14.7h-14c-5.4,0-9.7-6.5-6.5-11.3l12.1-18h-28.5l-21.2,36.2h17.6c4,0,7.3,3.2,7.3,7.3
		c0,0.1,0,0.3,0,0.4h-45.4C111.6,176.9,111.9,175.6,112.6,174.4z"/>
	<path class="st0" d="M200.9,39.6c3.3,0.9,7.3-0.2,8.9-3.5c0.2,0.1,0.4,0.3,0.6,0.4c-0.1,2.9-0.4,5.9-0.8,8.8
		C206.9,43.2,204,41.3,200.9,39.6z"/>
	<path class="st0" d="M110,49.7l2,1.8c-1.4,1.7-2.7,3.5-4,5.4c-2.3-0.7-4.6-1.3-6.9-1.8l0.4-2L110,49.7z"/>
	<path class="st0" d="M195.6,32.7c0,2.1,0.8,4.1,2.4,5.4c-0.9-0.4-1.7-0.8-2.6-1.2C195.6,35.5,195.6,34.1,195.6,32.7z"/>
	<path class="st0" d="M26.6,116.1c0-10.1,2.5-20.1,7.2-29.1c1.6,2.4,3.3,4.6,5.1,6.8c-5.2,11.5-6.3,24.4-3,36.6
		c6.5,23.8,28.3,40.1,52.8,40.4c4.8,0.1,7.2,3.8,7.2,7.5h-7.2C54.5,178.3,26.6,150.5,26.6,116.1z"/>
	<path class="st0" d="M105,48.4c1.7,0.4,3.3,0.8,5,1.3l-8.4,3.4C102.7,51.5,103.8,49.9,105,48.4z"/>
	<path class="st1" d="M208.4,148.7h-18l12.1-18c3.2-4.8-1.1-11.3-6.5-11.3c-12.9,0-26-0.4-38.9-0.2c-2.3,0-4.6,0.1-6.8,0.2
		c-4.6,0.2-7.1,2.8-9.1,6.1c-1,1.6-1.9,3.3-2.8,5c-5,8.5-9.9,16.9-14.9,25.4l-10.8,18.5c-0.7,1.2-1.1,2.6-1,4H96.1
		c0-3.7-2.4-7.4-7.2-7.5c-24.5-0.3-46.4-16.6-52.8-40.4c-3.3-12.2-2.2-25.1,3-36.6c2.2-4.9,5-9.4,8.5-13.4c4-4.7,8.8-8.7,14.1-11.8
		c13.6-7.8,29.5-9.1,44.4-4.5c3.3,1,6.6-0.7,8.5-3.4c14.6-21.5,41.4-33.1,67.2-28.1c4.7,0.9,9.4,2.4,13.8,4.3
		c0.9,0.4,1.7,0.8,2.6,1.2s1.9,1,2.9,1.5c15.1,8.2,26.4,22,31.7,38.3c0.7,2.5,2.7,4.5,5.2,5.2c22.5,4.9,38.5,25.8,35.6,49
		c-2.7,22.1-22,38.4-44,38.7c-4.8,0.1-7.2,3.8-7.2,7.5H197c1.6-1.6,3.2-3.2,4.8-4.8l11.9-12C218.2,156.9,214.9,148.7,208.4,148.7z"
		/>
	<path class="st2" d="M181.9,134.4l-12.1,18c-3.2,4.8,1.1,11.3,6.5,11.3h14l-14.5,14.7h-18.7c0.2-4-2.9-7.5-6.9-7.7
		c-0.1,0-0.3,0-0.4,0h-17.6l21.2-36.2L181.9,134.4z"/>
	<path class="st0" d="M210.6,32.7c0,0.1,0,0.3,0,0.4C210.6,33,210.6,32.9,210.6,32.7z"/>
	<path class="st0" d="M43.2,73.9c1.3,2.2,2.8,4.4,4.3,6.6c-3.4,4-6.3,8.6-8.4,13.4c-1.8-2.2-3.5-4.5-5.1-6.8
		C36.4,82.3,39.5,77.8,43.2,73.9z"/>
	<path class="st0" d="M209.9,36.1c0.4-0.9,0.7-1.9,0.8-2.9c0,1.1,0,2.2-0.1,3.3C210.3,36.4,210.1,36.3,209.9,36.1z"/>
	<path class="st0" d="M229.5,178.4c28.6,0,51.8-23.1,51.8-51.7c0-24.6-17.3-45.8-41.4-50.7c-5-16.1-15.4-30-29.3-39.4
		c0-1.1,0.1-2.2,0.1-3.3v-0.1c0-0.1,0-0.3,0-0.4v-0.1c0-0.2,0-0.4,0-0.5c0-1.5-0.1-3-0.2-4.5c16.1,9.7,28.4,24.4,35.1,41.9
		c-1.2-0.4-2.5-0.7-3.7-0.9l5.2,5.2c-0.5-1.4-1-2.9-1.5-4.3c27.4,7.9,46.3,35.2,42.7,63.9c-3.8,29.7-28.9,52-58.8,52.3
		c-4.9,0.1-7.3-3.7-7.2-7.5L229.5,178.4z"/>
	<path class="st0" d="M43.2,73.9c-1.3-2.3-2.5-4.6-3.6-7C56.8,50,81.5,43,105,48.4c-1.2,1.5-2.4,3.1-3.5,4.8l-0.4,2
		C79.8,50.8,57.8,58,43.2,73.9L43.2,73.9z"/>
	<path class="st0" d="M196.5,29.1c3.1-5.8,13.8-4.8,14.1,3c0,0.2,0,0.3,0,0.5v0.1c0,0.1,0,0.3,0,0.4v0.1c-0.1,1-0.3,2-0.8,2.9
		C205.7,33.3,201.2,31,196.5,29.1z"/>
	<path class="st0" d="M281.2,126.6c0,28.6-23.2,51.7-51.7,51.7c0,0,0,0,0,0h-7.2c0-3.7,2.5-7.4,7.2-7.5c22-0.3,41.2-16.6,44-38.7
		c2.9-23.3-13.1-44.1-35.6-49c-2.5-0.7-4.5-2.7-5.2-5.2c-4.1-12.9-12.1-24.3-22.9-32.6c0.4-2.9,0.7-5.8,0.8-8.8
		c14,9.4,24.3,23.3,29.3,39.4C263.9,80.9,281.2,102,281.2,126.6z"/>
	<path class="st2" d="M175.8,178.4c-11.8,11.9-23.7,23.8-35.5,35.8l15.9-32.2c0.5-1.1,0.8-2.3,0.9-3.6L175.8,178.4z"/>
	<path class="st3" d="M29.3,79.8c-0.5,0.9-1.1,1.8-1.6,2.7c-15.2,27.7-9.6,63.4,13.7,84.8c13,11.9,29.9,18.5,47.4,18.6
		c4.9,0.1,7.3-3.7,7.2-7.5"/>
	<path class="st3" d="M105,48.4C81.4,43,56.8,50,39.5,66.9"/>
	<path class="st3" d="M194.6,20.5c-3.4-1.1-6.8-2-10.4-2.6c-30-5.3-60.5,6.4-79.3,30.5"/>
	<path class="st3" d="M222.2,178.4c0,3.8,2.4,7.6,7.2,7.5c29.9-0.3,55-22.7,58.8-52.3c3.5-28.8-15.3-56-42.7-63.9"/>
	<path class="st3" d="M245.6,69.6c-6.7-17.5-19-32.3-35.1-41.9"/>
	<path class="st3" d="M245.6,69.6c0.5,1.4,1,2.8,1.5,4.3l-5.2-5.2C243.1,68.9,244.3,69.3,245.6,69.6z"/>
	<path class="st3" d="M110,49.7c-1.6-0.5-3.3-0.9-5-1.3c-1.2,1.5-2.4,3.1-3.5,4.8L110,49.7z"/>
	<path class="st3" d="M210.6,32.1c0-1.5-0.1-3-0.2-4.5c-5-3-10.3-5.4-15.8-7.2c0.4,2.7,0.7,5.5,0.9,8.3"/>
	<path class="st3" d="M196.5,29.1c3.1-5.8,13.8-4.8,14.1,3"/>
	<path class="st3" d="M43.2,73.9c-1.3-2.3-2.5-4.6-3.6-7c-3.9,3.9-7.3,8.2-10.2,12.9c0.5,1,1.1,1.9,1.7,2.9c0.9,1.5,1.9,3,2.9,4.4"
		/>
	<path class="st3" d="M210.6,32.1c0,0.2,0,0.3,0,0.5v0.1"/>
	<path class="st3" d="M210.6,33.1c0-0.1,0-0.3,0-0.4"/>
	<path class="st3" d="M210.6,33.1L210.6,33.1"/>
	<path class="st3" d="M210.5,36.5c0-1.1,0.1-2.2,0.1-3.3"/>
	<path class="st3" d="M209.7,45.3c10.8,8.3,18.8,19.6,22.9,32.6c0.7,2.5,2.7,4.5,5.2,5.2c22.5,4.9,38.5,25.8,35.6,49
		c-2.7,22.1-22,38.4-44,38.7c-4.8,0.1-7.2,3.8-7.2,7.5h7.2c28.6,0,51.8-23.1,51.8-51.7c0-24.6-17.3-45.8-41.4-50.7
		c-5-16.1-15.4-30-29.3-39.4"/>
	<path class="st3" d="M195.5,28.8C165.7,17.5,132,26.7,112,51.5c-1.4,1.7-2.7,3.5-4,5.4c-2.3-0.7-4.6-1.3-6.9-1.8
		c-21.3-4.3-43.3,2.8-58,18.8"/>
	<path class="st3" d="M47.4,80.4c4-4.7,8.8-8.7,14.1-11.8c13.6-7.8,29.5-9.1,44.4-4.5c3.3,1,6.6-0.7,8.5-3.4
		c14.6-21.5,41.4-33.1,67.2-28.1c4.7,0.9,9.4,2.4,13.8,4.3"/>
	<path class="st3" d="M33.8,87c-16.1,30.4-4.5,68,25.9,84.1c9,4.7,19,7.2,29.1,7.2h7.2c0-3.7-2.4-7.4-7.2-7.5
		c-24.5-0.3-46.4-16.6-52.8-40.4c-3.3-12.2-2.2-25.1,3-36.6"/>
	<path class="st3" d="M209.9,36.1c-4.2-2.8-8.7-5.1-13.4-7"/>
	<path class="st3" d="M198,38.1c1,0.5,1.9,1,2.9,1.5"/>
	<path class="st3" d="M43.2,73.9c-3.7,4-6.8,8.4-9.3,13.1c1.6,2.4,3.3,4.6,5.1,6.8c2.2-4.9,5-9.4,8.5-13.4
		C45.9,78.3,44.5,76.1,43.2,73.9z"/>
	<path class="st3" d="M196.5,29.1l-1-0.4c0.1,1.3,0.1,2.6,0.1,3.9C195.6,31.4,195.9,30.2,196.5,29.1z"/>
	<path class="st3" d="M195.6,32.7c0,1.4-0.1,2.9-0.1,4.3c0.9,0.4,1.7,0.8,2.6,1.2C196.5,36.7,195.6,34.7,195.6,32.7z"/>
	<path class="st3" d="M200.9,39.6c3.1,1.7,6,3.6,8.8,5.7c0.4-2.9,0.7-5.8,0.8-8.8c-0.2-0.1-0.4-0.3-0.6-0.4
		C208.2,39.3,204.3,40.5,200.9,39.6z"/>
	<path class="st3" d="M197,178.4c1.6-1.6,3.2-3.2,4.8-4.8l11.9-12c4.6-4.6,1.2-12.8-5.3-12.8h-18l12.1-18c3.2-4.8-1.1-11.3-6.5-11.3
		c-12.9,0-26-0.4-38.9-0.2c-2.3,0-4.6,0.1-6.8,0.2c-4.6,0.2-7.1,2.8-9.1,6.1c-1,1.6-1.9,3.3-2.8,5c-5,8.5-9.9,16.9-14.9,25.4
		l-10.8,18.5c-0.7,1.2-1.1,2.6-1,4c0.1,4,3.4,7.2,7.5,7.3h18.6L107,248c-3.1,4.8,0.8,10.6,5.6,11.4c2.7,0.7,5.5-0.5,6.9-2.9
		C145.3,230.5,171.1,204.4,197,178.4z"/>
	<path class="st3" d="M175.8,178.4c-11.8,11.9-23.7,23.8-35.5,35.8l15.9-32.2c0.5-1.1,0.8-2.3,0.9-3.6c0.2-4-2.9-7.5-6.9-7.7
		c-0.1,0-0.3,0-0.4,0h-17.6l21.2-36.2h28.5l-12.1,18c-3.2,4.8,1.1,11.3,6.5,11.3h14L175.8,178.4z"/>
</g>
</svg>
