<?xml version="1.0" encoding="utf-8"?>
<!-- Generator: Adobe Illustrator 24.3.0, SVG Export Plug-In . SVG Version: 6.00 Build 0)  -->
<svg version="1.1" id="Layer_1" xmlns="http://www.w3.org/2000/svg" xmlns:xlink="http://www.w3.org/1999/xlink" x="0px" y="0px"
	 viewBox="0 0 305 280" style="enable-background:new 0 0 305 280;" xml:space="preserve">
<style type="text/css">
	.st0{fill:#231815;}
	.st1{fill:#DCDDDD;}
	.st2{fill:#FAEE00;}
	.st3{fill:none;stroke:#231815;stroke-miterlimit:10;}
</style>
<g id="图层_1">
	<path class="st0" d="M194.5,31.1c-0.6,1.1-0.9,2.3-0.9,3.5c0-1.3,0-2.6-0.1-3.9L194.5,31.1z"/>
	<path class="st0" d="M37.6,68.9c1.1,2.4,2.3,4.7,3.6,7c-3.7,4-6.8,8.4-9.3,13.1c-1-1.4-1.9-2.9-2.9-4.4c-0.6-0.9-1.1-1.9-1.7-2.9
		C30.2,77.1,33.6,72.7,37.6,68.9z"/>
	<path class="st0" d="M192.6,22.5c0.4,2.7,0.7,5.5,0.9,8.3C163.7,19.5,130,28.7,110,53.5l-2-1.8c-1.6-0.5-3.3-0.9-5-1.3
		c18.7-24.1,49.2-35.8,79.2-30.5C185.7,20.5,189.2,21.4,192.6,22.5z"/>
	<path class="st0" d="M245.1,75.9l-5.2-5.2c1.3,0.3,2.5,0.6,3.7,0.9C244.1,73,244.6,74.5,245.1,75.9z"/>
	<path class="st0" d="M29,84.6c0.9,1.5,1.9,3,2.9,4.4c-16.1,30.4-4.5,68,25.9,84.1c9,4.7,19,7.2,29.1,7.2h7.2c0,3.8-2.4,7.6-7.2,7.5
		c-17.6-0.1-34.5-6.7-47.4-18.6c-23.3-21.4-28.8-57.1-13.7-84.8c0.5-0.9,1-1.8,1.6-2.7C27.9,82.7,28.4,83.7,29,84.6z"/>
	<path class="st0" d="M193.5,30.8c0.1,1.3,0.1,2.6,0.1,3.9s-0.1,2.9-0.1,4.3c-4.4-1.9-9.1-3.4-13.8-4.3c-25.7-5-52.5,6.6-67.2,28.1
		c-1.8,2.7-5.1,4.5-8.5,3.4c-14.9-4.6-30.9-3.3-44.4,4.5c-5.4,3.1-10.1,7.1-14.1,11.8c-1.5-2.1-3-4.3-4.3-6.6
		c16.5-17.8,41.8-24.4,64.9-17c1.2-1.9,2.6-3.7,4-5.4C130,28.6,163.7,19.5,193.5,30.8L193.5,30.8z"/>
	<path class="st0" d="M194.5,31.1c4.7,1.9,9.2,4.2,13.4,7c-1.6,3.2-5.6,4.4-8.9,3.5c-0.9-0.5-1.9-1-2.9-1.5
		c-1.6-1.4-2.5-3.4-2.4-5.4C193.6,33.4,193.9,32.2,194.5,31.1z"/>
	<path class="st0" d="M192.6,22.5c5.5,1.8,10.8,4.2,15.8,7.2c0.1,1.5,0.2,3,0.2,4.5c-0.4-7.8-11-8.8-14.1-3l-1-0.4
		C193.3,28,193.1,25.2,192.6,22.5z"/>
	<path class="st0" d="M109.6,180.4h45.4c0,1.2-0.3,2.5-0.9,3.6l-15.9,32.2c11.8-11.9,23.6-23.9,35.5-35.8H195
		c-25.8,26.1-51.7,52.1-77.5,78.2c-1.4,2.4-4.2,3.6-6.9,2.9c-4.8-0.8-8.7-6.6-5.6-11.4l30.7-62.4h-18.6
		C113.1,187.6,109.8,184.4,109.6,180.4z"/>
	<path class="st0" d="M110.6,176.4l10.8-18.5c5-8.5,9.9-17,14.9-25.4c1-1.7,1.9-3.4,2.8-5c2-3.3,4.4-5.9,9.1-6.1
		c2.3-0.1,4.5-0.1,6.8-0.2c13-0.2,26,0.2,38.9,0.2c5.4,0,9.7,6.5,6.5,11.3l-12.1,18h18c6.5,0,9.9,8.2,5.3,12.8l-11.9,12
		c-1.6,1.6-3.2,3.2-4.8,4.8h-21.1l14.5-14.7h-14c-5.4,0-9.7-6.5-6.5-11.3l12.1-18h-28.5l-21.2,36.2h17.6c4,0,7.3,3.2,7.3,7.3
		c0,0.1,0,0.3,0,0.4h-45.4C109.6,178.9,109.9,177.6,110.6,176.4z"/>
	<path class="st0" d="M198.9,41.6c3.3,0.9,7.3-0.2,8.9-3.5c0.2,0.1,0.4,0.3,0.6,0.4c-0.1,2.9-0.4,5.9-0.8,8.8
		C204.9,45.2,202,43.3,198.9,41.6z"/>
	<path class="st0" d="M108,51.7l2,1.8c-1.4,1.7-2.7,3.5-4,5.4c-2.3-0.7-4.6-1.3-6.9-1.8l0.4-2L108,51.7z"/>
	<path class="st0" d="M193.6,34.7c0,2.1,0.8,4.1,2.4,5.4c-0.9-0.4-1.7-0.8-2.6-1.2C193.6,37.5,193.6,36.1,193.6,34.7z"/>
	<path class="st0" d="M24.6,118.1c0-10.1,2.5-20.1,7.2-29.1c1.6,2.4,3.3,4.6,5.1,6.8c-5.2,11.5-6.3,24.4-3,36.6
		c6.5,23.8,28.3,40.1,52.8,40.4c4.8,0.1,7.2,3.8,7.2,7.5h-7.2C52.5,180.3,24.6,152.5,24.6,118.1z"/>
	<path class="st0" d="M103,50.4c1.7,0.4,3.3,0.8,5,1.3l-8.4,3.4C100.7,53.5,101.8,51.9,103,50.4z"/>
	<path class="st1" d="M206.4,150.7h-18l12.1-18c3.2-4.8-1.1-11.3-6.5-11.3c-12.9,0-26-0.4-38.9-0.2c-2.3,0-4.6,0.1-6.8,0.2
		c-4.6,0.2-7.1,2.8-9.1,6.1c-1,1.6-1.9,3.3-2.8,5c-5,8.5-9.9,16.9-14.9,25.4l-10.8,18.5c-0.7,1.2-1.1,2.6-1,4H94.1
		c0-3.7-2.4-7.4-7.2-7.5c-24.5-0.3-46.4-16.6-52.8-40.4c-3.3-12.2-2.2-25.1,3-36.6c2.2-4.9,5-9.4,8.5-13.4c4-4.7,8.8-8.7,14.1-11.8
		c13.6-7.8,29.5-9.1,44.4-4.5c3.3,1,6.6-0.7,8.5-3.4c14.6-21.5,41.4-33.1,67.2-28.1c4.7,0.9,9.4,2.4,13.8,4.3
		c0.9,0.4,1.7,0.8,2.6,1.2s1.9,1,2.9,1.5c15.1,8.2,26.4,22,31.7,38.3c0.7,2.5,2.7,4.5,5.2,5.2c22.5,4.9,38.5,25.8,35.6,49
		c-2.7,22.1-22,38.4-44,38.7c-4.8,0.1-7.2,3.8-7.2,7.5H195c1.6-1.6,3.2-3.2,4.8-4.8l11.9-12C216.2,158.9,212.9,150.7,206.4,150.7z"
		/>
	<path class="st2" d="M179.9,136.4l-12.1,18c-3.2,4.8,1.1,11.3,6.5,11.3h14l-14.5,14.7h-18.7c0.2-4-2.9-7.5-6.9-7.7
		c-0.1,0-0.3,0-0.4,0h-17.6l21.2-36.2L179.9,136.4z"/>
	<path class="st0" d="M208.6,34.7c0,0.1,0,0.3,0,0.4C208.6,35,208.6,34.9,208.6,34.7z"/>
	<path class="st0" d="M41.2,75.9c1.3,2.2,2.8,4.4,4.3,6.6c-3.4,4-6.3,8.6-8.4,13.4c-1.8-2.2-3.5-4.5-5.1-6.8
		C34.4,84.3,37.5,79.8,41.2,75.9z"/>
	<path class="st0" d="M207.9,38.1c0.4-0.9,0.7-1.9,0.8-2.9c0,1.1,0,2.2-0.1,3.3C208.3,38.4,208.1,38.3,207.9,38.1z"/>
	<path class="st0" d="M227.5,180.4c28.6,0,51.8-23.1,51.8-51.7c0-24.6-17.3-45.8-41.4-50.7c-5-16.1-15.4-30-29.3-39.4
		c0-1.1,0.1-2.2,0.1-3.3v-0.1c0-0.1,0-0.3,0-0.4v-0.1c0-0.2,0-0.4,0-0.5c0-1.5-0.1-3-0.2-4.5c16.1,9.7,28.4,24.4,35.1,41.9
		c-1.2-0.4-2.5-0.7-3.7-0.9l5.2,5.2c-0.5-1.4-1-2.9-1.5-4.3c27.4,7.9,46.3,35.2,42.7,63.9c-3.8,29.7-28.9,52-58.8,52.3
		c-4.9,0.1-7.3-3.7-7.2-7.5L227.5,180.4z"/>
	<path class="st0" d="M41.2,75.9c-1.3-2.3-2.5-4.6-3.6-7C54.8,52,79.5,45,103,50.4c-1.2,1.5-2.4,3.1-3.5,4.8l-0.4,2
		C77.8,52.8,55.8,60,41.2,75.9L41.2,75.9z"/>
	<path class="st0" d="M194.5,31.1c3.1-5.8,13.8-4.8,14.1,3c0,0.2,0,0.3,0,0.5v0.1c0,0.1,0,0.3,0,0.4v0.1c-0.1,1-0.3,2-0.8,2.9
		C203.7,35.3,199.2,33,194.5,31.1z"/>
	<path class="st0" d="M279.2,128.6c0,28.6-23.2,51.7-51.7,51.7c0,0,0,0,0,0h-7.2c0-3.7,2.5-7.4,7.2-7.5c22-0.3,41.2-16.6,44-38.7
		c2.9-23.3-13.1-44.1-35.6-49c-2.5-0.7-4.5-2.7-5.2-5.2c-4.1-12.9-12.1-24.3-22.9-32.6c0.4-2.9,0.7-5.8,0.8-8.8
		c14,9.4,24.3,23.3,29.3,39.4C261.9,82.9,279.2,104,279.2,128.6z"/>
	<path class="st2" d="M173.8,180.4c-11.8,11.9-23.7,23.8-35.5,35.8l15.9-32.2c0.5-1.1,0.8-2.3,0.9-3.6L173.8,180.4z"/>
	<path class="st3" d="M27.3,81.8c-0.5,0.9-1.1,1.8-1.6,2.7c-15.2,27.7-9.6,63.4,13.7,84.8c13,11.9,29.9,18.5,47.4,18.6
		c4.9,0.1,7.3-3.7,7.2-7.5"/>
	<path class="st3" d="M103,50.4C79.4,45,54.8,52,37.5,68.9"/>
	<path class="st3" d="M192.6,22.5c-3.4-1.1-6.8-2-10.4-2.6c-30-5.3-60.5,6.4-79.3,30.5"/>
	<path class="st3" d="M220.2,180.4c0,3.8,2.4,7.6,7.2,7.5c29.9-0.3,55-22.7,58.8-52.3c3.5-28.8-15.3-56-42.7-63.9"/>
	<path class="st3" d="M243.6,71.6c-6.7-17.5-19-32.3-35.1-41.9"/>
	<path class="st3" d="M243.6,71.6c0.5,1.4,1,2.8,1.5,4.3l-5.2-5.2C241.1,70.9,242.3,71.3,243.6,71.6z"/>
	<path class="st3" d="M108,51.7c-1.6-0.5-3.3-0.9-5-1.3c-1.2,1.5-2.4,3.1-3.5,4.8L108,51.7z"/>
	<path class="st3" d="M208.6,34.1c0-1.5-0.1-3-0.2-4.5c-5-3-10.3-5.4-15.8-7.2c0.4,2.7,0.7,5.5,0.9,8.3"/>
	<path class="st3" d="M194.5,31.1c3.1-5.8,13.8-4.8,14.1,3"/>
	<path class="st3" d="M41.2,75.9c-1.3-2.3-2.5-4.6-3.6-7c-3.9,3.9-7.3,8.2-10.2,12.9c0.5,1,1.1,1.9,1.7,2.9c0.9,1.5,1.9,3,2.9,4.4"
		/>
	<path class="st3" d="M208.6,34.1c0,0.2,0,0.3,0,0.5v0.1"/>
	<path class="st3" d="M208.6,35.1c0-0.1,0-0.3,0-0.4"/>
	<path class="st3" d="M208.6,35.1L208.6,35.1"/>
	<path class="st3" d="M208.5,38.5c0-1.1,0.1-2.2,0.1-3.3"/>
	<path class="st3" d="M207.7,47.3c10.8,8.3,18.8,19.6,22.9,32.6c0.7,2.5,2.7,4.5,5.2,5.2c22.5,4.9,38.5,25.8,35.6,49
		c-2.7,22.1-22,38.4-44,38.7c-4.8,0.1-7.2,3.8-7.2,7.5h7.2c28.6,0,51.8-23.1,51.8-51.7c0-24.6-17.3-45.8-41.4-50.7
		c-5-16.1-15.4-30-29.3-39.4"/>
	<path class="st3" d="M193.5,30.8C163.7,19.5,130,28.7,110,53.5c-1.4,1.7-2.7,3.5-4,5.4c-2.3-0.7-4.6-1.3-6.9-1.8
		c-21.3-4.3-43.3,2.8-58,18.8"/>
	<path class="st3" d="M45.4,82.4c4-4.7,8.8-8.7,14.1-11.8c13.6-7.8,29.5-9.1,44.4-4.5c3.3,1,6.6-0.7,8.5-3.4
		c14.6-21.5,41.4-33.1,67.2-28.1c4.7,0.9,9.4,2.4,13.8,4.3"/>
	<path class="st3" d="M31.8,89c-16.1,30.4-4.5,68,25.9,84.1c9,4.7,19,7.2,29.1,7.2h7.2c0-3.7-2.4-7.4-7.2-7.5
		c-24.5-0.3-46.4-16.6-52.8-40.4c-3.3-12.2-2.2-25.1,3-36.6"/>
	<path class="st3" d="M207.9,38.1c-4.2-2.8-8.7-5.1-13.4-7"/>
	<path class="st3" d="M196,40.1c1,0.5,1.9,1,2.9,1.5"/>
	<path class="st3" d="M41.2,75.9c-3.7,4-6.8,8.4-9.3,13.1c1.6,2.4,3.3,4.6,5.1,6.8c2.2-4.9,5-9.4,8.5-13.4
		C43.9,80.3,42.5,78.1,41.2,75.9z"/>
	<path class="st3" d="M194.5,31.1l-1-0.4c0.1,1.3,0.1,2.6,0.1,3.9C193.6,33.4,193.9,32.2,194.5,31.1z"/>
	<path class="st3" d="M193.6,34.7c0,1.4-0.1,2.9-0.1,4.3c0.9,0.4,1.7,0.8,2.6,1.2C194.5,38.7,193.6,36.7,193.6,34.7z"/>
	<path class="st3" d="M198.9,41.6c3.1,1.7,6,3.6,8.8,5.7c0.4-2.9,0.7-5.8,0.8-8.8c-0.2-0.1-0.4-0.3-0.6-0.4
		C206.2,41.3,202.3,42.5,198.9,41.6z"/>
	<path class="st3" d="M195,180.4c1.6-1.6,3.2-3.2,4.8-4.8l11.9-12c4.6-4.6,1.2-12.8-5.3-12.8h-18l12.1-18c3.2-4.8-1.1-11.3-6.5-11.3
		c-12.9,0-26-0.4-38.9-0.2c-2.3,0-4.6,0.1-6.8,0.2c-4.6,0.2-7.1,2.8-9.1,6.1c-1,1.6-1.9,3.3-2.8,5c-5,8.5-9.9,16.9-14.9,25.4
		l-10.8,18.5c-0.7,1.2-1.1,2.6-1,4c0.1,4,3.4,7.2,7.5,7.3h18.6L105,250c-3.1,4.8,0.8,10.6,5.6,11.4c2.7,0.7,5.5-0.5,6.9-2.9
		C143.3,232.5,169.1,206.4,195,180.4z"/>
	<path class="st3" d="M173.8,180.4c-11.8,11.9-23.7,23.8-35.5,35.8l15.9-32.2c0.5-1.1,0.8-2.3,0.9-3.6c0.2-4-2.9-7.5-6.9-7.7
		c-0.1,0-0.3,0-0.4,0h-17.6l21.2-36.2h28.5l-12.1,18c-3.2,4.8,1.1,11.3,6.5,11.3h14L173.8,180.4z"/>
</g>
</svg>
