<?xml version="1.0" encoding="utf-8"?>
<!-- Generator: Adobe Illustrator 24.3.0, SVG Export Plug-In . SVG Version: 6.00 Build 0)  -->
<svg version="1.1" id="Layer_1" xmlns="http://www.w3.org/2000/svg" xmlns:xlink="http://www.w3.org/1999/xlink" x="0px" y="0px"
	 viewBox="0 0 344 386" style="enable-background:new 0 0 344 386;" xml:space="preserve">
<style type="text/css">
	.st0{fill:#231815;}
	.st1{fill:#DCDDDD;}
	.st2{fill:#F4EC90;}
	.st3{fill:#FFFFFF;}
	.st4{fill:#FAEE00;}
</style>
<g id="图层_1">
	<path class="st0" d="M150.5,23.1c-2.3,5.6-4.3,11.4-5.8,17.4c5.4-3.4,11-6.4,16.8-8.9L150.5,23.1z"/>
	<path class="st1" d="M179.3,143.9c20.5,4.1,37.9,17.6,47.1,36.4c1.4,2.9,2.6,5.8,3.5,8.8c0.7,2.5,2.7,4.5,5.2,5.2
		c6.9,1.5,13.3,4.5,18.9,8.9c12.3,9.5,18.6,24.8,16.7,40.1c-0.5,3.9-1.5,7.8-3,11.4c-7.1,16.4-23.1,27.1-40.9,27.3
		c-4.8,0.1-7.2,3.8-7.2,7.5h-23.2l4.9-5l11.9-12c0.8-0.8,1.4-1.7,1.7-2.7c1.5-4.5-1.6-10.1-7-10.1h-18c1.2-1.8,2.4-3.6,3.6-5.4
		c2.8-4.2,5.7-8.4,8.5-12.6c3.2-4.8-1-11.3-6.5-11.3c-15.2,0-30.5-0.5-45.7,0c-4.1,0.1-6.5,2.3-8.4,5.1c-1.2,1.8-2.3,4-3.5,6
		l-4.1,6.9L123,267.1c-3.6,6.1-7.2,12.3-10.8,18.5c-0.7,1.2-1.1,2.7-1,4.1H93.4c0-3.7-2.4-7.5-7.2-7.5
		c-24.5-0.3-46.4-16.6-52.8-40.4c-6.3-24,4.2-49.3,25.6-61.8c6.3-3.6,13.3-5.9,20.5-6.8c5.4-0.6,10.8-0.5,16.1,0.4
		c2.7,0.4,5.3,1.1,7.9,1.9c3.3,1,6.6-0.7,8.5-3.4c11.2-16.3,29-26.9,48.7-28.9c6.2-0.6,12.4-0.3,18.5,0.8L179.3,143.9z"/>
	<path class="st0" d="M322,194.6l-8.5-11l-0.5-1.5c1.7-0.6,3.4-1.3,5-2c6.8-2.9,10.7,5.9,8.5,11c-8.9,20.5-22.9,38.4-40.7,52
		c0.6-6.2,0.2-12.4-1.3-18.4c7.7-7.2,14.5-15.3,20.1-24.3C310.6,198.9,316.4,197,322,194.6z"/>
	<path class="st0" d="M313.6,183.6l8.5,11c-5.6,2.4-11.4,4.3-17.4,5.8C308.1,195.1,311,189.4,313.6,183.6z"/>
	<path class="st0" d="M313,182.1l0.5,1.5c-2.5,5.8-5.5,11.5-8.9,16.8c-9.5,2.5-19.3,3.8-29.1,4.1c-4.2-6.2-9.6-11.5-15.8-15.7
		C277.8,190.6,296,188.4,313,182.1z"/>
	<path class="st0" d="M289.5,82.9c5.6-0.7-2,7,1.4,7.9l-0.6-0.2c-2.7-0.9-4.6-3.4-4.7-6.3c0.6-0.2,1.3-0.5,1.9-0.7
		C288.1,83.2,288.8,83,289.5,82.9z"/>
	<path class="st0" d="M294.9,76.3c9.3,2.7,5.3,17.1-4,14.5c-3.3-0.9,4.2-8.6-1.4-7.9c-0.7,0.2-1.4,0.4-2,0.7
		c-0.6,0.2-1.3,0.5-1.9,0.7C285.4,79.7,289.1,74.8,294.9,76.3z"/>
	<path class="st2" d="M304.7,200.5c-5.6,8.9-12.4,17.1-20.1,24.3c-1.7-7.2-4.8-14.1-9-20.2C285.4,204.3,295.1,202.9,304.7,200.5z"/>
	<path class="st0" d="M285.6,244.8c-3.8,29.7-28.9,52-58.8,52.3c-4.9,0.1-7.3-3.7-7.2-7.5h7.2c24.2,0,45.2-16.8,50.5-40.5
		c2.9-1.9,5.7-3.9,8.4-6C285.8,243.7,285.7,244.3,285.6,244.8z"/>
	<path class="st0" d="M285.6,84.3c0,2.9,1.9,5.4,4.7,6.3c-3.4-1-6.6-2.3-9.8-4c0.6-0.3,1.3-0.7,1.9-1
		C283.5,85.1,284.5,84.7,285.6,84.3z"/>
	<path class="st0" d="M284.5,224.7c1.4,6,1.8,12.2,1.3,18.4c-2.7,2.1-5.5,4.1-8.4,6c1.4-6.2,1.6-12.6,0.7-18.8
		C280.3,228.5,282.4,226.7,284.5,224.7z"/>
	<path class="st0" d="M275.5,204.5c4.2,6.1,7.3,13,9,20.2c-2.1,1.9-4.2,3.8-6.5,5.6c-1.4-9.6-5.5-18.5-11.7-25.9
		C269.4,204.6,272.5,204.6,275.5,204.5z"/>
	<path class="st0" d="M278,230.3c0.9,6.3,0.7,12.6-0.7,18.8c-3.1,2-6.3,3.9-9.6,5.7c1.5-3.6,2.6-7.5,3-11.4c0.3-2.7,0.4-5.3,0.2-8
		C273.4,233.8,275.8,232.1,278,230.3z"/>
	<path class="st0" d="M271.1,235.5c-0.8-12.7-7-24.4-17-32.2c4,0.6,8.1,0.9,12.2,1.1c6.3,7.4,10.3,16.3,11.7,25.9
		C275.8,232.1,273.5,233.8,271.1,235.5z"/>
	<path class="st0" d="M267.8,254.8c3.3-1.8,6.5-3.7,9.6-5.7c-5.3,23.7-26.3,40.5-50.5,40.5h-7.2c0-3.7,2.5-7.4,7.2-7.5
		C244.7,281.9,260.7,271.2,267.8,254.8z"/>
	<path class="st0" d="M266.3,204.4c-7.5-8.8-17.7-14.9-29.1-17.2c-0.3-1.1-0.7-2.2-1.1-3.3c7.7,2.5,15.7,4.1,23.7,4.9
		c6.2,4.2,11.5,9.5,15.8,15.7C272.5,204.6,269.4,204.6,266.3,204.4z"/>
	<path class="st0" d="M258.6,64.7c-1-1.8-1.9-3.8-2.6-5.7c-0.5-1.1-0.9-2.2-1.2-3.4c-0.1-0.5-0.3-0.9-0.4-1.4h8.3
		c0,1.4-1.1,3.5-1.6,4.7C260.4,60.9,259.5,62.8,258.6,64.7z"/>
	<path class="st0" d="M247.8,94.4c4.4,4,8,8.7,10.7,14c-1.5,2.8-3.3,6.2-3.7,9.2c-0.4,2.5-2.1,1.4,3.8,1.4c4.9,0,4.5,1,3.5-2.1
		c-0.6-2-1.4-3.9-2.2-5.8c-0.4-0.9-0.9-1.8-1.3-2.7l0.6-1.1c3.4-6.1,7.9-11.4,13.4-15.6c2.5-2,5.2-3.7,8-5.2c3.1,1.7,6.4,3,9.8,4
		l0.6,0.2c9.3,2.7,13.3-11.8,4-14.5c5.1,1.4,8.4,6.5,7.7,11.8c-0.7,5.3-4.5,7.7-9.1,9.3c-9.5,3.3-17.1,9.3-21.8,18.2
		c-2,3.7-2.4,8.4-5.2,11.7c-3,3.4-7.9,4.5-12.2,2.7c-5-2.1-5.7-6.5-7.4-11c-1.4-3.6-3.4-6.9-5.9-9.9c-2.9-3.4-6.3-6.3-10.2-8.5
		c-3.5-2-7.5-2.6-10.9-4.5c-4.3-2.4-6.5-7.4-5.2-12.2c1.2-4.5,4.7-6.5,8.8-7.8c8-2.5,14.9-7.7,19.7-14.6c4.5-6.8,5.2-19.3,15.8-18.9
		c9.9,0.4,10.6,12.3,14.9,18.9c5,7.4,12.4,12.7,21,15c-5.8-1.6-9.5,3.4-9.3,8c-1.1,0.4-2.1,0.9-3.2,1.4c-0.7,0.3-1.3,0.6-1.9,1
		c-9.3-4.9-17-12.5-21.9-21.9c0.9-1.8,1.8-3.8,2.5-5.7c0.5-1.3,1.6-3.3,1.6-4.7h-8.3c0.1,0.5,0.3,0.9,0.4,1.4
		c0.3,1.2,0.6,2.3,1.2,3.4c0.8,1.9,1.6,3.9,2.6,5.7c-0.6,1.2-1.3,2.4-2,3.6c-3.8,6-8.8,11.1-14.6,15.2c-1.7,1.2-3.4,2.2-5.3,3.1
		c-2.5-1.3-5.1-2.4-7.8-3.3c-0.9-0.4-1.8-0.7-2.7-0.8v4.1c-1.3,3.4-1.1,4.7,0.7,4c1.4,0,3.4-1.1,4.7-1.6c1.7-0.7,3.5-1.5,5.1-2.3
		C240.7,88.8,244.4,91.4,247.8,94.4z"/>
	<path class="st0" d="M254.8,117.6c0.4-3,2.2-6.4,3.7-9.2c0.5,0.9,0.9,1.8,1.3,2.7c0.9,1.9,1.6,3.8,2.2,5.8c1,3.1,1.3,2.1-3.5,2.1
		C252.6,119,254.4,120.1,254.8,117.6z"/>
	<path class="st3" d="M258.5,108.4c-2.7-5.3-6.4-10-10.7-14c-3.4-3.1-7.1-5.7-11.1-7.8c1.8-0.9,3.6-2,5.3-3.1
		c5.8-4.1,10.8-9.2,14.6-15.2c0.7-1.2,1.4-2.4,2-3.6c4.9,9.3,12.6,17,21.9,21.9c-2.8,1.5-5.5,3.2-8,5.2c-5.5,4.2-10,9.6-13.4,15.6
		L258.5,108.4z"/>
	<path class="st0" d="M237.2,187.2c11.4,2.3,21.6,8.4,29.1,17.2c-4.1-0.2-8.2-0.6-12.2-1.1c-5.5-4.4-12-7.4-18.9-8.9
		c-2.5-0.7-4.5-2.7-5.2-5.2c-1-3-2.1-6-3.5-8.8c3.2,1.3,6.4,2.5,9.7,3.6C236.5,185,236.9,186.1,237.2,187.2z"/>
	<path class="st0" d="M244.4,185.2l-5.2-5.2c1.3,0.3,2.5,0.6,3.7,1C243.5,182.3,244,183.7,244.4,185.2z"/>
	<path class="st0" d="M231.6,88.9c-1.3,0.5-3.3,1.7-4.7,1.6c-1.8,0.8-2-0.6-0.7-4v-4.1c0.9,0.2,1.9,0.4,2.7,0.8
		c2.7,0.9,5.3,2,7.8,3.3C235,87.5,233.3,88.2,231.6,88.9z"/>
	<path class="st0" d="M173.5,135.6c28.4,2.6,52.8,21.4,62.5,48.3c-3.3-1-6.5-2.2-9.7-3.6c-9.2-18.8-26.6-32.3-47.1-36.4
		C177.2,141.2,175.3,138.4,173.5,135.6z"/>
	<path class="st0" d="M206,270.1l1.9,4.7h-6.5L206,270.1z"/>
	<path class="st0" d="M208,274.8l-2-4.7c3,0,6-0.1,8.9-0.3c-0.4,1-0.9,2-1.7,2.7l-11.9,12l-4.9,5H187l14.4-14.8L208,274.8z"/>
	<path class="st0" d="M202.7,262l3.3,8.1l-10.4-1L202.7,262z"/>
	<path class="st0" d="M195.1,269.7c3.6,0.3,7.3,0.5,11,0.5l-4.5,4.7H190L195.1,269.7z"/>
	<path class="st0" d="M206,270.1c-3.7,0-7.3-0.2-11-0.5l0.5-0.5L206,270.1z"/>
	<path class="st0" d="M190,259.8h18c5.4,0,8.6,5.5,7,10.1c-3,0.2-6,0.3-8.9,0.3l-3.4-8.1l-7,7.1l-11.1-1.1L190,259.8z"/>
	<path class="st0" d="M195.5,230.5c5.4,0,9.7,6.5,6.5,11.3c-2.8,4.2-5.6,8.4-8.5,12.6c-2.6-0.3-5.2-0.6-7.8-1.1l3-7.8h6.8l-4.1-7.1
		l-2.4-4.1l-2.7,4l-37.3-1.1l-1.4,2.4c-2.2-1.2-4.3-2.6-6.3-4c1.9-2.8,4.3-4.9,8.4-5.1C165,230,180.3,230.5,195.5,230.5z"/>
	<path class="st0" d="M201.5,274.8l-14.4,14.8h-11.8l14.7-14.8H201.5z"/>
	<path class="st0" d="M196.4,289.6l-77.4,78c0.1-0.2,0.3-0.5,0.4-0.8c2.6-5.2,5.2-10.5,7.8-15.7l59.9-61.5L196.4,289.6z"/>
	<path class="st0" d="M191.4,238.4l4.1,7.1h-6.8L191.4,238.4z"/>
	<path class="st0" d="M184.5,268l11.1,1.1l-0.5,0.5c-3.6-0.3-7.2-0.8-10.8-1.4L184.5,268z"/>
	<path class="st0" d="M193.5,254.5c-1.2,1.8-2.4,3.6-3.6,5.4h-6.7l2.5-6.5C188.3,253.8,190.9,254.2,193.5,254.5z"/>
	<path class="st0" d="M189.1,234.3l2.4,4.1l-5.1-0.1L189.1,234.3z"/>
	<path class="st0" d="M191.4,238.4l-2.7,7.1h-7.2l4.9-7.3L191.4,238.4z"/>
	<path class="st4" d="M190,274.8l-14.7,14.8h-18.7c0.3-4-2.7-7.5-6.7-7.8c-0.2,0-0.4,0-0.6,0h-17.5l15.1-25.7l6.2-10.6h28.5
		l-4.1,6.1l-8,11.9c-0.2,0.4-0.5,0.8-0.6,1.2c-1.9,4.6,2.1,10.1,7.1,10.1H190z"/>
	<path class="st0" d="M190,259.8l-5.5,8.2l-4.1-0.4l2.9-7.8H190z"/>
	<path class="st0" d="M188.7,245.5l-3,7.8c-2.8-0.5-5.6-1.1-8.3-1.8l4.1-6.1H188.7z"/>
	<path class="st0" d="M187.1,289.6l-59.9,61.5c4.3-8.7,8.5-17.3,12.8-25.9c11.8-11.9,23.5-23.8,35.3-35.6H187.1z"/>
	<path class="st0" d="M168.8,264.7c3.8,1.1,7.7,2.1,11.5,2.8l2,3.5l1.9-2.8c3.6,0.6,7.2,1.1,10.8,1.4l-5,5.2h-14.1
		C170.9,274.8,166.9,269.4,168.8,264.7z"/>
	<path class="st0" d="M186.4,238.3l-4.9,7.3h-22c-1.7-0.7-3.4-1.5-5.1-2.4c0.3-0.5,0.5-0.9,0.8-1.4l-1.6,0.9c-2-1-3.9-2.1-5.8-3.2
		l1.4-2.4L186.4,238.3z"/>
	<path class="st0" d="M180.4,267.6l4.1,0.4l-0.2,0.3C183,268.1,181.7,267.8,180.4,267.6z"/>
	<path class="st0" d="M184.3,268.3l-1.9,2.8l-2-3.5C181.7,267.8,183,268.1,184.3,268.3z"/>
	<path class="st0" d="M183.3,259.8l-2.9,7.8c-1.5-2.6-3-5.2-4.4-7.8H183.3z"/>
	<path class="st0" d="M180.4,267.6c-3.9-0.8-7.7-1.7-11.5-2.8c0.2-0.4,0.4-0.8,0.6-1.2l8-11.9c2.8,0.7,5.5,1.3,8.3,1.8l-2.5,6.5
		h-7.4C177.4,262.4,178.9,265,180.4,267.6z"/>
	<path class="st4" d="M175.3,289.6c-11.8,11.9-23.5,23.7-35.3,35.6l15.8-32.1c0.5-1.1,0.8-2.2,0.9-3.4L175.3,289.6z"/>
	<path class="st0" d="M179,143.9c-6.1-1.2-12.3-1.5-18.5-0.8c-1.4-2.3-2.8-4.6-4.1-7c3.4-0.5,6.8-0.7,10.3-0.7
		c2.3,0,4.5,0.1,6.8,0.3c1.8,2.9,3.7,5.6,5.8,8.4L179,143.9z"/>
	<path class="st0" d="M244.4,185.2c-0.5-1.4-1-2.9-1.5-4.3c6,1.7,11.7,4.4,16.9,7.9c-8-0.8-16-2.5-23.7-4.9
		c-9.7-26.9-34.1-45.7-62.6-48.3c-1.6-2.5-3-5.1-4.4-7.7c4.2,0.1,8.4,0.5,12.5,1.2c28.1,4.9,51.3,25.4,61.3,51.7
		c-1.2-0.4-2.5-0.7-3.7-1L244.4,185.2z"/>
	<path class="st0" d="M156.5,136c-1.2-2.2-2.3-4.5-3.4-6.8c5.3-0.9,10.7-1.3,16.1-1.2c1.4,2.6,2.8,5.1,4.4,7.7
		c-2.2-0.2-4.5-0.3-6.8-0.3C163.3,135.3,159.9,135.5,156.5,136z"/>
	<path class="st0" d="M169.1,127.9c-5.4-0.1-10.8,0.3-16.1,1.2c-12.9-27.7-15.9-59-8.4-88.7c5.4-3.4,11-6.4,16.8-8.9l1.5,0.6
		C151.4,63.5,153.6,98.3,169.1,127.9z"/>
	<path class="st0" d="M153.9,18.6c5.1-2.2,13.9,1.6,11,8.5c-0.7,1.7-1.4,3.4-2,5l-1.5-0.6l-11-8.5l-1.1-2.4
		C150.9,20,152.4,19.3,153.9,18.6z"/>
	<path class="st0" d="M149.3,281.8c4,0,7.3,3.2,7.4,7.3c0,0.2,0,0.4,0,0.6h-11.4l-2.4-4.1l-2,4.1h-13.7l4.6-7.9H149.3z"/>
	<path class="st0" d="M145.2,289.6h11.4c0,1.2-0.3,2.4-0.9,3.4l-15.9,32.2l-7.4,7.4l10.5-35.9h6.2
		C147.9,294.4,146.6,292,145.2,289.6z"/>
	<path class="st0" d="M105.4,168.2c11.7-17.5,30.3-29.3,51.1-32.2c1.3,2.4,2.6,4.7,4.1,7c-19.7,2-37.5,12.6-48.7,28.9
		c-1.8,2.7-5.1,4.5-8.5,3.4c-2.6-0.8-5.2-1.4-7.9-1.9c-0.8-2.7-1.6-5.3-2.2-8C97.4,166,101.5,166.9,105.4,168.2z"/>
	<path class="st0" d="M155.2,241.8c-0.3,0.5-0.5,0.9-0.8,1.4l-0.8-0.4L155.2,241.8z"/>
	<path class="st0" d="M154.4,243.2c1.7,0.8,3.4,1.6,5.1,2.4H153C153.5,244.8,153.9,244,154.4,243.2z"/>
	<path class="st0" d="M153,245.5h-4.3l4.8-2.8l0.8,0.4C153.9,244,153.5,244.8,153,245.5z"/>
	<path class="st0" d="M153.6,242.8l-4.8,2.8h4.3l-6.2,10.6c-2.2-1.1-4.4-2.3-6.6-3.5l7.4-13C149.6,240.7,151.6,241.8,153.6,242.8z"
		/>
	<path class="st0" d="M149.4,20.7l1.1,2.4c-2.4,5.6-4.3,11.4-5.8,17.4c-24.8,15.5-42.9,39.8-50.7,68c-4.3,16.2-5.1,33.1-2.2,49.5
		c-5.1-0.4-10.3-0.2-15.4,0.6C67.8,101.6,97.4,45.6,149.4,20.7L149.4,20.7z"/>
	<path class="st0" d="M145.2,289.6c1.4,2.4,2.7,4.8,4.1,7.1h-6.2L145.2,289.6z"/>
	<path class="st0" d="M147.7,239.6l-7.4,13c-2.2-1.3-4.3-2.6-6.4-4l4.1-6.9c1.2-2,2.2-4.2,3.5-6C143.4,237,145.6,238.3,147.7,239.6z
		"/>
	<path class="st0" d="M146.8,256.1l-15.1,25.7h-8.3l16.8-29.2C142.4,253.8,144.6,255,146.8,256.1z"/>
	<path class="st0" d="M142.8,285.5l2.4,4.1h-4.4L142.8,285.5z"/>
	<path class="st0" d="M145.2,289.6l-2.1,7.1h-5.8l3.5-7.1H145.2z"/>
	<path class="st2" d="M94,108.5c7.8-28.2,25.9-52.5,50.7-68c-7.5,29.6-4.6,60.9,8.4,88.6c-20.1,3.6-38.1,14.4-50.7,30.5
		c-3.5-0.8-7.1-1.3-10.6-1.6C88.9,141.5,89.7,124.6,94,108.5z"/>
	<path class="st0" d="M143.1,296.8l-10.5,35.9l-13,13.1l-11.9,12c-0.4,0.4-0.8,0.8-1.1,1.3c10.2-20.8,20.5-41.6,30.7-62.4
		L143.1,296.8z"/>
	<path class="st0" d="M140.8,289.6l-3.5,7.1h-18.6c-4-0.1-7.2-3.2-7.4-7.1h12l2,3.4l2-3.4H140.8z"/>
	<path class="st0" d="M140.3,252.5l-16.8,29.2h-4.8l2.4,4.2l-2.1,3.6h-7.8c-0.1-1.4,0.3-2.9,1-4.1c3.6-6.1,7.2-12.3,10.8-18.5
		l10.8-18.5C135.9,249.9,138.1,251.3,140.3,252.5z"/>
	<path class="st0" d="M139.9,325.3c-4.3,8.6-8.5,17.3-12.8,25.9l0,0l5.4-18.5L139.9,325.3z"/>
	<path class="st0" d="M131.8,281.8l-4.6,7.9h-4l-2.1-3.6l2.4-4.2H131.8z"/>
	<path class="st0" d="M127.2,289.6l-2,3.4l-2-3.4H127.2z"/>
	<path class="st0" d="M123.5,281.8l-2.4,4.2l-2.4-4.2H123.5z"/>
	<path class="st0" d="M121.1,286l2.1,3.6H119L121.1,286z"/>
	<path class="st0" d="M112.1,370.6c-4.4-1-8.3-5.9-5.7-11.2c0-0.1,0.1-0.1,0.1-0.2c0.3-0.5,0.7-0.9,1.1-1.3l11.9-12l13-13.1
		l-5.4,18.5l0,0c-2.6,5.2-5.2,10.5-7.8,15.7c-0.1,0.3-0.3,0.5-0.4,0.8l-0.8,0.8C116.7,370.1,114.4,370.9,112.1,370.6z"/>
	<path class="st0" d="M112.1,370.6c2.3,0.4,4.6-0.4,6.1-2.1l0.8-0.8C117.6,370.1,114.8,371.2,112.1,370.6z"/>
	<path class="st0" d="M112.1,370.6c-4.8-0.8-8.7-6.6-5.6-11.4c0,0.1-0.1,0.1-0.1,0.2C103.9,364.7,107.8,369.6,112.1,370.6z"/>
	<path class="st0" d="M107.4,161l-8.5,3.4c1.1-1.6,2.3-3.2,3.5-4.8C104.1,160,105.7,160.5,107.4,161z"/>
	<path class="st0" d="M153.1,129.1c1.1,2.3,2.2,4.6,3.4,6.8c-20.9,2.9-39.5,14.7-51.1,32.2c-3.9-1.3-8-2.2-12.1-2.6
		c-0.6-2.5-1.1-5-1.6-7.5c3.6,0.3,7.1,0.8,10.6,1.6c-1.2,1.5-2.4,3.1-3.5,4.8l8.5-3.4c-1.6-0.5-3.3-0.9-5-1.3
		C114.9,143.5,133,132.7,153.1,129.1z"/>
	<path class="st0" d="M93.3,165.6c0.7,2.7,1.4,5.3,2.2,8c-5.3-0.9-10.7-1-16.1-0.4c-0.7-2.5-1.3-4.9-1.8-7.4
		C82.8,165,88.1,165,93.3,165.6L93.3,165.6z"/>
	<path class="st0" d="M91.8,158c0.4,2.5,1,5.1,1.6,7.5c-5.2-0.6-10.5-0.5-15.6,0.2c-0.5-2.4-0.9-4.8-1.3-7.2
		C81.5,157.9,86.6,157.7,91.8,158z"/>
	<path class="st0" d="M86.2,282.1c4.8,0,7.2,3.8,7.2,7.5h-7.2c-34.4,0-62.2-27.9-62.2-62.2c0-31.1,22.9-57.4,53.7-61.6
		c0.5,2.5,1.1,4.9,1.8,7.4c-7.2,0.8-14.2,3.2-20.4,6.8c-21.5,12.5-31.9,37.8-25.6,61.8C39.8,265.5,61.7,281.9,86.2,282.1z"/>
	<path class="st0" d="M24,227.4c0,34.4,27.9,62.2,62.2,62.2h7.2c0,3.8-2.4,7.5-7.2,7.5c-17.6-0.1-34.5-6.8-47.4-18.6
		c-23.3-21.4-28.8-57.1-13.7-84.8c10.6-19.1,29.6-32.1,51.3-35.1c0.4,2.4,0.8,4.8,1.3,7.2C46.9,170,24,196.3,24,227.4z"/>
</g>
</svg>
