<?xml version="1.0" encoding="utf-8"?>
<!-- Generator: Adobe Illustrator 24.3.0, SVG Export Plug-In . SVG Version: 6.00 Build 0)  -->
<svg version="1.1" id="Layer_1" xmlns="http://www.w3.org/2000/svg" xmlns:xlink="http://www.w3.org/1999/xlink" x="0px" y="0px"
	 viewBox="0 0 371 416" style="enable-background:new 0 0 371 416;" xml:space="preserve">
<style type="text/css">
	.st0{fill:#DCDDDD;}
	.st1{fill:#231815;}
	.st2{fill:#F8B62D;}
	.st3{fill:#FAEE00;}
	.st4{fill:none;stroke:#231815;stroke-miterlimit:10;}
</style>
<g id="图层_1">
	<path class="st0" d="M264.6,183.6c3.1,1.7,6,3.6,8.8,5.7c10.8,8.3,18.8,19.7,22.9,32.6c0.7,2.5,2.7,4.5,5.2,5.2
		c22.5,4.9,38.5,25.8,35.6,49c-2.7,22.1-22,38.4-44,38.7c-4.8,0.1-7.2,3.8-7.2,7.5h-25.3l4.8-4.8l11.9-12c4.6-4.6,1.2-12.8-5.3-12.8
		h-18l12.1-18c3.2-4.8-1.1-11.3-6.5-11.3c-12.9,0-25.9-0.4-38.9-0.2c-2.3,0-4.5,0.1-6.8,0.2c-4.6,0.2-7.1,2.8-9.1,6.1
		c-1,1.6-1.9,3.3-2.8,5L187.1,300l-10.8,18.5c-0.7,1.2-1.1,2.6-1,4h-15.5c0-3.7-2.4-7.4-7.2-7.5c-24.5-0.3-46.4-16.6-52.8-40.4
		c-3.3-12.2-2.2-25.1,3-36.6c2.2-4.9,5-9.4,8.5-13.4c4-4.7,8.8-8.7,14.1-11.8c13.6-7.8,29.6-9.1,44.4-4.5c3.3,1,6.6-0.7,8.5-3.4
		c14.6-21.5,41.4-33.1,67.2-28.1c4.7,0.9,9.4,2.4,13.8,4.3c0.9,0.4,1.7,0.8,2.6,1.2S263.7,183.1,264.6,183.6z"/>
	<path class="st1" d="M168.8,192.4c18.7-24.1,49.2-35.8,79.2-30.5c3.5,0.6,7,1.5,10.4,2.6c0.4,2.7,0.7,5.5,0.9,8.3
		c-29.8-11.3-63.5-2.1-83.5,22.8l-2-1.8C172.1,193.2,170.4,192.8,168.8,192.4z"/>
	<path class="st1" d="M311.1,91c8.4-4.9,15.9,8.1,7.6,12.9l-29.1,16.8c-8.4,4.8-15.9-8.1-7.6-13L311.1,91z"/>
	<path class="st1" d="M111.2,224.5c-3.5,4-6.3,8.6-8.5,13.4c-1.8-2.2-3.5-4.5-5.1-6.8c2.5-4.8,5.7-9.2,9.3-13.1
		C108.2,220.2,109.6,222.4,111.2,224.5z"/>
	<path class="st1" d="M73.2,107.8c8.4,4.8,0.8,17.8-7.6,13l-29.1-16.9c-8.4-4.8-0.8-17.8,7.6-12.9L73.2,107.8z"/>
	<path class="st1" d="M273.6,180.1c0.4-0.9,0.7-1.9,0.8-2.9c0,1.1-0.1,2.2-0.1,3.3L273.6,180.1z"/>
	<path class="st1" d="M336.1,169.2c9.7,0,9.6,15,0,15h-33.6c-9.7,0-9.6-15,0-15H336.1z"/>
	<path class="st1" d="M52.7,169.2c9.7,0,9.6,15,0,15H19.1c-9.7,0-9.7-15,0-15H52.7z"/>
	<path class="st1" d="M273.4,189.4c0.4-2.9,0.7-5.8,0.8-8.8c14,9.4,24.3,23.3,29.3,39.4c28,5.7,46.1,33,40.4,61
		c-4.9,24.1-26.1,41.4-50.7,41.4H286c0-3.7,2.5-7.4,7.2-7.5c22-0.3,41.2-16.6,44-38.7c2.9-23.3-13.1-44.1-35.6-49
		c-2.5-0.7-4.5-2.7-5.2-5.2C292.2,209,284.2,197.6,273.4,189.4z"/>
	<path class="st1" d="M260.2,173.2c3.1-5.8,13.7-4.8,14.1,2.9c0,0.2,0,0.4,0,0.6v0.1c0,0.1,0,0.3,0,0.4v0.1c-0.1,1-0.3,2-0.8,2.9
		C269.4,177.4,264.9,175,260.2,173.2z"/>
	<path class="st1" d="M259.2,172.8l1,0.4c-0.6,1.1-0.8,2.3-0.8,3.5C259.3,175.4,259.3,174.1,259.2,172.8z"/>
	<path class="st1" d="M274.3,177.2c0-0.1,0-0.3,0-0.4C274.3,176.9,274.3,177,274.3,177.2z"/>
	<path class="st1" d="M121.6,64.8c4.8,8.4-8.1,15.9-13,7.6L91.8,43.2c-4.8-8.4,8.2-15.9,12.9-7.6L121.6,64.8z"/>
	<path class="st1" d="M274.3,176.1c-0.4-7.8-11-8.8-14.1-2.9l-1-0.4c-0.2-2.8-0.5-5.5-0.9-8.3c5.5,1.8,10.8,4.2,15.8,7.2
		C274.2,173.2,274.3,174.7,274.3,176.1z"/>
	<path class="st1" d="M210.3,85.6c36.5,13.5,61.6,47.3,63.9,86.1c-5-3-10.3-5.4-15.8-7.2c-5.4-34-31.2-61.1-64.9-68.1
		c-33.3-6.8-68.2,8.9-85.8,37.9c-13.9,23.3-15.5,51.9-4.4,76.6c-3.9,3.9-7.4,8.2-10.2,12.9c-19.3-34.5-15-78.2,10-108.8
		C128.4,84,172.6,71.8,210.3,85.6z"/>
	<path class="st1" d="M345,270.7c0-24.6-17.3-45.8-41.4-50.7c-5-16.1-15.3-30-29.3-39.4c0-1.1,0.1-2.2,0.1-3.3v-0.1
		c0-0.1,0-0.3,0-0.4v-0.1c0-0.2,0-0.4,0-0.6c0-1.5-0.1-2.9-0.2-4.4c16.1,9.7,28.4,24.5,35.1,42c-1.2-0.4-2.5-0.7-3.7-1l5.2,5.2
		c-0.5-1.5-1-2.9-1.5-4.3c27.4,7.9,46.3,35.1,42.7,63.9c-3.8,29.7-28.9,52-58.8,52.3c-4.9,0.1-7.3-3.7-7.2-7.5h7.2
		C321.8,322.4,345,299.2,345,270.7L345,270.7z"/>
	<path class="st2" d="M193.4,96.4c33.7,7,59.6,34.1,64.9,68.1c-3.4-1.1-6.8-2-10.3-2.6c-30-5.3-60.5,6.4-79.2,30.5
		c-23.6-5.4-48.2,1.6-65.5,18.5c-11.1-24.7-9.5-53.3,4.4-76.6C125.2,105.4,160.1,89.7,193.4,96.4z"/>
	<path class="st1" d="M309.3,213.7c0.5,1.4,1,2.8,1.5,4.3l-5.2-5.2C306.8,213,308,213.3,309.3,213.7z"/>
	<path class="st1" d="M260.2,173.2c4.7,1.9,9.2,4.2,13.4,7c-1.6,3.2-5.6,4.4-8.9,3.5c-1-0.5-1.9-1-2.9-1.5c-1.6-1.4-2.5-3.4-2.4-5.5
		C259.3,175.5,259.6,174.3,260.2,173.2z"/>
	<path class="st1" d="M264.6,183.6c3.3,0.9,7.3-0.2,8.9-3.5l0.6,0.4c-0.1,2.9-0.4,5.9-0.8,8.8C270.6,187.2,267.7,185.3,264.6,183.6z
		"/>
	<path class="st1" d="M259.3,176.7c-0.1,2.1,0.8,4.1,2.4,5.5c-0.8-0.4-1.7-0.8-2.6-1.2C259.3,179.5,259.3,178.1,259.3,176.7z"/>
	<path class="st1" d="M168.8,192.4c1.7,0.4,3.3,0.8,5,1.3l-8.5,3.4C166.4,195.6,167.5,194,168.8,192.4z"/>
	<path class="st1" d="M103.2,210.9c17.3-16.9,41.9-23.9,65.5-18.5c-1.2,1.5-2.4,3.1-3.5,4.8l-0.4,2c-21.3-4.3-43.3,2.8-58,18.8
		C105.5,215.7,104.3,213.3,103.2,210.9z"/>
	<path class="st1" d="M250.4,35.6c4.8-8.4,17.8-0.8,13,7.6l-16.8,29.2c-4.8,8.4-17.8,0.8-13-7.6L250.4,35.6z"/>
	<path class="st1" d="M94.7,226.7c0.9,1.5,1.9,3,2.9,4.4c-16.1,30.4-4.5,68,25.9,84.1c9,4.7,19,7.2,29.1,7.2h7.2
		c0,3.8-2.4,7.6-7.2,7.5c-17.6-0.1-34.5-6.7-47.4-18.6c-23.3-21.4-28.8-57.1-13.7-84.8c0.5-0.9,1-1.8,1.6-2.7
		C93.6,224.8,94.1,225.7,94.7,226.7z"/>
	<path class="st1" d="M97.6,231.1c1.6,2.4,3.3,4.7,5.1,6.8c-5.2,11.5-6.3,24.4-3,36.6c6.5,23.8,28.3,40.1,52.8,40.4
		c4.8,0.1,7.2,3.8,7.2,7.5h-7.2c-34.4,0-62.2-27.9-62.2-62.3C90.3,250,92.8,240,97.6,231.1L97.6,231.1z"/>
	<path class="st1" d="M125.3,212.7c-5.4,3.1-10.1,7.1-14.1,11.8c-1.5-2.1-3-4.3-4.3-6.5c14.7-15.9,36.7-23.1,58-18.8l0,0
		c2.3,0.5,4.6,1.1,6.9,1.8c1.2-1.9,2.6-3.7,4-5.4c20-24.8,53.7-34,83.5-22.8c0.1,1.3,0.1,2.6,0.1,3.9s-0.1,2.9-0.2,4.3
		c-4.4-1.9-9.1-3.4-13.8-4.3c-25.7-5-52.5,6.6-67.1,28.1c-1.9,2.7-5.1,4.5-8.5,3.4C154.9,203.6,138.9,204.9,125.3,212.7z"/>
	<path class="st1" d="M185.1,18.2v33.7c0,9.7-15,9.7-15,0V18.2C170.1,8.5,185.1,8.5,185.1,18.2z"/>
	<path class="st1" d="M65.7,232.7c8.4-4.9,15.9,8.1,7.6,13l-29.2,16.8c-8.4,4.8-15.9-8.1-7.6-13L65.7,232.7z"/>
	<path class="st1" d="M103.2,210.9c1.1,2.4,2.3,4.7,3.6,7c-3.7,4-6.8,8.4-9.3,13.1c-1-1.4-1.9-2.9-2.9-4.4c-0.6-0.9-1.1-1.9-1.6-2.9
		C95.9,219.1,99.3,214.8,103.2,210.9z"/>
	<path class="st1" d="M173.7,193.7l2,1.8c-1.4,1.7-2.7,3.5-4,5.4c-2.3-0.7-4.6-1.3-6.9-1.8l0,0l0.4-2L173.7,193.7z"/>
	<path class="st3" d="M239.5,322.4l-35.5,35.8l15.9-32.2c0.5-1.1,0.8-2.3,0.9-3.6H239.5z"/>
	<path class="st1" d="M260.7,322.4l-77.5,78.2c-1.4,2.4-4.2,3.6-6.9,2.9c-4.8-0.8-8.7-6.6-5.6-11.4l30.7-62.4h-18.6
		c-4-0.1-7.3-3.3-7.5-7.3h45.4c0,1.2-0.3,2.5-0.9,3.6l-15.9,32.2l35.5-35.8L260.7,322.4z"/>
	<path class="st3" d="M254.1,307.8c-4.8,4.9-9.7,9.8-14.5,14.7h-18.8c0.2-4-2.9-7.5-6.9-7.7c-0.1,0-0.3,0-0.4,0h-17.5l21.2-36.2
		h28.5l-12.1,18c-3.2,4.8,1.1,11.3,6.5,11.3H254.1z"/>
	<path class="st1" d="M272.1,292.8c6.5,0,9.9,8.2,5.3,12.8l-11.9,12l-4.8,4.8h-21.1c4.9-4.9,9.7-9.8,14.5-14.7H240
		c-5.4,0-9.7-6.5-6.5-11.3l12.1-18h-28.5l-21.2,36.3h17.5c4,0,7.3,3.2,7.3,7.3c0,0.1,0,0.3,0,0.4h-45.4c-0.1-1.4,0.3-2.8,1-4
		l10.8-18.5l14.9-25.4c1-1.7,1.9-3.4,2.8-5c2-3.3,4.4-6,9.1-6.1c2.3-0.1,4.5-0.1,6.8-0.2c13-0.2,26,0.2,38.9,0.2
		c5.4,0,9.7,6.5,6.5,11.3l-12.1,18L272.1,292.8z"/>
	<path class="st4" d="M274.2,171.7c-2.3-38.8-27.4-72.6-63.9-86.1C172.6,71.8,128.4,84,103,115.1c-25,30.6-29.3,74.3-10,108.8"/>
	<path class="st4" d="M103.2,210.9c-11.1-24.7-9.5-53.3,4.4-76.6c17.5-29,52.5-44.6,85.8-37.9c33.7,7,59.6,34.1,64.9,68.1"/>
	<path class="st4" d="M185.1,51.8V18.2c0-9.7-15-9.7-15,0v33.7C170.1,61.5,185.1,61.5,185.1,51.8z"/>
	<line class="st4" x1="177.6" y1="18.2" x2="177.6" y2="51.8"/>
	<path class="st4" d="M108.7,72.4c4.8,8.4,17.8,0.8,13-7.6l-16.9-29.2c-4.8-8.3-17.8-0.8-12.9,7.6L108.7,72.4z"/>
	<line class="st4" x1="115.1" y1="68.6" x2="98.3" y2="39.4"/>
	<path class="st4" d="M36.5,103.9l29.2,16.8c8.4,4.8,15.9-8.1,7.6-13L44.1,90.9C35.7,86.1,28.2,99.1,36.5,103.9z"/>
	<line class="st4" x1="40.3" y1="97.4" x2="69.4" y2="114.3"/>
	<path class="st4" d="M52.7,184.2c9.6,0,9.7-15,0-15H19.1c-9.7,0-9.7,15,0,15H52.7z"/>
	<line class="st4" x1="19.1" y1="176.7" x2="52.7" y2="176.7"/>
	<path class="st4" d="M44.1,262.4l29.1-16.8c8.4-4.8,0.8-17.8-7.6-13l-29.2,16.8C28.2,254.3,35.7,267.3,44.1,262.4z"/>
	<line class="st4" x1="40.3" y1="256" x2="69.4" y2="239.1"/>
	<path class="st4" d="M302.4,184.2h33.6c9.6,0,9.7-15,0-15h-33.6C292.8,169.2,292.8,184.2,302.4,184.2z"/>
	<line class="st4" x1="336.1" y1="176.7" x2="302.4" y2="176.7"/>
	<path class="st4" d="M289.5,120.7l29.1-16.8c8.4-4.8,0.8-17.8-7.6-12.9l-29.1,16.8C273.6,112.6,281.1,125.6,289.5,120.7z"/>
	<line class="st4" x1="285.7" y1="114.3" x2="314.9" y2="97.4"/>
	<path class="st4" d="M246.5,72.4l16.8-29.2c4.8-8.4-8.1-15.9-13-7.6l-16.8,29.2C228.7,73.1,241.6,80.7,246.5,72.4z"/>
	<line class="st4" x1="240" y1="68.6" x2="256.8" y2="39.4"/>
	<path class="st4" d="M93,223.8c-0.5,0.9-1.1,1.8-1.6,2.7c-15.2,27.6-9.6,63.4,13.7,84.8c13,11.9,29.9,18.5,47.4,18.6
		c4.9,0.1,7.3-3.7,7.2-7.5"/>
	<path class="st4" d="M168.8,192.4c-23.6-5.4-48.2,1.6-65.5,18.5"/>
	<path class="st4" d="M258.3,164.5c-3.4-1.1-6.8-2-10.3-2.6c-30-5.3-60.5,6.4-79.2,30.5"/>
	<path class="st4" d="M286,322.4c0,3.8,2.4,7.6,7.2,7.5c29.9-0.3,55-22.7,58.8-52.3c3.5-28.8-15.3-56-42.7-63.9"/>
	<path class="st4" d="M309.3,213.7c-6.7-17.5-19-32.3-35.1-42"/>
	<path class="st4" d="M309.3,213.7c0.5,1.4,1,2.8,1.5,4.3l-5.2-5.2C306.8,213,308,213.3,309.3,213.7z"/>
	<path class="st4" d="M173.7,193.7c-1.6-0.5-3.3-0.9-5-1.3c-1.2,1.5-2.4,3.1-3.5,4.8L173.7,193.7z"/>
	<path class="st4" d="M274.3,176.1c0-1.5-0.1-2.9-0.2-4.4c-5-3-10.3-5.4-15.8-7.2c0.4,2.7,0.7,5.5,0.9,8.3"/>
	<path class="st4" d="M260.2,173.2c3.1-5.8,13.7-4.8,14.1,2.9"/>
	<path class="st4" d="M106.9,217.9c-1.3-2.3-2.5-4.6-3.6-7c-3.9,3.9-7.4,8.2-10.2,12.9c0.5,1,1.1,1.9,1.6,2.9c0.9,1.5,1.9,3,2.9,4.4
		"/>
	<path class="st4" d="M274.3,177.3c-0.1,1-0.3,2-0.8,2.9"/>
	<path class="st4" d="M274.3,176.1c0,0.2,0,0.4,0,0.6v0.1c0,0.1,0,0.3,0,0.4"/>
	<path class="st4" d="M274.3,177.2c0-0.1,0-0.3,0-0.4"/>
	<path class="st4" d="M274.3,177.2L274.3,177.2"/>
	<path class="st4" d="M274.2,180.6c0-1.1,0.1-2.2,0.1-3.3"/>
	<path class="st4" d="M273.4,189.4c10.8,8.3,18.8,19.7,22.9,32.6c0.7,2.5,2.7,4.5,5.2,5.2c22.5,4.9,38.5,25.8,35.6,49
		c-2.7,22.1-22,38.4-44,38.7c-4.8,0.1-7.2,3.8-7.2,7.5h7.2c28.6,0,51.8-23.2,51.8-51.7c0-24.6-17.3-45.8-41.4-50.7
		c-5-16.1-15.3-30-29.3-39.4"/>
	<path class="st4" d="M259.2,172.8c-29.8-11.3-63.5-2.1-83.5,22.8c-1.4,1.7-2.7,3.5-4,5.4c-2.3-0.7-4.6-1.3-6.9-1.8l0,0
		c-21.3-4.3-43.3,2.8-58,18.8"/>
	<path class="st4" d="M111.2,224.5c4-4.7,8.8-8.7,14.1-11.8c13.6-7.8,29.6-9.1,44.4-4.5c3.3,1,6.6-0.7,8.5-3.4
		c14.6-21.5,41.4-33.1,67.2-28.1c4.7,0.9,9.4,2.4,13.8,4.3"/>
	<path class="st4" d="M97.6,231.1c-16.1,30.4-4.5,68,25.9,84.1c9,4.7,19,7.2,29.1,7.2h7.2c0-3.7-2.4-7.4-7.2-7.5
		c-24.5-0.3-46.4-16.6-52.8-40.4c-3.3-12.2-2.2-25.1,3-36.6"/>
	<path class="st4" d="M273.6,180.1c-4.2-2.8-8.7-5.1-13.4-7"/>
	<path class="st4" d="M261.8,182.1c1,0.5,1.9,1,2.9,1.5"/>
	<path class="st4" d="M106.9,217.9c-3.7,4-6.8,8.4-9.3,13.1c1.6,2.4,3.3,4.7,5.1,6.8c2.2-4.9,5-9.4,8.5-13.4
		C109.6,222.4,108.2,220.2,106.9,217.9z"/>
	<path class="st4" d="M260.2,173.2l-1-0.4c0.1,1.3,0.1,2.6,0.1,3.9C259.3,175.5,259.6,174.3,260.2,173.2z"/>
	<path class="st4" d="M259.3,176.7c0,1.4-0.1,2.9-0.2,4.3c0.9,0.4,1.7,0.8,2.6,1.2C260.2,180.8,259.3,178.8,259.3,176.7z"/>
	<path class="st4" d="M264.6,183.6c3.1,1.7,6,3.6,8.8,5.7c0.4-2.9,0.7-5.8,0.8-8.8l-0.6-0.4C271.9,183.4,268,184.5,264.6,183.6z"/>
	<path class="st4" d="M260.7,322.4l4.8-4.8l11.9-12c4.6-4.6,1.2-12.8-5.3-12.8h-18l12.1-18c3.2-4.8-1.1-11.3-6.5-11.3
		c-12.9,0-25.9-0.4-38.9-0.2c-2.3,0-4.5,0.1-6.8,0.2c-4.6,0.2-7.1,2.8-9.1,6.1c-1,1.6-1.9,3.3-2.8,5L187.1,300l-10.8,18.5
		c-0.7,1.2-1.1,2.6-1,4c0.1,4,3.4,7.2,7.5,7.3h18.6l-30.7,62.3c-3.1,4.8,0.8,10.6,5.6,11.4c2.7,0.7,5.5-0.5,6.9-2.9L260.7,322.4z"/>
	<path class="st4" d="M239.5,322.4l-35.5,35.8l15.9-32.2c0.5-1.1,0.8-2.3,0.9-3.6c0.2-4-2.9-7.5-6.9-7.7c-0.1,0-0.3,0-0.4,0h-17.5
		l21.2-36.2h28.5l-12.1,18c-3.2,4.8,1.1,11.3,6.5,11.3h14C249.2,312.7,244.4,317.5,239.5,322.4z"/>
</g>
</svg>
