<?xml version="1.0" encoding="utf-8"?>
<!-- Generator: Adobe Illustrator 24.3.0, SVG Export Plug-In . SVG Version: 6.00 Build 0)  -->
<svg version="1.1" id="Layer_1" xmlns="http://www.w3.org/2000/svg" xmlns:xlink="http://www.w3.org/1999/xlink" x="0px" y="0px"
	 viewBox="0 0 16 16" enable-background="new 0 0 16 16" xml:space="preserve">
<g id="XMLID_9_">
	<g>
		<path fill="#DCDDDC" d="M12.6,5.3C13.9,5.5,15,6.6,15,8c0,1.5-1.2,2.8-2.8,2.8H4.3C2.5,10.8,1,9.3,1,7.5s1.5-3.3,3.3-3.3
			c0.4,0,0.8,0.1,1.1,0.2c0.7-1.2,1.9-1.9,3.4-1.9C10.6,2.4,12.1,3.6,12.6,5.3z"/>
	</g>
	<g>
	</g>
</g>
<g id="XMLID_8_">
	<g>
	</g>
	<g>
		
			<path fill="none" stroke="#231714" stroke-width="0.65" stroke-linecap="round" stroke-linejoin="round" stroke-miterlimit="10" d="
			M12.2,10.8c1.5,0,2.8-1.2,2.8-2.8c0-1.4-1.1-2.6-2.4-2.8c-0.4-1.7-2-2.9-3.8-2.9c-1.4,0-2.7,0.8-3.4,2C5.1,4.2,4.7,4.2,4.3,4.2
			C2.5,4.2,1,5.7,1,7.5c0,1.8,1.4,3.3,3.2,3.3"/>
	</g>
</g>
<path fill="#F5AF1A" stroke="#221413" stroke-width="0.4" stroke-linecap="round" stroke-linejoin="round" stroke-miterlimit="10" d="
	M10.1,9.3c0.3,0.2,0.6,0.3,0.8,0.5c-0.6,1-1.2,2.1-1.3,2.2c-0.5,0.8-0.9,1.6-1.4,2.5c0,0,0,0.1-0.1,0.1l-0.1,0
	c0.7-2.2,1.2-4.2,1.3-4.2C8.7,10.2,8.2,10,7.7,9.9c0.2-0.5,0.4-0.9,0.4-1C8.1,8.7,8.4,8,8.8,7.1l2.5,0.4C11.2,7.7,11,7.9,10.9,8
	C10.8,8.2,10.1,9.3,10.1,9.3z"/>
<g>
	
		<circle fill="#FFFFFF" stroke="#221413" stroke-width="0.2" stroke-linecap="round" stroke-linejoin="round" stroke-miterlimit="10" cx="7" cy="13.4" r="0.5"/>
	
		<circle fill="#FFFFFF" stroke="#221413" stroke-width="0.2" stroke-linecap="round" stroke-linejoin="round" stroke-miterlimit="10" cx="5.1" cy="13.3" r="0.5"/>
	
		<circle fill="#FFFFFF" stroke="#221413" stroke-width="0.2" stroke-linecap="round" stroke-linejoin="round" stroke-miterlimit="10" cx="6.1" cy="12" r="0.5"/>
</g>
</svg>
