<?xml version="1.0" encoding="utf-8"?>
<!-- Generator: Adobe Illustrator 24.3.0, SVG Export Plug-In . SVG Version: 6.00 Build 0)  -->
<svg version="1.1" id="Layer_1" xmlns="http://www.w3.org/2000/svg" xmlns:xlink="http://www.w3.org/1999/xlink" x="0px" y="0px"
	 viewBox="0 0 307 278" style="enable-background:new 0 0 307 278;" xml:space="preserve">
<style type="text/css">
	.st0{fill:#DCDDDD;}
	.st1{fill:#231815;}
	.st2{fill:#FFFFFF;}
</style>
<g id="图层_1">
	<path class="st0" d="M227.6,179.9c28.6,0,51.8-23.2,51.8-51.7c0-24.6-17.3-45.8-41.4-50.7c-12-38.9-53.3-60.7-92.2-48.6
		c-16.2,5-30.2,15.5-39.6,29.6c-32.7-10.6-67.8,7.3-78.4,40s7.3,67.8,40,78.4c6.2,2,12.7,3,19.2,3"/>
	<path class="st1" d="M227.6,187.4c29.9-0.3,55-22.7,58.8-52.3c3.7-30-17-58.5-46.5-64.9l5.2,5.2c-9.1-28.4-33.2-50.8-62.8-56
		c-32.1-5.7-64.5,8.2-82.7,35.2l8.5-3.4C76.7,41.5,41.7,55,25.8,84c-15.2,27.6-9.6,63.4,13.7,84.8c13,11.9,29.9,18.5,47.4,18.6
		c9.7,0.1,9.7-14.9,0-15c-24.5-0.3-46.4-16.6-52.8-40.4c-6.4-24,4.1-49.3,25.6-61.9c13.6-7.8,29.5-9.1,44.4-4.5
		c3.3,1,6.6-0.7,8.5-3.4C127.2,40.6,154,29,179.7,34.1c24,4.7,43.5,22,51,45.3c0.7,2.5,2.7,4.5,5.2,5.2c22.5,4.9,38.5,25.8,35.6,49
		c-2.7,22.1-22,38.4-44,38.7C217.9,172.4,217.9,187.4,227.6,187.4L227.6,187.4z"/>
	<circle class="st2" cx="128.2" cy="179.9" r="17.6"/>
	<path class="st1" d="M138.4,179.9c-0.5,13.1-20.2,13-20.2,0S137.8,166.8,138.4,179.9c0.4,9.6,15.4,9.7,15,0
		c-0.5-13.7-11.1-25.1-25.1-25.1c-13.9,0-25.1,11.2-25.1,25.1c0,13.9,11.2,25.1,25.1,25.1c0,0,0,0,0,0c14,0,24.6-11.5,25.1-25.1
		C153.7,170.2,138.7,170.2,138.4,179.9z"/>
	<circle class="st2" cx="186.9" cy="179.9" r="17.6"/>
	<path class="st1" d="M197,179.9c-0.5,13.1-20.2,13-20.2,0S196.5,166.8,197,179.9c0.4,9.6,15.4,9.7,15,0
		c-0.5-13.7-11.1-25.1-25.1-25.1c-13.9,0-25.1,11.2-25.1,25.1c0,13.9,11.2,25.1,25.1,25.1c0,0,0,0,0,0c14,0,24.6-11.5,25.1-25.1
		C212.4,170.2,197.3,170.2,197,179.9z"/>
	<circle class="st2" cx="98.9" cy="235.1" r="17.6"/>
	<path class="st1" d="M109.1,235.1c-0.5,13.1-20.2,13-20.2,0S108.5,222,109.1,235.1c0.4,9.6,15.4,9.7,15,0
		C123.5,221.4,113,210,98.9,210c-13.9,0-25.1,11.3-25.1,25.1c0,13.9,11.2,25.1,25.1,25.1c14,0,24.6-11.5,25.1-25.1
		C124.4,225.5,109.4,225.5,109.1,235.1z"/>
	
		<ellipse transform="matrix(0.1602 -0.9871 0.9871 0.1602 -99.7709 352.9738)" class="st2" cx="157.6" cy="235.1" rx="17.6" ry="17.6"/>
	<path class="st1" d="M167.7,235.1c-0.5,13.1-20.2,13-20.2,0S167.2,222,167.7,235.1c0.4,9.6,15.4,9.7,15,0
		c-0.5-13.7-11.1-25.1-25.1-25.1c-13.9,0-25.1,11.3-25.1,25.1c0,13.9,11.2,25.1,25.1,25.1c14,0,24.6-11.5,25.1-25.1
		C183,225.5,168,225.5,167.7,235.1z"/>
	<circle class="st2" cx="216.2" cy="235.1" r="17.6"/>
	<path class="st1" d="M226.3,235.1c-0.5,13.1-20.2,13-20.2,0S225.8,222,226.3,235.1c0.4,9.6,15.4,9.7,15,0
		c-0.5-13.7-11.1-25.1-25.1-25.1c-13.9,0-25.1,11.3-25.1,25.1c0,13.9,11.2,25.1,25.1,25.1c14,0,24.6-11.5,25.1-25.1
		C241.6,225.5,226.6,225.5,226.3,235.1z"/>
</g>
</svg>
