<?xml version="1.0" encoding="utf-8"?>
<!-- Generator: Adobe Illustrator 24.3.0, SVG Export Plug-In . SVG Version: 6.00 Build 0)  -->
<svg version="1.1" id="Layer_1" xmlns="http://www.w3.org/2000/svg" xmlns:xlink="http://www.w3.org/1999/xlink" x="0px" y="0px"
	 viewBox="0 0 310 277" style="enable-background:new 0 0 310 277;" xml:space="preserve">
<style type="text/css">
	.st0{fill:#DCDDDD;}
	.st1{fill:#231815;}
	.st2{fill:#FFFFFF;}
</style>
<g id="图层_1">
	<path class="st0" d="M228.6,177.9c28.6,0,51.8-23.2,51.8-51.7c0-24.6-17.3-45.8-41.4-50.7c-12-38.9-53.3-60.7-92.2-48.6
		c-16.2,5-30.2,15.5-39.6,29.6c-32.7-10.6-67.8,7.3-78.4,40s7.3,67.8,40,78.4c6.2,2,12.7,3,19.2,3"/>
	<path class="st1" d="M228.6,185.4c29.9-0.3,55-22.7,58.8-52.3c3.7-30-17-58.5-46.5-64.9l5.2,5.2c-9.1-28.4-33.2-50.8-62.8-56
		c-32.1-5.7-64.5,8.2-82.7,35.2l8.5-3.4C77.7,39.5,42.7,53,26.8,82c-15.2,27.6-9.6,63.4,13.7,84.8c13,11.9,29.9,18.5,47.4,18.6
		c9.7,0.1,9.7-14.9,0-15c-24.5-0.3-46.4-16.6-52.8-40.4c-6.4-24,4.1-49.3,25.6-61.9c13.6-7.8,29.5-9.1,44.4-4.5
		c3.3,1,6.6-0.7,8.5-3.4C128.2,38.6,155,27,180.7,32.1c24,4.7,43.5,22,51,45.3c0.7,2.5,2.7,4.5,5.2,5.2c22.5,4.9,38.5,25.8,35.6,49
		c-2.7,22.1-22,38.4-44,38.7C218.9,170.4,218.9,185.4,228.6,185.4L228.6,185.4z"/>
	<circle class="st2" cx="129.2" cy="177.9" r="17.6"/>
	<path class="st1" d="M139.4,177.9c-0.5,13.1-20.2,13-20.2,0S138.8,164.8,139.4,177.9c0.4,9.6,15.4,9.7,15,0
		c-0.5-13.7-11.1-25.1-25.1-25.1c-13.9,0-25.1,11.2-25.1,25.1c0,13.9,11.2,25.1,25.1,25.1c0,0,0,0,0,0c14,0,24.6-11.5,25.1-25.1
		C154.7,168.2,139.7,168.2,139.4,177.9z"/>
	<circle class="st2" cx="187.9" cy="177.9" r="17.6"/>
	<path class="st1" d="M198,177.9c-0.5,13.1-20.2,13-20.2,0S197.5,164.8,198,177.9c0.4,9.6,15.4,9.7,15,0
		c-0.5-13.7-11.1-25.1-25.1-25.1c-13.9,0-25.1,11.2-25.1,25.1c0,13.9,11.2,25.1,25.1,25.1c0,0,0,0,0,0c14,0,24.6-11.5,25.1-25.1
		C213.4,168.2,198.3,168.2,198,177.9z"/>
	<circle class="st2" cx="99.9" cy="233.1" r="17.6"/>
	<path class="st1" d="M110.1,233.1c-0.5,13.1-20.2,13-20.2,0S109.5,220,110.1,233.1c0.4,9.6,15.4,9.7,15,0
		C124.5,219.4,114,208,99.9,208c-13.9,0-25.1,11.3-25.1,25.1c0,13.9,11.2,25.1,25.1,25.1c14,0,24.6-11.5,25.1-25.1
		C125.4,223.5,110.4,223.5,110.1,233.1z"/>
	
		<ellipse transform="matrix(0.1602 -0.9871 0.9871 0.1602 -96.9569 352.2812)" class="st2" cx="158.6" cy="233.1" rx="17.6" ry="17.6"/>
	<path class="st1" d="M168.7,233.1c-0.5,13.1-20.2,13-20.2,0S168.2,220,168.7,233.1c0.4,9.6,15.4,9.7,15,0
		c-0.5-13.7-11.1-25.1-25.1-25.1c-13.9,0-25.1,11.3-25.1,25.1c0,13.9,11.2,25.1,25.1,25.1c14,0,24.6-11.5,25.1-25.1
		C184,223.5,169,223.5,168.7,233.1z"/>
	<circle class="st2" cx="217.2" cy="233.1" r="17.6"/>
	<path class="st1" d="M227.3,233.1c-0.5,13.1-20.2,13-20.2,0S226.8,220,227.3,233.1c0.4,9.6,15.4,9.7,15,0
		c-0.5-13.7-11.1-25.1-25.1-25.1c-13.9,0-25.1,11.3-25.1,25.1c0,13.9,11.2,25.1,25.1,25.1c14,0,24.6-11.5,25.1-25.1
		C242.6,223.5,227.6,223.5,227.3,233.1z"/>
</g>
</svg>
