<?xml version="1.0" encoding="utf-8"?>
<!-- Generator: Adobe Illustrator 24.3.0, SVG Export Plug-In . SVG Version: 6.00 Build 0)  -->
<svg version="1.1" id="Layer_1" xmlns="http://www.w3.org/2000/svg" xmlns:xlink="http://www.w3.org/1999/xlink" x="0px" y="0px"
	 viewBox="0 0 16 16" enable-background="new 0 0 16 16" xml:space="preserve">
<g id="XMLID_9_">
	<g>
		<path fill="#DCDDDC" d="M12.6,4.8C13.9,5,15,6.1,15,7.5c0,1.5-1.2,2.8-2.8,2.8H4.3C2.5,10.3,1,8.8,1,7s1.5-3.3,3.3-3.3
			c0.4,0,0.8,0.1,1.1,0.2C6.1,2.7,7.3,2,8.8,2C10.6,1.9,12.1,3.1,12.6,4.8z"/>
	</g>
</g>
<g id="XMLID_8_">
	<g>
		
			<path fill="none" stroke="#231714" stroke-width="0.65" stroke-linecap="round" stroke-linejoin="round" stroke-miterlimit="10" d="
			M12.2,10.3c1.5,0,2.8-1.2,2.8-2.8c0-1.4-1.1-2.6-2.4-2.8c-0.4-1.7-2-2.9-3.8-2.9c-1.4,0-2.7,0.8-3.4,2C5.1,3.7,4.7,3.7,4.3,3.7
			C2.5,3.7,1,5.2,1,7s1.4,3.3,3.2,3.3"/>
	</g>
</g>
<g>
	
		<circle fill="#FFFFFF" stroke="#221413" stroke-width="0.2" stroke-linecap="round" stroke-linejoin="round" stroke-miterlimit="10" cx="11" cy="13.7" r="0.5"/>
	
		<circle fill="#FFFFFF" stroke="#221413" stroke-width="0.2" stroke-linecap="round" stroke-linejoin="round" stroke-miterlimit="10" cx="9.1" cy="13.6" r="0.5"/>
	
		<circle fill="#FFFFFF" stroke="#221413" stroke-width="0.2" stroke-linecap="round" stroke-linejoin="round" stroke-miterlimit="10" cx="10.2" cy="12.3" r="0.5"/>
	
		<circle fill="#FFFFFF" stroke="#221413" stroke-width="0.2" stroke-linecap="round" stroke-linejoin="round" stroke-miterlimit="10" cx="6.9" cy="13.6" r="0.5"/>
	
		<circle fill="#FFFFFF" stroke="#221413" stroke-width="0.2" stroke-linecap="round" stroke-linejoin="round" stroke-miterlimit="10" cx="7.9" cy="12.3" r="0.5"/>
	
		<circle fill="#FFFFFF" stroke="#221413" stroke-width="0.2" stroke-linecap="round" stroke-linejoin="round" stroke-miterlimit="10" cx="4.6" cy="13.6" r="0.5"/>
	
		<circle fill="#FFFFFF" stroke="#221413" stroke-width="0.2" stroke-linecap="round" stroke-linejoin="round" stroke-miterlimit="10" cx="5.7" cy="12.3" r="0.5"/>
</g>
<path fill="#F5AF1A" stroke="#221413" stroke-width="0.4" stroke-linecap="round" stroke-linejoin="round" stroke-miterlimit="10" d="
	M10.1,8.8c0.3,0.2,0.6,0.3,0.8,0.5c-0.6,1-1.2,2.1-1.3,2.2c-0.5,0.8-0.9,1.6-1.4,2.5c0,0,0,0.1-0.1,0.1H8c0.7-2.2,1.2-4.2,1.3-4.2
	C8.7,9.7,8.2,9.5,7.7,9.4c0.2-0.5,0.4-0.9,0.4-1c0-0.2,0.3-0.9,0.7-1.8L11.3,7c-0.1,0.2-0.3,0.4-0.4,0.5C10.8,7.7,10.1,8.8,10.1,8.8
	z"/>
</svg>
